<svg clip-rule="evenodd" fill-rule="evenodd" stroke-linejoin="round" stroke-miterlimit="1.41421" viewBox="0 0 267 267" xmlns="http://www.w3.org/2000/svg"><path d="m248.082 4.588c7.855 0 14.223 6.367 14.223 14.224v229.27c0 7.856-6.369 14.225-14.223 14.225h-65.673v-99.803h33.499l5.016-38.895h-38.515v-24.832c0-11.261 3.127-18.935 19.275-18.935l20.596-.009v-34.788c-3.562-.474-15.788-1.533-30.012-1.533-29.695 0-50.025 18.126-50.025 51.413v28.684h-33.585v38.895h33.585v99.803h-123.431c-7.858 0-14.224-6.37-14.224-14.225v-229.27c0-7.857 6.367-14.224 14.224-14.224h229.27z" fill="#e1e5e9"/></svg>