<svg clip-rule="evenodd" fill-rule="evenodd" stroke-linejoin="round" stroke-miterlimit="1.41421" viewBox="0 0 200 200" xmlns="http://www.w3.org/2000/svg" xmlns:xlink="http://www.w3.org/1999/xlink"><linearGradient id="a"><stop offset="0" stop-color="#53c805"/><stop offset=".5" stop-color="#3e9404"/><stop offset="1" stop-color="#59d506"/></linearGradient><linearGradient id="b" gradientTransform="matrix(61.8447 -62.0694 97.7145 97.3609 39.1472 99.8994)" gradientUnits="userSpaceOnUse" x1="0" x2="1" xlink:href="#a" y1="0" y2="0"/><linearGradient id="c" gradientTransform="matrix(84.0422 5.0873 -7.82495 129.268 102.801 57.0289)" gradientUnits="userSpaceOnUse" x1="0" x2="1" xlink:href="#a" y1="0" y2="0"/><linearGradient id="d" gradientTransform="matrix(-29.4123 -82.8036 115.915 -41.1738 76.3079 194.454)" gradientUnits="userSpaceOnUse" x1="0" x2="1" xlink:href="#a" y1="0" y2="0"/><linearGradient id="e"><stop offset="0" stop-color="#d21b1b"/><stop offset="1" stop-color="#ff0505"/></linearGradient><linearGradient id="f" gradientTransform="matrix(21.5249 -21.6031 21.5998 21.5216 104.154 151.225)" gradientUnits="userSpaceOnUse" x1="0" x2="1" xlink:href="#e" y1="0" y2="0"/><linearGradient id="g" gradientTransform="matrix(21.5249 -21.6031 21.5998 21.5216 99.6953 121.14)" gradientUnits="userSpaceOnUse" x1="0" x2="1" xlink:href="#e" y1="0" y2="0"/><linearGradient id="h" gradientTransform="matrix(21.5249 -21.6031 21.5998 21.5216 129.212 132.359)" gradientUnits="userSpaceOnUse" x1="0" x2="1" xlink:href="#e" y1="0" y2="0"/><path d="m27.011 25.962c22.425 9.587 43.961 10.521 56.717-2.282-.186 13.632.992 16.986 9.119 26.553 4.759 5.602 10.86 8.515 22.839 10.34-12.756 12.802-10.681 30.344-1.012 52.734-22.425-9.587-40.98-10.286-53.736 2.517-1.563-7.329-1.102-12.166-10.251-23.277-7.672-9.316-17.466-11.638-24.539-11.078 12.757-12.803 10.531-33.117.863-55.507z" fill="url(#b)"/><path d="m111.495 110.569c-28.736-33.942-58.566-60.62-80.025-79.736" fill="#143001"/><path d="m148.27 2.61c7.383 21.753 20.426 37.511 37.761 38.56-9.927 8.325-11.591 11.236-13.298 22.9-1 6.829.789 12.936 7.105 22.511-17.335-1.049-28.635 11.295-38.588 31.999-7.382-21.753-18.695-35.264-36.031-36.314 4.279-5.648 8.053-8.324 10.22-21.664 1.818-11.187-2.748-19.53-7.656-24.168 17.336 1.049 30.535-13.121 40.487-33.824z" fill="url(#c)"/><path d="m141.196 114.641c6.122-41.31 6.32-78.883 6.409-105.867" fill="#143001"/><path d="m10.67 169.784c20.272-13.867 24.348-32.38 18.281-49.46 11.261 6.418 14.47 6.922 25.332 4.171 6.36-1.61 10.967-5.633 16.776-15.32 6.066 17.08 21.386 23.304 43.455 25.083-16.002 15.301-23.232 31.28-17.165 48.36-6.65-1.99-10.504-4.614-23.015-1.674-10.49 2.465-15.929 10.004-17.998 16.474-6.067-17.079-20.538-28.927-45.666-27.634z" fill="url(#d)"/><path d="m109.276 138.123c-38.501 9.673-67.058 19.345-90.632 29.427" fill="#143001"/><path d="m104.117 129.663c5.94-5.962 15.602-5.98 21.562-.041 5.961 5.939 5.978 15.601.038 21.562-5.94 5.962-15.602 5.98-21.563.041-5.96-5.939-5.977-15.601-.037-21.562z" fill="url(#f)"/><path d="m99.658 99.578c5.94-5.962 15.601-5.98 21.562-.041s5.978 15.601.038 21.563c-5.94 5.961-15.602 5.979-21.563.04-5.96-5.939-5.977-15.6-.037-21.562z" fill="url(#g)"/><path d="m129.175 110.796c5.94-5.961 15.602-5.979 21.562-.04 5.961 5.939 5.978 15.601.038 21.562-5.94 5.962-15.602 5.98-21.563.041-5.96-5.939-5.977-15.601-.037-21.563z" fill="url(#h)"/></svg>