<?xml version="1.0" encoding="UTF-8" standalone="no"?><!DOCTYPE svg PUBLIC "-//W3C//DTD SVG 1.1//EN" "http://www.w3.org/Graphics/SVG/1.1/DTD/svg11.dtd"><svg width="100%" height="100%" viewBox="0 0 50 55" version="1.1" xmlns="http://www.w3.org/2000/svg" xmlns:xlink="http://www.w3.org/1999/xlink" xml:space="preserve" style="fill-rule:evenodd;clip-rule:evenodd;stroke-linecap:round;stroke-linejoin:round;stroke-miterlimit:1.5;"><path d="M47.21,17.964l-14.941,0l0,-15.203c0,0 -12.307,-0.034 -23.059,0l0,50.069l38,0l0,-34.866Z" style="fill:none;stroke:#4b4b4b;stroke-width:3px;"/><path d="M23.529,1.247l2.968,0.003l2.478,0.004l3.02,0.006l0.092,0.003l0.11,0.008l0.11,0.014l0.108,0.02l0.107,0.025l0.105,0.03l0.104,0.035l0.101,0.04l0.099,0.045l0.098,0.05l0.094,0.055l0.092,0.059l0.09,0.065l0.086,0.069l0.083,0.073l0.065,0.064l6.669,6.862l7.844,7.906l0.066,0.07l0.074,0.086l0.069,0.09l0.065,0.092l0.06,0.096l0.055,0.098l0.05,0.1l0.045,0.103l0.04,0.105l0.036,0.107l0.029,0.108l0.025,0.11l0.019,0.111l0.014,0.113l0.009,0.113l0.002,0.096l0,36.049l-41,0l0,-53.065l3.341,-0.009l1.86,-0.004l1.86,-0.003l1.844,-0.002l1.813,-0.001l1.767,0l3.334,0.001Zm-5.1,2.999l-1.812,0.001l-1.843,0.002l-1.858,0.003l-1.858,0.004l-0.348,0.001l0,47.073l35,0l0,-32.748l-7.643,-7.703l-6.433,-6.62l-2.665,-0.005l-2.476,-0.004l-2.966,-0.003l-3.332,-0.001l-1.766,0Z" style="fill:#4b4b4b;"/><g><path d="M18.966,42.354c2.087,-0.659 4.18,-0.064 4.67,1.328c0.491,1.392 -0.806,3.057 -2.893,3.716c-2.087,0.659 -4.18,0.064 -4.67,-1.328c-0.491,-1.392 0.806,-3.058 2.893,-3.716Z" style="fill:#4b4b4b;"/><path d="M37.152,24.114l-14.952,2.657l0,3.153l14.952,-2.582l0,-3.228Z" style="fill:#4b4b4b;"/><rect x="22.2" y="29.608" width="1.535" height="14.609" style="fill:#4b4b4b;"/><path d="M32.392,39.329c2.088,-0.659 4.18,-0.063 4.671,1.329c0.49,1.392 -0.806,3.057 -2.893,3.716c-2.087,0.659 -4.18,0.063 -4.67,-1.329c-0.491,-1.392 0.805,-3.057 2.892,-3.716Z" style="fill:#4b4b4b;"/><rect x="35.661" y="26.583" width="1.491" height="14.609" style="fill:#4b4b4b;"/></g><rect x="2.254" y="8.997" width="25.646" height="12.805" style="fill:#fff;stroke:#4b4b4b;stroke-width:1px;stroke-linecap:square;"/><text x="4.462px" y="19.214px" style="font-family:'ArialRoundedMTBold', 'Arial Rounded MT Bold', sans-serif;font-size:10.471px;fill:#4b4b4b;">PDF</text></svg>