<svg clip-rule="evenodd" fill-rule="evenodd" stroke-linejoin="round" stroke-miterlimit="1.41421" viewBox="0 0 512 512" xmlns="http://www.w3.org/2000/svg"><path d="m512 97.209c-18.838 8.354-39.082 14.001-60.329 16.54 21.687-13 38.343-33.585 46.187-58.114-20.299 12.038-42.778 20.779-66.705 25.489-19.16-20.415-46.461-33.17-76.674-33.17-58.012 0-105.043 47.029-105.043 105.039 0 8.233.929 16.25 2.72 23.939-87.3-4.382-164.701-46.2-216.509-109.753-9.042 15.514-14.224 33.558-14.224 52.809 0 36.444 18.544 68.596 46.73 87.433-17.219-.546-33.416-5.271-47.577-13.139-.01.438-.01.878-.01 1.321 0 50.894 36.209 93.348 84.261 103-8.813 2.398-18.094 3.686-27.674 3.686-6.77 0-13.349-.66-19.764-1.887 13.367 41.73 52.159 72.104 98.126 72.949-35.95 28.175-81.243 44.967-130.458 44.967-8.479 0-16.841-.497-25.059-1.471 46.486 29.806 101.701 47.197 161.021 47.197 193.211 0 298.868-160.063 298.868-298.873 0-4.554-.104-9.084-.305-13.59 20.528-14.808 38.336-33.308 52.418-54.372z" fill="#e1e5e9" fill-rule="nonzero"/></svg>