<?xml version="1.0" encoding="UTF-8" standalone="no"?>
<!DOCTYPE svg PUBLIC "-//W3C//DTD SVG 1.1//EN" "http://www.w3.org/Graphics/SVG/1.1/DTD/svg11.dtd">
<svg width="100%" height="100%" viewBox="0 0 512 512" version="1.1" xmlns="http://www.w3.org/2000/svg" xmlns:xlink="http://www.w3.org/1999/xlink" xml:space="preserve" xmlns:serif="http://www.serif.com/" style="fill-rule:evenodd;clip-rule:evenodd;stroke-linejoin:round;stroke-miterlimit:2;">
    <path d="M512,97.209C493.162,105.563 472.918,111.21 451.671,113.749C473.358,100.749 490.014,80.164 497.858,55.635C477.559,67.673 455.08,76.414 431.153,81.124C411.993,60.709 384.692,47.954 354.479,47.954C296.467,47.954 249.436,94.983 249.436,152.993C249.436,161.226 250.365,169.243 252.156,176.932C164.856,172.55 87.455,130.732 35.647,67.179C26.605,82.693 21.423,100.737 21.423,119.988C21.423,156.432 39.967,188.584 68.153,207.421C50.934,206.875 34.737,202.15 20.576,194.282C20.566,194.72 20.566,195.16 20.566,195.603C20.566,246.497 56.775,288.951 104.827,298.603C96.014,301.001 86.733,302.289 77.153,302.289C70.383,302.289 63.804,301.629 57.389,300.402C70.756,342.132 109.548,372.506 155.515,373.351C119.565,401.526 74.272,418.318 25.057,418.318C16.578,418.318 8.216,417.821 -0.002,416.847C46.484,446.653 101.699,464.044 161.019,464.044C354.23,464.044 459.887,303.981 459.887,165.171C459.887,160.617 459.783,156.087 459.582,151.581C480.11,136.773 497.918,118.273 512,97.209Z" style="fill:white;fill-rule:nonzero;"/>
</svg>
