<?xml version="1.0" encoding="UTF-8" standalone="no"?><!DOCTYPE svg PUBLIC "-//W3C//DTD SVG 1.1//EN" "http://www.w3.org/Graphics/SVG/1.1/DTD/svg11.dtd"><svg width="100%" height="100%" viewBox="0 0 512 512" version="1.1" xmlns="http://www.w3.org/2000/svg" xmlns:xlink="http://www.w3.org/1999/xlink" xml:space="preserve" style="fill-rule:evenodd;clip-rule:evenodd;stroke-linejoin:round;stroke-miterlimit:1.41421;"><path d="M366.375,457.673l-220.75,0c-34.921,0 -63.273,-28.352 -63.273,-63.273l0,-126.547c0,-32.417 24.431,-59.173 55.87,-62.843l0,-42.073l0,0c0.001,-31.395 12.473,-61.504 34.673,-83.704c46.198,-46.199 121.213,-46.199 167.412,0c22.193,22.193 34.664,52.29 34.672,83.675l0,0.031l0,0l0,42.224c30.858,4.202 54.669,30.687 54.669,62.69l0,126.547c0,34.921 -28.351,63.272 -63.273,63.273Zm-137.968,-47.246c-2.435,-5.343 -3.923,-8.691 -4.464,-10.044l-6.189,-14.306c-1.894,-4.397 -3.518,-7.982 -4.87,-10.755l-3.754,-7.61c-7.238,-14.339 -15.794,-24.452 -25.67,-30.336c11.567,-9.741 21.882,-14.611 30.946,-14.611c6.02,0 10.754,2.317 14.204,6.95c3.45,4.634 6.392,12.666 8.827,24.097c17.587,-33.347 31.284,-56.378 41.092,-69.095c8.793,-11.431 16.318,-19.006 22.575,-22.727c6.257,-3.72 14.559,-5.58 24.908,-5.58c6.494,0 13.528,1.251 21.104,3.754c-17.654,11.567 -36.915,30.573 -57.782,57.021c-20.867,26.447 -41.176,57.528 -60.927,93.242Zm100.352,-205.847l0,-41.645c-0.001,-19.136 -7.603,-37.488 -21.135,-51.019c-28.16,-28.161 -73.886,-28.161 -102.047,0c-13.532,13.532 -21.134,31.886 -21.134,51.023l0,41.641l144.316,0Z" style="fill:#3c3c3c;"/></svg>