<?xml version="1.0" encoding="UTF-8" standalone="no"?><!DOCTYPE svg PUBLIC "-//W3C//DTD SVG 1.1//EN" "http://www.w3.org/Graphics/SVG/1.1/DTD/svg11.dtd"><svg width="100%" height="100%" viewBox="0 0 600 600" version="1.1" xmlns="http://www.w3.org/2000/svg" xmlns:xlink="http://www.w3.org/1999/xlink" xml:space="preserve" style="fill-rule:evenodd;clip-rule:evenodd;stroke-linejoin:round;stroke-miterlimit:1.41421;"><g><path d="M48.017,148.021l251.983,-125.944l251.983,125.944l-251.983,125.986l-251.983,-125.986Zm168.055,0.152l84.357,-42.163l84.357,42.163l-84.357,42.176l-84.357,-42.176Z" style="fill:#d9d9d9;"/><path d="M38.017,165.021l251.983,125.986l0,307.916l-251.983,-126.002l0,-307.9Zm84.133,144.932l83.523,41.537l0,102.743l-83.523,-41.766l0,-102.514Z" style="fill:#fff;"/><path d="M561.983,165.021l-251.983,125.986l0,307.916l251.983,-126.002l0,-307.9Zm-84.498,144.932l-83.523,41.537l0,102.743l83.523,-41.766l0,-102.514Z" style="fill:#b4b4b4;"/></g></svg>