<?xml version="1.0" encoding="UTF-8" standalone="no"?><!DOCTYPE svg PUBLIC "-//W3C//DTD SVG 1.1//EN" "http://www.w3.org/Graphics/SVG/1.1/DTD/svg11.dtd"><svg width="100%" height="100%" viewBox="0 0 267 267" version="1.1" xmlns="http://www.w3.org/2000/svg" xmlns:xlink="http://www.w3.org/1999/xlink" xml:space="preserve" xmlns:serif="http://www.serif.com/" style="fill-rule:evenodd;clip-rule:evenodd;stroke-linejoin:round;stroke-miterlimit:1.41421;"><path d="M248.082,4.588c7.855,0 14.223,6.367 14.223,14.224l0,229.27c0,7.856 -6.369,14.225 -14.223,14.225l-65.673,0l0,-99.803l33.499,0l5.016,-38.895l-38.515,0l0,-24.832c0,-11.261 3.127,-18.935 19.275,-18.935l20.596,-0.009l0,-34.788c-3.562,-0.474 -15.788,-1.533 -30.012,-1.533c-29.695,0 -50.025,18.126 -50.025,51.413l0,28.684l-33.585,0l0,38.895l33.585,0l0,99.803l-123.431,0c-7.858,0 -14.224,-6.37 -14.224,-14.225l0,-229.27c0,-7.857 6.367,-14.224 14.224,-14.224l229.27,0Z" style="fill:#dedbde;"/></svg>