{"Secuencia": [{"title":"Canon in D Major"},{"acorde":[{ "note": 66, "duration":1, "velocity": 0.6535433, "rh": true},{ "note": 38, "duration":1, "velocity": 0.5590551, "rh": false},{"note": 100, "duration":0,"velocity": 40,"rh": false}]},{"acorde":[{ "note": 64, "duration":1, "velocity": 0.6535433, "rh": true},{ "note": 33, "duration":1, "velocity": 0.5590551, "rh": false}]},{"acorde":[{ "note": 62, "duration":1, "velocity": 0.6535433, "rh": true},{ "note": 35, "duration":1, "velocity": 0.5590551, "rh": false}]},{"acorde":[{ "note": 61, "duration":1, "velocity": 0.6614173, "rh": true},{ "note": 30, "duration":1, "velocity": 0.5590551, "rh": false}]},{"acorde":[{ "note": 59, "duration":1, "velocity": 0.6535433, "rh": true},{ "note": 31, "duration":1, "velocity": 0.5590551, "rh": false}]},{"acorde":[{ "note": 57, "duration":1, "velocity": 0.6535433, "rh": true},{ "note": 26, "duration":1, "velocity": 0.5590551, "rh": false}]},{"acorde":[{ "note": 59, "duration":1, "velocity": 0.6614173, "rh": true},{ "note": 31, "duration":1, "velocity": 0.5669292, "rh": false}]},{"acorde":[{ "note": 61, "duration":1, "velocity": 0.6614173, "rh": true},{ "note": 33, "duration":1, "velocity": 0.5590551, "rh": false}]},{"acorde":[{ "note": 66, "duration":1, "velocity": 0.6692913, "rh": true},{ "note": 62, "duration":1, "velocity": 0.5590551, "rh": false},{ "note": 50, "duration":0.5, "velocity": 0.6614173, "rh": false},{ "note": 38, "duration":1, "velocity": 0.5669292, "rh": false}]},{"acorde":[{ "note": 54, "duration":0.5, "velocity": 0.6771653, "rh": false}]},{"acorde":[{ "note": 64, "duration":1, "velocity": 0.6535433, "rh": true},{ "note": 61, "duration":1, "velocity": 0.5590551, "rh": false},{ "note": 57, "duration":0.5, "velocity": 0.6771653, "rh": false},{ "note": 33, "duration":1, "velocity": 0.5590551, "rh": false}]},{"acorde":[{ "note": 55, "duration":0.5, "velocity": 0.6535433, "rh": false}]},{"acorde":[{ "note": 62, "duration":1, "velocity": 0.6535433, "rh": true},{ "note": 59, "duration":1, "velocity": 0.5590551, "rh": false},{ "note": 54, "duration":0.5, "velocity": 0.6535433, "rh": false},{ "note": 35, "duration":1, "velocity": 0.5590551, "rh": false}]},{"acorde":[{ "note": 50, "duration":0.5, "velocity": 0.6377953, "rh": false}]},{"acorde":[{ "note": 61, "duration":1, "velocity": 0.6614173, "rh": true},{ "note": 57, "duration":1, "velocity": 0.5590551, "rh": false},{ "note": 54, "duration":0.5, "velocity": 0.6692913, "rh": false},{ "note": 30, "duration":1, "velocity": 0.5590551, "rh": false}]},{"acorde":[{ "note": 52, "duration":0.5, "velocity": 0.6535433, "rh": false}]},{"acorde":[{ "note": 59, "duration":1, "velocity": 0.6535433, "rh": true},{ "note": 55, "duration":1, "velocity": 0.5590551, "rh": false},{ "note": 50, "duration":0.5, "velocity": 0.6456693, "rh": false},{ "note": 31, "duration":1, "velocity": 0.5590551, "rh": false}]},{"acorde":[{ "note": 47, "duration":0.5, "velocity": 0.6377953, "rh": false}]},{"acorde":[{ "note": 57, "duration":1, "velocity": 0.6535433, "rh": true},{ "note": 54, "duration":1, "velocity": 0.5590551, "rh": false},{ "note": 50, "duration":0.5, "velocity": 0.6692913, "rh": false},{ "note": 26, "duration":1, "velocity": 0.5590551, "rh": false}]},{"acorde":[{ "note": 54, "duration":0.5, "velocity": 0.6850393, "rh": false}]},{"acorde":[{ "note": 59, "duration":1, "velocity": 0.6614173, "rh": true},{ "note": 55, "duration":1, "velocity": 0.5590551, "rh": false},{ "note": 31, "duration":1, "velocity": 0.5669292, "rh": false},{ "note": 0, "duration":0.5, "velocity": 0.7, "rh": false}]},{"acorde":[{ "note": 59, "duration":0.5, "velocity": 0.6692913, "rh": false}]},{"acorde":[{ "note": 61, "duration":1, "velocity": 0.7086614, "rh": true},{ "note": 52, "duration":1, "velocity": 0.6062992, "rh": false},{ "note": 57, "duration":0.5, "velocity": 0.6535433, "rh": false},{ "note": 33, "duration":1, "velocity": 0.6062992, "rh": false}]},{"acorde":[{ "note": 55, "duration":0.5, "velocity": 0.6456693, "rh": false}]},{"acorde":[{ "note": 62, "duration":1, "velocity": 0.7716535, "rh": true},{ "note": 54, "duration":0.5, "velocity": 0.6614173, "rh": false},{ "note": 50, "duration":0.5, "velocity": 0.6299213, "rh": false},{ "note": 38, "duration":1, "velocity": 0.6692913, "rh": false}]},{"acorde":[{ "note": 50, "duration":0.5, "velocity": 0.6456693, "rh": false},{ "note": 54, "duration":0.5, "velocity": 0.6692913, "rh": false}]},{"acorde":[{ "note": 61, "duration":1, "velocity": 0.7716535, "rh": true},{ "note": 52, "duration":0.5, "velocity": 0.6614173, "rh": false},{ "note": 57, "duration":0.5, "velocity": 0.6850393, "rh": false},{ "note": 33, "duration":1, "velocity": 0.6535433, "rh": false}]},{"acorde":[{ "note": 55, "duration":0.5, "velocity": 0.6535433, "rh": false}]},{"acorde":[{ "note": 62, "duration":0.5, "velocity": 0.7716535, "rh": true},{ "note": 59, "duration":1, "velocity": 0.6771653, "rh": false},{ "note": 54, "duration":0.5, "velocity": 0.6535433, "rh": false},{ "note": 35, "duration":1, "velocity": 0.6614173, "rh": false}]},{"acorde":[{ "note": 66, "duration":0.5, "velocity": 0.7874016, "rh": true},{ "note": 50, "duration":0.5, "velocity": 0.6377953, "rh": false}]},{"acorde":[{ "note": 69, "duration":0.75, "velocity": 0.7952756, "rh": true},{ "note": 57, "duration":1, "velocity": 0.6535433, "rh": false},{ "note": 54, "duration":0.5, "velocity": 0.6692913, "rh": false},{ "note": 30, "duration":1, "velocity": 0.6535433, "rh": false}]},{"acorde":[{ "note": 52, "duration":0.5, "velocity": 0.6535433, "rh": false},{ "note": 0, "duration":0.25, "velocity": 0.7, "rh": false}]},{"acorde":[{ "note": 71, "duration":0.25, "velocity": 0.7795275, "rh": true}]},{"acorde":[{ "note": 67, "duration":0.25, "velocity": 0.7480315, "rh": true},{ "note": 59, "duration":0.5, "velocity": 0.6614173, "rh": false},{ "note": 50, "duration":0.5, "velocity": 0.6456693, "rh": false},{ "note": 31, "duration":1, "velocity": 0.6614173, "rh": false}]},{"acorde":[{ "note": 66, "duration":0.25, "velocity": 0.7401575, "rh": true}]},{"acorde":[{ "note": 64, "duration":0.25, "velocity": 0.7244095, "rh": true},{ "note": 55, "duration":0.5, "velocity": 0.6456693, "rh": false},{ "note": 47, "duration":0.5, "velocity": 0.6377953, "rh": false}]},{"acorde":[{ "note": 67, "duration":0.25, "velocity": 0.7795275, "rh": true}]},{"acorde":[{ "note": 66, "duration":0.25, "velocity": 0.7637795, "rh": true},{ "note": 57, "duration":0.5, "velocity": 0.6614173, "rh": false},{ "note": 50, "duration":0.5, "velocity": 0.6692913, "rh": false},{ "note": 26, "duration":1, "velocity": 0.6535433, "rh": false}]},{"acorde":[{ "note": 64, "duration":0.25, "velocity": 0.7401575, "rh": true}]},{"acorde":[{ "note": 62, "duration":0.25, "velocity": 0.7165354, "rh": true},{ "note": 57, "duration":0.5, "velocity": 0.6614173, "rh": false},{ "note": 54, "duration":0.5, "velocity": 0.6850393, "rh": false}]},{"acorde":[{ "note": 61, "duration":0.25, "velocity": 0.7244095, "rh": true}]},{"acorde":[{ "note": 59, "duration":0.25, "velocity": 0.7086614, "rh": true},{ "note": 55, "duration":0.5, "velocity": 0.6535433, "rh": false},{ "note": 50, "duration":0.5, "velocity": 0.6456693, "rh": false},{ "note": 31, "duration":1, "velocity": 0.6614173, "rh": false}]},{"acorde":[{ "note": 57, "duration":0.25, "velocity": 0.7086614, "rh": true}]},{"acorde":[{ "note": 59, "duration":0.25, "velocity": 0.7874016, "rh": true},{ "note": 55, "duration":0.25, "velocity": 0.6771653, "rh": false}]},{"acorde":[{ "note": 62, "duration":0.25, "velocity": 0.8582677, "rh": true},{ "note": 54, "duration":0.25, "velocity": 0.6850393, "rh": false}]},{"acorde":[{ "note": 62, "duration":0.5, "velocity": 0.8582677, "rh": true},{ "note": 57, "duration":0.5, "velocity": 0.7322835, "rh": false},{ "note": 52, "duration":1, "velocity": 0.7086614, "rh": false},{ "note": 33, "duration":1, "velocity": 0.7086614, "rh": false}]},{"acorde":[{ "note": 61, "duration":0.5, "velocity": 0.8582677, "rh": true},{ "note": 55, "duration":0.5, "velocity": 0.7244095, "rh": false}]},{"acorde":[{ "note": 69, "duration":0.25, "velocity": 0.9527559, "rh": true},{ "note": 74, "duration":0.25, "velocity": 0.8503937, "rh": false},{ "note": 54, "duration":0.25, "velocity": 0.7716535, "rh": false},{ "note": 38, "duration":1, "velocity": 0.7795275, "rh": false}]},{"acorde":[{ "note": 66, "duration":0.125, "velocity": 0.8976378, "rh": true}]},{"acorde":[{ "note": 67, "duration":0.125, "velocity": 0.9055118, "rh": true}]},{"acorde":[{ "note": 69, "duration":0.25, "velocity": 0.9448819, "rh": true},{ "note": 66, "duration":0.25, "velocity": 0.7637795, "rh": false},{ "note": 62, "duration":0.25, "velocity": 0.8031496, "rh": false}]},{"acorde":[{ "note": 66, "duration":0.125, "velocity": 0.8661417, "rh": true}]},{"acorde":[{ "note": 67, "duration":0.125, "velocity": 0.8897638, "rh": true}]},{"acorde":[{ "note": 69, "duration":0.125, "velocity": 0.9448819, "rh": true},{ "note": 64, "duration":0.5, "velocity": 0.7480315, "rh": false},{ "note": 61, "duration":0.5, "velocity": 0.7795275, "rh": false},{ "note": 33, "duration":1, "velocity": 0.7637795, "rh": false}]},{"acorde":[{ "note": 57, "duration":0.125, "velocity": 0.7559055, "rh": true}]},{"acorde":[{ "note": 59, "duration":0.125, "velocity": 0.7559055, "rh": true}]},{"acorde":[{ "note": 61, "duration":0.125, "velocity": 0.7952756, "rh": true}]},{"acorde":[{ "note": 62, "duration":0.125, "velocity": 0.8503937, "rh": true}]},{"acorde":[{ "note": 64, "duration":0.125, "velocity": 0.9291338, "rh": true}]},{"acorde":[{ "note": 66, "duration":0.125, "velocity": 0.992126, "rh": true}]},{"acorde":[{ "note": 67, "duration":0.125, "velocity": 1, "rh": true}]},{"acorde":[{ "note": 66, "duration":0.25, "velocity": 0.968504, "rh": true},{ "note": 35, "duration":1, "velocity": 0.7716535, "rh": false}]},{"acorde":[{ "note": 62, "duration":0.125, "velocity": 0.8110236, "rh": true}]},{"acorde":[{ "note": 64, "duration":0.125, "velocity": 0.8897638, "rh": true}]},{"acorde":[{ "note": 66, "duration":0.25, "velocity": 0.9606299, "rh": true},{ "note": 62, "duration":0.25, "velocity": 0.7716535, "rh": false},{ "note": 59, "duration":0.25, "velocity": 0.7716535, "rh": false}]},{"acorde":[{ "note": 54, "duration":0.125, "velocity": 0.7559055, "rh": true}]},{"acorde":[{ "note": 55, "duration":0.125, "velocity": 0.7559055, "rh": true}]},{"acorde":[{ "note": 57, "duration":0.125, "velocity": 0.7952756, "rh": true},{ "note": 66, "duration":1, "velocity": 0.7874016, "rh": false},{ "note": 62, "duration":1, "velocity": 0.7795275, "rh": false},{ "note": 30, "duration":1, "velocity": 0.7637795, "rh": false}]},{"acorde":[{ "note": 59, "duration":0.125, "velocity": 0.8740157, "rh": true}]},{"acorde":[{ "note": 57, "duration":0.125, "velocity": 0.8188977, "rh": true}]},{"acorde":[{ "note": 55, "duration":0.125, "velocity": 0.7874016, "rh": true}]},{"acorde":[{ "note": 57, "duration":0.125, "velocity": 0.8661417, "rh": true}]},{"acorde":[{ "note": 54, "duration":0.125, "velocity": 0.7874016, "rh": true}]},{"acorde":[{ "note": 55, "duration":0.125, "velocity": 0.8346457, "rh": true}]},{"acorde":[{ "note": 57, "duration":0.125, "velocity": 0.9212598, "rh": true}]},{"acorde":[{ "note": 55, "duration":0.25, "velocity": 0.8425197, "rh": true},{ "note": 71, "duration":1, "velocity": 0.7795275, "rh": false},{ "note": 62, "duration":1.5, "velocity": 0.7716535, "rh": false},{ "note": 31, "duration":1, "velocity": 0.7716535, "rh": false}]},{"acorde":[{ "note": 59, "duration":0.125, "velocity": 0.984252, "rh": true}]},{"acorde":[{ "note": 57, "duration":0.125, "velocity": 0.9055118, "rh": true}]},{"acorde":[{ "note": 55, "duration":0.25, "velocity": 0.8346457, "rh": true}]},{"acorde":[{ "note": 54, "duration":0.125, "velocity": 0.8267717, "rh": true}]},{"acorde":[{ "note": 52, "duration":0.125, "velocity": 0.7874016, "rh": true}]},{"acorde":[{ "note": 54, "duration":0.125, "velocity": 0.8661417, "rh": true},{ "note": 69, "duration":1, "velocity": 0.7637795, "rh": false},{ "note": 26, "duration":1, "velocity": 0.7637795, "rh": false}]},{"acorde":[{ "note": 52, "duration":0.125, "velocity": 0.8031496, "rh": true}]},{"acorde":[{ "note": 50, "duration":0.125, "velocity": 0.7795275, "rh": true}]},{"acorde":[{ "note": 52, "duration":0.125, "velocity": 0.8503937, "rh": true}]},{"acorde":[{ "note": 54, "duration":0.125, "velocity": 0.9291338, "rh": true},{ "note": 62, "duration":0.5, "velocity": 0.7716535, "rh": false}]},{"acorde":[{ "note": 55, "duration":0.125, "velocity": 0.968504, "rh": true}]},{"acorde":[{ "note": 57, "duration":0.125, "velocity": 1, "rh": true}]},{"acorde":[{ "note": 59, "duration":0.125, "velocity": 1, "rh": true}]},{"acorde":[{ "note": 55, "duration":0.25, "velocity": 0.8976378, "rh": true},{ "note": 71, "duration":1, "velocity": 0.7716535, "rh": false},{ "note": 62, "duration":0.5, "velocity": 0.7716535, "rh": false},{ "note": 31, "duration":1, "velocity": 0.7716535, "rh": false}]},{"acorde":[{ "note": 59, "duration":0.125, "velocity": 1, "rh": true}]},{"acorde":[{ "note": 57, "duration":0.125, "velocity": 0.9212598, "rh": true}]},{"acorde":[{ "note": 59, "duration":0.25, "velocity": 0.976378, "rh": true},{ "note": 67, "duration":0.5, "velocity": 0.7952756, "rh": false}]},{"acorde":[{ "note": 61, "duration":0.125, "velocity": 0.992126, "rh": true}]},{"acorde":[{ "note": 62, "duration":0.125, "velocity": 0.992126, "rh": true}]},{"acorde":[{ "note": 57, "duration":0.125, "velocity": 0.8188977, "rh": true},{ "note": 73, "duration":1, "velocity": 0.7716535, "rh": false},{ "note": 64, "duration":0.5, "velocity": 0.7637795, "rh": false},{ "note": 33, "duration":1, "velocity": 0.7716535, "rh": false}]},{"acorde":[{ "note": 59, "duration":0.125, "velocity": 0.8897638, "rh": true}]},{"acorde":[{ "note": 61, "duration":0.125, "velocity": 0.9606299, "rh": true}]},{"acorde":[{ "note": 62, "duration":0.125, "velocity": 0.976378, "rh": true}]},{"acorde":[{ "note": 64, "duration":0.125, "velocity": 1, "rh": true},{ "note": 69, "duration":0.5, "velocity": 0.7952756, "rh": false}]},{"acorde":[{ "note": 66, "duration":0.125, "velocity": 1, "rh": true}]},{"acorde":[{ "note": 67, "duration":0.125, "velocity": 1, "rh": true}]},{"acorde":[{ "note": 69, "duration":0.125, "velocity": 1, "rh": true}]},{"acorde":[{ "note": 62, "duration":0.75, "velocity": 0.6456693, "rh": false},{ "note": 66, "duration":0.75, "velocity": 0.6456693, "rh": false},{ "note": 50, "duration":0.5, "velocity": 0.5984252, "rh": false},{ "note": 38, "duration":1, "velocity": 0.6692913, "rh": false}]},{"acorde":[{ "note": 62, "duration":0.25, "velocity": 0.6850393, "rh": false}]},{"acorde":[{ "note": 69, "duration":0.25, "velocity": 0.7952756, "rh": true},{ "note": 66, "duration":0.25, "velocity": 0.6614173, "rh": false}]},{"acorde":[{ "note": 69, "duration":0.25, "velocity": 0.7795275, "rh": true},{ "note": 66, "duration":0.25, "velocity": 0.6614173, "rh": false},{ "note": 61, "duration":1, "velocity": 0.6692913, "rh": false},{ "note": 33, "duration":1, "velocity": 0.6535433, "rh": false}]},{"acorde":[{ "note": 71, "duration":0.25, "velocity": 0.7952756, "rh": true},{ "note": 67, "duration":0.25, "velocity": 0.6692913, "rh": false}]},{"acorde":[{ "note": 69, "duration":0.25, "velocity": 0.7559055, "rh": true},{ "note": 66, "duration":0.25, "velocity": 0.6535433, "rh": false}]},{"acorde":[{ "note": 67, "duration":0.25, "velocity": 0.7322835, "rh": true},{ "note": 64, "duration":0.25, "velocity": 0.6299213, "rh": false}]},{"acorde":[{ "note": 66, "duration":0.75, "velocity": 0.7322835, "rh": true},{ "note": 62, "duration":0.75, "velocity": 0.6141732, "rh": false},{ "note": 59, "duration":1, "velocity": 0.6535433, "rh": false},{ "note": 35, "duration":1, "velocity": 0.6614173, "rh": false}]},{"acorde":[{ "note": 66, "duration":0.25, "velocity": 0.7637795, "rh": true},{ "note": 62, "duration":0.25, "velocity": 0.6535433, "rh": false}]},{"acorde":[{ "note": 66, "duration":0.25, "velocity": 0.7637795, "rh": true},{ "note": 62, "duration":0.25, "velocity": 0.6535433, "rh": false},{ "note": 57, "duration":1, "velocity": 0.6535433, "rh": false},{ "note": 30, "duration":1, "velocity": 0.6535433, "rh": false}]},{"acorde":[{ "note": 67, "duration":0.25, "velocity": 0.7795275, "rh": true},{ "note": 64, "duration":0.25, "velocity": 0.6771653, "rh": false}]},{"acorde":[{ "note": 66, "duration":0.25, "velocity": 0.7637795, "rh": true},{ "note": 62, "duration":0.25, "velocity": 0.6535433, "rh": false}]},{"acorde":[{ "note": 64, "duration":0.25, "velocity": 0.7401575, "rh": true},{ "note": 61, "duration":0.25, "velocity": 0.6377953, "rh": false}]},{"acorde":[{ "note": 62, "duration":0.25, "velocity": 0.7165354, "rh": true},{ "note": 59, "duration":0.5, "velocity": 0.6220472, "rh": false},{ "note": 50, "duration":0.75, "velocity": 0.6456693, "rh": false},{ "note": 31, "duration":1, "velocity": 0.6614173, "rh": false}]},{"acorde":[{ "note": 60, "duration":0.25, "velocity": 0.7086614, "rh": true}]},{"acorde":[{ "note": 59, "duration":0.25, "velocity": 0.7165354, "rh": true}]},{"acorde":[{ "note": 60, "duration":0.25, "velocity": 0.7559055, "rh": true},{ "note": 52, "duration":0.25, "velocity": 0.6614173, "rh": false}]},{"acorde":[{ "note": 57, "duration":1, "velocity": 0.7165354, "rh": true},{ "note": 50, "duration":1, "velocity": 0.6299213, "rh": false},{ "note": 54, "duration":0.5, "velocity": 0.6771653, "rh": false},{ "note": 26, "duration":1, "velocity": 0.6535433, "rh": false}]},{"acorde":[{ "note": 54, "duration":0.5, "velocity": 0.6692913, "rh": false}]},{"acorde":[{ "note": 59, "duration":0.5, "velocity": 0.7716535, "rh": true},{ "note": 55, "duration":1, "velocity": 0.6692913, "rh": false},{ "note": 31, "duration":1, "velocity": 0.6614173, "rh": false}]},{"acorde":[{ "note": 62, "duration":0.5, "velocity": 0.7874016, "rh": true}]},{"acorde":[{ "note": 61, "duration":1, "velocity": 0.7716535, "rh": true},{ "note": 57, "duration":1, "velocity": 0.6614173, "rh": false},{ "note": 52, "duration":1, "velocity": 0.6614173, "rh": false},{ "note": 33, "duration":1, "velocity": 0.6614173, "rh": false}]},{"acorde":[{ "note": 62, "duration":0.5, "velocity": 0.7716535, "rh": true},{ "note": 57, "duration":1, "velocity": 0.6692913, "rh": false},{ "note": 38, "duration":1, "velocity": 0.6692913, "rh": false}]},{"acorde":[{ "note": 66, "duration":1, "velocity": 0.7874016, "rh": true},{ "note": 62, "duration":1, "velocity": 0.6614173, "rh": false},{ "note": 0, "duration":0.5, "velocity": 0.7, "rh": false}]},{"acorde":[{ "note": 57, "duration":0.75, "velocity": 0.6614173, "rh": false},{ "note": 33, "duration":1, "velocity": 0.6535433, "rh": false},{ "note": 0, "duration":0.5, "velocity": 0.7, "rh": false}]},{"acorde":[{ "note": 64, "duration":0.5, "velocity": 0.7637795, "rh": true},{ "note": 61, "duration":1, "velocity": 0.6614173, "rh": false},{ "note": 0, "duration":0.25, "velocity": 0.7, "rh": false}]},{"acorde":[{ "note": 55, "duration":0.25, "velocity": 0.6535433, "rh": false}]},{"acorde":[{ "note": 54, "duration":1, "velocity": 0.6535433, "rh": false},{ "note": 35, "duration":1, "velocity": 0.6614173, "rh": false},{ "note": 0, "duration":0.5, "velocity": 0.7, "rh": false}]},{"acorde":[{ "note": 62, "duration":1, "velocity": 0.7637795, "rh": true},{ "note": 59, "duration":1, "velocity": 0.6535433, "rh": false},{ "note": 0, "duration":0.5, "velocity": 0.7, "rh": false}]},{"acorde":[{ "note": 66, "duration":0.75, "velocity": 0.6850393, "rh": false},{ "note": 30, "duration":1, "velocity": 0.6535433, "rh": false},{ "note": 0, "duration":0.5, "velocity": 0.7, "rh": false}]},{"acorde":[{ "note": 60, "duration":0.5, "velocity": 0.7637795, "rh": true},{ "note": 57, "duration":0.5, "velocity": 0.6535433, "rh": false},{ "note": 0, "duration":0.25, "velocity": 0.7, "rh": false}]},{"acorde":[{ "note": 64, "duration":0.25, "velocity": 0.6535433, "rh": false}]},{"acorde":[{ "note": 59, "duration":0.5, "velocity": 0.7637795, "rh": true},{ "note": 55, "duration":0.5, "velocity": 0.6535433, "rh": false},{ "note": 62, "duration":1.5, "velocity": 0.6456693, "rh": false},{ "note": 31, "duration":1, "velocity": 0.6614173, "rh": false}]},{"acorde":[{ "note": 71, "duration":0.5, "velocity": 0.8346457, "rh": true},{ "note": 67, "duration":0.5, "velocity": 0.7165354, "rh": false}]},{"acorde":[{ "note": 69, "duration":0.5, "velocity": 0.7795275, "rh": true},{ "note": 66, "duration":0.5, "velocity": 0.6771653, "rh": false},{ "note": 26, "duration":1, "velocity": 0.6535433, "rh": false}]},{"acorde":[{ "note": 62, "duration":0.5, "velocity": 0.7322835, "rh": true},{ "note": 54, "duration":0.5, "velocity": 0.5984252, "rh": false},{ "note": 57, "duration":0.5, "velocity": 0.6614173, "rh": false}]},{"acorde":[{ "note": 59, "duration":0.5, "velocity": 0.7322835, "rh": true},{ "note": 55, "duration":0.5, "velocity": 0.6456693, "rh": false},{ "note": 31, "duration":1, "velocity": 0.6614173, "rh": false}]},{"acorde":[{ "note": 62, "duration":0.5, "velocity": 0.7795275, "rh": true},{ "note": 59, "duration":0.5, "velocity": 0.6771653, "rh": false}]},{"acorde":[{ "note": 61, "duration":0.5, "velocity": 0.7716535, "rh": true},{ "note": 52, "duration":0.5, "velocity": 0.6299213, "rh": false},{ "note": 57, "duration":0.5, "velocity": 0.6614173, "rh": false},{ "note": 33, "duration":1, "velocity": 0.6614173, "rh": false}]},{"acorde":[{ "note": 64, "duration":0.5, "velocity": 0.7874016, "rh": true},{ "note": 61, "duration":0.5, "velocity": 0.6929134, "rh": false},{ "note": 57, "duration":0.5, "velocity": 0.6614173, "rh": false}]},{"acorde":[{ "note": 66, "duration":2, "velocity": 0.7874016, "rh": true},{ "note": 62, "duration":2, "velocity": 0.6771653, "rh": false},{ "note": 57, "duration":2, "velocity": 0.6614173, "rh": false},{ "note": 38, "duration":2, "velocity": 0.6692913, "rh": false}]}]}