{"Secuencia":[{"title":"Clair de lune"},{"acorde":[{"note":100,"duration":0,"velocity":55,"rh":false}]},{"acorde":[{"note":53,"duration":4,"velocity":0.480315,"rh":false},{"note":56,"duration":4,"velocity":0.480315,"rh":false},{"note":0,"duration":0.5,"velocity":0.7,"rh":false}]},{"acorde":[{"note":68,"duration":2,"velocity":0.480315,"rh":true},{"note":65,"duration":2,"velocity":0.480315,"rh":false},{"note":100,"duration":0,"velocity":65,"rh":false}]},{"acorde":[{"note":65,"duration":2,"velocity":0.3937008,"rh":true},{"note":61,"duration":2,"velocity":0.3937008,"rh":false},{"note":0,"duration":1.5,"velocity":0.7,"rh":false}]},{"acorde":[{"note":54,"duration":4.5,"velocity":0.480315,"rh":false},{"note":57,"duration":4.5,"velocity":0.480315,"rh":false},{"note":0,"duration":0.5,"velocity":0.7,"rh":false}]},{"acorde":[{"note":63,"duration":0.5,"velocity":0.472441,"rh":true},{"note":60,"duration":0.5,"velocity":0.3070866,"rh":false},{"note":100,"duration":0,"velocity":59,"rh":false}]},{"acorde":[{"note":65,"duration":0.5,"velocity":0.488189,"rh":true},{"note":61,"duration":0.5,"velocity":0.3149606,"rh":false}]},{"acorde":[{"note":63,"duration":3.5,"velocity":0.472441,"rh":true},{"note":60,"duration":3.5,"velocity":0.3070866,"rh":false},{"note":0,"duration":1.5,"velocity":0.7,"rh":false},{"note":100,"duration":0,"velocity":65,"rh":false}]},{"acorde":[{"note":0,"duration":1.5,"velocity":0.007874016,"rh":false}]},{"acorde":[{"note":53,"duration":4.5,"velocity":0.3228346,"rh":false},{"note":56,"duration":4.5,"velocity":0.3228346,"rh":false},{"note":0,"duration":0.5,"velocity":0.7,"rh":false}]},{"acorde":[{"note":61,"duration":0.5,"velocity":0.480315,"rh":true},{"note":58,"duration":0.5,"velocity":0.3070866,"rh":false}]},{"acorde":[{"note":63,"duration":0.5,"velocity":0.503937,"rh":true},{"note":60,"duration":0.5,"velocity":0.3149606,"rh":false}]},{"acorde":[{"note":61,"duration":0.75,"velocity":0.503937,"rh":true},{"note":58,"duration":3.5,"velocity":0.3070866,"rh":false},{"note":100,"duration":0,"velocity":60,"rh":false}]},{"acorde":[{"note":65,"duration":1.5,"velocity":0.5590551,"rh":true},{"note":100,"duration":0,"velocity":65,"rh":false}]},{"acorde":[{"note":61,"duration":1.25,"velocity":0.503937,"rh":true},{"note":0,"duration":0.75,"velocity":0.7,"rh":false}]},{"acorde":[{"note":51,"duration":4.5,"velocity":0.4330709,"rh":false},{"note":54,"duration":4.5,"velocity":0.4330709,"rh":false},{"note":0,"duration":0.5,"velocity":0.7,"rh":false}]},{"acorde":[{"note":60,"duration":0.5,"velocity":0.472441,"rh":true},{"note":56,"duration":0.5,"velocity":0.3070866,"rh":false}]},{"acorde":[{"note":61,"duration":0.5,"velocity":0.480315,"rh":true},{"note":58,"duration":0.5,"velocity":0.488189,"rh":false},{"note":100,"duration":0,"velocity":59,"rh":false}]},{"acorde":[{"note":60,"duration":3.5,"velocity":0.472441,"rh":true},{"note":56,"duration":3,"velocity":0.3070866,"rh":false},{"note":0,"duration":1.5,"velocity":0.7,"rh":false},{"note":100,"duration":0,"velocity":65,"rh":false}]},{"acorde":[{"note":0,"duration":1.5,"velocity":0.007874016,"rh":false}]},{"acorde":[{"note":54,"duration":3,"velocity":0.3070866,"rh":false},{"note":49,"duration":3,"velocity":0.3228346,"rh":false},{"note":51,"duration":3,"velocity":0.3228346,"rh":false},{"note":0,"duration":0.5,"velocity":0.7,"rh":false}]},{"acorde":[{"note":58,"duration":0.5,"velocity":0.480315,"rh":true},{"note":100,"duration":0,"velocity":70,"rh":false}]},{"acorde":[{"note":60,"duration":0.5,"velocity":0.503937,"rh":true}]},{"acorde":[{"note":58,"duration":0.5,"velocity":0.511811,"rh":true}]},{"acorde":[{"note":63,"duration":0.5,"velocity":0.5748032,"rh":true}]},{"acorde":[{"note":58,"duration":0.5,"velocity":0.5354331,"rh":true},{"note":100,"duration":0,"velocity":65,"rh":false}]},{"acorde":[{"note":56,"duration":0.5,"velocity":0.511811,"rh":true},{"note":54,"duration":1.5,"velocity":0.480315,"rh":false},{"note":48,"duration":1.5,"velocity":0.4330709,"rh":false},{"note":51,"duration":1.5,"velocity":0.4330709,"rh":false}]},{"acorde":[{"note":58,"duration":0.5,"velocity":0.527559,"rh":true}]},{"acorde":[{"note":56,"duration":1,"velocity":0.480315,"rh":true},{"note":0,"duration":0.5,"velocity":0.7,"rh":false}]},{"acorde":[{"note":51,"duration":3,"velocity":0.472441,"rh":false},{"note":46,"duration":3,"velocity":0.3070866,"rh":false},{"note":49,"duration":3,"velocity":0.3070866,"rh":false},{"note":0,"duration":0.5,"velocity":0.7,"rh":false}]},{"acorde":[{"note":54,"duration":0.5,"velocity":0.4488189,"rh":true}]},{"acorde":[{"note":56,"duration":0.5,"velocity":0.519685,"rh":true},{"note":100,"duration":0,"velocity":60,"rh":false}]},{"acorde":[{"note":54,"duration":1.5,"velocity":0.5354331,"rh":true}]},{"acorde":[{"note":53,"duration":2,"velocity":0.472441,"rh":true},{"note":51,"duration":1.5,"velocity":0.3070866,"rh":false},{"note":45,"duration":1.5,"velocity":0.1574803,"rh":false},{"note":48,"duration":1.5,"velocity":0.1574803,"rh":false},{"note":100,"duration":0,"velocity":65,"rh":false}]},{"acorde":[{"note":49,"duration":4.5,"velocity":0.472441,"rh":false},{"note":46,"duration":4.5,"velocity":0.472441,"rh":false},{"note":44,"duration":3,"velocity":0.480315,"rh":false},{"note":0,"duration":0.5,"velocity":0.7,"rh":false},{"note":100,"duration":0,"velocity":65,"rh":false}]},{"acorde":[{"note":53,"duration":0.5,"velocity":0.480315,"rh":true}]},{"acorde":[{"note":54,"duration":0.5,"velocity":0.511811,"rh":true}]},{"acorde":[{"note":53,"duration":0.5,"velocity":0.519685,"rh":true}]},{"acorde":[{"note":58,"duration":0.5,"velocity":0.6062992,"rh":true},{"note":100,"duration":0,"velocity":70,"rh":false}]},{"acorde":[{"note":53,"duration":0.5,"velocity":0.5354331,"rh":true}]},{"acorde":[{"note":51,"duration":0.5,"velocity":0.519685,"rh":true},{"note":42,"duration":1.5,"velocity":0.480315,"rh":false},{"note":100,"duration":0,"velocity":65,"rh":false}]},{"acorde":[{"note":53,"duration":0.5,"velocity":0.5511811,"rh":true}]},{"acorde":[{"note":51,"duration":1,"velocity":0.527559,"rh":true},{"note":0,"duration":0.5,"velocity":0.7,"rh":false}]},{"acorde":[{"note":46,"duration":3,"velocity":0.480315,"rh":false},{"note":44,"duration":3,"velocity":0.480315,"rh":false},{"note":41,"duration":3,"velocity":0.480315,"rh":false},{"note":0,"duration":0.5,"velocity":0.7,"rh":false}]},{"acorde":[{"note":49,"duration":0.5,"velocity":0.527559,"rh":true},{"note":100,"duration":0,"velocity":60,"rh":false}]},{"acorde":[{"note":51,"duration":0.5,"velocity":0.5590551,"rh":true}]},{"acorde":[{"note":49,"duration":1.5,"velocity":0.5354331,"rh":true}]},{"acorde":[{"note":48,"duration":1.5,"velocity":0.5511811,"rh":true},{"note":44,"duration":1.5,"velocity":0.480315,"rh":false},{"note":42,"duration":1.5,"velocity":0.480315,"rh":false},{"note":39,"duration":0.75,"velocity":0.5433071,"rh":false},{"note":100,"duration":0,"velocity":50,"rh":false}]},{"acorde":[{"note":32,"duration":0.75,"velocity":0.5433071,"rh":false}]},{"acorde":[{"note":25,"duration":4.5,"velocity":0.5433071,"rh":false},{"note":0,"duration":0.5,"velocity":0.7,"rh":false},{"note":100,"duration":0,"velocity":60,"rh":false}]},{"acorde":[{"note":41,"duration":0.5,"velocity":0.480315,"rh":false},{"note":44,"duration":0.5,"velocity":0.480315,"rh":false}]},{"acorde":[{"note":53,"duration":3.5,"velocity":0.519685,"rh":false},{"note":56,"duration":3.5,"velocity":0.519685,"rh":false},{"note":0,"duration":0.5,"velocity":0.7,"rh":false}]},{"acorde":[{"note":68,"duration":1.5,"velocity":0.5669292,"rh":true},{"note":65,"duration":1.5,"velocity":0.488189,"rh":false}]},{"acorde":[{"note":65,"duration":2,"velocity":0.5511811,"rh":true},{"note":61,"duration":2,"velocity":0.3070866,"rh":false},{"note":0,"duration":1.5,"velocity":0.7,"rh":false}]},{"acorde":[{"note":30,"duration":3,"velocity":0.480315,"rh":false},{"note":37,"duration":3,"velocity":0.480315,"rh":false},{"note":0,"duration":0.5,"velocity":0.7,"rh":false}]},{"acorde":[{"note":63,"duration":0.5,"velocity":0.5511811,"rh":true},{"note":54,"duration":4,"velocity":0.480315,"rh":false},{"note":58,"duration":4,"velocity":0.480315,"rh":false},{"note":37,"duration":2.5,"velocity":0.480315,"rh":false},{"note":42,"duration":4,"velocity":0.480315,"rh":false},{"note":46,"duration":4,"velocity":0.480315,"rh":false},{"note":49,"duration":4,"velocity":0.480315,"rh":false}]},{"acorde":[{"note":65,"duration":0.5,"velocity":0.5669292,"rh":true}]},{"acorde":[{"note":63,"duration":3.5,"velocity":0.5511811,"rh":true},{"note":0,"duration":1.5,"velocity":0.7,"rh":false}]},{"acorde":[{"note":0,"duration":1.5,"velocity":0.007874016,"rh":false}]},{"acorde":[{"note":29,"duration":3,"velocity":0.5590551,"rh":false},{"note":37,"duration":3,"velocity":0.5590551,"rh":false},{"note":0,"duration":0.5,"velocity":0.7,"rh":false}]},{"acorde":[{"note":61,"duration":0.5,"velocity":0.5590551,"rh":true},{"note":49,"duration":0.5,"velocity":0.480315,"rh":false},{"note":56,"duration":1,"velocity":0.480315,"rh":false},{"note":41,"duration":1,"velocity":0.480315,"rh":false},{"note":44,"duration":1,"velocity":0.480315,"rh":false}]},{"acorde":[{"note":63,"duration":0.5,"velocity":0.6141732,"rh":true},{"note":51,"duration":0.5,"velocity":0.488189,"rh":false}]},{"acorde":[{"note":68,"duration":1.5,"velocity":0.7086614,"rh":true},{"note":56,"duration":1.5,"velocity":0.5354331,"rh":false},{"note":61,"duration":1.5,"velocity":0.5354331,"rh":false},{"note":49,"duration":1.5,"velocity":0.503937,"rh":false},{"note":53,"duration":1.5,"velocity":0.503937,"rh":false}]},{"acorde":[{"note":65,"duration":2,"velocity":0.5590551,"rh":true},{"note":53,"duration":1.5,"velocity":0.3307087,"rh":false},{"note":61,"duration":1.5,"velocity":0.3307087,"rh":false},{"note":44,"duration":1.5,"velocity":0.3070866,"rh":false},{"note":49,"duration":1.5,"velocity":0.3070866,"rh":false}]},{"acorde":[{"note":30,"duration":3,"velocity":0.480315,"rh":false},{"note":37,"duration":3,"velocity":0.480315,"rh":false},{"note":0,"duration":0.5,"velocity":0.7,"rh":false}]},{"acorde":[{"note":63,"duration":0.5,"velocity":0.5511811,"rh":true},{"note":54,"duration":4,"velocity":0.480315,"rh":false},{"note":58,"duration":4,"velocity":0.480315,"rh":false},{"note":37,"duration":2.5,"velocity":0.3070866,"rh":false},{"note":42,"duration":4,"velocity":0.3070866,"rh":false},{"note":46,"duration":4,"velocity":0.3070866,"rh":false},{"note":49,"duration":4,"velocity":0.3070866,"rh":false}]},{"acorde":[{"note":65,"duration":0.5,"velocity":0.5669292,"rh":true}]},{"acorde":[{"note":63,"duration":1.5,"velocity":0.5511811,"rh":true}]},{"acorde":[{"note":61,"duration":2,"velocity":0.5433071,"rh":true},{"note":0,"duration":1.5,"velocity":0.7,"rh":false}]},{"acorde":[{"note":32,"duration":4.5,"velocity":0.480315,"rh":false},{"note":0,"duration":0.5,"velocity":0.7,"rh":false}]},{"acorde":[{"note":61,"duration":0.5,"velocity":0.5590551,"rh":true},{"note":49,"duration":0.5,"velocity":0.3070866,"rh":false},{"note":56,"duration":1,"velocity":0.480315,"rh":false},{"note":41,"duration":1,"velocity":0.3070866,"rh":false},{"note":47,"duration":1,"velocity":0.3070866,"rh":false}]},{"acorde":[{"note":63,"duration":0.5,"velocity":0.6220472,"rh":true},{"note":51,"duration":0.5,"velocity":0.3779528,"rh":false}]},{"acorde":[{"note":70,"duration":0.75,"velocity":0.7322835,"rh":true},{"note":58,"duration":0.75,"velocity":0.480315,"rh":false},{"note":65,"duration":3,"velocity":0.5590551,"rh":false},{"note":47,"duration":2,"velocity":0.4488189,"rh":false},{"note":49,"duration":2,"velocity":0.4488189,"rh":false},{"note":53,"duration":2,"velocity":0.4488189,"rh":false},{"note":100,"duration":0,"velocity":50,"rh":false}]},{"acorde":[{"note":68,"duration":1.5,"velocity":0.6850393,"rh":true},{"note":56,"duration":1.5,"velocity":0.496063,"rh":false},{"note":0,"duration":1.25,"velocity":0.7,"rh":false},{"note":100,"duration":0,"velocity":60,"rh":false}]},{"acorde":[{"note":65,"duration":0.75,"velocity":0.6377953,"rh":true},{"note":53,"duration":0.75,"velocity":0.472441,"rh":false}]},{"acorde":[{"note":34,"duration":4.5,"velocity":0.5590551,"rh":false},{"note":0,"duration":0.5,"velocity":0.7,"rh":false},{"note":100,"duration":0,"velocity":65,"rh":false}]},{"acorde":[{"note":63,"duration":0.5,"velocity":0.6141732,"rh":true},{"note":53,"duration":4,"velocity":0.480315,"rh":false},{"note":58,"duration":4,"velocity":0.480315,"rh":false},{"note":51,"duration":1.75,"velocity":0.480315,"rh":false},{"note":41,"duration":4,"velocity":0.480315,"rh":false},{"note":46,"duration":4,"velocity":0.480315,"rh":false}]},{"acorde":[{"note":65,"duration":0.5,"velocity":0.6299213,"rh":true}]},{"acorde":[{"note":63,"duration":0.75,"velocity":0.5984252,"rh":true},{"note":100,"duration":0,"velocity":50,"rh":false}]},{"acorde":[{"note":61,"duration":1.5,"velocity":0.5748032,"rh":true},{"note":49,"duration":2.25,"velocity":0.4409449,"rh":false},{"note":100,"duration":0,"velocity":60,"rh":false}]},{"acorde":[{"note":58,"duration":0.75,"velocity":0.5511811,"rh":true},{"note":100,"duration":0,"velocity":54,"rh":false}]},{"acorde":[{"note":0,"duration":0.75,"velocity":0.007874016,"rh":false},{"note":27,"duration":4,"velocity":0.511811,"rh":false},{"note":100,"duration":0,"velocity":60,"rh":false}]},{"acorde":[{"note":65,"duration":1.25,"velocity":0.5826772,"rh":true},{"note":70,"duration":1.25,"velocity":0.3070866,"rh":false},{"note":77,"duration":1.25,"velocity":0.3070866,"rh":false},{"note":53,"duration":1.25,"velocity":0.3385827,"rh":false},{"note":54,"duration":1.25,"velocity":0.3385827,"rh":false},{"note":58,"duration":1.25,"velocity":0.3385827,"rh":false}]},{"acorde":[{"note":63,"duration":0.5,"velocity":0.5590551,"rh":true},{"note":70,"duration":0.5,"velocity":0.3070866,"rh":false},{"note":75,"duration":0.5,"velocity":0.3070866,"rh":false},{"note":51,"duration":0.5,"velocity":0.3228346,"rh":false},{"note":54,"duration":0.5,"velocity":0.3228346,"rh":false},{"note":58,"duration":0.5,"velocity":0.3228346,"rh":false},{"note":100,"duration":0,"velocity":66,"rh":false}]},{"acorde":[{"note":63,"duration":0.5,"velocity":0.6062992,"rh":true},{"note":70,"duration":0.5,"velocity":0.3622047,"rh":false},{"note":75,"duration":0.5,"velocity":0.3622047,"rh":false},{"note":51,"duration":0.5,"velocity":0.3779528,"rh":false},{"note":54,"duration":0.5,"velocity":0.3779528,"rh":false},{"note":58,"duration":0.5,"velocity":0.3779528,"rh":false}]},{"acorde":[{"note":63,"duration":0.5,"velocity":0.6614173,"rh":true},{"note":70,"duration":0.5,"velocity":0.4173228,"rh":false},{"note":75,"duration":0.5,"velocity":0.4173228,"rh":false},{"note":51,"duration":0.5,"velocity":0.4251969,"rh":false},{"note":54,"duration":0.5,"velocity":0.4251969,"rh":false},{"note":58,"duration":0.5,"velocity":0.4251969,"rh":false},{"note":100,"duration":0,"velocity":71,"rh":false}]},{"acorde":[{"note":61,"duration":0.5,"velocity":0.5354331,"rh":true},{"note":70,"duration":0.5,"velocity":0.2992126,"rh":false},{"note":73,"duration":0.5,"velocity":0.2992126,"rh":false},{"note":49,"duration":0.5,"velocity":0.3149606,"rh":false},{"note":54,"duration":0.5,"velocity":0.3149606,"rh":false},{"note":58,"duration":0.5,"velocity":0.3149606,"rh":false}]},{"acorde":[{"note":61,"duration":0.5,"velocity":0.5905512,"rh":true},{"note":70,"duration":0.5,"velocity":0.2992126,"rh":false},{"note":73,"duration":0.5,"velocity":0.2992126,"rh":false},{"note":49,"duration":0.5,"velocity":0.3149606,"rh":false},{"note":54,"duration":0.5,"velocity":0.3149606,"rh":false},{"note":58,"duration":0.5,"velocity":0.3149606,"rh":false},{"note":100,"duration":0,"velocity":73,"rh":false}]},{"acorde":[{"note":61,"duration":0.5,"velocity":0.6456693,"rh":true},{"note":70,"duration":0.5,"velocity":0.3070866,"rh":false},{"note":73,"duration":0.5,"velocity":0.3070866,"rh":false},{"note":49,"duration":0.5,"velocity":0.3070866,"rh":false},{"note":54,"duration":0.5,"velocity":0.3070866,"rh":false},{"note":58,"duration":0.5,"velocity":0.3070866,"rh":false}]},{"acorde":[{"note":60,"duration":0.5,"velocity":0.4645669,"rh":true},{"note":70,"duration":0.5,"velocity":0.2992126,"rh":false},{"note":72,"duration":0.5,"velocity":0.2992126,"rh":false},{"note":48,"duration":0.5,"velocity":0.3070866,"rh":false},{"note":54,"duration":0.5,"velocity":0.3070866,"rh":false},{"note":58,"duration":0.5,"velocity":0.3070866,"rh":false}]},{"acorde":[{"note":60,"duration":0.5,"velocity":0.4645669,"rh":true},{"note":70,"duration":0.5,"velocity":0.3779528,"rh":false},{"note":72,"duration":0.5,"velocity":0.3779528,"rh":false},{"note":48,"duration":0.5,"velocity":0.3858268,"rh":false},{"note":54,"duration":0.5,"velocity":0.3858268,"rh":false},{"note":58,"duration":0.5,"velocity":0.3858268,"rh":false},{"note":100,"duration":0,"velocity":65,"rh":false}]},{"acorde":[{"note":60,"duration":0.75,"velocity":0.5511811,"rh":true},{"note":70,"duration":0.75,"velocity":0.472441,"rh":false},{"note":72,"duration":0.75,"velocity":0.472441,"rh":false},{"note":48,"duration":0.75,"velocity":0.480315,"rh":false},{"note":54,"duration":0.75,"velocity":0.480315,"rh":false},{"note":58,"duration":0.75,"velocity":0.480315,"rh":false}]},{"acorde":[{"note":61,"duration":0.75,"velocity":0.527559,"rh":true},{"note":70,"duration":0.75,"velocity":0.4094488,"rh":false},{"note":73,"duration":0.75,"velocity":0.4094488,"rh":false},{"note":49,"duration":0.75,"velocity":0.4015748,"rh":false},{"note":54,"duration":0.75,"velocity":0.4015748,"rh":false},{"note":58,"duration":0.75,"velocity":0.4015748,"rh":false},{"note":100,"duration":0,"velocity":60,"rh":false}]},{"acorde":[{"note":58,"duration":1.5,"velocity":0.4566929,"rh":true},{"note":66,"duration":1.5,"velocity":0.2913386,"rh":false},{"note":70,"duration":1.5,"velocity":0.2913386,"rh":false},{"note":46,"duration":1.5,"velocity":0.2834646,"rh":false},{"note":49,"duration":1.5,"velocity":0.2834646,"rh":false},{"note":54,"duration":1.5,"velocity":0.2834646,"rh":false}]},{"acorde":[{"note":0,"duration":0.75,"velocity":0.007874016,"rh":false},{"note":27,"duration":4,"velocity":0.5511811,"rh":false},{"note":34,"duration":4,"velocity":0.472441,"rh":false},{"note":100,"duration":0,"velocity":47,"rh":false}]},{"acorde":[{"note":65,"duration":1.25,"velocity":0.5748032,"rh":true},{"note":70,"duration":1.25,"velocity":0.3228346,"rh":false},{"note":77,"duration":1.25,"velocity":0.3228346,"rh":false},{"note":53,"duration":1.25,"velocity":0.3385827,"rh":false},{"note":54,"duration":1.25,"velocity":0.3385827,"rh":false},{"note":58,"duration":1.25,"velocity":0.3385827,"rh":false},{"note":100,"duration":0,"velocity":60,"rh":false}]},{"acorde":[{"note":66,"duration":0.5,"velocity":0.5669292,"rh":true},{"note":70,"duration":0.5,"velocity":0.3149606,"rh":false},{"note":78,"duration":0.5,"velocity":0.3149606,"rh":false},{"note":54,"duration":0.5,"velocity":0.3307087,"rh":false},{"note":58,"duration":0.5,"velocity":0.3307087,"rh":false},{"note":63,"duration":0.5,"velocity":0.3307087,"rh":false},{"note":100,"duration":0,"velocity":70,"rh":false}]},{"acorde":[{"note":65,"duration":0.5,"velocity":0.5669292,"rh":true},{"note":70,"duration":0.5,"velocity":0.3228346,"rh":false},{"note":77,"duration":0.5,"velocity":0.3228346,"rh":false},{"note":53,"duration":0.5,"velocity":0.3228346,"rh":false},{"note":54,"duration":0.5,"velocity":0.3228346,"rh":false},{"note":58,"duration":0.5,"velocity":0.3228346,"rh":false}]},{"acorde":[{"note":63,"duration":0.5,"velocity":0.5590551,"rh":true},{"note":70,"duration":0.5,"velocity":0.3385827,"rh":false},{"note":75,"duration":0.5,"velocity":0.3385827,"rh":false},{"note":51,"duration":0.5,"velocity":0.3464567,"rh":false},{"note":54,"duration":0.5,"velocity":0.3464567,"rh":false},{"note":58,"duration":0.5,"velocity":0.3464567,"rh":false},{"note":100,"duration":0,"velocity":76,"rh":false}]},{"acorde":[{"note":65,"duration":0.5,"velocity":0.5984252,"rh":true},{"note":70,"duration":0.5,"velocity":0.3779528,"rh":false},{"note":77,"duration":0.5,"velocity":0.3779528,"rh":false},{"note":53,"duration":0.5,"velocity":0.3700787,"rh":false},{"note":54,"duration":0.5,"velocity":0.3700787,"rh":false},{"note":58,"duration":0.5,"velocity":0.3700787,"rh":false}]},{"acorde":[{"note":63,"duration":0.5,"velocity":0.5826772,"rh":true},{"note":70,"duration":0.5,"velocity":0.3779528,"rh":false},{"note":75,"duration":0.5,"velocity":0.3779528,"rh":false},{"note":51,"duration":0.5,"velocity":0.3858268,"rh":false},{"note":54,"duration":0.5,"velocity":0.3858268,"rh":false},{"note":58,"duration":0.5,"velocity":0.3858268,"rh":false},{"note":100,"duration":0,"velocity":71,"rh":false}]},{"acorde":[{"note":61,"duration":0.5,"velocity":0.5669292,"rh":true},{"note":70,"duration":0.5,"velocity":0.3858268,"rh":false},{"note":73,"duration":0.5,"velocity":0.3858268,"rh":false},{"note":49,"duration":0.5,"velocity":0.4094488,"rh":false},{"note":54,"duration":0.5,"velocity":0.4094488,"rh":false},{"note":58,"duration":0.5,"velocity":0.4094488,"rh":false}]},{"acorde":[{"note":63,"duration":0.5,"velocity":0.6299213,"rh":true},{"note":70,"duration":0.5,"velocity":0.4330709,"rh":false},{"note":75,"duration":0.5,"velocity":0.4330709,"rh":false},{"note":51,"duration":0.5,"velocity":0.4330709,"rh":false},{"note":54,"duration":0.5,"velocity":0.4330709,"rh":false},{"note":58,"duration":0.5,"velocity":0.4330709,"rh":false}]},{"acorde":[{"note":61,"duration":0.5,"velocity":0.6062992,"rh":true},{"note":70,"duration":0.5,"velocity":0.4251969,"rh":false},{"note":73,"duration":0.5,"velocity":0.4251969,"rh":false},{"note":49,"duration":0.5,"velocity":0.4488189,"rh":false},{"note":54,"duration":0.5,"velocity":0.4488189,"rh":false},{"note":58,"duration":0.5,"velocity":0.4488189,"rh":false}]},{"acorde":[{"note":60,"duration":0.75,"velocity":0.6220472,"rh":true},{"note":70,"duration":0.75,"velocity":0.4488189,"rh":false},{"note":72,"duration":0.75,"velocity":0.4488189,"rh":false},{"note":48,"duration":0.75,"velocity":0.480315,"rh":false},{"note":54,"duration":0.75,"velocity":0.480315,"rh":false},{"note":58,"duration":0.75,"velocity":0.480315,"rh":false},{"note":100,"duration":0,"velocity":65,"rh":false}]},{"acorde":[{"note":61,"duration":0.75,"velocity":0.6141732,"rh":true},{"note":70,"duration":0.75,"velocity":0.3937008,"rh":false},{"note":73,"duration":0.75,"velocity":0.3937008,"rh":false},{"note":49,"duration":0.75,"velocity":0.4015748,"rh":false},{"note":54,"duration":0.75,"velocity":0.4015748,"rh":false},{"note":58,"duration":0.75,"velocity":0.4015748,"rh":false},{"note":100,"duration":0,"velocity":60,"rh":false}]},{"acorde":[{"note":58,"duration":2.25,"velocity":0.5354331,"rh":true},{"note":66,"duration":2.25,"velocity":0.2913386,"rh":false},{"note":70,"duration":2.25,"velocity":0.2913386,"rh":false},{"note":46,"duration":1.5,"velocity":0.2834646,"rh":false},{"note":51,"duration":1.5,"velocity":0.2834646,"rh":false},{"note":54,"duration":1.5,"velocity":0.2834646,"rh":false}]},{"acorde":[{"note":32,"duration":4.5,"velocity":0.5511811,"rh":false},{"note":0,"duration":0.75,"velocity":0.7,"rh":false},{"note":100,"duration":0,"velocity":70,"rh":false}]},{"acorde":[{"note":54,"duration":0.75,"velocity":0.4645669,"rh":true},{"note":66,"duration":0.75,"velocity":0.2992126,"rh":false},{"note":42,"duration":0.75,"velocity":0.3070866,"rh":false}]},{"acorde":[{"note":56,"duration":0.75,"velocity":0.480315,"rh":true},{"note":63,"duration":0.75,"velocity":0.3149606,"rh":false},{"note":68,"duration":0.75,"velocity":0.3149606,"rh":false},{"note":48,"duration":1.5,"velocity":0.3070866,"rh":false},{"note":51,"duration":1.5,"velocity":0.3070866,"rh":false},{"note":44,"duration":0.75,"velocity":0.3149606,"rh":false},{"note":100,"duration":0,"velocity":75,"rh":false}]},{"acorde":[{"note":60,"duration":0.75,"velocity":0.511811,"rh":true},{"note":72,"duration":0.75,"velocity":0.3228346,"rh":false},{"note":48,"duration":0.75,"velocity":0.3228346,"rh":false}]},{"acorde":[{"note":58,"duration":0.75,"velocity":0.503937,"rh":true},{"note":66,"duration":0.75,"velocity":0.3149606,"rh":false},{"note":70,"duration":0.75,"velocity":0.3149606,"rh":false},{"note":51,"duration":1.5,"velocity":0.3149606,"rh":false},{"note":54,"duration":1.5,"velocity":0.3149606,"rh":false},{"note":46,"duration":0.75,"velocity":0.3149606,"rh":false}]},{"acorde":[{"note":54,"duration":0.75,"velocity":0.480315,"rh":true},{"note":66,"duration":0.75,"velocity":0.2913386,"rh":false},{"note":42,"duration":0.75,"velocity":0.2913386,"rh":false},{"note":100,"duration":0,"velocity":60,"rh":false}]},{"acorde":[{"note":0,"duration":0.5,"velocity":0.007874016,"rh":false},{"note":33,"duration":4.5,"velocity":0.6299213,"rh":false},{"note":100,"duration":0,"velocity":65,"rh":false}]},{"acorde":[{"note":54,"duration":0.5,"velocity":0.519685,"rh":true},{"note":60,"duration":0.5,"velocity":0.2992126,"rh":false},{"note":63,"duration":0.5,"velocity":0.2992126,"rh":false},{"note":66,"duration":0.5,"velocity":0.2992126,"rh":false},{"note":42,"duration":0.5,"velocity":0.3307087,"rh":false},{"note":48,"duration":0.5,"velocity":0.3307087,"rh":false},{"note":51,"duration":0.5,"velocity":0.3307087,"rh":false},{"note":100,"duration":0,"velocity":70,"rh":false}]},{"acorde":[{"note":54,"duration":0.5,"velocity":0.5354331,"rh":true},{"note":60,"duration":0.5,"velocity":0.3464567,"rh":false},{"note":63,"duration":0.5,"velocity":0.3464567,"rh":false},{"note":66,"duration":0.5,"velocity":0.3464567,"rh":false},{"note":42,"duration":0.5,"velocity":0.3700787,"rh":false},{"note":48,"duration":0.5,"velocity":0.3700787,"rh":false},{"note":51,"duration":0.5,"velocity":0.3700787,"rh":false},{"note":100,"duration":0,"velocity":75,"rh":false}]},{"acorde":[{"note":54,"duration":0.5,"velocity":0.5433071,"rh":true},{"note":60,"duration":0.5,"velocity":0.3858268,"rh":false},{"note":63,"duration":0.5,"velocity":0.3858268,"rh":false},{"note":66,"duration":0.5,"velocity":0.3858268,"rh":false},{"note":42,"duration":0.5,"velocity":0.4094488,"rh":false},{"note":48,"duration":0.5,"velocity":0.4094488,"rh":false},{"note":51,"duration":0.5,"velocity":0.4094488,"rh":false},{"note":100,"duration":0,"velocity":80,"rh":false}]},{"acorde":[{"note":54,"duration":0.5,"velocity":0.5590551,"rh":true},{"note":60,"duration":0.5,"velocity":0.4330709,"rh":false},{"note":63,"duration":0.5,"velocity":0.4330709,"rh":false},{"note":66,"duration":0.5,"velocity":0.4330709,"rh":false},{"note":42,"duration":0.5,"velocity":0.4488189,"rh":false},{"note":48,"duration":0.5,"velocity":0.4488189,"rh":false},{"note":51,"duration":0.5,"velocity":0.4488189,"rh":false},{"note":100,"duration":0,"velocity":65,"rh":false}]},{"acorde":[{"note":56,"duration":0.5,"velocity":0.5826772,"rh":true},{"note":60,"duration":0.5,"velocity":0.503937,"rh":false},{"note":63,"duration":0.5,"velocity":0.503937,"rh":false},{"note":68,"duration":0.5,"velocity":0.503937,"rh":false},{"note":44,"duration":0.5,"velocity":0.496063,"rh":false},{"note":48,"duration":0.5,"velocity":0.496063,"rh":false},{"note":51,"duration":0.5,"velocity":0.496063,"rh":false},{"note":100,"duration":0,"velocity":55,"rh":false}]},{"acorde":[{"note":54,"duration":1.5,"velocity":0.5354331,"rh":true},{"note":60,"duration":1.5,"velocity":0.4330709,"rh":false},{"note":63,"duration":1.5,"velocity":0.4330709,"rh":false},{"note":66,"duration":1.5,"velocity":0.4330709,"rh":false},{"note":42,"duration":1.5,"velocity":0.4488189,"rh":false},{"note":48,"duration":1.5,"velocity":0.4488189,"rh":false},{"note":51,"duration":1.5,"velocity":0.4488189,"rh":false}]},{"acorde":[{"note":34,"duration":4.5,"velocity":0.6299213,"rh":false},{"note":0,"duration":0.75,"velocity":0.7,"rh":false},{"note":100,"duration":0,"velocity":70,"rh":false}]},{"acorde":[{"note":54,"duration":0.75,"velocity":0.5590551,"rh":true},{"note":66,"duration":0.75,"velocity":0.3070866,"rh":false},{"note":61,"duration":2.25,"velocity":0.3070866,"rh":false},{"note":46,"duration":2.25,"velocity":0.3070866,"rh":false},{"note":49,"duration":2.25,"velocity":0.3070866,"rh":false},{"note":42,"duration":0.75,"velocity":0.3070866,"rh":false}]},{"acorde":[{"note":56,"duration":0.75,"velocity":0.5669292,"rh":true},{"note":68,"duration":0.75,"velocity":0.3149606,"rh":false},{"note":44,"duration":0.75,"velocity":0.3149606,"rh":false}]},{"acorde":[{"note":61,"duration":0.75,"velocity":0.6456693,"rh":true},{"note":73,"duration":0.75,"velocity":0.3307087,"rh":false},{"note":49,"duration":0.75,"velocity":0.3307087,"rh":false}]},{"acorde":[{"note":58,"duration":0.75,"velocity":0.6614173,"rh":true},{"note":70,"duration":0.75,"velocity":0.3070866,"rh":false},{"note":66,"duration":1.5,"velocity":0.3149606,"rh":false},{"note":49,"duration":1.5,"velocity":0.3149606,"rh":false},{"note":54,"duration":1.5,"velocity":0.3149606,"rh":false},{"note":46,"duration":0.75,"velocity":0.3070866,"rh":false},{"note":100,"duration":0,"velocity":65,"rh":false}]},{"acorde":[{"note":54,"duration":0.75,"velocity":0.527559,"rh":true},{"note":66,"duration":0.75,"velocity":0.2913386,"rh":false},{"note":42,"duration":0.75,"velocity":0.2913386,"rh":false}]},{"acorde":[{"note":0,"duration":0.5,"velocity":0.007874016,"rh":false},{"note":24,"duration":4.5,"velocity":0.2834646,"rh":false},{"note":36,"duration":4.5,"velocity":0.6299213,"rh":false}]},{"acorde":[{"note":54,"duration":0.5,"velocity":0.4645669,"rh":true},{"note":58,"duration":0.5,"velocity":0.2992126,"rh":false},{"note":63,"duration":0.5,"velocity":0.2992126,"rh":false},{"note":66,"duration":0.5,"velocity":0.2992126,"rh":false},{"note":42,"duration":0.5,"velocity":0.3307087,"rh":false},{"note":46,"duration":0.5,"velocity":0.3307087,"rh":false},{"note":51,"duration":0.5,"velocity":0.3307087,"rh":false}]},{"acorde":[{"note":54,"duration":0.5,"velocity":0.472441,"rh":true},{"note":58,"duration":0.5,"velocity":0.3464567,"rh":false},{"note":63,"duration":0.5,"velocity":0.3464567,"rh":false},{"note":66,"duration":0.5,"velocity":0.3464567,"rh":false},{"note":42,"duration":0.5,"velocity":0.3700787,"rh":false},{"note":46,"duration":0.5,"velocity":0.3700787,"rh":false},{"note":51,"duration":0.5,"velocity":0.3700787,"rh":false},{"note":100,"duration":0,"velocity":70,"rh":false}]},{"acorde":[{"note":54,"duration":0.5,"velocity":0.472441,"rh":true},{"note":58,"duration":0.5,"velocity":0.3858268,"rh":false},{"note":63,"duration":0.5,"velocity":0.3858268,"rh":false},{"note":66,"duration":0.5,"velocity":0.3858268,"rh":false},{"note":42,"duration":0.5,"velocity":0.4094488,"rh":false},{"note":46,"duration":0.5,"velocity":0.4094488,"rh":false},{"note":51,"duration":0.5,"velocity":0.4094488,"rh":false},{"note":100,"duration":0,"velocity":75,"rh":false}]},{"acorde":[{"note":54,"duration":0.5,"velocity":0.488189,"rh":true},{"note":58,"duration":0.5,"velocity":0.4330709,"rh":false},{"note":63,"duration":0.5,"velocity":0.4330709,"rh":false},{"note":66,"duration":0.5,"velocity":0.4330709,"rh":false},{"note":42,"duration":0.5,"velocity":0.4488189,"rh":false},{"note":46,"duration":0.5,"velocity":0.4488189,"rh":false},{"note":51,"duration":0.5,"velocity":0.4488189,"rh":false}]},{"acorde":[{"note":56,"duration":0.5,"velocity":0.519685,"rh":true},{"note":60,"duration":0.5,"velocity":0.503937,"rh":false},{"note":65,"duration":0.5,"velocity":0.503937,"rh":false},{"note":68,"duration":0.5,"velocity":0.503937,"rh":false},{"note":44,"duration":0.5,"velocity":0.511811,"rh":false},{"note":48,"duration":0.5,"velocity":0.511811,"rh":false},{"note":53,"duration":0.5,"velocity":0.511811,"rh":false},{"note":100,"duration":0,"velocity":65,"rh":false}]},{"acorde":[{"note":54,"duration":1.5,"velocity":0.503937,"rh":true},{"note":58,"duration":1.5,"velocity":0.4330709,"rh":false},{"note":63,"duration":1.5,"velocity":0.4330709,"rh":false},{"note":66,"duration":1.5,"velocity":0.4330709,"rh":false},{"note":42,"duration":1.5,"velocity":0.4409449,"rh":false},{"note":46,"duration":1.5,"velocity":0.4409449,"rh":false},{"note":51,"duration":1.5,"velocity":0.4409449,"rh":false}]},{"acorde":[{"note":25,"duration":4.5,"velocity":0.6299213,"rh":false},{"note":37,"duration":4.5,"velocity":0.6299213,"rh":false},{"note":0,"duration":0.75,"velocity":0.7,"rh":false}]},{"acorde":[{"note":54,"duration":0.75,"velocity":0.5590551,"rh":true},{"note":66,"duration":0.75,"velocity":0.480315,"rh":false},{"note":58,"duration":2.25,"velocity":0.480315,"rh":false},{"note":61,"duration":2.25,"velocity":0.480315,"rh":false},{"note":46,"duration":1.5,"velocity":0.472441,"rh":false},{"note":49,"duration":1.5,"velocity":0.472441,"rh":false},{"note":42,"duration":0.75,"velocity":0.480315,"rh":false}]},{"acorde":[{"note":56,"duration":0.75,"velocity":0.5984252,"rh":true},{"note":68,"duration":0.75,"velocity":0.488189,"rh":false},{"note":44,"duration":0.75,"velocity":0.488189,"rh":false}]},{"acorde":[{"note":63,"duration":0.75,"velocity":0.6771653,"rh":true},{"note":75,"duration":0.75,"velocity":0.5669292,"rh":false},{"note":51,"duration":0.75,"velocity":0.519685,"rh":false}]},{"acorde":[{"note":61,"duration":0.75,"velocity":0.6771653,"rh":true},{"note":73,"duration":0.75,"velocity":0.5748032,"rh":false},{"note":66,"duration":1.5,"velocity":0.488189,"rh":false},{"note":70,"duration":1.5,"velocity":0.488189,"rh":false},{"note":54,"duration":1.5,"velocity":0.488189,"rh":false},{"note":58,"duration":1.5,"velocity":0.488189,"rh":false},{"note":49,"duration":0.75,"velocity":0.496063,"rh":false}]},{"acorde":[{"note":58,"duration":0.75,"velocity":0.6377953,"rh":true},{"note":70,"duration":0.75,"velocity":0.5433071,"rh":false},{"note":46,"duration":0.75,"velocity":0.4645669,"rh":false}]},{"acorde":[{"note":0,"duration":0.5,"velocity":0.007874016,"rh":false},{"note":27,"duration":4,"velocity":0.6299213,"rh":false},{"note":39,"duration":4,"velocity":0.6299213,"rh":false}]},{"acorde":[{"note":58,"duration":0.5,"velocity":0.6456693,"rh":true},{"note":66,"duration":0.5,"velocity":0.472441,"rh":false},{"note":70,"duration":0.5,"velocity":0.472441,"rh":false},{"note":46,"duration":0.5,"velocity":0.519685,"rh":false},{"note":49,"duration":0.5,"velocity":0.519685,"rh":false},{"note":54,"duration":0.5,"velocity":0.519685,"rh":false},{"note":100,"duration":0,"velocity":70,"rh":false}]},{"acorde":[{"note":58,"duration":0.5,"velocity":0.6535433,"rh":true},{"note":66,"duration":0.5,"velocity":0.496063,"rh":false},{"note":70,"duration":0.5,"velocity":0.496063,"rh":false},{"note":46,"duration":0.5,"velocity":0.5354331,"rh":false},{"note":49,"duration":0.5,"velocity":0.5354331,"rh":false},{"note":54,"duration":0.5,"velocity":0.5354331,"rh":false},{"note":100,"duration":0,"velocity":81,"rh":false}]},{"acorde":[{"note":58,"duration":0.5,"velocity":0.6535433,"rh":true},{"note":66,"duration":0.5,"velocity":0.527559,"rh":false},{"note":70,"duration":0.5,"velocity":0.527559,"rh":false},{"note":46,"duration":0.5,"velocity":0.5590551,"rh":false},{"note":49,"duration":0.5,"velocity":0.5590551,"rh":false},{"note":54,"duration":0.5,"velocity":0.5590551,"rh":false}]},{"acorde":[{"note":58,"duration":0.5,"velocity":0.6614173,"rh":true},{"note":66,"duration":0.5,"velocity":0.5669292,"rh":false},{"note":70,"duration":0.5,"velocity":0.5669292,"rh":false},{"note":46,"duration":0.5,"velocity":0.5905512,"rh":false},{"note":49,"duration":0.5,"velocity":0.5905512,"rh":false},{"note":54,"duration":0.5,"velocity":0.5905512,"rh":false}]},{"acorde":[{"note":60,"duration":0.5,"velocity":0.6850393,"rh":true},{"note":68,"duration":0.5,"velocity":0.6220472,"rh":false},{"note":72,"duration":0.5,"velocity":0.6220472,"rh":false},{"note":48,"duration":0.5,"velocity":0.6377953,"rh":false},{"note":51,"duration":0.5,"velocity":0.6377953,"rh":false},{"note":56,"duration":0.5,"velocity":0.6377953,"rh":false}]},{"acorde":[{"note":58,"duration":0.5,"velocity":0.6535433,"rh":true},{"note":66,"duration":0.5,"velocity":0.6141732,"rh":false},{"note":70,"duration":0.5,"velocity":0.6141732,"rh":false},{"note":46,"duration":0.5,"velocity":0.6220472,"rh":false},{"note":49,"duration":0.5,"velocity":0.6220472,"rh":false},{"note":54,"duration":0.5,"velocity":0.6220472,"rh":false},{"note":100,"duration":0,"velocity":70,"rh":false}]},{"acorde":[{"note":61,"duration":0.5,"velocity":0.7007874,"rh":true},{"note":70,"duration":0.5,"velocity":0.7007874,"rh":false},{"note":73,"duration":0.5,"velocity":0.7007874,"rh":false},{"note":49,"duration":0.5,"velocity":0.7244095,"rh":false},{"note":54,"duration":0.5,"velocity":0.7244095,"rh":false},{"note":58,"duration":0.5,"velocity":0.7244095,"rh":false},{"note":100,"duration":0,"velocity":65,"rh":false}]},{"acorde":[{"note":63,"duration":0.5,"velocity":0.7244095,"rh":true},{"note":70,"duration":0.5,"velocity":0.7244095,"rh":false},{"note":75,"duration":0.5,"velocity":0.7244095,"rh":false},{"note":51,"duration":0.5,"velocity":0.7007874,"rh":false},{"note":54,"duration":0.5,"velocity":0.7007874,"rh":false},{"note":58,"duration":0.5,"velocity":0.7007874,"rh":false},{"note":100,"duration":0,"velocity":60,"rh":false}]},{"acorde":[{"note":53,"duration":3,"velocity":0.6614173,"rh":false},{"note":0,"duration":0.133,"velocity":0.7,"rh":false},{"note":100,"duration":0,"velocity":70,"rh":false}]},{"acorde":[{"note":56,"duration":2.867,"velocity":0.6614173,"rh":false},{"note":0,"duration":0.133,"velocity":0.7,"rh":false}]},{"acorde":[{"note":61,"duration":2.734,"velocity":0.6614173,"rh":false},{"note":0,"duration":0.132,"velocity":0.7,"rh":false}]},{"acorde":[{"note":65,"duration":2.602,"velocity":0.6535433,"rh":false},{"note":0,"duration":0.133,"velocity":0.7,"rh":false}]},{"acorde":[{"note":68,"duration":2.469,"velocity":0.6535433,"rh":false},{"note":0,"duration":0.133,"velocity":0.7,"rh":false}]},{"acorde":[{"note":73,"duration":2.336,"velocity":0.6535433,"rh":false},{"note":0,"duration":0.133,"velocity":0.7,"rh":false}]},{"acorde":[{"note":80,"duration":2.203,"velocity":0.6456693,"rh":false}]},{"acorde":[{"note":52,"duration":1.5,"velocity":0.5984252,"rh":false},{"note":0,"duration":0.133,"velocity":0.7,"rh":false}]},{"acorde":[{"note":56,"duration":1.367,"velocity":0.5905512,"rh":false},{"note":0,"duration":0.133,"velocity":0.7,"rh":false}]},{"acorde":[{"note":58,"duration":1.234,"velocity":0.5905512,"rh":false},{"note":0,"duration":0.132,"velocity":0.7,"rh":false}]},{"acorde":[{"note":61,"duration":1.102,"velocity":0.5826772,"rh":false},{"note":0,"duration":0.133,"velocity":0.7,"rh":false}]},{"acorde":[{"note":64,"duration":0.969,"velocity":0.5826772,"rh":false},{"note":0,"duration":0.133,"velocity":0.7,"rh":false}]},{"acorde":[{"note":68,"duration":0.836,"velocity":0.5826772,"rh":false},{"note":0,"duration":0.133,"velocity":0.7,"rh":false}]},{"acorde":[{"note":73,"duration":0.703,"velocity":0.5748032,"rh":false},{"note":0,"duration":0.133,"velocity":0.7,"rh":false}]},{"acorde":[{"note":80,"duration":0.57,"velocity":0.5748032,"rh":false}]},{"acorde":[{"note":51,"duration":3,"velocity":0.5590551,"rh":false},{"note":0,"duration":0.133,"velocity":0.7,"rh":false}]},{"acorde":[{"note":54,"duration":2.867,"velocity":0.5590551,"rh":false},{"note":0,"duration":0.133,"velocity":0.7,"rh":false}]},{"acorde":[{"note":56,"duration":2.734,"velocity":0.5511811,"rh":false},{"note":0,"duration":0.132,"velocity":0.7,"rh":false}]},{"acorde":[{"note":61,"duration":2.602,"velocity":0.5511811,"rh":false},{"note":0,"duration":0.133,"velocity":0.7,"rh":false}]},{"acorde":[{"note":63,"duration":2.469,"velocity":0.5511811,"rh":false},{"note":0,"duration":0.133,"velocity":0.7,"rh":false}]},{"acorde":[{"note":68,"duration":2.336,"velocity":0.5433071,"rh":false},{"note":0,"duration":0.133,"velocity":0.7,"rh":false}]},{"acorde":[{"note":73,"duration":2.203,"velocity":0.5433071,"rh":false},{"note":0,"duration":0.133,"velocity":0.7,"rh":false}]},{"acorde":[{"note":80,"duration":2.07,"velocity":0.5433071,"rh":false}]},{"acorde":[{"note":44,"duration":3,"velocity":0.472441,"rh":false},{"note":0,"duration":0.133,"velocity":0.7,"rh":false},{"note":100,"duration":0,"velocity":50,"rh":false}]},{"acorde":[{"note":51,"duration":2.867,"velocity":0.472441,"rh":false},{"note":0,"duration":0.133,"velocity":0.7,"rh":false}]},{"acorde":[{"note":54,"duration":2.734,"velocity":0.472441,"rh":false},{"note":0,"duration":0.132,"velocity":0.7,"rh":false}]},{"acorde":[{"note":56,"duration":2.602,"velocity":0.472441,"rh":false},{"note":0,"duration":0.133,"velocity":0.7,"rh":false}]},{"acorde":[{"note":60,"duration":2.469,"velocity":0.472441,"rh":false},{"note":0,"duration":0.133,"velocity":0.7,"rh":false}]},{"acorde":[{"note":63,"duration":2.336,"velocity":0.472441,"rh":false},{"note":0,"duration":0.133,"velocity":0.7,"rh":false}]},{"acorde":[{"note":68,"duration":2.203,"velocity":0.472441,"rh":false}]},{"acorde":[{"note":56,"duration":3,"velocity":0.5590551,"rh":true},{"note":53,"duration":3,"velocity":0.4488189,"rh":false},{"note":25,"duration":1.5,"velocity":0.480315,"rh":false},{"note":100,"duration":0,"velocity":75,"rh":false},{"note":0,"duration":0.25,"velocity":0.7,"rh":false}]},{"acorde":[{"note":32,"duration":0.25,"velocity":0.2992126,"rh":false}]},{"acorde":[{"note":37,"duration":0.25,"velocity":0.3070866,"rh":false}]},{"acorde":[{"note":41,"duration":0.25,"velocity":0.3700787,"rh":false}]},{"acorde":[{"note":44,"duration":0.25,"velocity":0.4330709,"rh":false}]},{"acorde":[{"note":49,"duration":0.25,"velocity":0.503937,"rh":false}]},{"acorde":[{"note":29,"duration":1.5,"velocity":0.488189,"rh":false},{"note":0,"duration":0.25,"velocity":0.7,"rh":false}]},{"acorde":[{"note":36,"duration":0.25,"velocity":0.2755905,"rh":false}]},{"acorde":[{"note":41,"duration":0.25,"velocity":0.3149606,"rh":false}]},{"acorde":[{"note":44,"duration":0.25,"velocity":0.3858268,"rh":false}]},{"acorde":[{"note":48,"duration":0.25,"velocity":0.4488189,"rh":false}]},{"acorde":[{"note":53,"duration":0.25,"velocity":0.503937,"rh":false}]},{"acorde":[{"note":59,"duration":1,"velocity":0.5590551,"rh":true},{"note":56,"duration":1,"velocity":0.480315,"rh":false},{"note":32,"duration":1.5,"velocity":0.5669292,"rh":false},{"note":0,"duration":0.25,"velocity":0.7,"rh":false}]},{"acorde":[{"note":40,"duration":0.25,"velocity":0.4173228,"rh":false}]},{"acorde":[{"note":44,"duration":0.25,"velocity":0.488189,"rh":false}]},{"acorde":[{"note":47,"duration":0.25,"velocity":0.5354331,"rh":false}]},{"acorde":[{"note":61,"duration":0.5,"velocity":0.5826772,"rh":true},{"note":52,"duration":0.25,"velocity":0.5511811,"rh":false}]},{"acorde":[{"note":56,"duration":0.25,"velocity":0.5511811,"rh":false}]},{"acorde":[{"note":56,"duration":3,"velocity":0.5354331,"rh":true},{"note":53,"duration":3,"velocity":0.472441,"rh":false},{"note":25,"duration":1.5,"velocity":0.472441,"rh":false},{"note":0,"duration":0.25,"velocity":0.7,"rh":false}]},{"acorde":[{"note":32,"duration":0.25,"velocity":0.2598425,"rh":false}]},{"acorde":[{"note":37,"duration":0.25,"velocity":0.2598425,"rh":false}]},{"acorde":[{"note":41,"duration":0.25,"velocity":0.3149606,"rh":false}]},{"acorde":[{"note":44,"duration":0.25,"velocity":0.4015748,"rh":false}]},{"acorde":[{"note":49,"duration":0.25,"velocity":0.503937,"rh":false}]},{"acorde":[{"note":29,"duration":1.5,"velocity":0.480315,"rh":false},{"note":0,"duration":0.25,"velocity":0.7,"rh":false}]},{"acorde":[{"note":36,"duration":0.25,"velocity":0.2598425,"rh":false}]},{"acorde":[{"note":41,"duration":0.25,"velocity":0.2913386,"rh":false}]},{"acorde":[{"note":44,"duration":0.25,"velocity":0.3779528,"rh":false}]},{"acorde":[{"note":48,"duration":0.25,"velocity":0.4488189,"rh":false}]},{"acorde":[{"note":53,"duration":0.25,"velocity":0.503937,"rh":false}]},{"acorde":[{"note":59,"duration":1,"velocity":0.5590551,"rh":true},{"note":56,"duration":1,"velocity":0.480315,"rh":false},{"note":32,"duration":1.5,"velocity":0.5669292,"rh":false},{"note":0,"duration":0.25,"velocity":0.7,"rh":false}]},{"acorde":[{"note":40,"duration":0.25,"velocity":0.4173228,"rh":false}]},{"acorde":[{"note":44,"duration":0.25,"velocity":0.480315,"rh":false}]},{"acorde":[{"note":47,"duration":0.25,"velocity":0.5354331,"rh":false}]},{"acorde":[{"note":56,"duration":0.25,"velocity":0.5590551,"rh":true},{"note":56,"duration":0.25,"velocity":0.5511811,"rh":false}]},{"acorde":[{"note":52,"duration":0.25,"velocity":0.5511811,"rh":false}]},{"acorde":[{"note":61,"duration":1,"velocity":0.7007874,"rh":true},{"note":53,"duration":1,"velocity":0.472441,"rh":false},{"note":25,"duration":0.25,"velocity":0.4094488,"rh":false}]},{"acorde":[{"note":32,"duration":0.25,"velocity":0.4094488,"rh":false}]},{"acorde":[{"note":37,"duration":0.25,"velocity":0.4173228,"rh":false}]},{"acorde":[{"note":41,"duration":0.25,"velocity":0.472441,"rh":false}]},{"acorde":[{"note":63,"duration":0.5,"velocity":0.7086614,"rh":true},{"note":56,"duration":0.5,"velocity":0.496063,"rh":false},{"note":44,"duration":0.25,"velocity":0.527559,"rh":false}]},{"acorde":[{"note":49,"duration":0.25,"velocity":0.5511811,"rh":false}]},{"acorde":[{"note":65,"duration":1.5,"velocity":0.7165354,"rh":true},{"note":61,"duration":1.5,"velocity":0.519685,"rh":false},{"note":53,"duration":0.25,"velocity":0.5511811,"rh":false}]},{"acorde":[{"note":56,"duration":0.25,"velocity":0.5511811,"rh":false}]},{"acorde":[{"note":53,"duration":0.25,"velocity":0.5511811,"rh":false}]},{"acorde":[{"note":49,"duration":0.25,"velocity":0.511811,"rh":false}]},{"acorde":[{"note":44,"duration":0.25,"velocity":0.4094488,"rh":false}]},{"acorde":[{"note":41,"duration":0.25,"velocity":0.4094488,"rh":false}]},{"acorde":[{"note":61,"duration":1,"velocity":0.6456693,"rh":true},{"note":53,"duration":1,"velocity":0.4566929,"rh":false},{"note":44,"duration":0.25,"velocity":0.4251969,"rh":false}]},{"acorde":[{"note":41,"duration":0.25,"velocity":0.4094488,"rh":false}]},{"acorde":[{"note":37,"duration":0.25,"velocity":0.4094488,"rh":false}]},{"acorde":[{"note":32,"duration":0.25,"velocity":0.4094488,"rh":false}]},{"acorde":[{"note":65,"duration":0.5,"velocity":0.6771653,"rh":true},{"note":61,"duration":0.5,"velocity":0.503937,"rh":false},{"note":37,"duration":0.25,"velocity":0.4094488,"rh":false}]},{"acorde":[{"note":32,"duration":0.25,"velocity":0.4094488,"rh":false}]},{"acorde":[{"note":67,"duration":0.5,"velocity":0.6929134,"rh":true},{"note":63,"duration":0.5,"velocity":0.511811,"rh":false},{"note":27,"duration":0.25,"velocity":0.4094488,"rh":false}]},{"acorde":[{"note":34,"duration":0.25,"velocity":0.4330709,"rh":false}]},{"acorde":[{"note":65,"duration":0.5,"velocity":0.6614173,"rh":true},{"note":61,"duration":0.5,"velocity":0.488189,"rh":false},{"note":39,"duration":0.25,"velocity":0.527559,"rh":false}]},{"acorde":[{"note":43,"duration":0.25,"velocity":0.5511811,"rh":false}]},{"acorde":[{"note":61,"duration":0.5,"velocity":0.6062992,"rh":true},{"note":58,"duration":0.5,"velocity":0.4566929,"rh":false},{"note":46,"duration":0.25,"velocity":0.5511811,"rh":false}]},{"acorde":[{"note":51,"duration":0.25,"velocity":0.5511811,"rh":false}]},{"acorde":[{"note":61,"duration":1.5,"velocity":0.6220472,"rh":true},{"note":58,"duration":1.5,"velocity":0.4566929,"rh":false},{"note":55,"duration":0.25,"velocity":0.5511811,"rh":false}]},{"acorde":[{"note":51,"duration":0.25,"velocity":0.5433071,"rh":false}]},{"acorde":[{"note":53,"duration":0.5,"velocity":0.5590551,"rh":false},{"note":46,"duration":0.25,"velocity":0.496063,"rh":false}]},{"acorde":[{"note":43,"duration":0.25,"velocity":0.4015748,"rh":false}]},{"acorde":[{"note":49,"duration":0.5,"velocity":0.5433071,"rh":false},{"note":39,"duration":0.25,"velocity":0.3622047,"rh":false}]},{"acorde":[{"note":34,"duration":0.25,"velocity":0.3464567,"rh":false}]},{"acorde":[{"note":49,"duration":0.75,"velocity":0.5433071,"rh":false},{"note":27,"duration":0.25,"velocity":0.3307087,"rh":false}]},{"acorde":[{"note":34,"duration":0.25,"velocity":0.3228346,"rh":false}]},{"acorde":[{"note":39,"duration":0.25,"velocity":0.3622047,"rh":false}]},{"acorde":[{"note":46,"duration":0.75,"velocity":0.4488189,"rh":false},{"note":43,"duration":0.25,"velocity":0.3937008,"rh":false}]},{"acorde":[{"note":39,"duration":0.25,"velocity":0.3228346,"rh":false}]},{"acorde":[{"note":34,"duration":0.25,"velocity":0.2677165,"rh":false}]},{"acorde":[{"note":58,"duration":3,"velocity":0.5511811,"rh":true},{"note":32,"duration":1.5,"velocity":0.480315,"rh":false},{"note":0,"duration":0.25,"velocity":0.7,"rh":false}]},{"acorde":[{"note":39,"duration":0.25,"velocity":0.3149606,"rh":false}]},{"acorde":[{"note":42,"duration":0.25,"velocity":0.3464567,"rh":false}]},{"acorde":[{"note":46,"duration":0.25,"velocity":0.4015748,"rh":false}]},{"acorde":[{"note":48,"duration":0.25,"velocity":0.4488189,"rh":false}]},{"acorde":[{"note":54,"duration":0.25,"velocity":0.503937,"rh":false}]},{"acorde":[{"note":30,"duration":1.5,"velocity":0.480315,"rh":false},{"note":0,"duration":0.25,"velocity":0.7,"rh":false}]},{"acorde":[{"note":37,"duration":0.25,"velocity":0.2677165,"rh":false}]},{"acorde":[{"note":42,"duration":0.25,"velocity":0.2992126,"rh":false}]},{"acorde":[{"note":46,"duration":0.25,"velocity":0.3464567,"rh":false}]},{"acorde":[{"note":49,"duration":0.25,"velocity":0.4015748,"rh":false}]},{"acorde":[{"note":54,"duration":0.25,"velocity":0.4488189,"rh":false}]},{"acorde":[{"note":60,"duration":1,"velocity":0.5590551,"rh":true},{"note":29,"duration":1.5,"velocity":0.5590551,"rh":false},{"note":0,"duration":0.25,"velocity":0.7,"rh":false}]},{"acorde":[{"note":36,"duration":0.25,"velocity":0.4094488,"rh":false}]},{"acorde":[{"note":41,"duration":0.25,"velocity":0.4251969,"rh":false}]},{"acorde":[{"note":44,"duration":0.25,"velocity":0.480315,"rh":false}]},{"acorde":[{"note":65,"duration":0.5,"velocity":0.6929134,"rh":true},{"note":56,"duration":0.25,"velocity":0.480315,"rh":false},{"note":48,"duration":0.5,"velocity":0.5511811,"rh":false}]},{"acorde":[{"note":53,"duration":0.25,"velocity":0.4645669,"rh":false}]},{"acorde":[{"note":58,"duration":3,"velocity":0.5354331,"rh":true},{"note":32,"duration":1.5,"velocity":0.480315,"rh":false},{"note":0,"duration":0.25,"velocity":0.7,"rh":false}]},{"acorde":[{"note":39,"duration":0.25,"velocity":0.2677165,"rh":false}]},{"acorde":[{"note":42,"duration":0.25,"velocity":0.2913386,"rh":false}]},{"acorde":[{"note":46,"duration":0.25,"velocity":0.3858268,"rh":false}]},{"acorde":[{"note":48,"duration":0.25,"velocity":0.4409449,"rh":false}]},{"acorde":[{"note":54,"duration":0.25,"velocity":0.503937,"rh":false}]},{"acorde":[{"note":30,"duration":1.5,"velocity":0.480315,"rh":false},{"note":0,"duration":0.25,"velocity":0.7,"rh":false}]},{"acorde":[{"note":37,"duration":0.25,"velocity":0.4094488,"rh":false}]},{"acorde":[{"note":42,"duration":0.25,"velocity":0.4330709,"rh":false}]},{"acorde":[{"note":46,"duration":0.25,"velocity":0.519685,"rh":false}]},{"acorde":[{"note":49,"duration":0.25,"velocity":0.5511811,"rh":false}]},{"acorde":[{"note":54,"duration":0.25,"velocity":0.5511811,"rh":false}]},{"acorde":[{"note":60,"duration":1,"velocity":0.5590551,"rh":true},{"note":29,"duration":1.5,"velocity":0.5590551,"rh":false},{"note":0,"duration":0.25,"velocity":0.7,"rh":false}]},{"acorde":[{"note":36,"duration":0.25,"velocity":0.4094488,"rh":false}]},{"acorde":[{"note":41,"duration":0.25,"velocity":0.4251969,"rh":false}]},{"acorde":[{"note":44,"duration":0.25,"velocity":0.480315,"rh":false}]},{"acorde":[{"note":65,"duration":0.5,"velocity":0.6535433,"rh":true},{"note":56,"duration":0.25,"velocity":0.480315,"rh":false},{"note":48,"duration":0.5,"velocity":0.5511811,"rh":false}]},{"acorde":[{"note":53,"duration":0.25,"velocity":0.4645669,"rh":false}]},{"acorde":[{"note":66,"duration":2.25,"velocity":0.6929134,"rh":true},{"note":27,"duration":1.5,"velocity":0.6535433,"rh":false},{"note":0,"duration":0.25,"velocity":0.7,"rh":false}]},{"acorde":[{"note":34,"duration":0.25,"velocity":0.472441,"rh":false}]},{"acorde":[{"note":39,"duration":0.25,"velocity":0.503937,"rh":false}]},{"acorde":[{"note":42,"duration":0.25,"velocity":0.5669292,"rh":false}]},{"acorde":[{"note":46,"duration":0.25,"velocity":0.6377953,"rh":false}]},{"acorde":[{"note":51,"duration":0.25,"velocity":0.6456693,"rh":false}]},{"acorde":[{"note":54,"duration":0.5,"velocity":0.6456693,"rh":false},{"note":0,"duration":0.25,"velocity":0.7,"rh":false}]},{"acorde":[{"note":54,"duration":0.25,"velocity":0.480315,"rh":false}]},{"acorde":[{"note":58,"duration":0.25,"velocity":0.503937,"rh":false}]},{"acorde":[{"note":65,"duration":0.75,"velocity":0.6614173,"rh":true},{"note":53,"duration":0.75,"velocity":0.5511811,"rh":false},{"note":0,"duration":0.25,"velocity":0.7,"rh":false}]},{"acorde":[{"note":54,"duration":0.25,"velocity":0.4645669,"rh":false}]},{"acorde":[{"note":58,"duration":0.25,"velocity":0.511811,"rh":false}]},{"acorde":[{"note":62,"duration":0.75,"velocity":0.6456693,"rh":true},{"note":50,"duration":0.75,"velocity":0.503937,"rh":false},{"note":0,"duration":0.25,"velocity":0.7,"rh":false}]},{"acorde":[{"note":54,"duration":0.25,"velocity":0.4566929,"rh":false}]},{"acorde":[{"note":58,"duration":0.25,"velocity":0.480315,"rh":false}]},{"acorde":[{"note":63,"duration":0.75,"velocity":0.6535433,"rh":true},{"note":51,"duration":0.75,"velocity":0.4330709,"rh":false},{"note":0,"duration":0.25,"velocity":0.7,"rh":false}]},{"acorde":[{"note":54,"duration":0.25,"velocity":0.3622047,"rh":false}]},{"acorde":[{"note":58,"duration":0.25,"velocity":0.3700787,"rh":false}]},{"acorde":[{"note":70,"duration":1.5,"velocity":0.7244095,"rh":true},{"note":50,"duration":1.5,"velocity":0.5590551,"rh":false},{"note":0,"duration":0.25,"velocity":0.7,"rh":false}]},{"acorde":[{"note":54,"duration":0.25,"velocity":0.5905512,"rh":false}]},{"acorde":[{"note":58,"duration":0.25,"velocity":0.6220472,"rh":false}]},{"acorde":[{"note":58,"duration":0.25,"velocity":0.5984252,"rh":false}]},{"acorde":[{"note":66,"duration":0.25,"velocity":0.5984252,"rh":false}]},{"acorde":[{"note":70,"duration":0.25,"velocity":0.5826772,"rh":false}]},{"acorde":[{"note":51,"duration":1.5,"velocity":0.5590551,"rh":false},{"note":0,"duration":0.25,"velocity":0.7,"rh":false}]},{"acorde":[{"note":54,"duration":0.25,"velocity":0.4094488,"rh":false}]},{"acorde":[{"note":58,"duration":0.25,"velocity":0.4566929,"rh":false}]},{"acorde":[{"note":58,"duration":0.25,"velocity":0.4566929,"rh":false}]},{"acorde":[{"note":66,"duration":0.25,"velocity":0.5511811,"rh":false}]},{"acorde":[{"note":70,"duration":0.25,"velocity":0.5511811,"rh":false}]},{"acorde":[{"note":68,"duration":1.5,"velocity":0.5590551,"rh":true},{"note":48,"duration":0.25,"velocity":0.4094488,"rh":false},{"note":44,"duration":1.5,"velocity":0.5354331,"rh":false}]},{"acorde":[{"note":52,"duration":0.25,"velocity":0.4094488,"rh":false}]},{"acorde":[{"note":56,"duration":0.25,"velocity":0.4015748,"rh":false}]},{"acorde":[{"note":60,"duration":0.25,"velocity":0.4566929,"rh":false}]},{"acorde":[{"note":64,"duration":0.25,"velocity":0.4409449,"rh":false}]},{"acorde":[{"note":68,"duration":0.25,"velocity":0.4015748,"rh":false}]},{"acorde":[{"note":25,"duration":1.5,"velocity":0.5433071,"rh":false},{"note":0,"duration":0.25,"velocity":0.7,"rh":false}]},{"acorde":[{"note":32,"duration":0.25,"velocity":0.4094488,"rh":false}]},{"acorde":[{"note":37,"duration":0.25,"velocity":0.4094488,"rh":false}]},{"acorde":[{"note":41,"duration":0.25,"velocity":0.4251969,"rh":false}]},{"acorde":[{"note":44,"duration":0.25,"velocity":0.4566929,"rh":false}]},{"acorde":[{"note":49,"duration":0.25,"velocity":0.5590551,"rh":false}]},{"acorde":[{"note":29,"duration":1.5,"velocity":0.5590551,"rh":false},{"note":0,"duration":0.25,"velocity":0.7,"rh":false}]},{"acorde":[{"note":36,"duration":0.25,"velocity":0.472441,"rh":false}]},{"acorde":[{"note":41,"duration":0.25,"velocity":0.503937,"rh":false}]},{"acorde":[{"note":44,"duration":0.25,"velocity":0.5826772,"rh":false}]},{"acorde":[{"note":48,"duration":0.25,"velocity":0.6456693,"rh":false}]},{"acorde":[{"note":53,"duration":0.25,"velocity":0.6456693,"rh":false}]},{"acorde":[{"note":25,"duration":1.5,"velocity":0.5511811,"rh":false},{"note":0,"duration":0.25,"velocity":0.7,"rh":false}]},{"acorde":[{"note":32,"duration":0.25,"velocity":0.4094488,"rh":false}]},{"acorde":[{"note":37,"duration":0.25,"velocity":0.4173228,"rh":false}]},{"acorde":[{"note":41,"duration":0.25,"velocity":0.488189,"rh":false}]},{"acorde":[{"note":44,"duration":0.25,"velocity":0.5748032,"rh":false}]},{"acorde":[{"note":49,"duration":0.25,"velocity":0.6141732,"rh":false}]},{"acorde":[{"note":29,"duration":1.5,"velocity":0.5669292,"rh":false},{"note":0,"duration":0.25,"velocity":0.7,"rh":false}]},{"acorde":[{"note":36,"duration":0.25,"velocity":0.480315,"rh":false}]},{"acorde":[{"note":41,"duration":0.25,"velocity":0.527559,"rh":false}]},{"acorde":[{"note":44,"duration":0.25,"velocity":0.5826772,"rh":false}]},{"acorde":[{"note":48,"duration":0.25,"velocity":0.5905512,"rh":false}]},{"acorde":[{"note":53,"duration":0.25,"velocity":0.5748032,"rh":false}]},{"acorde":[{"note":59,"duration":1.5,"velocity":0.6614173,"rh":true},{"note":56,"duration":1.5,"velocity":0.480315,"rh":false},{"note":32,"duration":3,"velocity":0.5669292,"rh":false},{"note":100,"duration":0,"velocity":73,"rh":false},{"note":0,"duration":0.25,"velocity":0.7,"rh":false}]},{"acorde":[{"note":40,"duration":0.25,"velocity":0.4173228,"rh":false}]},{"acorde":[{"note":44,"duration":0.25,"velocity":0.480315,"rh":false}]},{"acorde":[{"note":47,"duration":0.25,"velocity":0.5354331,"rh":false}]},{"acorde":[{"note":52,"duration":0.25,"velocity":0.5511811,"rh":false}]},{"acorde":[{"note":54,"duration":0.25,"velocity":0.5511811,"rh":false}]},{"acorde":[{"note":61,"duration":1.5,"velocity":0.6692913,"rh":true},{"note":52,"duration":1.5,"velocity":0.472441,"rh":false},{"note":56,"duration":1.5,"velocity":0.5511811,"rh":false}]},{"acorde":[{"note":37,"duration":1.5,"velocity":0.527559,"rh":true},{"note":100,"duration":0,"velocity":75,"rh":false},{"note":0,"duration":0.25,"velocity":0.7,"rh":false}]},{"acorde":[{"note":44,"duration":0.25,"velocity":0.4330709,"rh":false}]},{"acorde":[{"note":49,"duration":0.25,"velocity":0.488189,"rh":false}]},{"acorde":[{"note":53,"duration":0.25,"velocity":0.488189,"rh":false}]},{"acorde":[{"note":56,"duration":0.25,"velocity":0.4566929,"rh":false}]},{"acorde":[{"note":61,"duration":0.25,"velocity":0.4094488,"rh":false}]},{"acorde":[{"note":41,"duration":1.5,"velocity":0.5590551,"rh":true},{"note":0,"duration":0.25,"velocity":0.7,"rh":false}]},{"acorde":[{"note":48,"duration":0.25,"velocity":0.4173228,"rh":false}]},{"acorde":[{"note":53,"duration":0.25,"velocity":0.488189,"rh":false}]},{"acorde":[{"note":56,"duration":0.25,"velocity":0.496063,"rh":false}]},{"acorde":[{"note":60,"duration":0.25,"velocity":0.4645669,"rh":false}]},{"acorde":[{"note":65,"duration":0.25,"velocity":0.4094488,"rh":false}]},{"acorde":[{"note":37,"duration":1.5,"velocity":0.5511811,"rh":true},{"note":0,"duration":0.25,"velocity":0.7,"rh":false}]},{"acorde":[{"note":44,"duration":0.25,"velocity":0.4094488,"rh":false}]},{"acorde":[{"note":49,"duration":0.25,"velocity":0.4094488,"rh":false}]},{"acorde":[{"note":53,"duration":0.25,"velocity":0.4330709,"rh":false}]},{"acorde":[{"note":56,"duration":0.25,"velocity":0.4488189,"rh":false}]},{"acorde":[{"note":61,"duration":0.25,"velocity":0.4094488,"rh":false}]},{"acorde":[{"note":41,"duration":1.5,"velocity":0.5669292,"rh":true},{"note":0,"duration":0.25,"velocity":0.7,"rh":false}]},{"acorde":[{"note":48,"duration":0.25,"velocity":0.4094488,"rh":false}]},{"acorde":[{"note":53,"duration":0.25,"velocity":0.4645669,"rh":false}]},{"acorde":[{"note":56,"duration":0.25,"velocity":0.488189,"rh":false},{"note":100,"duration":0,"velocity":73,"rh":false}]},{"acorde":[{"note":60,"duration":0.25,"velocity":0.4645669,"rh":false}]},{"acorde":[{"note":65,"duration":0.25,"velocity":0.4094488,"rh":false}]},{"acorde":[{"note":59,"duration":1.5,"velocity":0.5984252,"rh":true},{"note":56,"duration":3,"velocity":0.480315,"rh":false},{"note":32,"duration":3,"velocity":0.480315,"rh":false},{"note":0,"duration":0.25,"velocity":0.7,"rh":false}]},{"acorde":[{"note":35,"duration":0.25,"velocity":0.4094488,"rh":false}]},{"acorde":[{"note":40,"duration":0.25,"velocity":0.4094488,"rh":false}]},{"acorde":[{"note":44,"duration":0.25,"velocity":0.3779528,"rh":false},{"note":100,"duration":0,"velocity":72,"rh":false}]},{"acorde":[{"note":47,"duration":0.25,"velocity":0.3779528,"rh":false}]},{"acorde":[{"note":52,"duration":1.75,"velocity":0.3937008,"rh":false},{"note":0,"duration":0.25,"velocity":0.7,"rh":false}]},{"acorde":[{"note":61,"duration":1.5,"velocity":0.496063,"rh":true}]},{"acorde":[{"note":59,"duration":1.5,"velocity":0.5590551,"rh":true},{"note":32,"duration":3,"velocity":0.480315,"rh":false},{"note":100,"duration":0,"velocity":70,"rh":false},{"note":0,"duration":0.25,"velocity":0.7,"rh":false}]},{"acorde":[{"note":35,"duration":0.25,"velocity":0.4409449,"rh":false}]},{"acorde":[{"note":40,"duration":0.25,"velocity":0.472441,"rh":false}]},{"acorde":[{"note":44,"duration":0.25,"velocity":0.472441,"rh":false},{"note":100,"duration":0,"velocity":67,"rh":false}]},{"acorde":[{"note":47,"duration":0.25,"velocity":0.4488189,"rh":false}]},{"acorde":[{"note":52,"duration":1.75,"velocity":0.4094488,"rh":false},{"note":0,"duration":0.25,"velocity":0.7,"rh":false}]},{"acorde":[{"note":61,"duration":1.5,"velocity":0.5669292,"rh":true}]},{"acorde":[{"note":64,"duration":1.5,"velocity":0.488189,"rh":true},{"note":32,"duration":1.5,"velocity":0.480315,"rh":false},{"note":100,"duration":0,"velocity":63,"rh":false}]},{"acorde":[{"note":68,"duration":3,"velocity":0.496063,"rh":true},{"note":65,"duration":3,"velocity":0.3070866,"rh":false},{"note":25,"duration":4.5,"velocity":0.472441,"rh":false},{"note":100,"duration":0,"velocity":61,"rh":false},{"note":0,"duration":0.25,"velocity":0.7,"rh":false}]},{"acorde":[{"note":32,"duration":0.25,"velocity":0.472441,"rh":false}]},{"acorde":[{"note":37,"duration":0.25,"velocity":0.488189,"rh":false}]},{"acorde":[{"note":41,"duration":0.25,"velocity":0.519685,"rh":false}]},{"acorde":[{"note":44,"duration":0.25,"velocity":0.5354331,"rh":false},{"note":100,"duration":0,"velocity":59,"rh":false}]},{"acorde":[{"note":49,"duration":0.25,"velocity":0.5354331,"rh":false}]},{"acorde":[{"note":53,"duration":0.5,"velocity":0.519685,"rh":false}]},{"acorde":[{"note":56,"duration":0.5,"velocity":0.488189,"rh":false},{"note":100,"duration":0,"velocity":56,"rh":false}]},{"acorde":[{"note":61,"duration":0.5,"velocity":0.472441,"rh":false}]},{"acorde":[{"note":65,"duration":0.5,"velocity":0.4409449,"rh":false},{"note":100,"duration":0,"velocity":52,"rh":false}]},{"acorde":[{"note":68,"duration":0.5,"velocity":0.4173228,"rh":false}]},{"acorde":[{"note":73,"duration":0.5,"velocity":0.3858268,"rh":false},{"note":100,"duration":0,"velocity":47,"rh":false}]},{"acorde":[{"note":68,"duration":3,"velocity":0.1574803,"rh":false},{"note":49,"duration":3,"velocity":0.3070866,"rh":false},{"note":0,"duration":0.133,"velocity":0.7,"rh":false}]},{"acorde":[{"note":73,"duration":2.867,"velocity":0.1574803,"rh":false},{"note":56,"duration":2.867,"velocity":0.3070866,"rh":false},{"note":0,"duration":0.133,"velocity":0.7,"rh":false}]},{"acorde":[{"note":77,"duration":2.734,"velocity":0.1574803,"rh":false},{"note":61,"duration":2.734,"velocity":0.3070866,"rh":false},{"note":0,"duration":0.132,"velocity":0.7,"rh":false}]},{"acorde":[{"note":80,"duration":2.602,"velocity":0.472441,"rh":false},{"note":65,"duration":2.602,"velocity":0.3070866,"rh":false}]}]}