{"Secuencia": [{"title":"Fur Elise"},{"acorde":[{"note": 100, "duration":0,"velocity": 40,"rh": false}]},{"acorde":[{ "note": 64, "duration":0.25, "velocity": 0.4015748, "rh": true}]},{"acorde":[{ "note": 63, "duration":0.25, "velocity": 0.6062992, "rh": true}]},{"acorde":[{ "note": 64, "duration":0.25, "velocity": 0.6850393, "rh": true}]},{"acorde":[{ "note": 63, "duration":0.25, "velocity": 0.6850393, "rh": true}]},{"acorde":[{ "note": 64, "duration":0.25, "velocity": 0.8110236, "rh": true}]},{"acorde":[{ "note": 59, "duration":0.25, "velocity": 0.5826772, "rh": true}]},{"acorde":[{ "note": 62, "duration":0.25, "velocity": 0.8110236, "rh": true}]},{"acorde":[{ "note": 60, "duration":0.25, "velocity": 0.5826772, "rh": true}]},{"acorde":[{ "note": 57, "duration":0.5, "velocity": 0.5354331, "rh": true},{ "note": 33, "duration":0.25, "velocity": 0.6062992, "rh": false}]},{"acorde":[{ "note": 40, "duration":0.25, "velocity": 0.7165354, "rh": false}]},{"acorde":[{ "note": 45, "duration":0.25, "velocity": 0.7795275, "rh": false}]},{"acorde":[{ "note": 48, "duration":0.25, "velocity": 0.5748032, "rh": true}]},{"acorde":[{ "note": 52, "duration":0.25, "velocity": 0.7401575, "rh": true}]},{"acorde":[{ "note": 57, "duration":0.25, "velocity": 0.8346457, "rh": true}]},{"acorde":[{ "note": 59, "duration":0.5, "velocity": 0.8346457, "rh": true},{ "note": 28, "duration":0.25, "velocity": 0.5826772, "rh": false}]},{"acorde":[{ "note": 40, "duration":0.25, "velocity": 0.7716535, "rh": false}]},{"acorde":[{ "note": 44, "duration":0.25, "velocity": 0.7795275, "rh": false}]},{"acorde":[{ "note": 52, "duration":0.25, "velocity": 0.5748032, "rh": true}]},{"acorde":[{ "note": 56, "duration":0.25, "velocity": 0.7952756, "rh": true}]},{"acorde":[{ "note": 59, "duration":0.25, "velocity": 0.7795275, "rh": true}]},{"acorde":[{ "note": 60, "duration":0.5, "velocity": 0.7401575, "rh": true},{ "note": 33, "duration":0.25, "velocity": 0.5984252, "rh": false}]},{"acorde":[{ "note": 40, "duration":0.25, "velocity": 0.7716535, "rh": false}]},{"acorde":[{ "note": 45, "duration":0.25, "velocity": 0.7086614, "rh": false}]},{"acorde":[{ "note": 52, "duration":0.25, "velocity": 0.6062992, "rh": true}]},{"acorde":[{ "note": 64, "duration":0.25, "velocity": 0.9606299, "rh": true}]},{"acorde":[{ "note": 63, "duration":0.25, "velocity": 0.6377953, "rh": true}]},{"acorde":[{ "note": 64, "duration":0.25, "velocity": 0.7007874, "rh": true}]},{"acorde":[{ "note": 63, "duration":0.25, "velocity": 0.7007874, "rh": true}]},{"acorde":[{ "note": 64, "duration":0.25, "velocity": 0.8031496, "rh": true}]},{"acorde":[{ "note": 59, "duration":0.25, "velocity": 0.5669292, "rh": true}]},{"acorde":[{ "note": 62, "duration":0.25, "velocity": 0.7716535, "rh": true}]},{"acorde":[{ "note": 60, "duration":0.25, "velocity": 0.6062992, "rh": true}]},{"acorde":[{ "note": 57, "duration":0.5, "velocity": 0.503937, "rh": true},{ "note": 33, "duration":0.25, "velocity": 0.6929134, "rh": false}]},{"acorde":[{ "note": 40, "duration":0.25, "velocity": 0.7637795, "rh": false}]},{"acorde":[{ "note": 45, "duration":0.25, "velocity": 0.7322835, "rh": false}]},{"acorde":[{ "note": 48, "duration":0.25, "velocity": 0.6771653, "rh": true}]},{"acorde":[{ "note": 52, "duration":0.25, "velocity": 0.7874016, "rh": true}]},{"acorde":[{ "note": 57, "duration":0.25, "velocity": 0.8818898, "rh": true}]},{"acorde":[{ "note": 59, "duration":0.5, "velocity": 0.8031496, "rh": true},{ "note": 28, "duration":0.25, "velocity": 0.5511811, "rh": false}]},{"acorde":[{ "note": 40, "duration":0.25, "velocity": 0.8110236, "rh": false}]},{"acorde":[{ "note": 44, "duration":0.25, "velocity": 0.7559055, "rh": false}]},{"acorde":[{ "note": 52, "duration":0.25, "velocity": 0.5905512, "rh": true}]},{"acorde":[{ "note": 60, "duration":0.25, "velocity": 0.8976378, "rh": true}]},{"acorde":[{ "note": 59, "duration":0.25, "velocity": 0.6377953, "rh": true}]},{"acorde":[{ "note": 57, "duration":1, "velocity": 0.5669292, "rh": true},{ "note": 33, "duration":0.25, "velocity": 0.6062992, "rh": false}]},{"acorde":[{ "note": 40, "duration":0.25, "velocity": 0.7637795, "rh": false}]},{"acorde":[{ "note": 45, "duration":0.25, "velocity": 0.7086614, "rh": false}]},{"acorde":[{ "note": 64, "duration":0.25, "velocity": 0.6062992, "rh": true}]},{"acorde":[{ "note": 63, "duration":0.25, "velocity": 0.6771653, "rh": true}]},{"acorde":[{ "note": 64, "duration":0.25, "velocity": 0.6850393, "rh": true}]},{"acorde":[{ "note": 63, "duration":0.25, "velocity": 0.6377953, "rh": true}]},{"acorde":[{ "note": 64, "duration":0.25, "velocity": 0.7952756, "rh": true}]},{"acorde":[{ "note": 59, "duration":0.25, "velocity": 0.6299213, "rh": true}]},{"acorde":[{ "note": 62, "duration":0.25, "velocity": 0.7874016, "rh": true}]},{"acorde":[{ "note": 60, "duration":0.25, "velocity": 0.5826772, "rh": true}]},{"acorde":[{ "note": 57, "duration":0.5, "velocity": 0.527559, "rh": true},{ "note": 33, "duration":0.25, "velocity": 0.5984252, "rh": false}]},{"acorde":[{ "note": 40, "duration":0.25, "velocity": 0.7480315, "rh": false}]},{"acorde":[{ "note": 45, "duration":0.25, "velocity": 0.7716535, "rh": false}]},{"acorde":[{ "note": 48, "duration":0.25, "velocity": 0.5984252, "rh": true}]},{"acorde":[{ "note": 52, "duration":0.25, "velocity": 0.8031496, "rh": true}]},{"acorde":[{ "note": 57, "duration":0.25, "velocity": 0.8976378, "rh": true}]},{"acorde":[{ "note": 59, "duration":0.5, "velocity": 0.7244095, "rh": true},{ "note": 28, "duration":0.25, "velocity": 0.6062992, "rh": false}]},{"acorde":[{ "note": 40, "duration":0.25, "velocity": 0.8110236, "rh": false}]},{"acorde":[{ "note": 44, "duration":0.25, "velocity": 0.7795275, "rh": false}]},{"acorde":[{ "note": 52, "duration":0.25, "velocity": 0.5748032, "rh": true}]},{"acorde":[{ "note": 56, "duration":0.25, "velocity": 0.7637795, "rh": true}]},{"acorde":[{ "note": 59, "duration":0.25, "velocity": 0.8582677, "rh": true}]},{"acorde":[{ "note": 60, "duration":0.5, "velocity": 0.7874016, "rh": true},{ "note": 33, "duration":0.25, "velocity": 0.5905512, "rh": false}]},{"acorde":[{ "note": 40, "duration":0.25, "velocity": 0.7322835, "rh": false}]},{"acorde":[{ "note": 45, "duration":0.25, "velocity": 0.6850393, "rh": false}]},{"acorde":[{ "note": 52, "duration":0.25, "velocity": 0.6062992, "rh": true}]},{"acorde":[{ "note": 64, "duration":0.25, "velocity": 0.8503937, "rh": true}]},{"acorde":[{ "note": 63, "duration":0.25, "velocity": 0.6771653, "rh": true}]},{"acorde":[{ "note": 64, "duration":0.25, "velocity": 0.7795275, "rh": true}]},{"acorde":[{ "note": 63, "duration":0.25, "velocity": 0.6377953, "rh": true}]},{"acorde":[{ "note": 64, "duration":0.25, "velocity": 0.8346457, "rh": true}]},{"acorde":[{ "note": 59, "duration":0.25, "velocity": 0.5826772, "rh": true}]},{"acorde":[{ "note": 62, "duration":0.25, "velocity": 0.7874016, "rh": true}]},{"acorde":[{ "note": 60, "duration":0.25, "velocity": 0.5905512, "rh": true}]},{"acorde":[{ "note": 57, "duration":0.5, "velocity": 0.488189, "rh": true},{ "note": 33, "duration":0.25, "velocity": 0.6929134, "rh": false}]},{"acorde":[{ "note": 40, "duration":0.25, "velocity": 0.7401575, "rh": false}]},{"acorde":[{ "note": 45, "duration":0.25, "velocity": 0.7637795, "rh": false}]},{"acorde":[{ "note": 48, "duration":0.25, "velocity": 0.7322835, "rh": true}]},{"acorde":[{ "note": 52, "duration":0.25, "velocity": 0.7637795, "rh": true}]},{"acorde":[{ "note": 57, "duration":0.25, "velocity": 0.8740157, "rh": true}]},{"acorde":[{ "note": 59, "duration":0.5, "velocity": 0.8188977, "rh": true},{ "note": 28, "duration":0.25, "velocity": 0.5590551, "rh": false}]},{"acorde":[{ "note": 40, "duration":0.25, "velocity": 0.7795275, "rh": false}]},{"acorde":[{ "note": 44, "duration":0.25, "velocity": 0.7716535, "rh": false}]},{"acorde":[{ "note": 52, "duration":0.25, "velocity": 0.6141732, "rh": true}]},{"acorde":[{ "note": 60, "duration":0.25, "velocity": 0.8976378, "rh": true}]},{"acorde":[{ "note": 59, "duration":0.25, "velocity": 0.6299213, "rh": true}]},{"acorde":[{ "note": 57, "duration":0.5, "velocity": 0.5748032, "rh": true},{ "note": 33, "duration":0.25, "velocity": 0.6220472, "rh": false}]},{"acorde":[{ "note": 40, "duration":0.25, "velocity": 0.7716535, "rh": false}]},{"acorde":[{ "note": 45, "duration":0.25, "velocity": 0.7244095, "rh": false}]},{"acorde":[{ "note": 59, "duration":0.25, "velocity": 0.6377953, "rh": true}]},{"acorde":[{ "note": 60, "duration":0.25, "velocity": 0.7874016, "rh": true}]},{"acorde":[{ "note": 62, "duration":0.25, "velocity": 0.7874016, "rh": true}]},{"acorde":[{ "note": 64, "duration":0.75, "velocity": 0.8818898, "rh": true},{ "note": 36, "duration":0.25, "velocity": 0.6062992, "rh": false}]},{"acorde":[{ "note": 43, "duration":0.25, "velocity": 0.7795275, "rh": false}]},{"acorde":[{ "note": 48, "duration":0.25, "velocity": 0.8897638, "rh": false}]},{"acorde":[{ "note": 55, "duration":0.25, "velocity": 0.5433071, "rh": true}]},{"acorde":[{ "note": 65, "duration":0.25, "velocity": 1, "rh": true}]},{"acorde":[{ "note": 64, "duration":0.25, "velocity": 0.7637795, "rh": true}]},{"acorde":[{ "note": 62, "duration":0.75, "velocity": 0.6771653, "rh": true},{ "note": 31, "duration":0.25, "velocity": 0.5984252, "rh": false}]},{"acorde":[{ "note": 43, "duration":0.25, "velocity": 0.8503937, "rh": false}]},{"acorde":[{ "note": 47, "duration":0.25, "velocity": 0.7795275, "rh": false}]},{"acorde":[{ "note": 53, "duration":0.25, "velocity": 0.5511811, "rh": true}]},{"acorde":[{ "note": 64, "duration":0.25, "velocity": 1, "rh": true}]},{"acorde":[{ "note": 62, "duration":0.25, "velocity": 0.7952756, "rh": true}]},{"acorde":[{ "note": 60, "duration":0.75, "velocity": 0.6535433, "rh": true},{ "note": 33, "duration":0.25, "velocity": 0.5984252, "rh": false}]},{"acorde":[{ "note": 40, "duration":0.25, "velocity": 0.7637795, "rh": false}]},{"acorde":[{ "note": 45, "duration":0.25, "velocity": 0.7480315, "rh": false}]},{"acorde":[{ "note": 52, "duration":0.25, "velocity": 0.5669292, "rh": true}]},{"acorde":[{ "note": 62, "duration":0.25, "velocity": 1, "rh": true}]},{"acorde":[{ "note": 60, "duration":0.25, "velocity": 0.8110236, "rh": true}]},{"acorde":[{ "note": 59, "duration":0.5, "velocity": 0.7244095, "rh": true},{ "note": 28, "duration":0.25, "velocity": 0.5748032, "rh": false}]},{"acorde":[{ "note": 40, "duration":0.25, "velocity": 0.8110236, "rh": false}]},{"acorde":[{ "note": 52, "duration":0.25, "velocity": 0.9212598, "rh": false}]},{"acorde":[{ "note": 52, "duration":0.25, "velocity": 0.5826772, "rh": false}]},{"acorde":[{ "note": 64, "duration":0.25, "velocity": 0.8267717, "rh": false}]},{"acorde":[{ "note": 52, "duration":0.25, "velocity": 0.6062992, "rh": false}]},{"acorde":[{ "note": 64, "duration":0.25, "velocity": 0.9527559, "rh": false}]},{"acorde":[{ "note": 64, "duration":0.25, "velocity": 0.5511811, "rh": false}]},{"acorde":[{ "note": 76, "duration":0.25, "velocity": 0.8346457, "rh": false}]},{"acorde":[{ "note": 63, "duration":0.25, "velocity": 0.511811, "rh": true}]},{"acorde":[{ "note": 64, "duration":0.25, "velocity": 0.5590551, "rh": true}]},{"acorde":[{ "note": 63, "duration":0.25, "velocity": 0.496063, "rh": true}]},{"acorde":[{ "note": 64, "duration":0.25, "velocity": 0.6535433, "rh": true}]},{"acorde":[{ "note": 63, "duration":0.25, "velocity": 0.6062992, "rh": true}]},{"acorde":[{ "note": 64, "duration":0.25, "velocity": 0.6535433, "rh": true}]},{"acorde":[{ "note": 63, "duration":0.25, "velocity": 0.5905512, "rh": true}]},{"acorde":[{ "note": 64, "duration":0.25, "velocity": 0.7874016, "rh": true}]},{"acorde":[{ "note": 63, "duration":0.25, "velocity": 0.5905512, "rh": true}]},{"acorde":[{ "note": 64, "duration":0.25, "velocity": 0.6850393, "rh": true}]},{"acorde":[{ "note": 63, "duration":0.25, "velocity": 0.6456693, "rh": true}]},{"acorde":[{ "note": 64, "duration":0.25, "velocity": 0.8267717, "rh": true}]},{"acorde":[{ "note": 59, "duration":0.25, "velocity": 0.5984252, "rh": true}]},{"acorde":[{ "note": 62, "duration":0.25, "velocity": 0.7952756, "rh": true}]},{"acorde":[{ "note": 60, "duration":0.25, "velocity": 0.5354331, "rh": true}]},{"acorde":[{ "note": 57, "duration":0.5, "velocity": 0.5511811, "rh": true},{ "note": 33, "duration":0.25, "velocity": 0.5984252, "rh": false}]},{"acorde":[{ "note": 40, "duration":0.25, "velocity": 0.7559055, "rh": false}]},{"acorde":[{ "note": 45, "duration":0.25, "velocity": 0.7480315, "rh": false}]},{"acorde":[{ "note": 48, "duration":0.25, "velocity": 0.5511811, "rh": true}]},{"acorde":[{ "note": 52, "duration":0.25, "velocity": 0.8267717, "rh": true}]},{"acorde":[{ "note": 57, "duration":0.25, "velocity": 0.8582677, "rh": true}]},{"acorde":[{ "note": 59, "duration":0.5, "velocity": 0.7952756, "rh": true},{ "note": 28, "duration":0.25, "velocity": 0.5826772, "rh": false}]},{"acorde":[{ "note": 40, "duration":0.25, "velocity": 0.8267717, "rh": false}]},{"acorde":[{ "note": 44, "duration":0.25, "velocity": 0.8188977, "rh": false}]},{"acorde":[{ "note": 52, "duration":0.25, "velocity": 0.5905512, "rh": true}]},{"acorde":[{ "note": 56, "duration":0.25, "velocity": 0.8188977, "rh": true}]},{"acorde":[{ "note": 59, "duration":0.25, "velocity": 0.7874016, "rh": true}]},{"acorde":[{ "note": 60, "duration":0.5, "velocity": 0.7559055, "rh": true},{ "note": 33, "duration":0.25, "velocity": 0.6377953, "rh": false}]},{"acorde":[{ "note": 40, "duration":0.25, "velocity": 0.7637795, "rh": false}]},{"acorde":[{ "note": 45, "duration":0.25, "velocity": 0.7637795, "rh": false}]},{"acorde":[{ "note": 52, "duration":0.25, "velocity": 0.6062992, "rh": true}]},{"acorde":[{ "note": 64, "duration":0.25, "velocity": 0.9133858, "rh": true}]},{"acorde":[{ "note": 63, "duration":0.25, "velocity": 0.6062992, "rh": true}]},{"acorde":[{ "note": 64, "duration":0.25, "velocity": 0.7480315, "rh": true}]},{"acorde":[{ "note": 63, "duration":0.25, "velocity": 0.7165354, "rh": true}]},{"acorde":[{ "note": 64, "duration":0.25, "velocity": 0.8188977, "rh": true}]},{"acorde":[{ "note": 59, "duration":0.25, "velocity": 0.6062992, "rh": true}]},{"acorde":[{ "note": 62, "duration":0.25, "velocity": 0.7637795, "rh": true}]},{"acorde":[{ "note": 60, "duration":0.25, "velocity": 0.6456693, "rh": true}]},{"acorde":[{ "note": 57, "duration":0.5, "velocity": 0.519685, "rh": true},{ "note": 33, "duration":0.25, "velocity": 0.6692913, "rh": false}]},{"acorde":[{ "note": 40, "duration":0.25, "velocity": 0.7716535, "rh": false}]},{"acorde":[{ "note": 45, "duration":0.25, "velocity": 0.7244095, "rh": false}]},{"acorde":[{ "note": 48, "duration":0.25, "velocity": 0.5590551, "rh": true}]},{"acorde":[{ "note": 52, "duration":0.25, "velocity": 0.7637795, "rh": true}]},{"acorde":[{ "note": 57, "duration":0.25, "velocity": 0.8346457, "rh": true}]},{"acorde":[{ "note": 59, "duration":0.5, "velocity": 0.7952756, "rh": true},{ "note": 28, "duration":0.25, "velocity": 0.5669292, "rh": false}]},{"acorde":[{ "note": 40, "duration":0.25, "velocity": 0.7559055, "rh": false}]},{"acorde":[{ "note": 44, "duration":0.25, "velocity": 0.8267717, "rh": false}]},{"acorde":[{ "note": 52, "duration":0.25, "velocity": 0.5748032, "rh": true}]},{"acorde":[{ "note": 60, "duration":0.25, "velocity": 0.8503937, "rh": true}]},{"acorde":[{ "note": 59, "duration":0.25, "velocity": 0.6850393, "rh": true}]},{"acorde":[{ "note": 57, "duration":0.5, "velocity": 0.5511811, "rh": true},{ "note": 33, "duration":0.25, "velocity": 0.6062992, "rh": false}]},{"acorde":[{ "note": 40, "duration":0.25, "velocity": 0.7244095, "rh": false}]},{"acorde":[{ "note": 45, "duration":0.25, "velocity": 0.7322835, "rh": false}]},{"acorde":[{ "note": 59, "duration":0.25, "velocity": 0.5905512, "rh": true}]},{"acorde":[{ "note": 60, "duration":0.25, "velocity": 0.7322835, "rh": true}]},{"acorde":[{ "note": 62, "duration":0.25, "velocity": 0.7322835, "rh": true}]},{"acorde":[{ "note": 64, "duration":0.75, "velocity": 0.8897638, "rh": true},{ "note": 36, "duration":0.25, "velocity": 0.7244095, "rh": false}]},{"acorde":[{ "note": 43, "duration":0.25, "velocity": 0.8897638, "rh": false}]},{"acorde":[{ "note": 48, "duration":0.25, "velocity": 1, "rh": false}]},{"acorde":[{ "note": 55, "duration":0.25, "velocity": 0.5590551, "rh": true}]},{"acorde":[{ "note": 65, "duration":0.25, "velocity": 1, "rh": true}]},{"acorde":[{ "note": 64, "duration":0.25, "velocity": 0.7874016, "rh": true}]},{"acorde":[{ "note": 62, "duration":0.75, "velocity": 0.6850393, "rh": true},{ "note": 31, "duration":0.25, "velocity": 0.7637795, "rh": false}]},{"acorde":[{ "note": 43, "duration":0.25, "velocity": 0.9370078, "rh": false}]},{"acorde":[{ "note": 47, "duration":0.25, "velocity": 0.9291338, "rh": false}]},{"acorde":[{ "note": 53, "duration":0.25, "velocity": 0.496063, "rh": true}]},{"acorde":[{ "note": 64, "duration":0.25, "velocity": 1, "rh": true}]},{"acorde":[{ "note": 62, "duration":0.25, "velocity": 0.7401575, "rh": true}]},{"acorde":[{ "note": 60, "duration":0.75, "velocity": 0.6692913, "rh": true},{ "note": 33, "duration":0.25, "velocity": 0.6850393, "rh": false}]},{"acorde":[{ "note": 40, "duration":0.25, "velocity": 0.8425197, "rh": false}]},{"acorde":[{ "note": 45, "duration":0.25, "velocity": 0.9133858, "rh": false}]},{"acorde":[{ "note": 52, "duration":0.25, "velocity": 0.5511811, "rh": true}]},{"acorde":[{ "note": 62, "duration":0.25, "velocity": 1, "rh": true}]},{"acorde":[{ "note": 60, "duration":0.25, "velocity": 0.6929134, "rh": true}]},{"acorde":[{ "note": 59, "duration":0.5, "velocity": 0.6614173, "rh": true},{ "note": 28, "duration":0.25, "velocity": 0.6929134, "rh": false}]},{"acorde":[{ "note": 40, "duration":0.25, "velocity": 0.9291338, "rh": false}]},{"acorde":[{ "note": 52, "duration":0.25, "velocity": 1, "rh": false}]},{"acorde":[{ "note": 52, "duration":0.25, "velocity": 0.5590551, "rh": false}]},{"acorde":[{ "note": 64, "duration":0.25, "velocity": 0.9133858, "rh": false}]},{"acorde":[{ "note": 52, "duration":0.25, "velocity": 0.6535433, "rh": false}]},{"acorde":[{ "note": 64, "duration":0.25, "velocity": 1, "rh": false}]},{"acorde":[{ "note": 64, "duration":0.25, "velocity": 0.519685, "rh": false}]},{"acorde":[{ "note": 76, "duration":0.25, "velocity": 0.8267717, "rh": false}]},{"acorde":[{ "note": 63, "duration":0.25, "velocity": 0.496063, "rh": true}]},{"acorde":[{ "note": 64, "duration":0.25, "velocity": 0.6062992, "rh": true}]},{"acorde":[{ "note": 63, "duration":0.25, "velocity": 0.519685, "rh": true}]},{"acorde":[{ "note": 64, "duration":0.25, "velocity": 0.6141732, "rh": true}]},{"acorde":[{ "note": 63, "duration":0.25, "velocity": 0.5669292, "rh": true}]},{"acorde":[{ "note": 64, "duration":0.25, "velocity": 0.6535433, "rh": true}]},{"acorde":[{ "note": 63, "duration":0.25, "velocity": 0.5511811, "rh": true}]},{"acorde":[{ "note": 64, "duration":0.25, "velocity": 0.7244095, "rh": true}]},{"acorde":[{ "note": 63, "duration":0.25, "velocity": 0.5984252, "rh": true}]},{"acorde":[{ "note": 64, "duration":0.25, "velocity": 0.6929134, "rh": true}]},{"acorde":[{ "note": 63, "duration":0.25, "velocity": 0.6929134, "rh": true}]},{"acorde":[{ "note": 64, "duration":0.25, "velocity": 0.8110236, "rh": true}]},{"acorde":[{ "note": 59, "duration":0.25, "velocity": 0.5984252, "rh": true}]},{"acorde":[{ "note": 62, "duration":0.25, "velocity": 0.7952756, "rh": true}]},{"acorde":[{ "note": 60, "duration":0.25, "velocity": 0.5590551, "rh": true}]},{"acorde":[{ "note": 57, "duration":0.5, "velocity": 0.5511811, "rh": true},{ "note": 33, "duration":0.25, "velocity": 0.5826772, "rh": false}]},{"acorde":[{ "note": 40, "duration":0.25, "velocity": 0.8110236, "rh": false}]},{"acorde":[{ "note": 45, "duration":0.25, "velocity": 0.7401575, "rh": false}]},{"acorde":[{ "note": 48, "duration":0.25, "velocity": 0.5826772, "rh": true}]},{"acorde":[{ "note": 52, "duration":0.25, "velocity": 0.8267717, "rh": true}]},{"acorde":[{ "note": 57, "duration":0.25, "velocity": 0.8740157, "rh": true}]},{"acorde":[{ "note": 59, "duration":0.5, "velocity": 0.8188977, "rh": true},{ "note": 28, "duration":0.25, "velocity": 0.6220472, "rh": false}]},{"acorde":[{ "note": 40, "duration":0.25, "velocity": 0.8503937, "rh": false}]},{"acorde":[{ "note": 44, "duration":0.25, "velocity": 0.8031496, "rh": false}]},{"acorde":[{ "note": 52, "duration":0.25, "velocity": 0.5905512, "rh": true}]},{"acorde":[{ "note": 56, "duration":0.25, "velocity": 0.7559055, "rh": true}]},{"acorde":[{ "note": 59, "duration":0.25, "velocity": 0.8267717, "rh": true}]},{"acorde":[{ "note": 60, "duration":0.5, "velocity": 0.7952756, "rh": true},{ "note": 33, "duration":0.25, "velocity": 0.5905512, "rh": false}]},{"acorde":[{ "note": 40, "duration":0.25, "velocity": 0.7716535, "rh": false}]},{"acorde":[{ "note": 45, "duration":0.25, "velocity": 0.7874016, "rh": false}]},{"acorde":[{ "note": 52, "duration":0.25, "velocity": 0.6692913, "rh": true}]},{"acorde":[{ "note": 64, "duration":0.25, "velocity": 0.9133858, "rh": true}]},{"acorde":[{ "note": 63, "duration":0.25, "velocity": 0.6220472, "rh": true}]},{"acorde":[{ "note": 64, "duration":0.25, "velocity": 0.7401575, "rh": true}]},{"acorde":[{ "note": 63, "duration":0.25, "velocity": 0.6456693, "rh": true}]},{"acorde":[{ "note": 64, "duration":0.25, "velocity": 0.8346457, "rh": true}]},{"acorde":[{ "note": 59, "duration":0.25, "velocity": 0.6456693, "rh": true}]},{"acorde":[{ "note": 62, "duration":0.25, "velocity": 0.8267717, "rh": true}]},{"acorde":[{ "note": 60, "duration":0.25, "velocity": 0.5826772, "rh": true}]},{"acorde":[{ "note": 57, "duration":0.5, "velocity": 0.511811, "rh": true},{ "note": 33, "duration":0.25, "velocity": 0.6062992, "rh": false}]},{"acorde":[{ "note": 40, "duration":0.25, "velocity": 0.7637795, "rh": false}]},{"acorde":[{ "note": 45, "duration":0.25, "velocity": 0.7716535, "rh": false}]},{"acorde":[{ "note": 48, "duration":0.25, "velocity": 0.527559, "rh": true}]},{"acorde":[{ "note": 52, "duration":0.25, "velocity": 0.7952756, "rh": true}]},{"acorde":[{ "note": 57, "duration":0.25, "velocity": 0.8818898, "rh": true}]},{"acorde":[{ "note": 59, "duration":0.5, "velocity": 0.7952756, "rh": true},{ "note": 28, "duration":0.25, "velocity": 0.5905512, "rh": false}]},{"acorde":[{ "note": 40, "duration":0.25, "velocity": 0.8582677, "rh": false}]},{"acorde":[{ "note": 44, "duration":0.25, "velocity": 0.7559055, "rh": false}]},{"acorde":[{ "note": 52, "duration":0.25, "velocity": 0.6141732, "rh": true},{"note": 100, "duration":0,"velocity": 35,"rh": false}]},{"acorde":[{ "note": 60, "duration":0.25, "velocity": 0.8740157, "rh": true},{"note": 100, "duration":0,"velocity": 27,"rh": false}]},{"acorde":[{ "note": 59, "duration":0.25, "velocity": 0.6771653, "rh": true},{"note": 100, "duration":0,"velocity": 20,"rh": false}]},{"acorde":[{ "note": 57, "duration":1, "velocity": 0.5590551, "rh": true},{ "note": 33, "duration":1, "velocity": 0.5905512, "rh": false}]}]}