{"Secuencia": [{"title":"Gymnopedie N.3"},{"acorde":[{"note": 100, "duration":0,"velocity": 60,"rh": false}]},{"acorde":[{ "note": 33, "duration":3, "velocity": 0.480315, "rh": false},{ "note": 0, "duration":1, "velocity": 0.5984252, "rh": false}]},{"acorde":[{ "note": 48, "duration":2, "velocity": 0.480315, "rh": false},{ "note": 52, "duration":2, "velocity": 0.480315, "rh": false},{ "note": 57, "duration":2, "velocity": 0.480315, "rh": false}]},{"acorde":[{ "note": 26, "duration":3, "velocity": 0.480315, "rh": false},{ "note": 0, "duration":1, "velocity": 0.5984252, "rh": false}]},{"acorde":[{ "note": 47, "duration":2, "velocity": 0.480315, "rh": false},{ "note": 52, "duration":2, "velocity": 0.480315, "rh": false},{ "note": 55, "duration":2, "velocity": 0.480315, "rh": false}]},{"acorde":[{ "note": 33, "duration":3, "velocity": 0.480315, "rh": false},{ "note": 0, "duration":1, "velocity": 0.5984252, "rh": false}]},{"acorde":[{ "note": 48, "duration":2, "velocity": 0.480315, "rh": false},{ "note": 52, "duration":2, "velocity": 0.480315, "rh": false},{ "note": 57, "duration":2, "velocity": 0.480315, "rh": false}]},{"acorde":[{ "note": 26, "duration":3, "velocity": 0.480315, "rh": false},{ "note": 0, "duration":1, "velocity": 0.5984252, "rh": false}]},{"acorde":[{ "note": 47, "duration":2, "velocity": 0.480315, "rh": false},{ "note": 52, "duration":2, "velocity": 0.480315, "rh": false},{ "note": 55, "duration":2, "velocity": 0.480315, "rh": false}]},{"acorde":[{ "note": 69, "duration":3, "velocity": 0.5590551, "rh": true},{ "note": 33, "duration":3, "velocity": 0.480315, "rh": false},{ "note": 0, "duration":1, "velocity": 0.5984252, "rh": false}]},{"acorde":[{ "note": 48, "duration":2, "velocity": 0.480315, "rh": false},{ "note": 52, "duration":2, "velocity": 0.480315, "rh": false},{ "note": 57, "duration":2, "velocity": 0.480315, "rh": false}]},{"acorde":[{ "note": 67, "duration":1, "velocity": 0.5590551, "rh": true},{ "note": 36, "duration":3, "velocity": 0.480315, "rh": false}]},{"acorde":[{ "note": 65, "duration":1, "velocity": 0.5905512, "rh": true},{ "note": 48, "duration":2, "velocity": 0.503937, "rh": false},{ "note": 52, "duration":2, "velocity": 0.503937, "rh": false},{ "note": 57, "duration":2, "velocity": 0.503937, "rh": false}]},{"acorde":[{ "note": 64, "duration":1, "velocity": 0.6220472, "rh": true}]},{"acorde":[{ "note": 62, "duration":1, "velocity": 0.6535433, "rh": true},{ "note": 31, "duration":3, "velocity": 0.5590551, "rh": false}]},{"acorde":[{ "note": 64, "duration":1, "velocity": 0.6614173, "rh": true},{ "note": 46, "duration":2, "velocity": 0.5590551, "rh": false},{ "note": 50, "duration":2, "velocity": 0.5590551, "rh": false},{ "note": 55, "duration":2, "velocity": 0.5590551, "rh": false}]},{"acorde":[{ "note": 65, "duration":1, "velocity": 0.6614173, "rh": true}]},{"acorde":[{ "note": 64, "duration":1, "velocity": 0.6299213, "rh": true},{ "note": 26, "duration":3, "velocity": 0.527559, "rh": false}]},{"acorde":[{ "note": 62, "duration":1, "velocity": 0.6062992, "rh": true},{ "note": 45, "duration":2, "velocity": 0.511811, "rh": false},{ "note": 50, "duration":2, "velocity": 0.511811, "rh": false},{ "note": 53, "duration":2, "velocity": 0.511811, "rh": false}]},{"acorde":[{ "note": 60, "duration":1, "velocity": 0.5826772, "rh": true}]},{"acorde":[{ "note": 64, "duration":3, "velocity": 0.5669292, "rh": true},{ "note": 33, "duration":3, "velocity": 0.480315, "rh": false},{ "note": 0, "duration":1, "velocity": 0.5590551, "rh": false}]},{"acorde":[{ "note": 45, "duration":2, "velocity": 0.480315, "rh": false},{ "note": 48, "duration":2, "velocity": 0.480315, "rh": false},{ "note": 52, "duration":2, "velocity": 0.480315, "rh": false}]},{"acorde":[{ "note": 67, "duration":2, "velocity": 0.5590551, "rh": true},{ "note": 28, "duration":3, "velocity": 0.480315, "rh": false},{ "note": 0, "duration":1, "velocity": 0.5590551, "rh": false}]},{"acorde":[{ "note": 43, "duration":2, "velocity": 0.503937, "rh": false},{ "note": 47, "duration":2, "velocity": 0.503937, "rh": false},{ "note": 52, "duration":2, "velocity": 0.503937, "rh": false},{ "note": 0, "duration":1, "velocity": 0.7, "rh": false}]},{"acorde":[{ "note": 67, "duration":1, "velocity": 0.6614173, "rh": true}]},{"acorde":[{ "note": 62, "duration":6, "velocity": 0.6456693, "rh": true},{ "note": 31, "duration":3, "velocity": 0.5590551, "rh": false},{ "note": 0, "duration":1, "velocity": 0.5590551, "rh": false}]},{"acorde":[{ "note": 38, "duration":2, "velocity": 0.5433071, "rh": false},{ "note": 43, "duration":2, "velocity": 0.5433071, "rh": false},{ "note": 47, "duration":2, "velocity": 0.5433071, "rh": false},{ "note": 53, "duration":2, "velocity": 0.5433071, "rh": false},{ "note": 57, "duration":2, "velocity": 0.5433071, "rh": false}]},{"acorde":[{ "note": 26, "duration":3, "velocity": 0.503937, "rh": false},{ "note": 0, "duration":1, "velocity": 0.503937, "rh": false}]},{"acorde":[{ "note": 45, "duration":2, "velocity": 0.480315, "rh": false},{ "note": 48, "duration":2, "velocity": 0.480315, "rh": false},{ "note": 53, "duration":2, "velocity": 0.480315, "rh": false}]},{"acorde":[{ "note": 62, "duration":3, "velocity": 0.5590551, "rh": true},{ "note": 31, "duration":3, "velocity": 0.480315, "rh": false},{ "note": 0, "duration":1, "velocity": 0.480315, "rh": false}]},{"acorde":[{ "note": 38, "duration":2, "velocity": 0.480315, "rh": false},{ "note": 43, "duration":2, "velocity": 0.480315, "rh": false},{ "note": 47, "duration":2, "velocity": 0.480315, "rh": false},{ "note": 53, "duration":2, "velocity": 0.480315, "rh": false},{ "note": 57, "duration":2, "velocity": 0.480315, "rh": false}]},{"acorde":[{ "note": 26, "duration":3, "velocity": 0.480315, "rh": false},{ "note": 0, "duration":1, "velocity": 0.480315, "rh": false}]},{"acorde":[{ "note": 60, "duration":1, "velocity": 0.5590551, "rh": true},{ "note": 45, "duration":2, "velocity": 0.480315, "rh": false},{ "note": 48, "duration":2, "velocity": 0.480315, "rh": false},{ "note": 53, "duration":2, "velocity": 0.480315, "rh": false}]},{"acorde":[{ "note": 65, "duration":1, "velocity": 0.5905512, "rh": true}]},{"acorde":[{ "note": 67, "duration":2, "velocity": 0.5984252, "rh": true},{ "note": 31, "duration":3, "velocity": 0.480315, "rh": false},{ "note": 0, "duration":1, "velocity": 0.480315, "rh": false}]},{"acorde":[{ "note": 47, "duration":2, "velocity": 0.503937, "rh": false},{ "note": 52, "duration":2, "velocity": 0.503937, "rh": false},{ "note": 55, "duration":2, "velocity": 0.503937, "rh": false},{ "note": 0, "duration":1, "velocity": 0.7, "rh": false}]},{"acorde":[{ "note": 69, "duration":1, "velocity": 0.6299213, "rh": true}]},{"acorde":[{ "note": 62, "duration":1, "velocity": 0.6377953, "rh": true},{ "note": 31, "duration":3, "velocity": 0.5590551, "rh": false}]},{"acorde":[{ "note": 64, "duration":1, "velocity": 0.6614173, "rh": true},{ "note": 45, "duration":2, "velocity": 0.5590551, "rh": false},{ "note": 48, "duration":2, "velocity": 0.5590551, "rh": false},{ "note": 53, "duration":2, "velocity": 0.5590551, "rh": false}]},{"acorde":[{ "note": 65, "duration":1, "velocity": 0.6614173, "rh": true}]},{"acorde":[{ "note": 59, "duration":1, "velocity": 0.6377953, "rh": true},{ "note": 31, "duration":3, "velocity": 0.5590551, "rh": false}]},{"acorde":[{ "note": 57, "duration":1, "velocity": 0.6377953, "rh": true},{ "note": 45, "duration":2, "velocity": 0.5511811, "rh": false},{ "note": 48, "duration":2, "velocity": 0.5511811, "rh": false},{ "note": 52, "duration":2, "velocity": 0.5511811, "rh": false}]},{"acorde":[{ "note": 55, "duration":1, "velocity": 0.6220472, "rh": true}]},{"acorde":[{ "note": 57, "duration":3, "velocity": 0.6141732, "rh": true},{ "note": 26, "duration":3, "velocity": 0.519685, "rh": false},{ "note": 0, "duration":1, "velocity": 0.480315, "rh": false}]},{"acorde":[{ "note": 45, "duration":2, "velocity": 0.511811, "rh": false},{ "note": 48, "duration":2, "velocity": 0.511811, "rh": false},{ "note": 53, "duration":2, "velocity": 0.511811, "rh": false}]},{"acorde":[{ "note": 50, "duration":6, "velocity": 0.5590551, "rh": true},{ "note": 31, "duration":3, "velocity": 0.480315, "rh": false},{ "note": 0, "duration":1, "velocity": 0.480315, "rh": false}]},{"acorde":[{ "note": 45, "duration":2, "velocity": 0.480315, "rh": false},{ "note": 48, "duration":2, "velocity": 0.480315, "rh": false},{ "note": 53, "duration":2, "velocity": 0.480315, "rh": false}]},{"acorde":[{ "note": 31, "duration":3, "velocity": 0.480315, "rh": false},{ "note": 0, "duration":1, "velocity": 0.480315, "rh": false}]},{"acorde":[{ "note": 47, "duration":2, "velocity": 0.480315, "rh": false},{ "note": 52, "duration":2, "velocity": 0.480315, "rh": false},{ "note": 55, "duration":2, "velocity": 0.480315, "rh": false}]},{"acorde":[{ "note": 64, "duration":3, "velocity": 0.480315, "rh": true},{ "note": 24, "duration":3, "velocity": 0.3070866, "rh": false},{ "note": 0, "duration":1, "velocity": 0.480315, "rh": false}]},{"acorde":[{ "note": 48, "duration":2, "velocity": 0.3070866, "rh": false},{ "note": 52, "duration":2, "velocity": 0.3070866, "rh": false},{ "note": 57, "duration":2, "velocity": 0.3070866, "rh": false}]},{"acorde":[{ "note": 65, "duration":1, "velocity": 0.480315, "rh": true},{ "note": 28, "duration":3, "velocity": 0.3070866, "rh": false}]},{"acorde":[{ "note": 67, "duration":1, "velocity": 0.503937, "rh": true},{ "note": 47, "duration":2, "velocity": 0.3622047, "rh": false},{ "note": 52, "duration":2, "velocity": 0.3622047, "rh": false},{ "note": 55, "duration":2, "velocity": 0.3622047, "rh": false}]},{"acorde":[{ "note": 65, "duration":1, "velocity": 0.519685, "rh": true}]},{"acorde":[{ "note": 64, "duration":1, "velocity": 0.5590551, "rh": true},{ "note": 24, "duration":3, "velocity": 0.480315, "rh": false}]},{"acorde":[{ "note": 62, "duration":1, "velocity": 0.5511811, "rh": true},{ "note": 48, "duration":2, "velocity": 0.480315, "rh": false},{ "note": 52, "duration":2, "velocity": 0.480315, "rh": false},{ "note": 57, "duration":2, "velocity": 0.480315, "rh": false}]},{"acorde":[{ "note": 64, "duration":4, "velocity": 0.5669292, "rh": true},{ "note": 0, "duration":1, "velocity": 0.7, "rh": false}]},{"acorde":[{ "note": 28, "duration":3, "velocity": 0.480315, "rh": false},{ "note": 0, "duration":1, "velocity": 0.480315, "rh": false}]},{"acorde":[{ "note": 47, "duration":2, "velocity": 0.4251969, "rh": false},{ "note": 52, "duration":2, "velocity": 0.4251969, "rh": false},{ "note": 55, "duration":2, "velocity": 0.4251969, "rh": false}]},{"acorde":[{ "note": 24, "duration":3, "velocity": 0.3070866, "rh": false},{ "note": 0, "duration":1, "velocity": 0.480315, "rh": false}]},{"acorde":[{ "note": 62, "duration":1, "velocity": 0.5511811, "rh": true},{ "note": 48, "duration":2, "velocity": 0.3070866, "rh": false},{ "note": 52, "duration":2, "velocity": 0.3070866, "rh": false},{ "note": 57, "duration":2, "velocity": 0.3070866, "rh": false}]},{"acorde":[{ "note": 60, "duration":1, "velocity": 0.5354331, "rh": true}]},{"acorde":[{ "note": 59, "duration":1, "velocity": 0.519685, "rh": true},{ "note": 28, "duration":3, "velocity": 0.3070866, "rh": false}]},{"acorde":[{ "note": 60, "duration":1, "velocity": 0.511811, "rh": true},{ "note": 47, "duration":2, "velocity": 0.3070866, "rh": false},{ "note": 52, "duration":2, "velocity": 0.3070866, "rh": false},{ "note": 55, "duration":2, "velocity": 0.3070866, "rh": false}]},{"acorde":[{ "note": 59, "duration":1, "velocity": 0.496063, "rh": true}]},{"acorde":[{ "note": 57, "duration":3, "velocity": 0.472441, "rh": true},{ "note": 33, "duration":3, "velocity": 0.3070866, "rh": false},{ "note": 0, "duration":1, "velocity": 0.480315, "rh": false}]},{"acorde":[{ "note": 45, "duration":2, "velocity": 0.3228346, "rh": false},{ "note": 48, "duration":2, "velocity": 0.3228346, "rh": false},{ "note": 53, "duration":2, "velocity": 0.3228346, "rh": false}]},{"acorde":[{ "note": 26, "duration":3, "velocity": 0.3543307, "rh": false},{ "note": 0, "duration":1, "velocity": 0.480315, "rh": false}]},{"acorde":[{ "note": 47, "duration":2, "velocity": 0.3700787, "rh": false},{ "note": 52, "duration":2, "velocity": 0.3700787, "rh": false},{ "note": 55, "duration":2, "velocity": 0.3700787, "rh": false}]},{"acorde":[{ "note": 33, "duration":3, "velocity": 0.4015748, "rh": false},{ "note": 0, "duration":1, "velocity": 0.480315, "rh": false}]},{"acorde":[{ "note": 48, "duration":2, "velocity": 0.4173228, "rh": false},{ "note": 52, "duration":2, "velocity": 0.4173228, "rh": false},{ "note": 57, "duration":2, "velocity": 0.4173228, "rh": false}]},{"acorde":[{ "note": 26, "duration":3, "velocity": 0.4566929, "rh": false},{ "note": 0, "duration":1, "velocity": 0.480315, "rh": false}]},{"acorde":[{ "note": 47, "duration":2, "velocity": 0.480315, "rh": false},{ "note": 52, "duration":2, "velocity": 0.480315, "rh": false},{ "note": 55, "duration":2, "velocity": 0.480315, "rh": false}]},{"acorde":[{ "note": 69, "duration":3, "velocity": 0.5590551, "rh": true},{ "note": 33, "duration":3, "velocity": 0.480315, "rh": false},{ "note": 0, "duration":1, "velocity": 0.480315, "rh": false}]},{"acorde":[{ "note": 48, "duration":2, "velocity": 0.480315, "rh": false},{ "note": 52, "duration":2, "velocity": 0.480315, "rh": false},{ "note": 57, "duration":2, "velocity": 0.480315, "rh": false}]},{"acorde":[{ "note": 67, "duration":1, "velocity": 0.5590551, "rh": true},{ "note": 36, "duration":3, "velocity": 0.480315, "rh": false}]},{"acorde":[{ "note": 65, "duration":1, "velocity": 0.5590551, "rh": true},{ "note": 48, "duration":2, "velocity": 0.480315, "rh": false},{ "note": 52, "duration":2, "velocity": 0.480315, "rh": false},{ "note": 57, "duration":2, "velocity": 0.480315, "rh": false}]},{"acorde":[{ "note": 64, "duration":1, "velocity": 0.5669292, "rh": true}]},{"acorde":[{ "note": 62, "duration":1, "velocity": 0.5748032, "rh": true},{ "note": 31, "duration":3, "velocity": 0.480315, "rh": false}]},{"acorde":[{ "note": 64, "duration":1, "velocity": 0.6062992, "rh": true},{ "note": 46, "duration":2, "velocity": 0.480315, "rh": false},{ "note": 50, "duration":2, "velocity": 0.480315, "rh": false},{ "note": 55, "duration":2, "velocity": 0.480315, "rh": false}]},{"acorde":[{ "note": 65, "duration":1, "velocity": 0.6141732, "rh": true}]},{"acorde":[{ "note": 64, "duration":1, "velocity": 0.6220472, "rh": true},{ "note": 26, "duration":3, "velocity": 0.480315, "rh": false}]},{"acorde":[{ "note": 62, "duration":1, "velocity": 0.6299213, "rh": true},{ "note": 45, "duration":2, "velocity": 0.480315, "rh": false},{ "note": 50, "duration":2, "velocity": 0.480315, "rh": false},{ "note": 53, "duration":2, "velocity": 0.480315, "rh": false}]},{"acorde":[{ "note": 60, "duration":1, "velocity": 0.6535433, "rh": true}]},{"acorde":[{ "note": 64, "duration":3, "velocity": 0.6692913, "rh": true},{ "note": 33, "duration":3, "velocity": 0.480315, "rh": false},{ "note": 0, "duration":1, "velocity": 0.480315, "rh": false}]},{"acorde":[{ "note": 45, "duration":2, "velocity": 0.480315, "rh": false},{ "note": 48, "duration":2, "velocity": 0.480315, "rh": false},{ "note": 52, "duration":2, "velocity": 0.480315, "rh": false}]},{"acorde":[{ "note": 67, "duration":2, "velocity": 0.6614173, "rh": true},{ "note": 28, "duration":3, "velocity": 0.480315, "rh": false},{ "note": 0, "duration":1, "velocity": 0.480315, "rh": false}]},{"acorde":[{ "note": 43, "duration":2, "velocity": 0.480315, "rh": false},{ "note": 47, "duration":2, "velocity": 0.480315, "rh": false},{ "note": 52, "duration":2, "velocity": 0.480315, "rh": false},{ "note": 0, "duration":1, "velocity": 0.7, "rh": false}]},{"acorde":[{ "note": 67, "duration":1, "velocity": 0.6614173, "rh": true}]},{"acorde":[{ "note": 60, "duration":1, "velocity": 0.6377953, "rh": true},{ "note": 28, "duration":3, "velocity": 0.480315, "rh": false}]},{"acorde":[{ "note": 59, "duration":1, "velocity": 0.6535433, "rh": true},{ "note": 45, "duration":2, "velocity": 0.480315, "rh": false},{ "note": 48, "duration":2, "velocity": 0.480315, "rh": false},{ "note": 53, "duration":2, "velocity": 0.480315, "rh": false}]},{"acorde":[{ "note": 57, "duration":1, "velocity": 0.6535433, "rh": true}]},{"acorde":[{ "note": 59, "duration":2, "velocity": 0.6614173, "rh": true},{ "note": 28, "duration":3, "velocity": 0.480315, "rh": false},{ "note": 0, "duration":1, "velocity": 0.480315, "rh": false}]},{"acorde":[{ "note": 43, "duration":2, "velocity": 0.480315, "rh": false},{ "note": 47, "duration":2, "velocity": 0.480315, "rh": false},{ "note": 52, "duration":2, "velocity": 0.480315, "rh": false},{ "note": 0, "duration":1, "velocity": 0.7, "rh": false}]},{"acorde":[{ "note": 60, "duration":1, "velocity": 0.6614173, "rh": true}]},{"acorde":[{ "note": 62, "duration":3, "velocity": 0.6220472, "rh": true},{ "note": 26, "duration":3, "velocity": 0.480315, "rh": false},{ "note": 0, "duration":1, "velocity": 0.480315, "rh": false}]},{"acorde":[{ "note": 45, "duration":2, "velocity": 0.480315, "rh": false},{ "note": 48, "duration":2, "velocity": 0.480315, "rh": false},{ "note": 53, "duration":2, "velocity": 0.480315, "rh": false}]},{"acorde":[{ "note": 64, "duration":3, "velocity": 0.480315, "rh": true},{ "note": 26, "duration":3, "velocity": 0.480315, "rh": false},{ "note": 0, "duration":1, "velocity": 0.480315, "rh": false}]},{"acorde":[{ "note": 48, "duration":2, "velocity": 0.480315, "rh": false},{ "note": 52, "duration":2, "velocity": 0.480315, "rh": false},{ "note": 57, "duration":2, "velocity": 0.480315, "rh": false}]},{"acorde":[{ "note": 26, "duration":3, "velocity": 0.480315, "rh": false},{ "note": 0, "duration":1, "velocity": 0.480315, "rh": false}]},{"acorde":[{ "note": 45, "duration":2, "velocity": 0.480315, "rh": false},{ "note": 48, "duration":2, "velocity": 0.480315, "rh": false},{ "note": 52, "duration":2, "velocity": 0.480315, "rh": false}]},{"acorde":[{ "note": 26, "duration":3, "velocity": 0.480315, "rh": false},{ "note": 0, "duration":1, "velocity": 0.480315, "rh": false}]},{"acorde":[{ "note": 45, "duration":2, "velocity": 0.480315, "rh": false},{ "note": 48, "duration":2, "velocity": 0.480315, "rh": false},{ "note": 53, "duration":2, "velocity": 0.480315, "rh": false}]},{"acorde":[{ "note": 67, "duration":2, "velocity": 0.5590551, "rh": true},{ "note": 31, "duration":3, "velocity": 0.480315, "rh": false},{ "note": 0, "duration":1, "velocity": 0.480315, "rh": false}]},{"acorde":[{ "note": 47, "duration":2, "velocity": 0.480315, "rh": false},{ "note": 52, "duration":2, "velocity": 0.480315, "rh": false},{ "note": 55, "duration":2, "velocity": 0.480315, "rh": false},{ "note": 0, "duration":1, "velocity": 0.7, "rh": false}]},{"acorde":[{ "note": 69, "duration":1, "velocity": 0.5590551, "rh": true}]},{"acorde":[{ "note": 62, "duration":1, "velocity": 0.5511811, "rh": true},{ "note": 31, "duration":3, "velocity": 0.480315, "rh": false}]},{"acorde":[{ "note": 64, "duration":1, "velocity": 0.5826772, "rh": true},{ "note": 45, "duration":2, "velocity": 0.480315, "rh": false},{ "note": 48, "duration":2, "velocity": 0.480315, "rh": false},{ "note": 53, "duration":2, "velocity": 0.480315, "rh": false}]},{"acorde":[{ "note": 65, "duration":1, "velocity": 0.6062992, "rh": true}]},{"acorde":[{ "note": 59, "duration":1, "velocity": 0.5905512, "rh": true},{ "note": 31, "duration":3, "velocity": 0.480315, "rh": false}]},{"acorde":[{ "note": 57, "duration":1, "velocity": 0.6141732, "rh": true},{ "note": 45, "duration":2, "velocity": 0.480315, "rh": false},{ "note": 48, "duration":2, "velocity": 0.480315, "rh": false},{ "note": 52, "duration":2, "velocity": 0.480315, "rh": false}]},{"acorde":[{ "note": 55, "duration":1, "velocity": 0.6299213, "rh": true}]},{"acorde":[{ "note": 57, "duration":3, "velocity": 0.6614173, "rh": true},{ "note": 26, "duration":3, "velocity": 0.480315, "rh": false},{ "note": 0, "duration":1, "velocity": 0.480315, "rh": false}]},{"acorde":[{ "note": 45, "duration":2, "velocity": 0.480315, "rh": false},{ "note": 48, "duration":2, "velocity": 0.480315, "rh": false},{ "note": 53, "duration":2, "velocity": 0.480315, "rh": false}]},{"acorde":[{ "note": 50, "duration":6, "velocity": 0.5590551, "rh": true},{ "note": 31, "duration":3, "velocity": 0.480315, "rh": false},{ "note": 0, "duration":1, "velocity": 0.480315, "rh": false}]},{"acorde":[{ "note": 45, "duration":2, "velocity": 0.480315, "rh": false},{ "note": 48, "duration":2, "velocity": 0.480315, "rh": false},{ "note": 53, "duration":2, "velocity": 0.480315, "rh": false}]},{"acorde":[{ "note": 31, "duration":3, "velocity": 0.480315, "rh": false},{ "note": 0, "duration":1, "velocity": 0.480315, "rh": false}]},{"acorde":[{ "note": 47, "duration":2, "velocity": 0.480315, "rh": false},{ "note": 52, "duration":2, "velocity": 0.480315, "rh": false},{ "note": 55, "duration":2, "velocity": 0.480315, "rh": false}]},{"acorde":[{ "note": 64, "duration":3, "velocity": 0.480315, "rh": true},{ "note": 24, "duration":3, "velocity": 0.3070866, "rh": false},{ "note": 0, "duration":1, "velocity": 0.480315, "rh": false}]},{"acorde":[{ "note": 48, "duration":2, "velocity": 0.3070866, "rh": false},{ "note": 52, "duration":2, "velocity": 0.3070866, "rh": false},{ "note": 57, "duration":2, "velocity": 0.3070866, "rh": false}]},{"acorde":[{ "note": 65, "duration":1, "velocity": 0.503937, "rh": true},{ "note": 28, "duration":3, "velocity": 0.3070866, "rh": false}]},{"acorde":[{ "note": 67, "duration":1, "velocity": 0.511811, "rh": true},{ "note": 47, "duration":2, "velocity": 0.3307087, "rh": false},{ "note": 52, "duration":2, "velocity": 0.3307087, "rh": false},{ "note": 55, "duration":2, "velocity": 0.3307087, "rh": false}]},{"acorde":[{ "note": 65, "duration":1, "velocity": 0.511811, "rh": true}]},{"acorde":[{ "note": 64, "duration":1, "velocity": 0.519685, "rh": true},{ "note": 24, "duration":3, "velocity": 0.3858268, "rh": false}]},{"acorde":[{ "note": 62, "duration":1, "velocity": 0.527559, "rh": true},{ "note": 48, "duration":2, "velocity": 0.4173228, "rh": false},{ "note": 52, "duration":2, "velocity": 0.4173228, "rh": false},{ "note": 57, "duration":2, "velocity": 0.4173228, "rh": false}]},{"acorde":[{ "note": 64, "duration":4, "velocity": 0.5511811, "rh": true},{ "note": 0, "duration":1, "velocity": 0.7, "rh": false}]},{"acorde":[{ "note": 28, "duration":3, "velocity": 0.480315, "rh": false},{ "note": 0, "duration":1, "velocity": 0.480315, "rh": false}]},{"acorde":[{ "note": 47, "duration":2, "velocity": 0.480315, "rh": false},{ "note": 52, "duration":2, "velocity": 0.480315, "rh": false},{ "note": 55, "duration":2, "velocity": 0.480315, "rh": false}]},{"acorde":[{ "note": 24, "duration":3, "velocity": 0.480315, "rh": false},{ "note": 0, "duration":1, "velocity": 0.480315, "rh": false}]},{"acorde":[{ "note": 62, "duration":1, "velocity": 0.5590551, "rh": true},{ "note": 48, "duration":2, "velocity": 0.4645669, "rh": false},{ "note": 52, "duration":2, "velocity": 0.4645669, "rh": false},{ "note": 57, "duration":2, "velocity": 0.4645669, "rh": false}]},{"acorde":[{ "note": 60, "duration":1, "velocity": 0.5433071, "rh": true}]},{"acorde":[{ "note": 59, "duration":1, "velocity": 0.519685, "rh": true},{ "note": 28, "duration":3, "velocity": 0.4251969, "rh": false}]},{"acorde":[{ "note": 60, "duration":1, "velocity": 0.503937, "rh": true},{ "note": 47, "duration":2, "velocity": 0.4094488, "rh": false},{ "note": 52, "duration":2, "velocity": 0.4094488, "rh": false},{ "note": 55, "duration":2, "velocity": 0.4094488, "rh": false}]},{"acorde":[{ "note": 59, "duration":1, "velocity": 0.480315, "rh": true}]},{"acorde":[{ "note": 57, "duration":3, "velocity": 0.472441, "rh": true},{ "note": 33, "duration":3, "velocity": 0.3700787, "rh": false},{ "note": 0, "duration":1, "velocity": 0.480315, "rh": false}]},{"acorde":[{ "note": 48, "duration":2, "velocity": 0.3543307, "rh": false},{ "note": 52, "duration":2, "velocity": 0.3543307, "rh": false},{ "note": 57, "duration":2, "velocity": 0.3543307, "rh": false}]},{"acorde":[{ "note": 26, "duration":3, "velocity": 0.480315, "rh": false},{ "note": 0, "duration":1, "velocity": 0.480315, "rh": false}]},{"acorde":[{ "note": 47, "duration":2, "velocity": 0.4409449, "rh": false},{ "note": 52, "duration":2, "velocity": 0.4409449, "rh": false},{ "note": 55, "duration":2, "velocity": 0.4409449, "rh": false}]},{"acorde":[{ "note": 33, "duration":3, "velocity": 0.480315, "rh": false},{ "note": 0, "duration":1, "velocity": 0.480315, "rh": false}]},{"acorde":[{ "note": 48, "duration":2, "velocity": 0.4488189, "rh": false},{ "note": 52, "duration":2, "velocity": 0.4488189, "rh": false},{ "note": 57, "duration":2, "velocity": 0.4488189, "rh": false}]},{"acorde":[{ "note": 26, "duration":3, "velocity": 0.480315, "rh": false},{ "note": 0, "duration":1, "velocity": 0.480315, "rh": false}]},{"acorde":[{ "note": 47, "duration":2, "velocity": 0.4330709, "rh": false},{ "note": 52, "duration":2, "velocity": 0.4330709, "rh": false},{ "note": 55, "duration":2, "velocity": 0.4330709, "rh": false}]},{"acorde":[{ "note": 60, "duration":6, "velocity": 0.3070866, "rh": true},{ "note": 48, "duration":6, "velocity": 0.480315, "rh": false},{ "note": 52, "duration":6, "velocity": 0.480315, "rh": false},{ "note": 57, "duration":6, "velocity": 0.480315, "rh": false},{ "note": 33, "duration":6, "velocity": 0.480315, "rh": false},{ "note": 40, "duration":6, "velocity": 0.480315, "rh": false}]}]}