{"Secuencia": [{"title":"Happy Birthday"},{"acorde":[{"note": 100, "duration":0,"velocity": 55,"rh": false}]},{"acorde":[{ "note": 50, "duration":0.5, "velocity": 0.7716535, "rh": true}]},{"acorde":[{ "note": 50, "duration":0.5, "velocity": 0.7716535, "rh": true}]},{"acorde":[{ "note": 52, "duration":1, "velocity": 0.7874016, "rh": true},{ "note": 43, "duration":1, "velocity": 0.6614173, "rh": false},{ "note": 47, "duration":1, "velocity": 0.6614173, "rh": false},{ "note": 31, "duration":2, "velocity": 0.6614173, "rh": false}]},{"acorde":[{ "note": 50, "duration":1, "velocity": 0.7637795, "rh": true},{ "note": 43, "duration":1, "velocity": 0.6614173, "rh": false},{ "note": 47, "duration":1, "velocity": 0.6614173, "rh": false}]},{"acorde":[{ "note": 55, "duration":1, "velocity": 0.8267717, "rh": true},{ "note": 47, "duration":1, "velocity": 0.6771653, "rh": false},{ "note": 50, "duration":1, "velocity": 0.6771653, "rh": false},{ "note": 31, "duration":1, "velocity": 0.6614173, "rh": false}]},{"acorde":[{ "note": 54, "duration":2, "velocity": 0.7874016, "rh": true},{ "note": 45, "duration":2, "velocity": 0.6692913, "rh": false},{ "note": 48, "duration":2, "velocity": 0.6692913, "rh": false},{ "note": 50, "duration":2, "velocity": 0.6692913, "rh": false},{ "note": 33, "duration":2, "velocity": 0.6692913, "rh": false}]},{"acorde":[{ "note": 50, "duration":0.5, "velocity": 0.7480315, "rh": true},{ "note": 45, "duration":0.5, "velocity": 0.6535433, "rh": false},{ "note": 48, "duration":0.5, "velocity": 0.6535433, "rh": false},{ "note": 33, "duration":1, "velocity": 0.6614173, "rh": false}]},{"acorde":[{ "note": 50, "duration":0.5, "velocity": 0.7559055, "rh": true},{ "note": 45, "duration":0.5, "velocity": 0.6535433, "rh": false},{ "note": 48, "duration":0.5, "velocity": 0.6535433, "rh": false}]},{"acorde":[{ "note": 52, "duration":1, "velocity": 0.7874016, "rh": true},{ "note": 45, "duration":1, "velocity": 0.6535433, "rh": false},{ "note": 48, "duration":1, "velocity": 0.6535433, "rh": false},{ "note": 26, "duration":2, "velocity": 0.6377953, "rh": false}]},{"acorde":[{ "note": 50, "duration":1, "velocity": 0.7559055, "rh": true},{ "note": 45, "duration":1, "velocity": 0.6614173, "rh": false},{ "note": 48, "duration":1, "velocity": 0.6614173, "rh": false}]},{"acorde":[{ "note": 57, "duration":1, "velocity": 0.8503937, "rh": true},{ "note": 48, "duration":1, "velocity": 0.7244095, "rh": false},{ "note": 50, "duration":1, "velocity": 0.7244095, "rh": false},{ "note": 54, "duration":1, "velocity": 0.7244095, "rh": false},{ "note": 26, "duration":1, "velocity": 0.6535433, "rh": false}]},{"acorde":[{ "note": 55, "duration":2, "velocity": 0.7874016, "rh": true},{ "note": 47, "duration":2, "velocity": 0.6535433, "rh": false},{ "note": 50, "duration":2, "velocity": 0.6535433, "rh": false},{ "note": 31, "duration":2, "velocity": 0.6771653, "rh": false}]},{"acorde":[{ "note": 50, "duration":0.5, "velocity": 0.7401575, "rh": true},{ "note": 47, "duration":0.5, "velocity": 0.6377953, "rh": false},{ "note": 31, "duration":1, "velocity": 0.6614173, "rh": false}]},{"acorde":[{ "note": 50, "duration":0.5, "velocity": 0.7480315, "rh": true},{ "note": 47, "duration":0.5, "velocity": 0.6456693, "rh": false}]},{"acorde":[{ "note": 62, "duration":1, "velocity": 0.8818898, "rh": true},{ "note": 50, "duration":1, "velocity": 0.7322835, "rh": false},{ "note": 55, "duration":1, "velocity": 0.7322835, "rh": false},{ "note": 35, "duration":1, "velocity": 0.6771653, "rh": false}]},{"acorde":[{ "note": 59, "duration":1, "velocity": 0.8188977, "rh": true},{ "note": 50, "duration":1, "velocity": 0.7086614, "rh": false},{ "note": 55, "duration":1, "velocity": 0.7086614, "rh": false},{ "note": 31, "duration":1, "velocity": 0.6535433, "rh": false}]},{"acorde":[{ "note": 55, "duration":1, "velocity": 0.7480315, "rh": true},{ "note": 43, "duration":1, "velocity": 0.6377953, "rh": false},{ "note": 50, "duration":1, "velocity": 0.6377953, "rh": false},{ "note": 35, "duration":1, "velocity": 0.6771653, "rh": false}]},{"acorde":[{ "note": 54, "duration":1, "velocity": 0.7401575, "rh": true},{ "note": 43, "duration":1, "velocity": 0.6220472, "rh": false},{ "note": 48, "duration":1, "velocity": 0.6220472, "rh": false},{ "note": 36, "duration":1, "velocity": 0.6771653, "rh": false}]},{"acorde":[{ "note": 52, "duration":1.5, "velocity": 0.7322835, "rh": true},{ "note": 43, "duration":1.5, "velocity": 0.6377953, "rh": false},{ "note": 48, "duration":1.5, "velocity": 0.6377953, "rh": false},{ "note": 24, "duration":1.5, "velocity": 0.6141732, "rh": false}]},{"acorde":[{ "note": 60, "duration":0.5, "velocity": 0.8188977, "rh": true},{ "note": 52, "duration":0.5, "velocity": 0.7165354, "rh": false},{ "note": 57, "duration":0.5, "velocity": 0.7165354, "rh": false},{ "note": 33, "duration":0.5, "velocity": 0.6692913, "rh": false}]},{"acorde":[{ "note": 60, "duration":0.5, "velocity": 0.8110236, "rh": true},{ "note": 52, "duration":0.5, "velocity": 0.7007874, "rh": false},{ "note": 57, "duration":0.5, "velocity": 0.7007874, "rh": false},{ "note": 33, "duration":0.5, "velocity": 0.6692913, "rh": false}]},{"acorde":[{ "note": 59, "duration":1, "velocity": 0.7874016, "rh": true},{ "note": 50, "duration":1, "velocity": 0.6614173, "rh": false},{ "note": 55, "duration":1, "velocity": 0.6614173, "rh": false},{ "note": 38, "duration":1, "velocity": 0.7165354, "rh": false}]},{"acorde":[{ "note": 55, "duration":1, "velocity": 0.7165354, "rh": true},{ "note": 47, "duration":1, "velocity": 0.5984252, "rh": false},{ "note": 50, "duration":1, "velocity": 0.5984252, "rh": false},{ "note": 38, "duration":1, "velocity": 0.6929134, "rh": false}]},{"acorde":[{ "note": 57, "duration":1, "velocity": 0.7637795, "rh": true},{ "note": 48, "duration":1, "velocity": 0.6692913, "rh": false},{ "note": 50, "duration":1, "velocity": 0.6692913, "rh": false},{ "note": 54, "duration":1, "velocity": 0.6692913, "rh": false},{ "note": 26, "duration":1, "velocity": 0.6062992, "rh": false}]},{"acorde":[{ "note": 55, "duration":3, "velocity": 0.7401575, "rh": true},{ "note": 47, "duration":3, "velocity": 0.6220472, "rh": false},{ "note": 50, "duration":3, "velocity": 0.6220472, "rh": false},{ "note": 31, "duration":3, "velocity": 0.6535433, "rh": false}]}]}