{"Secuencia": [{"title":"Lacrimosa"},{"acorde":[{"note": 100, "duration":0,"velocity": 50,"rh": false}]},{"acorde":[{ "note": 50, "duration":1, "velocity": 0.480315, "rh": false},{ "note": 53, "duration":1, "velocity": 0.480315, "rh": false},{ "note": 0, "duration":0.5, "velocity": 0.7, "rh": false}]},{"acorde":[{ "note": 61, "duration":0.5, "velocity": 0.5590551, "rh": false}]},{"acorde":[{ "note": 62, "duration":0.5, "velocity": 0.5669292, "rh": false}]},{"acorde":[{ "note": 53, "duration":1, "velocity": 0.5669292, "rh": false},{ "note": 57, "duration":1, "velocity": 0.5669292, "rh": false},{ "note": 0, "duration":0.5, "velocity": 0.7, "rh": false}]},{"acorde":[{ "note": 69, "duration":0.5, "velocity": 0.5826772, "rh": false}]},{"acorde":[{ "note": 70, "duration":0.5, "velocity": 0.5748032, "rh": false}]},{"acorde":[{ "note": 52, "duration":1, "velocity": 0.5590551, "rh": false},{ "note": 55, "duration":1, "velocity": 0.5590551, "rh": false},{ "note": 0, "duration":0.5, "velocity": 0.7, "rh": false}]},{"acorde":[{ "note": 62, "duration":0.5, "velocity": 0.5354331, "rh": false}]},{"acorde":[{ "note": 61, "duration":0.5, "velocity": 0.5433071, "rh": false}]},{"acorde":[{ "note": 55, "duration":1, "velocity": 0.5669292, "rh": false},{ "note": 61, "duration":1, "velocity": 0.5669292, "rh": false},{ "note": 0, "duration":0.5, "velocity": 0.7, "rh": false}]},{"acorde":[{ "note": 72, "duration":0.5, "velocity": 0.5984252, "rh": false}]},{"acorde":[{ "note": 70, "duration":0.5, "velocity": 0.5669292, "rh": false}]},{"acorde":[{ "note": 50, "duration":1, "velocity": 0.5511811, "rh": false},{ "note": 53, "duration":1, "velocity": 0.5511811, "rh": false},{ "note": 0, "duration":0.5, "velocity": 0.7, "rh": false}]},{"acorde":[{ "note": 69, "duration":0.5, "velocity": 0.5511811, "rh": false}]},{"acorde":[{ "note": 74, "duration":0.5, "velocity": 0.5826772, "rh": false}]},{"acorde":[{ "note": 43, "duration":1, "velocity": 0.5590551, "rh": false},{ "note": 52, "duration":1, "velocity": 0.5590551, "rh": false},{ "note": 0, "duration":0.5, "velocity": 0.7, "rh": false}]},{"acorde":[{ "note": 70, "duration":0.5, "velocity": 0.5511811, "rh": false}]},{"acorde":[{ "note": 67, "duration":0.5, "velocity": 0.5433071, "rh": false}]},{"acorde":[{ "note": 45, "duration":1, "velocity": 0.5590551, "rh": false},{ "note": 50, "duration":1, "velocity": 0.5590551, "rh": false},{ "note": 0, "duration":0.5, "velocity": 0.7, "rh": false}]},{"acorde":[{ "note": 64, "duration":0.5, "velocity": 0.5433071, "rh": false}]},{"acorde":[{ "note": 65, "duration":0.5, "velocity": 0.5590551, "rh": false}]},{"acorde":[{ "note": 45, "duration":1, "velocity": 0.5669292, "rh": false},{ "note": 55, "duration":1, "velocity": 0.5669292, "rh": false},{ "note": 0, "duration":0.5, "velocity": 0.7, "rh": false}]},{"acorde":[{ "note": 69, "duration":0.5, "velocity": 0.5748032, "rh": false}]},{"acorde":[{ "note": 61, "duration":0.5, "velocity": 0.527559, "rh": false}]},{"acorde":[{ "note": 57, "duration":2, "velocity": 0.6614173, "rh": true},{ "note": 45, "duration":1.5, "velocity": 0.480315, "rh": false},{ "note": 53, "duration":2, "velocity": 0.480315, "rh": false},{ "note": 26, "duration":1, "velocity": 0.480315, "rh": false},{ "note": 41, "duration":1, "velocity": 0.480315, "rh": false},{ "note": 0, "duration":0.5, "velocity": 0.7, "rh": false}]},{"acorde":[{ "note": 49, "duration":0.5, "velocity": 0.480315, "rh": false}]},{"acorde":[{ "note": 50, "duration":0.5, "velocity": 0.480315, "rh": false}]},{"acorde":[{ "note": 29, "duration":1, "velocity": 0.488189, "rh": false},{ "note": 45, "duration":1, "velocity": 0.488189, "rh": false},{ "note": 0, "duration":0.5, "velocity": 0.7, "rh": false}]},{"acorde":[{ "note": 65, "duration":0.5, "velocity": 0.6614173, "rh": true},{ "note": 50, "duration":0.5, "velocity": 0.480315, "rh": false}]},{"acorde":[{ "note": 62, "duration":0.5, "velocity": 0.6456693, "rh": true},{ "note": 57, "duration":0.5, "velocity": 0.503937, "rh": false},{ "note": 46, "duration":0.5, "velocity": 0.480315, "rh": false}]},{"acorde":[{ "note": 62, "duration":1.5, "velocity": 0.6535433, "rh": true},{ "note": 55, "duration":2.5, "velocity": 0.480315, "rh": false},{ "note": 40, "duration":1.5, "velocity": 0.480315, "rh": false},{ "note": 46, "duration":1.5, "velocity": 0.480315, "rh": false},{ "note": 0, "duration":0.5, "velocity": 0.7, "rh": false}]},{"acorde":[{ "note": 50, "duration":0.5, "velocity": 0.480315, "rh": false}]},{"acorde":[{ "note": 49, "duration":0.5, "velocity": 0.480315, "rh": false}]},{"acorde":[{ "note": 61, "duration":1, "velocity": 0.6535433, "rh": true},{ "note": 33, "duration":1.5, "velocity": 0.480315, "rh": false},{ "note": 45, "duration":1.5, "velocity": 0.480315, "rh": false},{ "note": 0, "duration":0.5, "velocity": 0.7, "rh": false}]},{"acorde":[{ "note": 58, "duration":0.5, "velocity": 0.503937, "rh": false}]},{"acorde":[{ "note": 57, "duration":0.5, "velocity": 0.488189, "rh": false}]},{"acorde":[{ "note": 57, "duration":2, "velocity": 0.6535433, "rh": true},{ "note": 45, "duration":1.5, "velocity": 0.480315, "rh": false},{ "note": 53, "duration":2, "velocity": 0.480315, "rh": false},{ "note": 26, "duration":1, "velocity": 0.472441, "rh": false},{ "note": 41, "duration":1, "velocity": 0.472441, "rh": false},{ "note": 0, "duration":0.5, "velocity": 0.7, "rh": false}]},{"acorde":[{ "note": 49, "duration":0.5, "velocity": 0.4566929, "rh": false}]},{"acorde":[{ "note": 50, "duration":0.5, "velocity": 0.472441, "rh": false}]},{"acorde":[{ "note": 29, "duration":1, "velocity": 0.488189, "rh": false},{ "note": 45, "duration":1, "velocity": 0.488189, "rh": false},{ "note": 0, "duration":0.5, "velocity": 0.7, "rh": false}]},{"acorde":[{ "note": 65, "duration":0.5, "velocity": 0.6614173, "rh": true},{ "note": 50, "duration":0.5, "velocity": 0.480315, "rh": false}]},{"acorde":[{ "note": 62, "duration":0.5, "velocity": 0.6456693, "rh": true},{ "note": 57, "duration":0.5, "velocity": 0.503937, "rh": false}]},{"acorde":[{ "note": 62, "duration":1.5, "velocity": 0.6535433, "rh": true},{ "note": 55, "duration":2.5, "velocity": 0.480315, "rh": false},{ "note": 40, "duration":1.5, "velocity": 0.480315, "rh": false},{ "note": 46, "duration":1.5, "velocity": 0.480315, "rh": false},{ "note": 0, "duration":0.5, "velocity": 0.7, "rh": false}]},{"acorde":[{ "note": 50, "duration":0.5, "velocity": 0.480315, "rh": false}]},{"acorde":[{ "note": 49, "duration":0.5, "velocity": 0.480315, "rh": false}]},{"acorde":[{ "note": 61, "duration":1, "velocity": 0.6535433, "rh": true},{ "note": 33, "duration":1.5, "velocity": 0.480315, "rh": false},{ "note": 45, "duration":1.5, "velocity": 0.480315, "rh": false},{ "note": 0, "duration":0.5, "velocity": 0.7, "rh": false}]},{"acorde":[{ "note": 46, "duration":0.5, "velocity": 0.472441, "rh": false}]},{"acorde":[{ "note": 45, "duration":0.5, "velocity": 0.472441, "rh": false}]},{"acorde":[{ "note": 50, "duration":1.5, "velocity": 0.5433071, "rh": true},{ "note": 26, "duration":0.5, "velocity": 0.472441, "rh": false}]},{"acorde":[{ "note": 41, "duration":0.5, "velocity": 0.480315, "rh": false},{ "note": 45, "duration":0.5, "velocity": 0.480315, "rh": false}]},{"acorde":[{ "note": 38, "duration":0.5, "velocity": 0.4566929, "rh": false}]},{"acorde":[{ "note": 52, "duration":1.5, "velocity": 0.5590551, "rh": true},{ "note": 33, "duration":0.5, "velocity": 0.488189, "rh": false}]},{"acorde":[{ "note": 45, "duration":0.5, "velocity": 0.503937, "rh": false},{ "note": 49, "duration":0.5, "velocity": 0.503937, "rh": false}]},{"acorde":[{ "note": 40, "duration":0.5, "velocity": 0.4566929, "rh": false}]},{"acorde":[{ "note": 53, "duration":1.5, "velocity": 0.5590551, "rh": true},{ "note": 26, "duration":0.5, "velocity": 0.472441, "rh": false}]},{"acorde":[{ "note": 45, "duration":0.5, "velocity": 0.503937, "rh": false},{ "note": 50, "duration":0.5, "velocity": 0.503937, "rh": false}]},{"acorde":[{ "note": 41, "duration":0.5, "velocity": 0.4488189, "rh": false}]},{"acorde":[{ "note": 55, "duration":1.5, "velocity": 0.5590551, "rh": true},{ "note": 24, "duration":0.5, "velocity": 0.480315, "rh": false}]},{"acorde":[{ "note": 48, "duration":0.5, "velocity": 0.503937, "rh": false},{ "note": 52, "duration":0.5, "velocity": 0.503937, "rh": false}]},{"acorde":[{ "note": 43, "duration":0.5, "velocity": 0.4488189, "rh": false}]},{"acorde":[{ "note": 57, "duration":1.5, "velocity": 0.5590551, "rh": true},{ "note": 29, "duration":0.5, "velocity": 0.480315, "rh": false}]},{"acorde":[{ "note": 48, "duration":0.5, "velocity": 0.488189, "rh": false},{ "note": 53, "duration":0.5, "velocity": 0.488189, "rh": false}]},{"acorde":[{ "note": 45, "duration":0.5, "velocity": 0.480315, "rh": false}]},{"acorde":[{ "note": 59, "duration":1.5, "velocity": 0.6062992, "rh": true},{ "note": 28, "duration":0.5, "velocity": 0.511811, "rh": false}]},{"acorde":[{ "note": 52, "duration":0.5, "velocity": 0.5511811, "rh": false},{ "note": 56, "duration":0.5, "velocity": 0.5511811, "rh": false}]},{"acorde":[{ "note": 47, "duration":0.5, "velocity": 0.503937, "rh": false}]},{"acorde":[{ "note": 60, "duration":1.5, "velocity": 0.6614173, "rh": true},{ "note": 33, "duration":0.5, "velocity": 0.5669292, "rh": false},{ "note": 45, "duration":0.5, "velocity": 0.5669292, "rh": false}]},{"acorde":[{ "note": 52, "duration":0.5, "velocity": 0.5826772, "rh": false},{ "note": 57, "duration":0.5, "velocity": 0.5826772, "rh": false}]},{"acorde":[{ "note": 48, "duration":0.5, "velocity": 0.5354331, "rh": false}]},{"acorde":[{ "note": 62, "duration":1.5, "velocity": 0.7244095, "rh": true},{ "note": 31, "duration":0.5, "velocity": 0.5826772, "rh": false},{ "note": 43, "duration":0.5, "velocity": 0.5826772, "rh": false}]},{"acorde":[{ "note": 55, "duration":0.5, "velocity": 0.6299213, "rh": false},{ "note": 59, "duration":0.5, "velocity": 0.6299213, "rh": false}]},{"acorde":[{ "note": 50, "duration":0.5, "velocity": 0.5669292, "rh": false}]},{"acorde":[{ "note": 63, "duration":1.5, "velocity": 0.7716535, "rh": true},{ "note": 36, "duration":1.5, "velocity": 0.6299213, "rh": false},{ "note": 43, "duration":1.5, "velocity": 0.6299213, "rh": false},{ "note": 48, "duration":1.5, "velocity": 0.6299213, "rh": false},{ "note": 0, "duration":0.5, "velocity": 0.7, "rh": false}]},{"acorde":[{ "note": 55, "duration":0.5, "velocity": 0.6614173, "rh": false},{ "note": 60, "duration":0.5, "velocity": 0.6614173, "rh": false}]},{"acorde":[{ "note": 51, "duration":0.5, "velocity": 0.6062992, "rh": false}]},{"acorde":[{ "note": 64, "duration":1.5, "velocity": 0.8, "rh": true},{ "note": 34, "duration":1.5, "velocity": 0.6535433, "rh": false},{ "note": 43, "duration":1.5, "velocity": 0.6535433, "rh": false},{ "note": 46, "duration":1.5, "velocity": 0.6535433, "rh": false},{ "note": 0, "duration":0.5, "velocity": 0.7, "rh": false}]},{"acorde":[{ "note": 55, "duration":0.5, "velocity": 0.6929134, "rh": false},{ "note": 60, "duration":0.5, "velocity": 0.6929134, "rh": false}]},{"acorde":[{ "note": 52, "duration":0.5, "velocity": 0.6377953, "rh": false}]},{"acorde":[{ "note": 65, "duration":1.5, "velocity": 0.8, "rh": true},{ "note": 33, "duration":1.5, "velocity": 0.6929134, "rh": false},{ "note": 36, "duration":1.5, "velocity": 0.6929134, "rh": false},{ "note": 41, "duration":1.5, "velocity": 0.6929134, "rh": false},{ "note": 45, "duration":1.5, "velocity": 0.6929134, "rh": false},{ "note": 0, "duration":0.5, "velocity": 0.7, "rh": false}]},{"acorde":[{ "note": 60, "duration":0.5, "velocity": 0.7244095, "rh": false}]},{"acorde":[{ "note": 53, "duration":0.5, "velocity": 0.6850393, "rh": false}]},{"acorde":[{ "note": 66, "duration":1.5, "velocity": 0.9370078, "rh": true},{ "note": 36, "duration":1.5, "velocity": 0.7322835, "rh": false},{ "note": 39, "duration":1.5, "velocity": 0.7322835, "rh": false},{ "note": 45, "duration":1.5, "velocity": 0.7322835, "rh": false},{ "note": 48, "duration":1.5, "velocity": 0.7322835, "rh": false},{ "note": 0, "duration":0.5, "velocity": 0.7, "rh": false}]},{"acorde":[{ "note": 57, "duration":0.5, "velocity": 0.7795275, "rh": false},{ "note": 63, "duration":0.5, "velocity": 0.7795275, "rh": false}]},{"acorde":[{ "note": 54, "duration":0.5, "velocity": 0.7007874, "rh": false}]},{"acorde":[{ "note": 67, "duration":1.5, "velocity": 0.95, "rh": true},{ "note": 35, "duration":1.5, "velocity": 0.7716535, "rh": false},{ "note": 38, "duration":1.5, "velocity": 0.7716535, "rh": false},{ "note": 43, "duration":1.5, "velocity": 0.7716535, "rh": false},{ "note": 47, "duration":1.5, "velocity": 0.7716535, "rh": false},{ "note": 0, "duration":0.5, "velocity": 0.7, "rh": false}]},{"acorde":[{ "note": 62, "duration":0.5, "velocity": 0.7952756, "rh": false}]},{"acorde":[{ "note": 55, "duration":0.5, "velocity": 0.7322835, "rh": false}]},{"acorde":[{ "note": 68, "duration":1.5, "velocity": 0.95, "rh": true},{ "note": 34, "duration":1.5, "velocity": 0.7716535, "rh": false},{ "note": 38, "duration":1.5, "velocity": 0.7716535, "rh": false},{ "note": 41, "duration":1.5, "velocity": 0.7716535, "rh": false},{ "note": 46, "duration":1.5, "velocity": 0.7716535, "rh": false},{ "note": 0, "duration":0.5, "velocity": 0.7, "rh": false}]},{"acorde":[{ "note": 62, "duration":0.5, "velocity": 0.7952756, "rh": false}]},{"acorde":[{ "note": 53, "duration":0.5, "velocity": 0.7165354, "rh": false}]},{"acorde":[{ "note": 69, "duration":1.5, "velocity": 0.95, "rh": true},{ "note": 33, "duration":1.5, "velocity": 0.7716535, "rh": false},{ "note": 38, "duration":1.5, "velocity": 0.7716535, "rh": false},{ "note": 41, "duration":1.5, "velocity": 0.7716535, "rh": false},{ "note": 45, "duration":1.5, "velocity": 0.7716535, "rh": false},{ "note": 0, "duration":0.5, "velocity": 0.7, "rh": false}]},{"acorde":[{ "note": 62, "duration":0.5, "velocity": 0.7952756, "rh": false}]},{"acorde":[{ "note": 53, "duration":0.5, "velocity": 0.7165354, "rh": false}]},{"acorde":[{ "note": 61, "duration":1.5, "velocity": 0.95, "rh": true},{ "note": 33, "duration":1.5, "velocity": 0.7716535, "rh": false},{ "note": 37, "duration":1.5, "velocity": 0.7716535, "rh": false},{ "note": 40, "duration":1.5, "velocity": 0.7716535, "rh": false},{ "note": 45, "duration":1.5, "velocity": 0.7716535, "rh": false},{ "note": 0, "duration":0.5, "velocity": 0.7, "rh": false}]},{"acorde":[{ "note": 57, "duration":0.5, "velocity": 0.7716535, "rh": false}]},{"acorde":[{ "note": 45, "duration":0.5, "velocity": 0.6929134, "rh": false}]},{"acorde":[{ "note": 57, "duration":2, "velocity": 0.6535433, "rh": true},{ "note": 55, "duration":2.5, "velocity": 0.503937, "rh": false},{ "note": 52, "duration":2, "velocity": 0.480315, "rh": false},{ "note": 37, "duration":1.5, "velocity": 0.472441, "rh": false},{ "note": 0, "duration":0.5, "velocity": 0.7, "rh": false}]},{"acorde":[{ "note": 45, "duration":0.5, "velocity": 0.480315, "rh": false}]},{"acorde":[{ "note": 40, "duration":0.5, "velocity": 0.4645669, "rh": false}]},{"acorde":[{ "note": 33, "duration":1.5, "velocity": 0.480315, "rh": false},{ "note": 0, "duration":0.5, "velocity": 0.7, "rh": false}]},{"acorde":[{ "note": 58, "duration":0.5, "velocity": 0.6614173, "rh": true},{ "note": 50, "duration":0.5, "velocity": 0.480315, "rh": false}]},{"acorde":[{ "note": 57, "duration":0.5, "velocity": 0.6535433, "rh": true},{ "note": 55, "duration":0.5, "velocity": 0.480315, "rh": false},{ "note": 49, "duration":0.5, "velocity": 0.480315, "rh": false},{ "note": 45, "duration":0.5, "velocity": 0.488189, "rh": false}]},{"acorde":[{ "note": 57, "duration":2, "velocity": 0.6535433, "rh": true},{ "note": 53, "duration":2, "velocity": 0.472441, "rh": false},{ "note": 50, "duration":2, "velocity": 0.480315, "rh": false},{ "note": 38, "duration":1.5, "velocity": 0.488189, "rh": false},{ "note": 0, "duration":0.5, "velocity": 0.7, "rh": false}]},{"acorde":[{ "note": 45, "duration":0.5, "velocity": 0.480315, "rh": false}]},{"acorde":[{ "note": 41, "duration":0.5, "velocity": 0.4645669, "rh": false}]},{"acorde":[{ "note": 33, "duration":1.5, "velocity": 0.480315, "rh": false},{ "note": 0, "duration":0.5, "velocity": 0.7, "rh": false}]},{"acorde":[{ "note": 65, "duration":0.5, "velocity": 0.6692913, "rh": true},{ "note": 50, "duration":0.5, "velocity": 0.480315, "rh": false},{ "note": 45, "duration":0.5, "velocity": 0.480315, "rh": false}]},{"acorde":[{ "note": 62, "duration":0.5, "velocity": 0.6456693, "rh": true},{ "note": 57, "duration":0.5, "velocity": 0.503937, "rh": false},{ "note": 41, "duration":0.5, "velocity": 0.4645669, "rh": false}]},{"acorde":[{ "note": 61, "duration":2, "velocity": 0.6456693, "rh": true},{ "note": 55, "duration":2.5, "velocity": 0.480315, "rh": false},{ "note": 40, "duration":1.5, "velocity": 0.496063, "rh": false},{ "note": 46, "duration":1.5, "velocity": 0.496063, "rh": false},{ "note": 0, "duration":0.5, "velocity": 0.7, "rh": false}]},{"acorde":[{ "note": 52, "duration":0.5, "velocity": 0.511811, "rh": false}]},{"acorde":[{ "note": 43, "duration":0.5, "velocity": 0.4566929, "rh": false}]},{"acorde":[{ "note": 46, "duration":0.5, "velocity": 0.480315, "rh": false},{ "note": 33, "duration":1.5, "velocity": 0.472441, "rh": false}]},{"acorde":[{ "note": 62, "duration":0.5, "velocity": 0.6614173, "rh": true},{ "note": 45, "duration":1, "velocity": 0.472441, "rh": false}]},{"acorde":[{ "note": 64, "duration":0.5, "velocity": 0.6692913, "rh": true},{ "note": 57, "duration":0.5, "velocity": 0.480315, "rh": false},{ "note": 49, "duration":0.5, "velocity": 0.503937, "rh": false}]},{"acorde":[{ "note": 64, "duration":1.5, "velocity": 0.6614173, "rh": true},{ "note": 57, "duration":1.5, "velocity": 0.480315, "rh": false},{ "note": 41, "duration":1.5, "velocity": 0.488189, "rh": false},{ "note": 0, "duration":0.5, "velocity": 0.7, "rh": false}]},{"acorde":[{ "note": 50, "duration":0.5, "velocity": 0.488189, "rh": false}]},{"acorde":[{ "note": 45, "duration":0.5, "velocity": 0.4566929, "rh": false}]},{"acorde":[{ "note": 62, "duration":1, "velocity": 0.6535433, "rh": true},{ "note": 53, "duration":1, "velocity": 0.472441, "rh": false},{ "note": 33, "duration":1.5, "velocity": 0.472441, "rh": false},{ "note": 0, "duration":0.5, "velocity": 0.7, "rh": false}]},{"acorde":[{ "note": 49, "duration":0.5, "velocity": 0.488189, "rh": false}]},{"acorde":[{ "note": 50, "duration":0.5, "velocity": 0.488189, "rh": false}]},{"acorde":[{ "note": 63, "duration":2, "velocity": 0.85, "rh": true},{ "note": 58, "duration":2, "velocity": 0.6692913, "rh": false},{ "note": 51, "duration":1.5, "velocity": 0.6771653, "rh": false},{ "note": 43, "duration":1, "velocity": 0.6771653, "rh": false},{ "note": 0, "duration":0.5, "velocity": 0.7, "rh": false}]},{"acorde":[{ "note": 46, "duration":0.5, "velocity": 0.6614173, "rh": false}]},{"acorde":[{ "note": 43, "duration":0.5, "velocity": 0.6456693, "rh": false}]},{"acorde":[{ "note": 31, "duration":1, "velocity": 0.6535433, "rh": false},{ "note": 0, "duration":0.5, "velocity": 0.7, "rh": false}]},{"acorde":[{ "note": 67, "duration":0.5, "velocity": 0.85, "rh": true},{ "note": 46, "duration":0.5, "velocity": 0.6850393, "rh": false},{ "note": 51, "duration":0.5, "velocity": 0.6850393, "rh": false}]},{"acorde":[{ "note": 63, "duration":0.5, "velocity": 0.8661417, "rh": true},{ "note": 58, "duration":0.5, "velocity": 0.6614173, "rh": false},{ "note": 55, "duration":0.5, "velocity": 0.7007874, "rh": false}]},{"acorde":[{ "note": 63, "duration":1.5, "velocity": 0.8740157, "rh": true},{ "note": 58, "duration":2, "velocity": 0.6614173, "rh": false},{ "note": 53, "duration":1.5, "velocity": 0.6614173, "rh": false},{ "note": 32, "duration":1, "velocity": 0.6614173, "rh": false},{ "note": 0, "duration":0.5, "velocity": 0.7, "rh": false}]},{"acorde":[{ "note": 51, "duration":0.5, "velocity": 0.6535433, "rh": false}]},{"acorde":[{ "note": 46, "duration":0.5, "velocity": 0.6220472, "rh": false}]},{"acorde":[{ "note": 62, "duration":1, "velocity": 0.86, "rh": true},{ "note": 44, "duration":1, "velocity": 0.6771653, "rh": false},{ "note": 0, "duration":0.5, "velocity": 0.7, "rh": false}]},{"acorde":[{ "note": 50, "duration":0.5, "velocity": 0.6692913, "rh": false}]},{"acorde":[{ "note": 46, "duration":0.5, "velocity": 0.6377953, "rh": false}]},{"acorde":[{ "note": 62, "duration":2, "velocity": 0.86, "rh": true},{ "note": 53, "duration":2, "velocity": 0.6614173, "rh": false},{ "note": 45, "duration":1, "velocity": 0.6614173, "rh": false},{ "note": 0, "duration":0.5, "velocity": 0.7, "rh": false}]},{"acorde":[{ "note": 50, "duration":0.5, "velocity": 0.6692913, "rh": false}]},{"acorde":[{ "note": 45, "duration":0.5, "velocity": 0.6377953, "rh": false}]},{"acorde":[{ "note": 33, "duration":1, "velocity": 0.6456693, "rh": false},{ "note": 0, "duration":0.5, "velocity": 0.7, "rh": false}]},{"acorde":[{ "note": 65, "duration":0.5, "velocity": 0.86, "rh": true},{ "note": 53, "duration":0.5, "velocity": 0.6614173, "rh": false},{ "note": 57, "duration":0.5, "velocity": 0.6614173, "rh": false}]},{"acorde":[{ "note": 64, "duration":0.5, "velocity": 0.86, "rh": true},{ "note": 45, "duration":0.5, "velocity": 0.6535433, "rh": false},{ "note": 52, "duration":0.5, "velocity": 0.6535433, "rh": false},{ "note": 55, "duration":0.5, "velocity": 0.6535433, "rh": false}]},{"acorde":[{ "note": 64, "duration":1.5, "velocity": 0.8897638, "rh": true},{ "note": 53, "duration":2, "velocity": 0.6771653, "rh": false},{ "note": 58, "duration":2, "velocity": 0.6771653, "rh": false},{ "note": 34, "duration":1, "velocity": 0.6614173, "rh": false},{ "note": 0, "duration":0.5, "velocity": 0.7, "rh": false}]},{"acorde":[{ "note": 52, "duration":0.5, "velocity": 0.6614173, "rh": false}]},{"acorde":[{ "note": 41, "duration":0.5, "velocity": 0.6220472, "rh": false}]},{"acorde":[{ "note": 62, "duration":1, "velocity": 0.8818898, "rh": true},{ "note": 50, "duration":1, "velocity": 0.6929134, "rh": false},{ "note": 46, "duration":1, "velocity": 0.6771653, "rh": false},{ "note": 0, "duration":0.5, "velocity": 0.7, "rh": false}]},{"acorde":[{ "note": 58, "duration":0.5, "velocity": 0.6614173, "rh": false}]},{"acorde":[{ "note": 56, "duration":0.5, "velocity": 0.6535433, "rh": false}]},{"acorde":[{ "note": 62, "duration":2, "velocity": 0.8897638, "rh": true},{ "note": 53, "duration":1.5, "velocity": 0.6535433, "rh": false},{ "note": 56, "duration":1.5, "velocity": 0.6535433, "rh": false},{ "note": 47, "duration":1, "velocity": 0.6614173, "rh": false},{ "note": 0, "duration":0.5, "velocity": 0.7, "rh": false}]},{"acorde":[{ "note": 50, "duration":0.5, "velocity": 0.6614173, "rh": false}]},{"acorde":[{ "note": 47, "duration":0.5, "velocity": 0.6456693, "rh": false}]},{"acorde":[{ "note": 53, "duration":1.5, "velocity": 0.6535433, "rh": false},{ "note": 55, "duration":1.5, "velocity": 0.6535433, "rh": false},{ "note": 35, "duration":1, "velocity": 0.6456693, "rh": false},{ "note": 0, "duration":0.5, "velocity": 0.7, "rh": false}]},{"acorde":[{ "note": 67, "duration":0.5, "velocity": 0.8976378, "rh": true},{ "note": 50, "duration":0.5, "velocity": 0.6692913, "rh": false}]},{"acorde":[{ "note": 65, "duration":0.5, "velocity": 0.8818898, "rh": true},{ "note": 47, "duration":0.5, "velocity": 0.6456693, "rh": false}]},{"acorde":[{ "note": 65, "duration":1.5, "velocity": 0.8818898, "rh": true},{ "note": 55, "duration":2, "velocity": 0.6692913, "rh": false},{ "note": 60, "duration":2, "velocity": 0.6692913, "rh": false},{ "note": 36, "duration":1, "velocity": 0.6614173, "rh": false},{ "note": 0, "duration":0.5, "velocity": 0.7, "rh": false}]},{"acorde":[{ "note": 53, "duration":0.5, "velocity": 0.6850393, "rh": false}]},{"acorde":[{ "note": 43, "duration":0.5, "velocity": 0.6062992, "rh": false}]},{"acorde":[{ "note": 64, "duration":1, "velocity": 0.8897638, "rh": true},{ "note": 52, "duration":1, "velocity": 0.7007874, "rh": false},{ "note": 48, "duration":1, "velocity": 0.6771653, "rh": false},{ "note": 0, "duration":0.5, "velocity": 0.7, "rh": false}]},{"acorde":[{ "note": 60, "duration":0.5, "velocity": 0.6614173, "rh": false}]},{"acorde":[{ "note": 58, "duration":0.5, "velocity": 0.6535433, "rh": false}]},{"acorde":[{ "note": 64, "duration":2, "velocity": 0.8897638, "rh": true},{ "note": 58, "duration":2, "velocity": 0.6535433, "rh": false},{ "note": 55, "duration":2, "velocity": 0.6614173, "rh": false},{ "note": 49, "duration":1, "velocity": 0.6614173, "rh": false},{ "note": 0, "duration":0.5, "velocity": 0.7, "rh": false}]},{"acorde":[{ "note": 52, "duration":0.5, "velocity": 0.6614173, "rh": false}]},{"acorde":[{ "note": 49, "duration":0.5, "velocity": 0.6456693, "rh": false}]},{"acorde":[{ "note": 37, "duration":1, "velocity": 0.6456693, "rh": false},{ "note": 0, "duration":0.5, "velocity": 0.7, "rh": false}]},{"acorde":[{ "note": 69, "duration":0.5, "velocity": 0.8976378, "rh": true},{ "note": 57, "duration":0.5, "velocity": 0.6850393, "rh": false}]},{"acorde":[{ "note": 67, "duration":0.5, "velocity": 0.8818898, "rh": true},{ "note": 52, "duration":0.5, "velocity": 0.6614173, "rh": false},{ "note": 55, "duration":0.5, "velocity": 0.6614173, "rh": false}]},{"acorde":[{ "note": 67, "duration":1.5, "velocity": 0.8818898, "rh": true},{ "note": 64, "duration":1.5, "velocity": 0.6614173, "rh": false},{ "note": 57, "duration":2, "velocity": 0.6614173, "rh": false},{ "note": 38, "duration":1, "velocity": 0.6614173, "rh": false},{ "note": 0, "duration":0.5, "velocity": 0.7, "rh": false}]},{"acorde":[{ "note": 52, "duration":0.5, "velocity": 0.6614173, "rh": false},{ "note": 55, "duration":0.5, "velocity": 0.6614173, "rh": false}]},{"acorde":[{ "note": 45, "duration":0.5, "velocity": 0.5984252, "rh": false}]},{"acorde":[{ "note": 65, "duration":1, "velocity": 0.8818898, "rh": true},{ "note": 62, "duration":1, "velocity": 0.6535433, "rh": false},{ "note": 50, "duration":1, "velocity": 0.6771653, "rh": false},{ "note": 53, "duration":1, "velocity": 0.6771653, "rh": false},{ "note": 0, "duration":0.5, "velocity": 0.7, "rh": false}]},{"acorde":[{ "note": 57, "duration":0.5, "velocity": 0.6929134, "rh": false}]},{"acorde":[{ "note": 45, "duration":0.5, "velocity": 0.6062992, "rh": false}]},{"acorde":[{ "note": 59, "duration":1, "velocity": 0.5511811, "rh": true},{ "note": 53, "duration":1, "velocity": 0.472441, "rh": false},{ "note": 56, "duration":1, "velocity": 0.472441, "rh": false},{ "note": 38, "duration":1, "velocity": 0.472441, "rh": false},{ "note": 0, "duration":0.5, "velocity": 0.7, "rh": false}]},{"acorde":[{ "note": 41, "duration":0.5, "velocity": 0.4645669, "rh": false}]},{"acorde":[{ "note": 47, "duration":0.5, "velocity": 0.503937, "rh": false}]},{"acorde":[{ "note": 60, "duration":1, "velocity": 0.5905512, "rh": true},{ "note": 53, "duration":1, "velocity": 0.496063, "rh": false},{ "note": 56, "duration":1, "velocity": 0.496063, "rh": false},{ "note": 36, "duration":1, "velocity": 0.480315, "rh": false},{ "note": 0, "duration":0.5, "velocity": 0.7, "rh": false}]},{"acorde":[{ "note": 41, "duration":0.5, "velocity": 0.488189, "rh": false}]},{"acorde":[{ "note": 48, "duration":0.5, "velocity": 0.5354331, "rh": false}]},{"acorde":[{ "note": 62, "duration":1, "velocity": 0.6220472, "rh": true},{ "note": 53, "duration":1, "velocity": 0.519685, "rh": false},{ "note": 56, "duration":1, "velocity": 0.519685, "rh": false},{ "note": 35, "duration":1, "velocity": 0.480315, "rh": false},{ "note": 0, "duration":0.5, "velocity": 0.7, "rh": false}]},{"acorde":[{ "note": 41, "duration":0.5, "velocity": 0.511811, "rh": false}]},{"acorde":[{ "note": 50, "duration":0.5, "velocity": 0.5748032, "rh": false}]},{"acorde":[{ "note": 62, "duration":1, "velocity": 0.6614173, "rh": true},{ "note": 0, "duration":0.5, "velocity": 0.7, "rh": false}]},{"acorde":[{ "note": 53, "duration":0.5, "velocity": 0.5905512, "rh": false},{ "note": 56, "duration":0.5, "velocity": 0.5905512, "rh": false}]},{"acorde":[{ "note": 47, "duration":0.5, "velocity": 0.527559, "rh": false}]},{"acorde":[{ "note": 62, "duration":1.5, "velocity": 0.6614173, "rh": true},{ "note": 53, "duration":1.5, "velocity": 0.5590551, "rh": false},{ "note": 56, "duration":1.5, "velocity": 0.5590551, "rh": false},{ "note": 35, "duration":1, "velocity": 0.480315, "rh": false},{ "note": 0, "duration":0.5, "velocity": 0.7, "rh": false}]},{"acorde":[{ "note": 41, "duration":0.5, "velocity": 0.5354331, "rh": false}]},{"acorde":[{ "note": 50, "duration":0.5, "velocity": 0.5905512, "rh": false}]},{"acorde":[{ "note": 60, "duration":1.5, "velocity": 0.6535433, "rh": true},{ "note": 53, "duration":1.5, "velocity": 0.5590551, "rh": false},{ "note": 56, "duration":1.5, "velocity": 0.5590551, "rh": false},{ "note": 36, "duration":1, "velocity": 0.480315, "rh": false},{ "note": 0, "duration":0.5, "velocity": 0.7, "rh": false}]},{"acorde":[{ "note": 41, "duration":0.5, "velocity": 0.5433071, "rh": false}]},{"acorde":[{ "note": 48, "duration":0.5, "velocity": 0.5826772, "rh": false}]},{"acorde":[{ "note": 59, "duration":1.5, "velocity": 0.6614173, "rh": true},{ "note": 53, "duration":1.5, "velocity": 0.5590551, "rh": false},{ "note": 56, "duration":1.5, "velocity": 0.5590551, "rh": false},{ "note": 37, "duration":1, "velocity": 0.480315, "rh": false},{ "note": 0, "duration":0.5, "velocity": 0.7, "rh": false}]},{"acorde":[{ "note": 41, "duration":0.5, "velocity": 0.527559, "rh": false}]},{"acorde":[{ "note": 47, "duration":0.5, "velocity": 0.5511811, "rh": false}]},{"acorde":[{ "note": 59, "duration":1.5, "velocity": 0.5984252, "rh": true},{ "note": 56, "duration":1.5, "velocity": 0.511811, "rh": false},{ "note": 37, "duration":1, "velocity": 0.3858268, "rh": false},{ "note": 0, "duration":0.5, "velocity": 0.7, "rh": false}]},{"acorde":[{ "note": 41, "duration":0.5, "velocity": 0.488189, "rh": false}]},{"acorde":[{ "note": 49, "duration":0.5, "velocity": 0.511811, "rh": false}]},{"acorde":[{ "note": 59, "duration":1.5, "velocity": 0.6614173, "rh": true},{ "note": 55, "duration":1.5, "velocity": 0.5590551, "rh": false},{ "note": 38, "duration":1.5, "velocity": 0.3070866, "rh": false},{ "note": 0, "duration":0.5, "velocity": 0.7, "rh": false}]},{"acorde":[{ "note": 41, "duration":0.5, "velocity": 0.5433071, "rh": false}]},{"acorde":[{ "note": 47, "duration":0.5, "velocity": 0.5826772, "rh": false}]},{"acorde":[{ "note": 60, "duration":1.5, "velocity": 0.6614173, "rh": true},{ "note": 55, "duration":1.5, "velocity": 0.5590551, "rh": false},{ "note": 36, "duration":1.5, "velocity": 0.3070866, "rh": false},{ "note": 0, "duration":0.5, "velocity": 0.7, "rh": false}]},{"acorde":[{ "note": 40, "duration":0.5, "velocity": 0.5433071, "rh": false}]},{"acorde":[{ "note": 48, "duration":0.5, "velocity": 0.6062992, "rh": false}]},{"acorde":[{ "note": 62, "duration":1.5, "velocity": 0.6929134, "rh": true},{ "note": 55, "duration":1.5, "velocity": 0.5905512, "rh": false},{ "note": 34, "duration":1.5, "velocity": 0.3070866, "rh": false},{ "note": 0, "duration":0.5, "velocity": 0.7, "rh": false}]},{"acorde":[{ "note": 40, "duration":0.5, "velocity": 0.5826772, "rh": false}]},{"acorde":[{ "note": 50, "duration":0.5, "velocity": 0.6614173, "rh": false}]},{"acorde":[{ "note": 60, "duration":1, "velocity": 0.7244095, "rh": true},{ "note": 53, "duration":1.5, "velocity": 0.6220472, "rh": false},{ "note": 33, "duration":1.5, "velocity": 0.3070866, "rh": false},{ "note": 0, "duration":0.5, "velocity": 0.7, "rh": false}]},{"acorde":[{ "note": 41, "duration":0.5, "velocity": 0.6141732, "rh": false}]},{"acorde":[{ "note": 65, "duration":0.5, "velocity": 0.7874016, "rh": true}]},{"acorde":[{ "note": 65, "duration":2, "velocity": 0.7795275, "rh": true},{ "note": 53, "duration":3, "velocity": 0.6771653, "rh": false},{ "note": 62, "duration":1.5, "velocity": 0.6771653, "rh": false},{ "note": 34, "duration":1, "velocity": 0.3070866, "rh": false},{ "note": 0, "duration":0.5, "velocity": 0.7, "rh": false}]},{"acorde":[{ "note": 46, "duration":0.5, "velocity": 0.6771653, "rh": false},{ "note": 50, "duration":0.5, "velocity": 0.6771653, "rh": false}]},{"acorde":[{ "note": 41, "duration":0.5, "velocity": 0.6220472, "rh": false}]},{"acorde":[{ "note": 56, "duration":1.5, "velocity": 0.6535433, "rh": false},{ "note": 38, "duration":1, "velocity": 0.3149606, "rh": false},{ "note": 0, "duration":0.5, "velocity": 0.7, "rh": false}]},{"acorde":[{ "note": 62, "duration":0.5, "velocity": 0.7637795, "rh": true},{ "note": 44, "duration":0.5, "velocity": 0.6614173, "rh": false}]},{"acorde":[{ "note": 59, "duration":0.5, "velocity": 0.7559055, "rh": true},{ "note": 53, "duration":0.5, "velocity": 0.7165354, "rh": false}]},{"acorde":[{ "note": 60, "duration":2, "velocity": 0.7716535, "rh": true},{ "note": 48, "duration":1.5, "velocity": 0.6614173, "rh": false},{ "note": 57, "duration":1.5, "velocity": 0.6614173, "rh": false},{ "note": 36, "duration":1, "velocity": 0.3070866, "rh": false},{ "note": 0, "duration":0.5, "velocity": 0.7, "rh": false}]},{"acorde":[{ "note": 53, "duration":0.5, "velocity": 0.6771653, "rh": false}]},{"acorde":[{ "note": 45, "duration":0.5, "velocity": 0.6141732, "rh": false}]},{"acorde":[{ "note": 46, "duration":1, "velocity": 0.6535433, "rh": false},{ "note": 52, "duration":1, "velocity": 0.6535433, "rh": false},{ "note": 24, "duration":1.5, "velocity": 0.3070866, "rh": false},{ "note": 0, "duration":0.5, "velocity": 0.7, "rh": false}]},{"acorde":[{ "note": 58, "duration":0.5, "velocity": 0.8110236, "rh": true},{ "note": 43, "duration":0.5, "velocity": 0.6377953, "rh": false}]},{"acorde":[{ "note": 55, "duration":0.5, "velocity": 0.8346457, "rh": true},{ "note": 46, "duration":0.5, "velocity": 0.6614173, "rh": false},{ "note": 52, "duration":0.5, "velocity": 0.6614173, "rh": false},{ "note": 36, "duration":0.5, "velocity": 0.6220472, "rh": false}]},{"acorde":[{ "note": 53, "duration":1, "velocity": 0.8582677, "rh": true},{ "note": 29, "duration":1.5, "velocity": 0.6692913, "rh": false},{ "note": 41, "duration":1.5, "velocity": 0.6692913, "rh": false},{ "note": 0, "duration":0.5, "velocity": 0.7, "rh": false}]},{"acorde":[{ "note": 65, "duration":0.5, "velocity": 0.7007874, "rh": false}]},{"acorde":[{ "note": 53, "duration":1, "velocity": 0.6141732, "rh": false},{ "note": 0, "duration":0.5, "velocity": 0.7, "rh": false}]},{"acorde":[{ "note": 60, "duration":1.5, "velocity": 0.9055118, "rh": true},{ "note": 51, "duration":1.5, "velocity": 0.6614173, "rh": false},{ "note": 33, "duration":1.5, "velocity": 0.6692913, "rh": false},{ "note": 45, "duration":1.5, "velocity": 0.6692913, "rh": false},{ "note": 0, "duration":0.5, "velocity": 0.7, "rh": false}]},{"acorde":[{ "note": 65, "duration":0.5, "velocity": 0.6929134, "rh": false}]},{"acorde":[{ "note": 53, "duration":1, "velocity": 0.6062992, "rh": false},{ "note": 0, "duration":0.5, "velocity": 0.7, "rh": false}]},{"acorde":[{ "note": 58, "duration":1.5, "velocity": 0.8897638, "rh": true},{ "note": 50, "duration":1.5, "velocity": 0.6614173, "rh": false},{ "note": 34, "duration":1.5, "velocity": 0.6614173, "rh": false},{ "note": 46, "duration":1.5, "velocity": 0.6614173, "rh": false},{ "note": 0, "duration":0.5, "velocity": 0.7, "rh": false}]},{"acorde":[{ "note": 65, "duration":0.5, "velocity": 0.6929134, "rh": false}]},{"acorde":[{ "note": 53, "duration":2, "velocity": 0.6062992, "rh": false},{ "note": 0, "duration":0.5, "velocity": 0.7, "rh": false}]},{"acorde":[{ "note": 57, "duration":0.5, "velocity": 0.8897638, "rh": true},{ "note": 36, "duration":1.5, "velocity": 0.6692913, "rh": false},{ "note": 51, "duration":1.5, "velocity": 0.6692913, "rh": false}]},{"acorde":[{ "note": 60, "duration":0.5, "velocity": 0.9055118, "rh": true}]},{"acorde":[{ "note": 65, "duration":0.5, "velocity": 0.9448819, "rh": true}]},{"acorde":[{ "note": 65, "duration":2, "velocity": 0.9212598, "rh": true},{ "note": 58, "duration":1.5, "velocity": 0.6614173, "rh": false},{ "note": 34, "duration":1.5, "velocity": 0.6614173, "rh": false},{ "note": 50, "duration":1.5, "velocity": 0.6614173, "rh": false},{ "note": 0, "duration":0.5, "velocity": 0.7, "rh": false}]},{"acorde":[{ "note": 53, "duration":0.5, "velocity": 0.6614173, "rh": false}]},{"acorde":[{ "note": 41, "duration":0.5, "velocity": 0.6141732, "rh": false}]},{"acorde":[{ "note": 38, "duration":1.5, "velocity": 0.6535433, "rh": false},{ "note": 41, "duration":1.5, "velocity": 0.6535433, "rh": false},{ "note": 47, "duration":1.5, "velocity": 0.6535433, "rh": false},{ "note": 0, "duration":0.5, "velocity": 0.7, "rh": false}]},{"acorde":[{ "note": 62, "duration":0.5, "velocity": 0.8897638, "rh": true},{ "note": 56, "duration":0.5, "velocity": 0.6929134, "rh": false}]},{"acorde":[{ "note": 59, "duration":0.5, "velocity": 0.8740157, "rh": true},{ "note": 50, "duration":0.5, "velocity": 0.6456693, "rh": false}]},{"acorde":[{ "note": 60, "duration":2, "velocity": 0.8897638, "rh": true},{ "note": 36, "duration":1.5, "velocity": 0.6456693, "rh": false},{ "note": 0, "duration":0.5, "velocity": 0.7, "rh": false}]},{"acorde":[{ "note": 53, "duration":0.5, "velocity": 0.6850393, "rh": false},{ "note": 57, "duration":0.5, "velocity": 0.6850393, "rh": false}]},{"acorde":[{ "note": 48, "duration":0.5, "velocity": 0.6141732, "rh": false}]},{"acorde":[{ "note": 24, "duration":1.5, "velocity": 0.6535433, "rh": false},{ "note": 0, "duration":0.5, "velocity": 0.7, "rh": false}]},{"acorde":[{ "note": 58, "duration":0.5, "velocity": 0.8897638, "rh": true},{ "note": 52, "duration":0.5, "velocity": 0.6771653, "rh": false},{ "note": 55, "duration":0.5, "velocity": 0.6771653, "rh": false}]},{"acorde":[{ "note": 55, "duration":0.5, "velocity": 0.8740157, "rh": true},{ "note": 46, "duration":0.5, "velocity": 0.6141732, "rh": false}]},{"acorde":[{ "note": 53, "duration":0.5, "velocity": 0.8582677, "rh": true},{ "note": 29, "duration":1, "velocity": 0.6220472, "rh": false},{ "note": 45, "duration":1, "velocity": 0.6220472, "rh": false}]},{"acorde":[{ "note": 64, "duration":0.5, "velocity": 0.95, "rh": true}]},{"acorde":[{ "note": 65, "duration":0.5, "velocity": 0.95, "rh": true}]},{"acorde":[{ "note": 41, "duration":1.5, "velocity": 0.6929134, "rh": false},{ "note": 45, "duration":1.5, "velocity": 0.6929134, "rh": false},{ "note": 50, "duration":1.5, "velocity": 0.6929134, "rh": false},{ "note": 0, "duration":0.5, "velocity": 0.7, "rh": false}]},{"acorde":[{ "note": 61, "duration":0.5, "velocity": 0.8818898, "rh": true}]},{"acorde":[{ "note": 62, "duration":0.5, "velocity": 0.8897638, "rh": true}]},{"acorde":[{ "note": 40, "duration":1.5, "velocity": 0.7086614, "rh": false},{ "note": 46, "duration":1.5, "velocity": 0.7086614, "rh": false},{ "note": 52, "duration":1.5, "velocity": 0.7086614, "rh": false},{ "note": 0, "duration":0.5, "velocity": 0.7, "rh": false}]},{"acorde":[{ "note": 62, "duration":0.5, "velocity": 0.8897638, "rh": true}]},{"acorde":[{ "note": 61, "duration":0.5, "velocity": 0.8818898, "rh": true}]},{"acorde":[{ "note": 52, "duration":1.5, "velocity": 0.7322835, "rh": false},{ "note": 57, "duration":1.5, "velocity": 0.7322835, "rh": false},{ "note": 33, "duration":1.5, "velocity": 0.7244095, "rh": false},{ "note": 40, "duration":1.5, "velocity": 0.7244095, "rh": false},{ "note": 49, "duration":1.5, "velocity": 0.7244095, "rh": false},{ "note": 0, "duration":0.5, "velocity": 0.7, "rh": false}]},{"acorde":[{ "note": 69, "duration":0.5, "velocity": 0.9370078, "rh": true}]},{"acorde":[{ "note": 61, "duration":0.5, "velocity": 0.8425197, "rh": true}]},{"acorde":[{ "note": 57, "duration":2, "velocity": 0.80, "rh": true},{ "note": 45, "duration":1.5, "velocity": 0.7637795, "rh": false},{ "note": 53, "duration":2, "velocity": 0.7637795, "rh": false},{ "note": 26, "duration":1, "velocity": 0.7716535, "rh": false},{ "note": 41, "duration":1, "velocity": 0.7716535, "rh": false},{ "note": 0, "duration":0.5, "velocity": 0.7, "rh": false}]},{"acorde":[{ "note": 49, "duration":0.5, "velocity": 0.7716535, "rh": false}]},{"acorde":[{ "note": 50, "duration":0.5, "velocity": 0.7716535, "rh": false}]},{"acorde":[{ "note": 29, "duration":1, "velocity": 0.7795275, "rh": false},{ "note": 45, "duration":1, "velocity": 0.7795275, "rh": false},{ "note": 0, "duration":0.5, "velocity": 0.7, "rh": false}]},{"acorde":[{ "note": 65, "duration":0.5, "velocity": 0.8976378, "rh": true},{ "note": 50, "duration":0.5, "velocity": 0.7637795, "rh": false}]},{"acorde":[{ "note": 62, "duration":0.5, "velocity": 0.8740157, "rh": true},{ "note": 57, "duration":0.5, "velocity": 0.8031496, "rh": false},{ "note": 46, "duration":0.5, "velocity": 0.7716535, "rh": false}]},{"acorde":[{ "note": 62, "duration":1.5, "velocity": 0.8818898, "rh": true},{ "note": 55, "duration":2.5, "velocity": 0.7795275, "rh": false},{ "note": 40, "duration":1.5, "velocity": 0.7716535, "rh": false},{ "note": 46, "duration":1.5, "velocity": 0.7716535, "rh": false},{ "note": 0, "duration":0.5, "velocity": 0.7, "rh": false}]},{"acorde":[{ "note": 50, "duration":0.5, "velocity": 0.7716535, "rh": false}]},{"acorde":[{ "note": 49, "duration":0.5, "velocity": 0.7637795, "rh": false}]},{"acorde":[{ "note": 61, "duration":1, "velocity": 0.85, "rh": true},{ "note": 33, "duration":1.5, "velocity": 0.7637795, "rh": false},{ "note": 45, "duration":1.5, "velocity": 0.7637795, "rh": false},{ "note": 0, "duration":0.5, "velocity": 0.7, "rh": false}]},{"acorde":[{ "note": 58, "duration":0.5, "velocity": 0.8110236, "rh": false}]},{"acorde":[{ "note": 57, "duration":0.5, "velocity": 0.7874016, "rh": false}]},{"acorde":[{ "note": 57, "duration":2, "velocity": 0.85, "rh": true},{ "note": 45, "duration":1.5, "velocity": 0.7716535, "rh": false},{ "note": 53, "duration":2, "velocity": 0.7716535, "rh": false},{ "note": 26, "duration":1, "velocity": 0.7637795, "rh": false},{ "note": 41, "duration":1, "velocity": 0.7637795, "rh": false},{ "note": 0, "duration":0.5, "velocity": 0.7, "rh": false}]},{"acorde":[{ "note": 49, "duration":0.5, "velocity": 0.7322835, "rh": false}]},{"acorde":[{ "note": 50, "duration":0.5, "velocity": 0.7559055, "rh": false}]},{"acorde":[{ "note": 29, "duration":1, "velocity": 0.7795275, "rh": false},{ "note": 45, "duration":1, "velocity": 0.7795275, "rh": false},{ "note": 0, "duration":0.5, "velocity": 0.7, "rh": false}]},{"acorde":[{ "note": 65, "duration":0.5, "velocity": 0.85, "rh": true},{ "note": 50, "duration":0.5, "velocity": 0.7637795, "rh": false}]},{"acorde":[{ "note": 62, "duration":0.5, "velocity": 0.83, "rh": true},{ "note": 57, "duration":0.5, "velocity": 0.8031496, "rh": false}]},{"acorde":[{ "note": 62, "duration":1.5, "velocity": 0.8818898, "rh": true},{ "note": 55, "duration":2.5, "velocity": 0.7795275, "rh": false},{ "note": 40, "duration":1.5, "velocity": 0.7716535, "rh": false},{ "note": 46, "duration":1.5, "velocity": 0.7716535, "rh": false},{ "note": 0, "duration":0.5, "velocity": 0.7, "rh": false}]},{"acorde":[{ "note": 50, "duration":0.5, "velocity": 0.7716535, "rh": false}]},{"acorde":[{ "note": 49, "duration":0.5, "velocity": 0.7637795, "rh": false}]},{"acorde":[{ "note": 61, "duration":1, "velocity": 0.85, "rh": true},{ "note": 33, "duration":1.5, "velocity": 0.7716535, "rh": false},{ "note": 45, "duration":1.5, "velocity": 0.7716535, "rh": false},{ "note": 0, "duration":0.5, "velocity": 0.7, "rh": false}]},{"acorde":[{ "note": 58, "duration":0.5, "velocity": 0.75, "rh": false}]},{"acorde":[{ "note": 57, "duration":0.5, "velocity": 0.7874016, "rh": false}]},{"acorde":[{ "note": 50, "duration":1.5, "velocity": 0.8661417, "rh": true},{ "note": 26, "duration":1.5, "velocity": 0.6850393, "rh": false},{ "note": 41, "duration":1.5, "velocity": 0.6850393, "rh": false},{ "note": 0, "duration":0.5, "velocity": 0.7, "rh": false}]},{"acorde":[{ "note": 61, "duration":0.5, "velocity": 0.7716535, "rh": false}]},{"acorde":[{ "note": 62, "duration":0.5, "velocity": 0.7716535, "rh": false}]},{"acorde":[{ "note": 48, "duration":1.5, "velocity": 0.8897638, "rh": true},{ "note": 30, "duration":1.5, "velocity": 0.7559055, "rh": false},{ "note": 38, "duration":1.5, "velocity": 0.7559055, "rh": false},{ "note": 0, "duration":0.5, "velocity": 0.7, "rh": false}]},{"acorde":[{ "note": 70, "duration":0.5, "velocity": 0.79, "rh": false}]},{"acorde":[{ "note": 69, "duration":0.5, "velocity": 0.7874016, "rh": false}]},{"acorde":[{ "note": 62, "duration":1.5, "velocity": 0.9133858, "rh": true},{ "note": 31, "duration":1.5, "velocity": 0.7874016, "rh": false},{ "note": 38, "duration":1.5, "velocity": 0.7874016, "rh": false},{ "note": 46, "duration":1.5, "velocity": 0.7874016, "rh": false},{ "note": 0, "duration":0.5, "velocity": 0.7, "rh": false}]},{"acorde":[{ "note": 61, "duration":0.5, "velocity": 0.7322835, "rh": false}]},{"acorde":[{ "note": 62, "duration":0.5, "velocity": 0.7559055, "rh": false}]},{"acorde":[{ "note": 60, "duration":1.5, "velocity": 0.85, "rh": true},{ "note": 38, "duration":1.5, "velocity": 0.7874016, "rh": false},{ "note": 45, "duration":1.5, "velocity": 0.7874016, "rh": false},{ "note": 48, "duration":1.5, "velocity": 0.7874016, "rh": false},{ "note": 54, "duration":1.5, "velocity": 0.7874016, "rh": false},{ "note": 0, "duration":0.5, "velocity": 0.7, "rh": false}]},{"acorde":[{ "note": 74, "duration":0.5, "velocity": 0.79, "rh": false}]},{"acorde":[{ "note": 72, "duration":0.5, "velocity": 0.7874016, "rh": false}]},{"acorde":[{ "note": 58, "duration":1.5, "velocity": 0.8897638, "rh": true},{ "note": 39, "duration":1.5, "velocity": 0.7716535, "rh": false},{ "note": 46, "duration":1.5, "velocity": 0.7716535, "rh": false},{ "note": 55, "duration":1.5, "velocity": 0.7716535, "rh": false},{ "note": 0, "duration":0.5, "velocity": 0.7, "rh": false}]},{"acorde":[{ "note": 62, "duration":0.5, "velocity": 0.7165354, "rh": false}]},{"acorde":[{ "note": 63, "duration":0.5, "velocity": 0.7480315, "rh": false}]},{"acorde":[{ "note": 57, "duration":1.5, "velocity": 0.8897638, "rh": true},{ "note": 36, "duration":1.5, "velocity": 0.7637795, "rh": false},{ "note": 43, "duration":1.5, "velocity": 0.7637795, "rh": false},{ "note": 45, "duration":1.5, "velocity": 0.7637795, "rh": false},{ "note": 51, "duration":1.5, "velocity": 0.7637795, "rh": false},{ "note": 0, "duration":0.5, "velocity": 0.7, "rh": false}]},{"acorde":[{ "note": 70, "duration":0.5, "velocity": 0.8031496, "rh": false}]},{"acorde":[{ "note": 69, "duration":0.5, "velocity": 0.7795275, "rh": false}]},{"acorde":[{ "note": 55, "duration":1.5, "velocity": 0.8897638, "rh": true},{ "note": 37, "duration":1.5, "velocity": 0.7716535, "rh": false},{ "note": 46, "duration":1.5, "velocity": 0.7716535, "rh": false},{ "note": 52, "duration":1.5, "velocity": 0.7716535, "rh": false},{ "note": 0, "duration":0.5, "velocity": 0.7, "rh": false}]},{"acorde":[{ "note": 65, "duration":0.5, "velocity": 0.7480315, "rh": false}]},{"acorde":[{ "note": 64, "duration":0.5, "velocity": 0.7480315, "rh": false}]},{"acorde":[{ "note": 53, "duration":1.5, "velocity": 0.8897638, "rh": true},{ "note": 38, "duration":1.5, "velocity": 0.7637795, "rh": false},{ "note": 45, "duration":1.5, "velocity": 0.7637795, "rh": false},{ "note": 50, "duration":1.5, "velocity": 0.7637795, "rh": false},{ "note": 0, "duration":0.5, "velocity": 0.7, "rh": false}]},{"acorde":[{ "note": 69, "duration":0.5, "velocity": 0.7952756, "rh": false}]},{"acorde":[{ "note": 74, "duration":0.5, "velocity": 0.79, "rh": false}]},{"acorde":[{ "note": 52, "duration":1.5, "velocity": 0.8897638, "rh": true},{ "note": 31, "duration":1.5, "velocity": 0.7637795, "rh": false},{ "note": 46, "duration":1.5, "velocity": 0.7637795, "rh": false},{ "note": 0, "duration":0.5, "velocity": 0.7, "rh": false}]},{"acorde":[{ "note": 64, "duration":0.5, "velocity": 0.7322835, "rh": false}]},{"acorde":[{ "note": 62, "duration":0.5, "velocity": 0.7322835, "rh": false}]},{"acorde":[{ "note": 50, "duration":1.5, "velocity": 0.8897638, "rh": true},{ "note": 32, "duration":1.5, "velocity": 0.7716535, "rh": false},{ "note": 41, "duration":1.5, "velocity": 0.7716535, "rh": false},{ "note": 47, "duration":1.5, "velocity": 0.7716535, "rh": false},{ "note": 0, "duration":0.5, "velocity": 0.7, "rh": false}]},{"acorde":[{ "note": 74, "duration":0.5, "velocity": 0.8267717, "rh": false}]},{"acorde":[{ "note": 65, "duration":0.5, "velocity": 0.7322835, "rh": false}]},{"acorde":[{ "note": 49, "duration":1.5, "velocity": 0.8897638, "rh": true},{ "note": 40, "duration":1.5, "velocity": 0.7637795, "rh": false},{ "note": 45, "duration":1.5, "velocity": 0.7637795, "rh": false},{ "note": 33, "duration":3, "velocity": 0.7716535, "rh": false},{ "note": 0, "duration":0.5, "velocity": 0.7, "rh": false}]},{"acorde":[{ "note": 61, "duration":0.5, "velocity": 0.7401575, "rh": false}]},{"acorde":[{ "note": 64, "duration":0.5, "velocity": 0.7716535, "rh": false}]},{"acorde":[{ "note": 50, "duration":1.5, "velocity": 0.83, "rh": true},{ "note": 41, "duration":1.5, "velocity": 0.7716535, "rh": false},{ "note": 45, "duration":1.5, "velocity": 0.7716535, "rh": false},{ "note": 0, "duration":0.5, "velocity": 0.7, "rh": false}]},{"acorde":[{ "note": 65, "duration":0.5, "velocity": 0.7795275, "rh": false}]},{"acorde":[{ "note": 74, "duration":0.5, "velocity": 0.80, "rh": false}]},{"acorde":[{ "note": 52, "duration":1.5, "velocity": 0.84, "rh": true},{ "note": 49, "duration":1.5, "velocity": 0.7795275, "rh": false},{ "note": 45, "duration":3, "velocity": 0.7716535, "rh": false},{ "note": 0, "duration":0.5, "velocity": 0.7, "rh": false}]},{"acorde":[{ "note": 64, "duration":0.5, "velocity": 0.7401575, "rh": false}]},{"acorde":[{ "note": 69, "duration":0.5, "velocity": 0.7874016, "rh": false}]},{"acorde":[{ "note": 53, "duration":1.5, "velocity": 0.83, "rh": true},{ "note": 50, "duration":1.5, "velocity": 0.7716535, "rh": false},{ "note": 0, "duration":0.5, "velocity": 0.7, "rh": false}]},{"acorde":[{ "note": 74, "duration":0.5, "velocity": 0.80, "rh": false}]},{"acorde":[{ "note": 65, "duration":0.5, "velocity": 0.7244095, "rh": false}]},{"acorde":[{ "note": 52, "duration":3, "velocity": 0.83, "rh": true},{ "note": 45, "duration":3, "velocity": 0.7716535, "rh": false},{ "note": 50, "duration":1.5, "velocity": 0.7716535, "rh": false},{ "note": 33, "duration":3, "velocity": 0.7716535, "rh": false},{ "note": 0, "duration":0.5, "velocity": 0.7, "rh": false}]},{"acorde":[{ "note": 64, "duration":0.5, "velocity": 0.7480315, "rh": false}]},{"acorde":[{ "note": 69, "duration":0.5, "velocity": 0.7952756, "rh": false}]},{"acorde":[{ "note": 49, "duration":1.5, "velocity": 0.7716535, "rh": false},{ "note": 0, "duration":0.5, "velocity": 0.7, "rh": false}]},{"acorde":[{ "note": 73, "duration":0.5, "velocity": 0.8031496, "rh": false}]},{"acorde":[{ "note": 64, "duration":0.5, "velocity": 0.7165354, "rh": false}]},{"acorde":[{ "note": 50, "duration":1.5, "velocity": 0.84, "rh": true},{ "note": 26, "duration":1.5, "velocity": 0.7637795, "rh": false},{ "note": 41, "duration":1.5, "velocity": 0.7637795, "rh": false},{ "note": 45, "duration":1.5, "velocity": 0.7637795, "rh": false},{ "note": 0, "duration":0.5, "velocity": 0.7, "rh": false}]},{"acorde":[{ "note": 61, "duration":0.5, "velocity": 0.7401575, "rh": false}]},{"acorde":[{ "note": 62, "duration":0.5, "velocity": 0.7637795, "rh": false}]},{"acorde":[{ "note": 54, "duration":1.5, "velocity": 0.83, "rh": true},{ "note": 38, "duration":1.5, "velocity": 0.7716535, "rh": false},{ "note": 45, "duration":1.5, "velocity": 0.7716535, "rh": false},{ "note": 48, "duration":1.5, "velocity": 0.7716535, "rh": false},{ "note": 0, "duration":0.5, "velocity": 0.7, "rh": false}]},{"acorde":[{ "note": 67, "duration":0.5, "velocity": 0.7952756, "rh": false}]},{"acorde":[{ "note": 66, "duration":0.5, "velocity": 0.7795275, "rh": false}]},{"acorde":[{ "note": 57, "duration":1.5, "velocity": 0.83, "rh": true},{ "note": 38, "duration":1.5, "velocity": 0.7795275, "rh": false},{ "note": 48, "duration":1.5, "velocity": 0.7795275, "rh": false},{ "note": 54, "duration":1.5, "velocity": 0.7795275, "rh": false},{ "note": 0, "duration":0.5, "velocity": 0.7, "rh": false}]},{"acorde":[{ "note": 70, "duration":0.5, "velocity": 0.7874016, "rh": false}]},{"acorde":[{ "note": 69, "duration":0.5, "velocity": 0.7716535, "rh": false}]},{"acorde":[{ "note": 60, "duration":1.5, "velocity": 0.85, "rh": true},{ "note": 38, "duration":1.5, "velocity": 0.7716535, "rh": false},{ "note": 45, "duration":1.5, "velocity": 0.7716535, "rh": false},{ "note": 54, "duration":1.5, "velocity": 0.7716535, "rh": false},{ "note": 0, "duration":0.5, "velocity": 0.7, "rh": false}]},{"acorde":[{ "note": 74, "duration":0.5, "velocity": 0.7952756, "rh": false}]},{"acorde":[{ "note": 72, "duration":0.5, "velocity": 0.7637795, "rh": false}]},{"acorde":[{ "note": 58, "duration":0.5, "velocity": 0.84, "rh": true},{ "note": 50, "duration":3, "velocity": 0.7716535, "rh": false},{ "note": 55, "duration":3, "velocity": 0.7716535, "rh": false},{ "note": 62, "duration":1, "velocity": 0.7716535, "rh": false},{ "note": 43, "duration":1, "velocity": 0.7559055, "rh": false},{ "note": 46, "duration":1, "velocity": 0.7559055, "rh": false}]},{"acorde":[{ "note": 62, "duration":0.5, "velocity": 0.85, "rh": true},{ "note": 70, "duration":0.5, "velocity": 0.7559055, "rh": false}]},{"acorde":[{ "note": 58, "duration":0.5, "velocity": 0.8661417, "rh": true},{ "note": 67, "duration":0.5, "velocity": 0.7401575, "rh": false}]},{"acorde":[{ "note": 38, "duration":1, "velocity": 0.7716535, "rh": false},{ "note": 43, "duration":1, "velocity": 0.7716535, "rh": false},{ "note": 46, "duration":1, "velocity": 0.7716535, "rh": false},{ "note": 0, "duration":0.5, "velocity": 0.7, "rh": false}]},{"acorde":[{ "note": 58, "duration":0.5, "velocity": 0.83, "rh": true},{ "note": 67, "duration":0.5, "velocity": 0.7637795, "rh": false}]},{"acorde":[{ "note": 55, "duration":0.5, "velocity": 0.81, "rh": true},{ "note": 62, "duration":0.5, "velocity": 0.7322835, "rh": false}]},{"acorde":[{ "note": 34, "duration":1, "velocity": 0.7716535, "rh": false},{ "note": 38, "duration":1, "velocity": 0.7716535, "rh": false},{ "note": 43, "duration":1, "velocity": 0.7716535, "rh": false},{ "note": 46, "duration":1, "velocity": 0.7716535, "rh": false},{ "note": 0, "duration":0.5, "velocity": 0.7, "rh": false}]},{"acorde":[{ "note": 55, "duration":0.5, "velocity": 0.83, "rh": true},{ "note": 62, "duration":0.5, "velocity": 0.7637795, "rh": false}]},{"acorde":[{ "note": 50, "duration":0.5, "velocity": 0.81, "rh": true},{ "note": 58, "duration":0.5, "velocity": 0.7401575, "rh": false}]},{"acorde":[{ "note": 31, "duration":1, "velocity": 0.7716535, "rh": false},{ "note": 38, "duration":1, "velocity": 0.7716535, "rh": false},{ "note": 46, "duration":1, "velocity": 0.7716535, "rh": false},{ "note": 0, "duration":0.5, "velocity": 0.7, "rh": false},{"note": 100, "duration":0,"velocity": 47,"rh": false}]},{"acorde":[{ "note": 50, "duration":0.5, "velocity": 0.83, "rh": true},{ "note": 58, "duration":0.5, "velocity": 0.7637795, "rh": false},{"note": 100, "duration":0,"velocity": 44,"rh": false}]},{"acorde":[{ "note": 46, "duration":0.5, "velocity": 0.80, "rh": true},{ "note": 55, "duration":0.5, "velocity": 0.7480315, "rh": false},{"note": 100, "duration":0,"velocity": 40,"rh": false}]},{"acorde":[{ "note": 45, "duration":6, "velocity": 0.80, "rh": true},{ "note": 54, "duration":6, "velocity": 0.75, "rh": false},{ "note": 57, "duration":6, "velocity": 0.75, "rh": false},{ "note": 62, "duration":6, "velocity": 0.75, "rh": false},{ "note": 66, "duration":6, "velocity": 0.75, "rh": false},{ "note": 26, "duration":6, "velocity": 0.75, "rh": false},{ "note": 50, "duration":6, "velocity": 0.75, "rh": false}]}]}