{"Secuencia":[{"title":"Menuet"},{"acorde":[{"note":100,"duration":0,"velocity":80,"rh":false}]},{"acorde":[{"note":62,"duration":1,"velocity":0.7,"rh":true},{"note":50,"duration":2,"velocity":0.7,"rh":false},{"note":47,"duration":2,"velocity":0.7,"rh":false},{"note":43,"duration":2,"velocity":0.7,"rh":false}]},{"acorde":[{"note":55,"duration":0.5,"velocity":0.7,"rh":true}]},{"acorde":[{"note":57,"duration":0.5,"velocity":0.7,"rh":true}]},{"acorde":[{"note":59,"duration":0.5,"velocity":0.7,"rh":true},{"note":45,"duration":0.7,"velocity":0.7,"rh":false}]},{"acorde":[{"note":60,"duration":0.5,"velocity":0.7,"rh":true}]},{"acorde":[{"note":62,"duration":1,"velocity":0.7,"rh":true},{"note":47,"duration":2.3,"velocity":0.7,"rh":false}]},{"acorde":[{"note":55,"duration":1,"velocity":0.7,"rh":true}]},{"acorde":[{"note":55,"duration":1,"velocity":0.7,"rh":true}]},{"acorde":[{"note":64,"duration":1,"velocity":0.7,"rh":true},{"note":48,"duration":2.7,"velocity":0.7,"rh":false}]},{"acorde":[{"note":60,"duration":0.5,"velocity":0.7,"rh":true}]},{"acorde":[{"note":62,"duration":0.5,"velocity":0.7,"rh":true}]},{"acorde":[{"note":64,"duration":0.5,"velocity":0.7,"rh":true}]},{"acorde":[{"note":66,"duration":0.5,"velocity":0.7,"rh":true}]},{"acorde":[{"note":67,"duration":1,"velocity":0.7,"rh":true},{"note":47,"duration":2.7,"velocity":0.7,"rh":false}]},{"acorde":[{"note":55,"duration":1,"velocity":0.7,"rh":true}]},{"acorde":[{"note":55,"duration":1,"velocity":0.7,"rh":true}]},{"acorde":[{"note":60,"duration":1,"velocity":0.7,"rh":true},{"note":45,"duration":2.7,"velocity":0.7,"rh":false}]},{"acorde":[{"note":62,"duration":0.5,"velocity":0.7,"rh":true}]},{"acorde":[{"note":60,"duration":0.5,"velocity":0.7,"rh":true}]},{"acorde":[{"note":59,"duration":0.5,"velocity":0.7,"rh":true}]},{"acorde":[{"note":57,"duration":0.5,"velocity":0.7,"rh":true}]},{"acorde":[{"note":59,"duration":1,"velocity":0.7,"rh":true},{"note":43,"duration":2.7,"velocity":0.7,"rh":false}]},{"acorde":[{"note":60,"duration":0.5,"velocity":0.7,"rh":true}]},{"acorde":[{"note":59,"duration":0.5,"velocity":0.7,"rh":true}]},{"acorde":[{"note":57,"duration":0.5,"velocity":0.7,"rh":true}]},{"acorde":[{"note":55,"duration":0.5,"velocity":0.7,"rh":true}]},{"acorde":[{"note":54,"duration":1,"velocity":0.7,"rh":true},{"note":50,"duration":0.7,"velocity":0.7,"rh":false}]},{"acorde":[{"note":0,"duration":0.3,"velocity":0.7,"rh":false}]},{"acorde":[{"note":55,"duration":0.5,"velocity":0.7,"rh":true},{"note":47,"duration":0.7,"velocity":0.7,"rh":false}]},{"acorde":[{"note":57,"duration":0.5,"velocity":0.7,"rh":true}]},{"acorde":[{"note":59,"duration":0.5,"velocity":0.7,"rh":true},{"note":43,"duration":0.7,"velocity":0.7,"rh":false}]},{"acorde":[{"note":55,"duration":0.5,"velocity":0.7,"rh":true}]},{"acorde":[{"note":59,"duration":1,"velocity":0.7,"rh":true},{"note":50,"duration":0.7,"velocity":0.7,"rh":false}]},{"acorde":[{"note":0,"duration":0.3,"velocity":0.7,"rh":false}]},{"acorde":[{"note":57,"duration":2,"velocity":0.7,"rh":true},{"note":38,"duration":0.5,"velocity":0.7,"rh":false}]},{"acorde":[{"note":48,"duration":0.5,"velocity":0.7,"rh":false}]},{"acorde":[{"note":47,"duration":0.5,"velocity":0.7,"rh":false}]},{"acorde":[{"note":45,"duration":0.5,"velocity":0.7,"rh":false}]},{"acorde":[{"note":62,"duration":1,"velocity":0.7,"rh":true},{"note":47,"duration":1.7,"velocity":0.7,"rh":false}]},{"acorde":[{"note":55,"duration":0.5,"velocity":0.7,"rh":true}]},{"acorde":[{"note":57,"duration":0.5,"velocity":0.7,"rh":true}]},{"acorde":[{"note":59,"duration":0.5,"velocity":0.7,"rh":true},{"note":45,"duration":0.7,"velocity":0.7,"rh":false}]},{"acorde":[{"note":60,"duration":0.5,"velocity":0.7,"rh":true}]},{"acorde":[{"note":62,"duration":1,"velocity":0.7,"rh":true},{"note":43,"duration":0.7,"velocity":0.7,"rh":false}]},{"acorde":[{"note":0,"duration":0.3,"velocity":0.7,"rh":false}]},{"acorde":[{"note":55,"duration":1,"velocity":0.7,"rh":true},{"note":47,"duration":0.7,"velocity":0.7,"rh":false}]},{"acorde":[{"note":0,"duration":0.3,"velocity":0.7,"rh":false}]},{"acorde":[{"note":55,"duration":1,"velocity":0.7,"rh":true},{"note":43,"duration":0.7,"velocity":0.7,"rh":false}]},{"acorde":[{"note":0,"duration":0.3,"velocity":0.7,"rh":false}]},{"acorde":[{"note":64,"duration":1,"velocity":0.7,"rh":true},{"note":48,"duration":2.7,"velocity":0.7,"rh":false}]},{"acorde":[{"note":60,"duration":0.5,"velocity":0.7,"rh":true}]},{"acorde":[{"note":62,"duration":0.5,"velocity":0.7,"rh":true}]},{"acorde":[{"note":64,"duration":0.5,"velocity":0.7,"rh":true}]},{"acorde":[{"note":66,"duration":0.5,"velocity":0.7,"rh":true}]},{"acorde":[{"note":67,"duration":1,"velocity":0.7,"rh":true},{"note":47,"duration":1,"velocity":0.7,"rh":false}]},{"acorde":[{"note":55,"duration":1,"velocity":0.7,"rh":true},{"note":48,"duration":0.5,"velocity":0.7,"rh":false}]},{"acorde":[{"note":47,"duration":0.5,"velocity":0.7,"rh":false}]},{"acorde":[{"note":55,"duration":1,"velocity":0.7,"rh":true},{"note":45,"duration":0.5,"velocity":0.7,"rh":false}]},{"acorde":[{"note":43,"duration":0.5,"velocity":0.7,"rh":false}]},{"acorde":[{"note":60,"duration":1,"velocity":0.7,"rh":true},{"note":45,"duration":2,"velocity":0.7,"rh":false}]},{"acorde":[{"note":62,"duration":0.5,"velocity":0.7,"rh":true}]},{"acorde":[{"note":60,"duration":0.5,"velocity":0.7,"rh":true}]},{"acorde":[{"note":59,"duration":0.5,"velocity":0.7,"rh":true},{"note":42,"duration":0.7,"velocity":0.7,"rh":false}]},{"acorde":[{"note":57,"duration":0.5,"velocity":0.7,"rh":true}]},{"acorde":[{"note":59,"duration":1,"velocity":0.7,"rh":true},{"note":43,"duration":2,"velocity":0.7,"rh":false}]},{"acorde":[{"note":60,"duration":0.5,"velocity":0.7,"rh":true}]},{"acorde":[{"note":59,"duration":0.5,"velocity":0.7,"rh":true}]},{"acorde":[{"note":57,"duration":0.5,"velocity":0.7,"rh":true},{"note":47,"duration":0.7,"velocity":0.7,"rh":false}]},{"acorde":[{"note":55,"duration":0.5,"velocity":0.7,"rh":true}]},{"acorde":[{"note":57,"duration":1,"velocity":0.7,"rh":true},{"note":48,"duration":0.7,"velocity":0.7,"rh":false}]},{"acorde":[{"note":0,"duration":0.3,"velocity":0.7,"rh":false}]},{"acorde":[{"note":59,"duration":0.5,"velocity":0.7,"rh":true},{"note":50,"duration":0.7,"velocity":0.7,"rh":false}]},{"acorde":[{"note":57,"duration":0.5,"velocity":0.7,"rh":true}]},{"acorde":[{"note":55,"duration":0.5,"velocity":0.7,"rh":true},{"note":38,"duration":0.7,"velocity":0.7,"rh":false}]},{"acorde":[{"note":54,"duration":0.5,"velocity":0.7,"rh":true}]},{"acorde":[{"note":55,"duration":2.5,"velocity":0.7,"rh":true},{"note":43,"duration":1.7,"velocity":0.7,"rh":false}]},{"acorde":[{"note":0,"duration":0.3,"velocity":0.7,"rh":false}]},{"acorde":[{"note":31,"duration":0.7,"velocity":0.7,"rh":false}]},{"acorde":[{"note":0,"duration":0.3,"velocity":0.7,"rh":false}]},{"acorde":[{"note":71,"duration":1,"velocity":0.6,"rh":true},{"note":43,"duration":2.7,"velocity":0.5,"rh":false}]},{"acorde":[{"note":67,"duration":0.5,"velocity":0.6,"rh":true}]},{"acorde":[{"note":69,"duration":0.5,"velocity":0.6,"rh":true}]},{"acorde":[{"note":71,"duration":0.5,"velocity":0.6,"rh":true}]},{"acorde":[{"note":67,"duration":0.5,"velocity":0.6,"rh":true}]},{"acorde":[{"note":69,"duration":1,"velocity":0.6,"rh":true},{"note":42,"duration":2.7,"velocity":0.5,"rh":false}]},{"acorde":[{"note":62,"duration":0.5,"velocity":0.6,"rh":true}]},{"acorde":[{"note":64,"duration":0.5,"velocity":0.6,"rh":true}]},{"acorde":[{"note":66,"duration":0.5,"velocity":0.6,"rh":true}]},{"acorde":[{"note":62,"duration":0.5,"velocity":0.6,"rh":true}]},{"acorde":[{"note":67,"duration":1,"velocity":0.6,"rh":true},{"note":40,"duration":0.7,"velocity":0.5,"rh":false}]},{"acorde":[{"note":0,"duration":0.3,"velocity":0.5,"rh":false}]},{"acorde":[{"note":64,"duration":0.5,"velocity":0.6,"rh":true},{"note":43,"duration":0.7,"velocity":0.5,"rh":false}]},{"acorde":[{"note":66,"duration":0.5,"velocity":0.6,"rh":true}]},{"acorde":[{"note":67,"duration":0.5,"velocity":0.6,"rh":true},{"note":40,"duration":0.7,"velocity":0.5,"rh":false}]},{"acorde":[{"note":62,"duration":0.5,"velocity":0.6,"rh":true}]},{"acorde":[{"note":61,"duration":1,"velocity":0.6,"rh":true},{"note":45,"duration":2,"velocity":0.5,"rh":false}]},{"acorde":[{"note":59,"duration":0.5,"velocity":0.6,"rh":true}]},{"acorde":[{"note":61,"duration":0.5,"velocity":0.6,"rh":true}]},{"acorde":[{"note":57,"duration":1,"velocity":0.6,"rh":true},{"note":33,"duration":0.7,"velocity":0.5,"rh":false}]},{"acorde":[{"note":0,"duration":0.3,"velocity":0.5,"rh":false}]},{"acorde":[{"note":57,"duration":0.5,"velocity":0.6,"rh":true},{"note":45,"duration":2.7,"velocity":0.5,"rh":false}]},{"acorde":[{"note":59,"duration":0.5,"velocity":0.6,"rh":true}]},{"acorde":[{"note":61,"duration":0.5,"velocity":0.6,"rh":true}]},{"acorde":[{"note":62,"duration":0.5,"velocity":0.6,"rh":true}]},{"acorde":[{"note":64,"duration":0.5,"velocity":0.6,"rh":true}]},{"acorde":[{"note":66,"duration":0.5,"velocity":0.6,"rh":true}]},{"acorde":[{"note":67,"duration":1,"velocity":0.6,"rh":true},{"note":47,"duration":0.7,"velocity":0.5,"rh":false}]},{"acorde":[{"note":0,"duration":0.3,"velocity":0.5,"rh":false}]},{"acorde":[{"note":66,"duration":1,"velocity":0.6,"rh":true},{"note":50,"duration":0.7,"velocity":0.5,"rh":false}]},{"acorde":[{"note":0,"duration":0.3,"velocity":0.5,"rh":false}]},{"acorde":[{"note":64,"duration":1,"velocity":0.6,"rh":true},{"note":49,"duration":0.7,"velocity":0.5,"rh":false}]},{"acorde":[{"note":0,"duration":0.3,"velocity":0.5,"rh":false}]},{"acorde":[{"note":66,"duration":1,"velocity":0.6,"rh":true},{"note":50,"duration":0.7,"velocity":0.5,"rh":false}]},{"acorde":[{"note":0,"duration":0.3,"velocity":0.5,"rh":false}]},{"acorde":[{"note":57,"duration":1,"velocity":0.6,"rh":true},{"note":42,"duration":0.7,"velocity":0.5,"rh":false}]},{"acorde":[{"note":0,"duration":0.3,"velocity":0.5,"rh":false}]},{"acorde":[{"note":61,"duration":1,"velocity":0.6,"rh":true},{"note":45,"duration":0.7,"velocity":0.5,"rh":false}]},{"acorde":[{"note":0,"duration":0.3,"velocity":0.5,"rh":false}]},{"acorde":[{"note":62,"duration":2.7,"velocity":0.6,"rh":true},{"note":50,"duration":0.7,"velocity":0.5,"rh":false}]},{"acorde":[{"note":0,"duration":0.3,"velocity":0.5,"rh":false}]},{"acorde":[{"note":38,"duration":0.7,"velocity":0.5,"rh":false}]},{"acorde":[{"note":0,"duration":0.3,"velocity":0.5,"rh":false}]},{"acorde":[{"note":48,"duration":0.7,"velocity":0.5,"rh":false}]},{"acorde":[{"note":0,"duration":0.3,"velocity":0.5,"rh":false}]},{"acorde":[{"note":62,"duration":1,"velocity":0.6,"rh":true},{"note":47,"duration":2,"velocity":0.5,"rh":false}]},{"acorde":[{"note":55,"duration":0.5,"velocity":0.6,"rh":true},{"note":50,"duration":1.7,"velocity":0.5,"rh":false}]},{"acorde":[{"note":54,"duration":0.5,"velocity":0.6,"rh":true}]},{"acorde":[{"note":55,"duration":1,"velocity":0.6,"rh":true},{"note":47,"duration":0.7,"velocity":0.5,"rh":false}]},{"acorde":[{"note":0,"duration":0.3,"velocity":0.5,"rh":false}]},{"acorde":[{"note":64,"duration":1,"velocity":0.6,"rh":true},{"note":48,"duration":2,"velocity":0.5,"rh":false}]},{"acorde":[{"note":55,"duration":0.5,"velocity":0.6,"rh":true},{"note":52,"duration":1.7,"velocity":0.5,"rh":false}]},{"acorde":[{"note":54,"duration":0.5,"velocity":0.6,"rh":true}]},{"acorde":[{"note":55,"duration":1,"velocity":0.6,"rh":true},{"note":48,"duration":0.7,"velocity":0.5,"rh":false}]},{"acorde":[{"note":0,"duration":0.3,"velocity":0.5,"rh":false}]},{"acorde":[{"note":62,"duration":1,"velocity":0.6,"rh":true},{"note":47,"duration":0.7,"velocity":0.5,"rh":false}]},{"acorde":[{"note":0,"duration":0.3,"velocity":0.5,"rh":false}]},{"acorde":[{"note":60,"duration":1,"velocity":0.6,"rh":true},{"note":45,"duration":0.7,"velocity":0.5,"rh":false}]},{"acorde":[{"note":0,"duration":0.3,"velocity":0.5,"rh":false}]},{"acorde":[{"note":59,"duration":1,"velocity":0.6,"rh":true},{"note":43,"duration":0.7,"velocity":0.5,"rh":false}]},{"acorde":[{"note":0,"duration":0.3,"velocity":0.5,"rh":false}]},{"acorde":[{"note":57,"duration":0.5,"velocity":0.6,"rh":true},{"note":50,"duration":1.9,"velocity":0.5,"rh":false}]},{"acorde":[{"note":55,"duration":0.5,"velocity":0.6,"rh":true}]},{"acorde":[{"note":54,"duration":0.5,"velocity":0.6,"rh":true}]},{"acorde":[{"note":55,"duration":0.5,"velocity":0.6,"rh":true}]},{"acorde":[{"note":57,"duration":1,"velocity":0.6,"rh":true}]},{"acorde":[{"note":50,"duration":0.5,"velocity":0.6,"rh":true},{"note":38,"duration":2.7,"velocity":0.5,"rh":false}]},{"acorde":[{"note":52,"duration":0.5,"velocity":0.6,"rh":true}]},{"acorde":[{"note":54,"duration":0.5,"velocity":0.6,"rh":true}]},{"acorde":[{"note":55,"duration":0.5,"velocity":0.6,"rh":true}]},{"acorde":[{"note":57,"duration":0.5,"velocity":0.6,"rh":true},{"note":42,"duration":0.7,"velocity":0.5,"rh":false}]},{"acorde":[{"note":59,"duration":0.5,"velocity":0.6,"rh":true}]},{"acorde":[{"note":60,"duration":1,"velocity":0.6,"rh":true},{"note":40,"duration":0.7,"velocity":0.5,"rh":false}]},{"acorde":[{"note":0,"duration":0.3,"velocity":0.5,"rh":false}]},{"acorde":[{"note":59,"duration":1,"velocity":0.6,"rh":true},{"note":43,"duration":0.7,"velocity":0.5,"rh":false}]},{"acorde":[{"note":0,"duration":0.3,"velocity":0.5,"rh":false}]},{"acorde":[{"note":57,"duration":1,"velocity":0.6,"rh":true},{"note":42,"duration":0.7,"velocity":0.5,"rh":false}]},{"acorde":[{"note":0,"duration":0.3,"velocity":0.5,"rh":false}]},{"acorde":[{"note":59,"duration":0.5,"velocity":0.6,"rh":true},{"note":43,"duration":0.7,"velocity":0.5,"rh":false}]},{"acorde":[{"note":62,"duration":0.5,"velocity":0.6,"rh":true}]},{"acorde":[{"note":55,"duration":1,"velocity":0.6,"rh":true},{"note":35,"duration":0.7,"velocity":0.5,"rh":false}]},{"acorde":[{"note":0,"duration":0.3,"velocity":0.5,"rh":false}]},{"acorde":[{"note":54,"duration":1,"velocity":0.6,"rh":true},{"note":38,"duration":0.7,"velocity":0.5,"rh":false},{"note":100,"duration":0,"velocity":95,"rh":false}]},{"acorde":[{"note":0,"duration":0.3,"velocity":0.5,"rh":false}]},{"acorde":[{"note":55,"duration":2.7,"velocity":0.8,"rh":true},{"note":50,"duration":2.7,"velocity":0.6,"rh":false},{"note":47,"duration":2.7,"velocity":0.6,"rh":false},{"note":43,"duration":0.7,"velocity":0.6,"rh":false},{"note":100,"duration":0,"velocity":88,"rh":false}]},{"acorde":[{"note":0,"duration":0.3,"velocity":0.5,"rh":false}]},{"acorde":[{"note":38,"duration":0.7,"velocity":0.7,"rh":false},{"note":100,"duration":0,"velocity":78,"rh":false}]},{"acorde":[{"note":0,"duration":0.3,"velocity":0.5,"rh":false}]},{"acorde":[{"note":31,"duration":1,"velocity":0.6,"rh":false}]},{"acorde":[{"note":0,"duration":0.3,"velocity":0.5,"rh":false}]}]}