{"Secuencia":[{"title":"Moonlight Sonata"},{"acorde":[{"note":44,"duration":0.332,"velocity":0.5590551,"rh":false},{"note":37,"duration":4,"velocity":0.5590551,"rh":false},{"note":100,"duration":0,"velocity":55,"rh":false}]},{"acorde":[{"note":49,"duration":0.332,"velocity":0.5826772,"rh":false}]},{"acorde":[{"note":52,"duration":0.336,"velocity":0.5984252,"rh":false}]},{"acorde":[{"note":44,"duration":0.332,"velocity":0.511811,"rh":false}]},{"acorde":[{"note":49,"duration":0.332,"velocity":0.5748032,"rh":false}]},{"acorde":[{"note":52,"duration":0.336,"velocity":0.6062992,"rh":false}]},{"acorde":[{"note":44,"duration":0.332,"velocity":0.503937,"rh":false}]},{"acorde":[{"note":49,"duration":0.332,"velocity":0.5748032,"rh":false}]},{"acorde":[{"note":52,"duration":0.336,"velocity":0.6062992,"rh":false}]},{"acorde":[{"note":44,"duration":0.332,"velocity":0.503937,"rh":false}]},{"acorde":[{"note":49,"duration":0.332,"velocity":0.5748032,"rh":false}]},{"acorde":[{"note":52,"duration":0.336,"velocity":0.6062992,"rh":false}]},{"acorde":[{"note":44,"duration":0.332,"velocity":0.503937,"rh":false},{"note":35,"duration":4,"velocity":0.5590551,"rh":false}]},{"acorde":[{"note":49,"duration":0.332,"velocity":0.5748032,"rh":false}]},{"acorde":[{"note":52,"duration":0.336,"velocity":0.6062992,"rh":false}]},{"acorde":[{"note":44,"duration":0.332,"velocity":0.503937,"rh":false}]},{"acorde":[{"note":49,"duration":0.332,"velocity":0.5748032,"rh":false}]},{"acorde":[{"note":52,"duration":0.336,"velocity":0.6062992,"rh":false}]},{"acorde":[{"note":44,"duration":0.332,"velocity":0.503937,"rh":false}]},{"acorde":[{"note":49,"duration":0.332,"velocity":0.5748032,"rh":false}]},{"acorde":[{"note":52,"duration":0.336,"velocity":0.6062992,"rh":false}]},{"acorde":[{"note":44,"duration":0.332,"velocity":0.503937,"rh":false}]},{"acorde":[{"note":49,"duration":0.332,"velocity":0.5748032,"rh":false}]},{"acorde":[{"note":52,"duration":0.336,"velocity":0.6062992,"rh":false}]},{"acorde":[{"note":45,"duration":0.332,"velocity":0.511811,"rh":false},{"note":33,"duration":2,"velocity":0.5590551,"rh":false}]},{"acorde":[{"note":49,"duration":0.332,"velocity":0.5748032,"rh":false}]},{"acorde":[{"note":52,"duration":0.336,"velocity":0.6062992,"rh":false}]},{"acorde":[{"note":45,"duration":0.332,"velocity":0.511811,"rh":false}]},{"acorde":[{"note":49,"duration":0.332,"velocity":0.5669292,"rh":false}]},{"acorde":[{"note":52,"duration":0.336,"velocity":0.5984252,"rh":false}]},{"acorde":[{"note":45,"duration":0.332,"velocity":0.511811,"rh":false},{"note":30,"duration":2,"velocity":0.5590551,"rh":false}]},{"acorde":[{"note":50,"duration":0.332,"velocity":0.5826772,"rh":false}]},{"acorde":[{"note":54,"duration":0.336,"velocity":0.6220472,"rh":false}]},{"acorde":[{"note":45,"duration":0.332,"velocity":0.503937,"rh":false}]},{"acorde":[{"note":50,"duration":0.332,"velocity":0.5748032,"rh":false}]},{"acorde":[{"note":54,"duration":0.336,"velocity":0.6141732,"rh":false}]},{"acorde":[{"note":44,"duration":0.332,"velocity":0.496063,"rh":false},{"note":32,"duration":2,"velocity":0.5590551,"rh":false}]},{"acorde":[{"note":48,"duration":0.332,"velocity":0.5511811,"rh":false}]},{"acorde":[{"note":54,"duration":0.336,"velocity":0.6220472,"rh":false}]},{"acorde":[{"note":44,"duration":0.332,"velocity":0.496063,"rh":false}]},{"acorde":[{"note":49,"duration":0.332,"velocity":0.5669292,"rh":false}]},{"acorde":[{"note":52,"duration":0.336,"velocity":0.5984252,"rh":false}]},{"acorde":[{"note":44,"duration":0.332,"velocity":0.503937,"rh":false},{"note":32,"duration":2,"velocity":0.5590551,"rh":false}]},{"acorde":[{"note":49,"duration":0.332,"velocity":0.5748032,"rh":false}]},{"acorde":[{"note":51,"duration":0.336,"velocity":0.5905512,"rh":false}]},{"acorde":[{"note":42,"duration":0.332,"velocity":0.496063,"rh":false}]},{"acorde":[{"note":48,"duration":0.332,"velocity":0.5748032,"rh":false}]},{"acorde":[{"note":51,"duration":0.336,"velocity":0.6062992,"rh":false}]},{"acorde":[{"note":40,"duration":0.332,"velocity":0.488189,"rh":false},{"note":37,"duration":4,"velocity":0.5590551,"rh":false}]},{"acorde":[{"note":44,"duration":0.332,"velocity":0.5433071,"rh":false}]},{"acorde":[{"note":49,"duration":0.336,"velocity":0.6062992,"rh":false}]},{"acorde":[{"note":44,"duration":0.332,"velocity":0.5354331,"rh":false}]},{"acorde":[{"note":49,"duration":0.332,"velocity":0.5984252,"rh":false}]},{"acorde":[{"note":52,"duration":0.336,"velocity":0.6220472,"rh":false}]},{"acorde":[{"note":44,"duration":0.332,"velocity":0.511811,"rh":false}]},{"acorde":[{"note":49,"duration":0.332,"velocity":0.5826772,"rh":false}]},{"acorde":[{"note":52,"duration":0.336,"velocity":0.6062992,"rh":false}]},{"acorde":[{"note":56,"duration":0.75,"velocity":0.7716535,"rh":true},{"note":44,"duration":0.332,"velocity":0.503937,"rh":false}]},{"acorde":[{"note":49,"duration":0.332,"velocity":0.5748032,"rh":false}]},{"acorde":[{"note":52,"duration":0.336,"velocity":0.6062992,"rh":false},{"note":0,"duration":0.086,"velocity":0.7,"rh":false}]},{"acorde":[{"note":56,"duration":0.25,"velocity":0.7952756,"rh":true}]},{"acorde":[{"note":56,"duration":3,"velocity":0.7795275,"rh":true},{"note":44,"duration":0.332,"velocity":0.503937,"rh":false},{"note":36,"duration":4,"velocity":0.5590551,"rh":false}]},{"acorde":[{"note":51,"duration":0.332,"velocity":0.5984252,"rh":false}]},{"acorde":[{"note":54,"duration":0.336,"velocity":0.6220472,"rh":false}]},{"acorde":[{"note":44,"duration":0.332,"velocity":0.496063,"rh":false}]},{"acorde":[{"note":51,"duration":0.332,"velocity":0.5905512,"rh":false}]},{"acorde":[{"note":54,"duration":0.336,"velocity":0.6141732,"rh":false}]},{"acorde":[{"note":44,"duration":0.332,"velocity":0.496063,"rh":false}]},{"acorde":[{"note":51,"duration":0.332,"velocity":0.5826772,"rh":false}]},{"acorde":[{"note":54,"duration":0.336,"velocity":0.6141732,"rh":false}]},{"acorde":[{"note":56,"duration":0.75,"velocity":0.7716535,"rh":true},{"note":44,"duration":0.332,"velocity":0.496063,"rh":false}]},{"acorde":[{"note":51,"duration":0.332,"velocity":0.5826772,"rh":false}]},{"acorde":[{"note":54,"duration":0.336,"velocity":0.6141732,"rh":false},{"note":0,"duration":0.086,"velocity":0.7,"rh":false}]},{"acorde":[{"note":56,"duration":0.25,"velocity":0.7952756,"rh":true}]},{"acorde":[{"note":56,"duration":2,"velocity":0.7795275,"rh":true},{"note":44,"duration":0.332,"velocity":0.496063,"rh":false},{"note":37,"duration":2,"velocity":0.5590551,"rh":false}]},{"acorde":[{"note":49,"duration":0.332,"velocity":0.5669292,"rh":false}]},{"acorde":[{"note":52,"duration":0.336,"velocity":0.5984252,"rh":false}]},{"acorde":[{"note":44,"duration":0.332,"velocity":0.496063,"rh":false}]},{"acorde":[{"note":49,"duration":0.332,"velocity":0.5748032,"rh":false}]},{"acorde":[{"note":52,"duration":0.336,"velocity":0.6062992,"rh":false}]},{"acorde":[{"note":57,"duration":2,"velocity":0.7716535,"rh":true},{"note":45,"duration":0.332,"velocity":0.511811,"rh":false},{"note":30,"duration":2,"velocity":0.5590551,"rh":false}]},{"acorde":[{"note":49,"duration":0.332,"velocity":0.5748032,"rh":false}]},{"acorde":[{"note":54,"duration":0.336,"velocity":0.6220472,"rh":false}]},{"acorde":[{"note":45,"duration":0.332,"velocity":0.503937,"rh":false}]},{"acorde":[{"note":49,"duration":0.332,"velocity":0.5669292,"rh":false}]},{"acorde":[{"note":54,"duration":0.336,"velocity":0.6220472,"rh":false}]},{"acorde":[{"note":56,"duration":2,"velocity":0.7716535,"rh":true},{"note":44,"duration":0.332,"velocity":0.496063,"rh":false},{"note":35,"duration":2,"velocity":0.5590551,"rh":false}]},{"acorde":[{"note":47,"duration":0.332,"velocity":0.5433071,"rh":false}]},{"acorde":[{"note":52,"duration":0.336,"velocity":0.6062992,"rh":false}]},{"acorde":[{"note":44,"duration":0.332,"velocity":0.503937,"rh":false}]},{"acorde":[{"note":47,"duration":0.332,"velocity":0.5590551,"rh":false}]},{"acorde":[{"note":52,"duration":0.336,"velocity":0.6141732,"rh":false}]},{"acorde":[{"note":54,"duration":1,"velocity":0.7716535,"rh":true},{"note":45,"duration":0.332,"velocity":0.519685,"rh":false},{"note":35,"duration":2,"velocity":0.5590551,"rh":false}]},{"acorde":[{"note":47,"duration":0.332,"velocity":0.5511811,"rh":false}]},{"acorde":[{"note":51,"duration":0.336,"velocity":0.5984252,"rh":false}]},{"acorde":[{"note":59,"duration":1,"velocity":0.7874016,"rh":true},{"note":45,"duration":0.332,"velocity":0.519685,"rh":false}]},{"acorde":[{"note":47,"duration":0.332,"velocity":0.5590551,"rh":false}]},{"acorde":[{"note":51,"duration":0.336,"velocity":0.6062992,"rh":false}]},{"acorde":[{"note":52,"duration":1,"velocity":0.7480315,"rh":true},{"note":44,"duration":0.332,"velocity":0.511811,"rh":false},{"note":28,"duration":4,"velocity":0.5590551,"rh":false}]},{"acorde":[{"note":47,"duration":0.332,"velocity":0.5511811,"rh":false}]},{"acorde":[{"note":52,"duration":0.336,"velocity":0.5984252,"rh":false}]},{"acorde":[{"note":44,"duration":0.332,"velocity":0.488189,"rh":false}]},{"acorde":[{"note":47,"duration":0.332,"velocity":0.519685,"rh":false}]},{"acorde":[{"note":52,"duration":0.336,"velocity":0.5669292,"rh":false}]},{"acorde":[{"note":44,"duration":0.332,"velocity":0.4566929,"rh":false}]},{"acorde":[{"note":47,"duration":0.332,"velocity":0.496063,"rh":false}]},{"acorde":[{"note":52,"duration":0.336,"velocity":0.527559,"rh":false}]},{"acorde":[{"note":44,"duration":0.332,"velocity":0.4330709,"rh":false}]},{"acorde":[{"note":47,"duration":0.332,"velocity":0.503937,"rh":false}]},{"acorde":[{"note":52,"duration":0.336,"velocity":0.5826772,"rh":false}]},{"acorde":[{"note":43,"duration":0.332,"velocity":0.496063,"rh":false},{"note":28,"duration":4,"velocity":0.5590551,"rh":false}]},{"acorde":[{"note":47,"duration":0.332,"velocity":0.5590551,"rh":false}]},{"acorde":[{"note":52,"duration":0.336,"velocity":0.6141732,"rh":false}]},{"acorde":[{"note":43,"duration":0.332,"velocity":0.503937,"rh":false}]},{"acorde":[{"note":47,"duration":0.332,"velocity":0.5590551,"rh":false}]},{"acorde":[{"note":52,"duration":0.336,"velocity":0.6141732,"rh":false}]},{"acorde":[{"note":43,"duration":0.332,"velocity":0.503937,"rh":false}]},{"acorde":[{"note":47,"duration":0.332,"velocity":0.5669292,"rh":false}]},{"acorde":[{"note":52,"duration":0.336,"velocity":0.6141732,"rh":false}]},{"acorde":[{"note":55,"duration":0.75,"velocity":0.7716535,"rh":true},{"note":43,"duration":0.332,"velocity":0.503937,"rh":false}]},{"acorde":[{"note":47,"duration":0.332,"velocity":0.5669292,"rh":false}]},{"acorde":[{"note":52,"duration":0.336,"velocity":0.6141732,"rh":false},{"note":0,"duration":0.086,"velocity":0.7,"rh":false}]},{"acorde":[{"note":55,"duration":0.25,"velocity":0.7952756,"rh":true}]},{"acorde":[{"note":55,"duration":3,"velocity":0.7795275,"rh":true},{"note":43,"duration":0.332,"velocity":0.503937,"rh":false},{"note":26,"duration":4,"velocity":0.5590551,"rh":false}]},{"acorde":[{"note":47,"duration":0.332,"velocity":0.5669292,"rh":false}]},{"acorde":[{"note":53,"duration":0.336,"velocity":0.6220472,"rh":false}]},{"acorde":[{"note":43,"duration":0.332,"velocity":0.496063,"rh":false}]},{"acorde":[{"note":47,"duration":0.332,"velocity":0.5590551,"rh":false}]},{"acorde":[{"note":53,"duration":0.336,"velocity":0.6220472,"rh":false}]},{"acorde":[{"note":43,"duration":0.332,"velocity":0.496063,"rh":false}]},{"acorde":[{"note":47,"duration":0.332,"velocity":0.5590551,"rh":false}]},{"acorde":[{"note":53,"duration":0.336,"velocity":0.6220472,"rh":false}]},{"acorde":[{"note":55,"duration":0.75,"velocity":0.7716535,"rh":true},{"note":43,"duration":0.332,"velocity":0.496063,"rh":false}]},{"acorde":[{"note":47,"duration":0.332,"velocity":0.5590551,"rh":false}]},{"acorde":[{"note":53,"duration":0.336,"velocity":0.6220472,"rh":false},{"note":0,"duration":0.086,"velocity":0.7,"rh":false}]},{"acorde":[{"note":55,"duration":0.25,"velocity":0.7952756,"rh":true}]},{"acorde":[{"note":55,"duration":3,"velocity":0.7795275,"rh":true},{"note":43,"duration":0.332,"velocity":0.496063,"rh":false},{"note":36,"duration":1,"velocity":0.5590551,"rh":false}]},{"acorde":[{"note":48,"duration":0.332,"velocity":0.5669292,"rh":false}]},{"acorde":[{"note":52,"duration":0.336,"velocity":0.6141732,"rh":false}]},{"acorde":[{"note":43,"duration":0.332,"velocity":0.496063,"rh":false},{"note":35,"duration":1,"velocity":0.5590551,"rh":false}]},{"acorde":[{"note":48,"duration":0.332,"velocity":0.5748032,"rh":false}]},{"acorde":[{"note":52,"duration":0.336,"velocity":0.6141732,"rh":false}]},{"acorde":[{"note":43,"duration":0.332,"velocity":0.496063,"rh":false},{"note":34,"duration":2,"velocity":0.5590551,"rh":false}]},{"acorde":[{"note":49,"duration":0.332,"velocity":0.5826772,"rh":false}]},{"acorde":[{"note":52,"duration":0.336,"velocity":0.6141732,"rh":false}]},{"acorde":[{"note":54,"duration":1,"velocity":0.7716535,"rh":true},{"note":42,"duration":0.332,"velocity":0.496063,"rh":false}]},{"acorde":[{"note":49,"duration":0.332,"velocity":0.5826772,"rh":false}]},{"acorde":[{"note":52,"duration":0.336,"velocity":0.6141732,"rh":false}]},{"acorde":[{"note":54,"duration":2,"velocity":0.7716535,"rh":true},{"note":42,"duration":0.332,"velocity":0.496063,"rh":false},{"note":35,"duration":2,"velocity":0.5590551,"rh":false}]},{"acorde":[{"note":47,"duration":0.332,"velocity":0.5669292,"rh":false}]},{"acorde":[{"note":50,"duration":0.336,"velocity":0.5984252,"rh":false}]},{"acorde":[{"note":42,"duration":0.332,"velocity":0.503937,"rh":false}]},{"acorde":[{"note":47,"duration":0.332,"velocity":0.5748032,"rh":false}]},{"acorde":[{"note":50,"duration":0.336,"velocity":0.6062992,"rh":false}]},{"acorde":[{"note":55,"duration":1,"velocity":0.7716535,"rh":true},{"note":43,"duration":0.332,"velocity":0.511811,"rh":false},{"note":28,"duration":1,"velocity":0.5590551,"rh":false}]},{"acorde":[{"note":47,"duration":0.332,"velocity":0.5748032,"rh":false}]},{"acorde":[{"note":49,"duration":0.336,"velocity":0.5905512,"rh":false}]},{"acorde":[{"note":52,"duration":1,"velocity":0.7637795,"rh":true},{"note":40,"duration":0.332,"velocity":0.496063,"rh":false},{"note":31,"duration":1,"velocity":0.5669292,"rh":false}]},{"acorde":[{"note":47,"duration":0.332,"velocity":0.5826772,"rh":false}]},{"acorde":[{"note":49,"duration":0.336,"velocity":0.5984252,"rh":false}]},{"acorde":[{"note":54,"duration":2,"velocity":0.7716535,"rh":true},{"note":42,"duration":0.332,"velocity":0.511811,"rh":false},{"note":30,"duration":2,"velocity":0.5590551,"rh":false}]},{"acorde":[{"note":47,"duration":0.332,"velocity":0.5826772,"rh":false}]},{"acorde":[{"note":50,"duration":0.336,"velocity":0.6062992,"rh":false}]},{"acorde":[{"note":42,"duration":0.332,"velocity":0.503937,"rh":false}]},{"acorde":[{"note":47,"duration":0.332,"velocity":0.5748032,"rh":false}]},{"acorde":[{"note":50,"duration":0.336,"velocity":0.6062992,"rh":false}]},{"acorde":[{"note":54,"duration":2,"velocity":0.7716535,"rh":true},{"note":42,"duration":0.332,"velocity":0.503937,"rh":false},{"note":30,"duration":2,"velocity":0.6062992,"rh":false}]},{"acorde":[{"note":46,"duration":0.332,"velocity":0.5669292,"rh":false}]},{"acorde":[{"note":49,"duration":0.336,"velocity":0.5984252,"rh":false}]},{"acorde":[{"note":42,"duration":0.332,"velocity":0.511811,"rh":false}]},{"acorde":[{"note":46,"duration":0.332,"velocity":0.5669292,"rh":false}]},{"acorde":[{"note":49,"duration":0.336,"velocity":0.5984252,"rh":false}]},{"acorde":[{"note":47,"duration":1,"velocity":0.7637795,"rh":true},{"note":35,"duration":5,"velocity":0.6614173,"rh":false},{"note":0,"duration":0.332,"velocity":0.7,"rh":false}]},{"acorde":[{"note":50,"duration":0.332,"velocity":0.5826772,"rh":false}]},{"acorde":[{"note":54,"duration":0.336,"velocity":0.6062992,"rh":false}]},{"acorde":[{"note":47,"duration":0.332,"velocity":0.527559,"rh":false}]},{"acorde":[{"note":50,"duration":0.332,"velocity":0.5669292,"rh":false}]},{"acorde":[{"note":54,"duration":0.336,"velocity":0.6062992,"rh":false}]},{"acorde":[{"note":47,"duration":0.332,"velocity":0.511811,"rh":false}]},{"acorde":[{"note":51,"duration":0.332,"velocity":0.5748032,"rh":false}]},{"acorde":[{"note":54,"duration":0.336,"velocity":0.6062992,"rh":false}]},{"acorde":[{"note":59,"duration":1,"velocity":0.7716535,"rh":true},{"note":47,"duration":0.332,"velocity":0.511811,"rh":false}]},{"acorde":[{"note":51,"duration":0.332,"velocity":0.5669292,"rh":false}]},{"acorde":[{"note":54,"duration":0.336,"velocity":0.5984252,"rh":false}]},{"acorde":[{"note":60,"duration":3,"velocity":0.7716535,"rh":true},{"note":47,"duration":0.332,"velocity":0.511811,"rh":false}]},{"acorde":[{"note":52,"duration":0.332,"velocity":0.5826772,"rh":false}]},{"acorde":[{"note":55,"duration":0.336,"velocity":0.6062992,"rh":false}]},{"acorde":[{"note":47,"duration":0.332,"velocity":0.503937,"rh":false},{"note":40,"duration":1,"velocity":0.7716535,"rh":false}]},{"acorde":[{"note":52,"duration":0.332,"velocity":0.5748032,"rh":false}]},{"acorde":[{"note":55,"duration":0.336,"velocity":0.6062992,"rh":false}]},{"acorde":[{"note":47,"duration":0.332,"velocity":0.503937,"rh":false},{"note":43,"duration":1,"velocity":0.7795275,"rh":false}]},{"acorde":[{"note":52,"duration":0.332,"velocity":0.5748032,"rh":false}]},{"acorde":[{"note":55,"duration":0.336,"velocity":0.6062992,"rh":false}]},{"acorde":[{"note":58,"duration":1,"velocity":0.7716535,"rh":true},{"note":47,"duration":0.332,"velocity":0.503937,"rh":false},{"note":40,"duration":1,"velocity":0.7637795,"rh":false}]},{"acorde":[{"note":52,"duration":0.332,"velocity":0.5748032,"rh":false}]},{"acorde":[{"note":55,"duration":0.336,"velocity":0.6062992,"rh":false}]},{"acorde":[{"note":59,"duration":3,"velocity":0.7716535,"rh":true},{"note":47,"duration":0.332,"velocity":0.503937,"rh":false},{"note":35,"duration":5,"velocity":0.6535433,"rh":false}]},{"acorde":[{"note":51,"duration":0.332,"velocity":0.5669292,"rh":false}]},{"acorde":[{"note":54,"duration":0.336,"velocity":0.5984252,"rh":false}]},{"acorde":[{"note":47,"duration":0.332,"velocity":0.503937,"rh":false}]},{"acorde":[{"note":51,"duration":0.332,"velocity":0.5669292,"rh":false}]},{"acorde":[{"note":54,"duration":0.336,"velocity":0.5984252,"rh":false}]},{"acorde":[{"note":47,"duration":0.332,"velocity":0.503937,"rh":false}]},{"acorde":[{"note":51,"duration":0.332,"velocity":0.5669292,"rh":false}]},{"acorde":[{"note":54,"duration":0.336,"velocity":0.5984252,"rh":false}]},{"acorde":[{"note":59,"duration":1,"velocity":0.7716535,"rh":true},{"note":47,"duration":0.332,"velocity":0.511811,"rh":false}]},{"acorde":[{"note":51,"duration":0.332,"velocity":0.5669292,"rh":false}]},{"acorde":[{"note":54,"duration":0.336,"velocity":0.5984252,"rh":false}]},{"acorde":[{"note":60,"duration":3,"velocity":0.7716535,"rh":true},{"note":47,"duration":0.332,"velocity":0.511811,"rh":false}]},{"acorde":[{"note":52,"duration":0.332,"velocity":0.5826772,"rh":false}]},{"acorde":[{"note":55,"duration":0.336,"velocity":0.6062992,"rh":false}]},{"acorde":[{"note":47,"duration":0.332,"velocity":0.503937,"rh":false},{"note":40,"duration":1,"velocity":0.7716535,"rh":false}]},{"acorde":[{"note":52,"duration":0.332,"velocity":0.5748032,"rh":false}]},{"acorde":[{"note":55,"duration":0.336,"velocity":0.6062992,"rh":false}]},{"acorde":[{"note":47,"duration":0.332,"velocity":0.503937,"rh":false},{"note":43,"duration":1,"velocity":0.7795275,"rh":false}]},{"acorde":[{"note":52,"duration":0.332,"velocity":0.5748032,"rh":false}]},{"acorde":[{"note":55,"duration":0.336,"velocity":0.6062992,"rh":false}]},{"acorde":[{"note":58,"duration":1,"velocity":0.7716535,"rh":true},{"note":47,"duration":0.332,"velocity":0.503937,"rh":false},{"note":40,"duration":1,"velocity":0.7637795,"rh":false}]},{"acorde":[{"note":52,"duration":0.332,"velocity":0.5748032,"rh":false}]},{"acorde":[{"note":55,"duration":0.336,"velocity":0.6062992,"rh":false}]},{"acorde":[{"note":59,"duration":2,"velocity":0.7716535,"rh":true},{"note":47,"duration":0.332,"velocity":0.503937,"rh":false},{"note":35,"duration":2,"velocity":0.6535433,"rh":false}]},{"acorde":[{"note":51,"duration":0.332,"velocity":0.5669292,"rh":false}]},{"acorde":[{"note":54,"duration":0.336,"velocity":0.5984252,"rh":false}]},{"acorde":[{"note":47,"duration":0.332,"velocity":0.503937,"rh":false}]},{"acorde":[{"note":51,"duration":0.332,"velocity":0.5669292,"rh":false}]},{"acorde":[{"note":54,"duration":0.336,"velocity":0.5984252,"rh":false}]},{"acorde":[{"note":59,"duration":2,"velocity":0.7716535,"rh":true},{"note":47,"duration":0.332,"velocity":0.511811,"rh":false},{"note":32,"duration":2,"velocity":0.6614173,"rh":false}]},{"acorde":[{"note":50,"duration":0.332,"velocity":0.5590551,"rh":false}]},{"acorde":[{"note":53,"duration":0.336,"velocity":0.5905512,"rh":false}]},{"acorde":[{"note":47,"duration":0.332,"velocity":0.511811,"rh":false}]},{"acorde":[{"note":50,"duration":0.332,"velocity":0.5669292,"rh":false}]},{"acorde":[{"note":53,"duration":0.336,"velocity":0.5984252,"rh":false}]},{"acorde":[{"note":59,"duration":2,"velocity":0.7716535,"rh":true},{"note":47,"duration":0.332,"velocity":0.519685,"rh":false},{"note":29,"duration":2,"velocity":0.6614173,"rh":false}]},{"acorde":[{"note":49,"duration":0.332,"velocity":0.5511811,"rh":false}]},{"acorde":[{"note":56,"duration":0.336,"velocity":0.6299213,"rh":false}]},{"acorde":[{"note":47,"duration":0.332,"velocity":0.511811,"rh":false}]},{"acorde":[{"note":49,"duration":0.332,"velocity":0.5433071,"rh":false}]},{"acorde":[{"note":56,"duration":0.336,"velocity":0.6220472,"rh":false}]},{"acorde":[{"note":57,"duration":2,"velocity":0.7716535,"rh":true},{"note":45,"duration":0.332,"velocity":0.496063,"rh":false},{"note":30,"duration":2,"velocity":0.6614173,"rh":false}]},{"acorde":[{"note":49,"duration":0.332,"velocity":0.5511811,"rh":false}]},{"acorde":[{"note":54,"duration":0.336,"velocity":0.6141732,"rh":false}]},{"acorde":[{"note":45,"duration":0.332,"velocity":0.496063,"rh":false}]},{"acorde":[{"note":49,"duration":0.332,"velocity":0.5590551,"rh":false}]},{"acorde":[{"note":54,"duration":0.336,"velocity":0.6141732,"rh":false}]},{"acorde":[{"note":55,"duration":2,"velocity":0.7716535,"rh":true},{"note":43,"duration":0.332,"velocity":0.488189,"rh":false},{"note":35,"duration":2,"velocity":0.6614173,"rh":false}]},{"acorde":[{"note":47,"duration":0.332,"velocity":0.5511811,"rh":false}]},{"acorde":[{"note":50,"duration":0.336,"velocity":0.5905512,"rh":false}]},{"acorde":[{"note":43,"duration":0.332,"velocity":0.503937,"rh":false}]},{"acorde":[{"note":47,"duration":0.332,"velocity":0.5669292,"rh":false}]},{"acorde":[{"note":50,"duration":0.336,"velocity":0.5984252,"rh":false}]},{"acorde":[{"note":54,"duration":2,"velocity":0.7716535,"rh":true},{"note":42,"duration":0.332,"velocity":0.503937,"rh":false},{"note":36,"duration":2,"velocity":0.6614173,"rh":false}]},{"acorde":[{"note":45,"duration":0.332,"velocity":0.5511811,"rh":false}]},{"acorde":[{"note":51,"duration":0.336,"velocity":0.6220472,"rh":false}]},{"acorde":[{"note":42,"duration":0.332,"velocity":0.503937,"rh":false}]},{"acorde":[{"note":45,"duration":0.332,"velocity":0.5511811,"rh":false}]},{"acorde":[{"note":51,"duration":0.336,"velocity":0.6220472,"rh":false}]},{"acorde":[{"note":49,"duration":2,"velocity":0.7637795,"rh":true},{"note":37,"duration":0.332,"velocity":0.496063,"rh":false},{"note":25,"duration":2,"velocity":0.6614173,"rh":false}]},{"acorde":[{"note":42,"duration":0.332,"velocity":0.5433071,"rh":false}]},{"acorde":[{"note":45,"duration":0.336,"velocity":0.5826772,"rh":false}]},{"acorde":[{"note":37,"duration":0.332,"velocity":0.503937,"rh":false}]},{"acorde":[{"note":42,"duration":0.332,"velocity":0.5669292,"rh":false}]},{"acorde":[{"note":45,"duration":0.336,"velocity":0.6062992,"rh":false}]},{"acorde":[{"note":49,"duration":1,"velocity":0.7716535,"rh":true},{"note":37,"duration":0.332,"velocity":0.511811,"rh":false},{"note":25,"duration":2,"velocity":0.6614173,"rh":false}]},{"acorde":[{"note":42,"duration":0.332,"velocity":0.5748032,"rh":false}]},{"acorde":[{"note":44,"duration":0.336,"velocity":0.5905512,"rh":false}]},{"acorde":[{"note":49,"duration":1,"velocity":0.7716535,"rh":true},{"note":37,"duration":0.332,"velocity":0.519685,"rh":false}]},{"acorde":[{"note":41,"duration":0.332,"velocity":0.5669292,"rh":false}]},{"acorde":[{"note":44,"duration":0.336,"velocity":0.5984252,"rh":false}]},{"acorde":[{"note":42,"duration":1,"velocity":0.7480315,"rh":true},{"note":30,"duration":4,"velocity":0.6614173,"rh":false},{"note":0,"duration":0.332,"velocity":0.7,"rh":false}]},{"acorde":[{"note":45,"duration":0.332,"velocity":0.5826772,"rh":false}]},{"acorde":[{"note":49,"duration":0.336,"velocity":0.6062992,"rh":false}]},{"acorde":[{"note":45,"duration":0.332,"velocity":0.5511811,"rh":false}]},{"acorde":[{"note":49,"duration":0.332,"velocity":0.5905512,"rh":false}]},{"acorde":[{"note":54,"duration":0.336,"velocity":0.6220472,"rh":false}]},{"acorde":[{"note":49,"duration":0.332,"velocity":0.5511811,"rh":false}]},{"acorde":[{"note":54,"duration":0.332,"velocity":0.6062992,"rh":false}]},{"acorde":[{"note":57,"duration":0.336,"velocity":0.6220472,"rh":false}]},{"acorde":[{"note":61,"duration":0.75,"velocity":0.7716535,"rh":true},{"note":49,"duration":0.332,"velocity":0.511811,"rh":false}]},{"acorde":[{"note":54,"duration":0.332,"velocity":0.5826772,"rh":false}]},{"acorde":[{"note":57,"duration":0.336,"velocity":0.6062992,"rh":false},{"note":0,"duration":0.086,"velocity":0.7,"rh":false}]},{"acorde":[{"note":61,"duration":0.25,"velocity":0.7952756,"rh":true}]},{"acorde":[{"note":61,"duration":3,"velocity":0.7795275,"rh":true},{"note":49,"duration":0.332,"velocity":0.503937,"rh":false},{"note":29,"duration":4,"velocity":0.6614173,"rh":false}]},{"acorde":[{"note":56,"duration":0.332,"velocity":0.5984252,"rh":false}]},{"acorde":[{"note":59,"duration":0.336,"velocity":0.6220472,"rh":false}]},{"acorde":[{"note":49,"duration":0.332,"velocity":0.496063,"rh":false}]},{"acorde":[{"note":56,"duration":0.332,"velocity":0.5905512,"rh":false}]},{"acorde":[{"note":59,"duration":0.336,"velocity":0.6141732,"rh":false}]},{"acorde":[{"note":49,"duration":0.332,"velocity":0.496063,"rh":false}]},{"acorde":[{"note":56,"duration":0.332,"velocity":0.5826772,"rh":false}]},{"acorde":[{"note":59,"duration":0.336,"velocity":0.6141732,"rh":false}]},{"acorde":[{"note":61,"duration":0.75,"velocity":0.7716535,"rh":true},{"note":49,"duration":0.332,"velocity":0.496063,"rh":false}]},{"acorde":[{"note":56,"duration":0.332,"velocity":0.5826772,"rh":false}]},{"acorde":[{"note":59,"duration":0.336,"velocity":0.6141732,"rh":false},{"note":0,"duration":0.086,"velocity":0.7,"rh":false}]},{"acorde":[{"note":61,"duration":0.25,"velocity":0.7952756,"rh":true}]},{"acorde":[{"note":61,"duration":2,"velocity":0.7795275,"rh":true},{"note":49,"duration":0.332,"velocity":0.496063,"rh":false},{"note":30,"duration":2,"velocity":0.6614173,"rh":false}]},{"acorde":[{"note":54,"duration":0.332,"velocity":0.5669292,"rh":false}]},{"acorde":[{"note":57,"duration":0.336,"velocity":0.5984252,"rh":false}]},{"acorde":[{"note":49,"duration":0.332,"velocity":0.496063,"rh":false}]},{"acorde":[{"note":54,"duration":0.332,"velocity":0.5748032,"rh":false}]},{"acorde":[{"note":57,"duration":0.336,"velocity":0.6062992,"rh":false}]},{"acorde":[{"note":60,"duration":1,"velocity":0.7716535,"rh":true},{"note":48,"duration":0.332,"velocity":0.496063,"rh":false},{"note":27,"duration":1,"velocity":0.6614173,"rh":false}]},{"acorde":[{"note":54,"duration":0.332,"velocity":0.5826772,"rh":false}]},{"acorde":[{"note":57,"duration":0.336,"velocity":0.6062992,"rh":false}]},{"acorde":[{"note":61,"duration":1,"velocity":0.7716535,"rh":true},{"note":49,"duration":0.332,"velocity":0.503937,"rh":false},{"note":25,"duration":1,"velocity":0.6614173,"rh":false}]},{"acorde":[{"note":54,"duration":0.332,"velocity":0.5748032,"rh":false}]},{"acorde":[{"note":57,"duration":0.336,"velocity":0.6062992,"rh":false}]},{"acorde":[{"note":63,"duration":3,"velocity":0.7795275,"rh":true},{"note":51,"duration":0.332,"velocity":0.519685,"rh":false},{"note":24,"duration":3,"velocity":0.6614173,"rh":false}]},{"acorde":[{"note":54,"duration":0.332,"velocity":0.5669292,"rh":false}]},{"acorde":[{"note":56,"duration":0.336,"velocity":0.5905512,"rh":false}]},{"acorde":[{"note":51,"duration":0.332,"velocity":0.519685,"rh":false}]},{"acorde":[{"note":54,"duration":0.332,"velocity":0.5669292,"rh":false}]},{"acorde":[{"note":56,"duration":0.336,"velocity":0.5905512,"rh":false}]},{"acorde":[{"note":51,"duration":0.332,"velocity":0.519685,"rh":false}]},{"acorde":[{"note":54,"duration":0.332,"velocity":0.5669292,"rh":false}]},{"acorde":[{"note":56,"duration":0.336,"velocity":0.5905512,"rh":false}]},{"acorde":[{"note":63,"duration":1,"velocity":0.7716535,"rh":true},{"note":51,"duration":0.332,"velocity":0.519685,"rh":false},{"note":24,"duration":1,"velocity":0.6614173,"rh":false}]},{"acorde":[{"note":54,"duration":0.332,"velocity":0.5669292,"rh":false}]},{"acorde":[{"note":56,"duration":0.336,"velocity":0.5905512,"rh":false}]},{"acorde":[{"note":64,"duration":2,"velocity":0.7716535,"rh":true},{"note":52,"duration":0.332,"velocity":0.5354331,"rh":false},{"note":25,"duration":2,"velocity":0.6614173,"rh":false}]},{"acorde":[{"note":56,"duration":0.332,"velocity":0.5905512,"rh":false}]},{"acorde":[{"note":61,"duration":0.336,"velocity":0.6220472,"rh":false}]},{"acorde":[{"note":52,"duration":0.332,"velocity":0.503937,"rh":false}]},{"acorde":[{"note":56,"duration":0.332,"velocity":0.5669292,"rh":false}]},{"acorde":[{"note":61,"duration":0.336,"velocity":0.6220472,"rh":false}]},{"acorde":[{"note":63,"duration":1,"velocity":0.7716535,"rh":true},{"note":51,"duration":0.332,"velocity":0.496063,"rh":false},{"note":30,"duration":1,"velocity":0.6614173,"rh":false}]},{"acorde":[{"note":54,"duration":0.332,"velocity":0.5433071,"rh":false}]},{"acorde":[{"note":57,"duration":0.336,"velocity":0.5826772,"rh":false}]},{"acorde":[{"note":61,"duration":1,"velocity":0.7637795,"rh":true},{"note":49,"duration":0.332,"velocity":0.496063,"rh":false},{"note":31,"duration":1,"velocity":0.6614173,"rh":false}]},{"acorde":[{"note":52,"duration":0.332,"velocity":0.5433071,"rh":false}]},{"acorde":[{"note":58,"duration":0.336,"velocity":0.6220472,"rh":false}]},{"acorde":[{"note":60,"duration":1,"velocity":0.7637795,"rh":true},{"note":32,"duration":4,"velocity":0.6614173,"rh":false},{"note":0,"duration":0.332,"velocity":0.7,"rh":false}]},{"acorde":[{"note":48,"duration":0.332,"velocity":0.511811,"rh":false}]},{"acorde":[{"note":51,"duration":0.336,"velocity":0.5511811,"rh":false}]},{"acorde":[{"note":56,"duration":0.332,"velocity":0.7559055,"rh":true},{"note":56,"duration":0.332,"velocity":0.6062992,"rh":false}]},{"acorde":[{"note":48,"duration":0.332,"velocity":0.511811,"rh":false}]},{"acorde":[{"note":51,"duration":0.336,"velocity":0.5590551,"rh":false}]},{"acorde":[{"note":57,"duration":0.332,"velocity":0.7716535,"rh":true},{"note":57,"duration":0.332,"velocity":0.6220472,"rh":false}]},{"acorde":[{"note":48,"duration":0.332,"velocity":0.503937,"rh":false}]},{"acorde":[{"note":51,"duration":0.336,"velocity":0.5511811,"rh":false}]},{"acorde":[{"note":54,"duration":0.332,"velocity":0.7637795,"rh":true},{"note":54,"duration":0.332,"velocity":0.5905512,"rh":false}]},{"acorde":[{"note":48,"duration":0.332,"velocity":0.511811,"rh":false}]},{"acorde":[{"note":51,"duration":0.336,"velocity":0.5590551,"rh":false}]},{"acorde":[{"note":32,"duration":4,"velocity":0.6614173,"rh":false},{"note":0,"duration":0.332,"velocity":0.7,"rh":false}]},{"acorde":[{"note":48,"duration":0.332,"velocity":0.5433071,"rh":false}]},{"acorde":[{"note":51,"duration":0.336,"velocity":0.5748032,"rh":false}]},{"acorde":[{"note":44,"duration":1,"velocity":0.7637795,"rh":true},{"note":0,"duration":0.332,"velocity":0.7,"rh":false}]},{"acorde":[{"note":48,"duration":0.332,"velocity":0.5511811,"rh":false}]},{"acorde":[{"note":51,"duration":0.336,"velocity":0.5748032,"rh":false}]},{"acorde":[{"note":45,"duration":1,"velocity":0.7716535,"rh":true},{"note":0,"duration":0.332,"velocity":0.7,"rh":false}]},{"acorde":[{"note":48,"duration":0.332,"velocity":0.5511811,"rh":false}]},{"acorde":[{"note":51,"duration":0.336,"velocity":0.5748032,"rh":false}]},{"acorde":[{"note":42,"duration":1,"velocity":0.7637795,"rh":true},{"note":0,"duration":0.332,"velocity":0.7,"rh":false}]},{"acorde":[{"note":48,"duration":0.332,"velocity":0.5511811,"rh":false}]},{"acorde":[{"note":51,"duration":0.336,"velocity":0.5748032,"rh":false}]},{"acorde":[{"note":40,"duration":1,"velocity":0.7637795,"rh":true},{"note":32,"duration":4,"velocity":0.6614173,"rh":false},{"note":0,"duration":0.332,"velocity":0.7,"rh":false}]},{"acorde":[{"note":52,"duration":0.332,"velocity":0.5748032,"rh":false}]},{"acorde":[{"note":56,"duration":0.336,"velocity":0.5984252,"rh":false}]},{"acorde":[{"note":61,"duration":0.332,"velocity":0.8110236,"rh":true},{"note":61,"duration":0.332,"velocity":0.6220472,"rh":false}]},{"acorde":[{"note":52,"duration":0.332,"velocity":0.511811,"rh":false}]},{"acorde":[{"note":56,"duration":0.336,"velocity":0.5669292,"rh":false}]},{"acorde":[{"note":64,"duration":0.332,"velocity":0.7874016,"rh":true},{"note":64,"duration":0.332,"velocity":0.6377953,"rh":false}]},{"acorde":[{"note":52,"duration":0.332,"velocity":0.496063,"rh":false}]},{"acorde":[{"note":56,"duration":0.336,"velocity":0.5511811,"rh":false}]},{"acorde":[{"note":61,"duration":0.332,"velocity":0.7637795,"rh":true},{"note":61,"duration":0.332,"velocity":0.6141732,"rh":false}]},{"acorde":[{"note":52,"duration":0.332,"velocity":0.496063,"rh":false}]},{"acorde":[{"note":56,"duration":0.336,"velocity":0.5590551,"rh":false}]},{"acorde":[{"note":32,"duration":4,"velocity":0.6614173,"rh":false},{"note":0,"duration":0.332,"velocity":0.7,"rh":false}]},{"acorde":[{"note":40,"duration":0.332,"velocity":0.496063,"rh":false}]},{"acorde":[{"note":44,"duration":0.336,"velocity":0.527559,"rh":false}]},{"acorde":[{"note":49,"duration":1,"velocity":0.7637795,"rh":true},{"note":0,"duration":0.332,"velocity":0.7,"rh":false}]},{"acorde":[{"note":40,"duration":0.332,"velocity":0.5354331,"rh":false}]},{"acorde":[{"note":44,"duration":0.336,"velocity":0.5748032,"rh":false}]},{"acorde":[{"note":52,"duration":1,"velocity":0.7795275,"rh":true},{"note":0,"duration":0.332,"velocity":0.7,"rh":false}]},{"acorde":[{"note":40,"duration":0.332,"velocity":0.5433071,"rh":false}]},{"acorde":[{"note":44,"duration":0.336,"velocity":0.5826772,"rh":false}]},{"acorde":[{"note":49,"duration":1,"velocity":0.7637795,"rh":true},{"note":0,"duration":0.332,"velocity":0.7,"rh":false}]},{"acorde":[{"note":40,"duration":0.332,"velocity":0.5433071,"rh":false}]},{"acorde":[{"note":44,"duration":0.336,"velocity":0.5826772,"rh":false}]},{"acorde":[{"note":39,"duration":0.332,"velocity":0.5354331,"rh":false},{"note":32,"duration":4,"velocity":0.6614173,"rh":false}]},{"acorde":[{"note":45,"duration":0.332,"velocity":0.6062992,"rh":false}]},{"acorde":[{"note":42,"duration":0.336,"velocity":0.5748032,"rh":false}]},{"acorde":[{"note":48,"duration":0.332,"velocity":0.6456693,"rh":false}]},{"acorde":[{"note":45,"duration":0.332,"velocity":0.5984252,"rh":false}]},{"acorde":[{"note":51,"duration":0.336,"velocity":0.6771653,"rh":false}]},{"acorde":[{"note":48,"duration":0.332,"velocity":0.6299213,"rh":false}]},{"acorde":[{"note":54,"duration":0.332,"velocity":0.6929134,"rh":false}]},{"acorde":[{"note":51,"duration":0.336,"velocity":0.6456693,"rh":false}]},{"acorde":[{"note":57,"duration":0.332,"velocity":0.7086614,"rh":false}]},{"acorde":[{"note":54,"duration":0.332,"velocity":0.6771653,"rh":false}]},{"acorde":[{"note":60,"duration":0.336,"velocity":0.7322835,"rh":false}]},{"acorde":[{"note":40,"duration":0.332,"velocity":0.5590551,"rh":false},{"note":32,"duration":4,"velocity":0.7716535,"rh":false}]},{"acorde":[{"note":49,"duration":0.332,"velocity":0.6377953,"rh":false}]},{"acorde":[{"note":44,"duration":0.336,"velocity":0.5905512,"rh":false}]},{"acorde":[{"note":52,"duration":0.332,"velocity":0.7165354,"rh":false}]},{"acorde":[{"note":49,"duration":0.332,"velocity":0.6614173,"rh":false}]},{"acorde":[{"note":56,"duration":0.336,"velocity":0.7401575,"rh":false}]},{"acorde":[{"note":52,"duration":0.332,"velocity":0.6692913,"rh":false}]},{"acorde":[{"note":61,"duration":0.332,"velocity":0.7559055,"rh":false}]},{"acorde":[{"note":56,"duration":0.336,"velocity":0.6692913,"rh":false}]},{"acorde":[{"note":64,"duration":0.332,"velocity":0.7480315,"rh":false}]},{"acorde":[{"note":61,"duration":0.332,"velocity":0.6850393,"rh":false}]},{"acorde":[{"note":56,"duration":0.336,"velocity":0.6062992,"rh":false}]},{"acorde":[{"note":49,"duration":0.332,"velocity":0.5669292,"rh":false},{"note":32,"duration":4,"velocity":0.7716535,"rh":false}]},{"acorde":[{"note":55,"duration":0.332,"velocity":0.6614173,"rh":false}]},{"acorde":[{"note":52,"duration":0.336,"velocity":0.6377953,"rh":false}]},{"acorde":[{"note":58,"duration":0.332,"velocity":0.7480315,"rh":false}]},{"acorde":[{"note":55,"duration":0.332,"velocity":0.7086614,"rh":false}]},{"acorde":[{"note":61,"duration":0.336,"velocity":0.8031496,"rh":false}]},{"acorde":[{"note":58,"duration":0.332,"velocity":0.7480315,"rh":false}]},{"acorde":[{"note":64,"duration":0.332,"velocity":0.8346457,"rh":false}]},{"acorde":[{"note":61,"duration":0.336,"velocity":0.7874016,"rh":false}]},{"acorde":[{"note":67,"duration":0.332,"velocity":0.8582677,"rh":false}]},{"acorde":[{"note":64,"duration":0.332,"velocity":0.7874016,"rh":false}]},{"acorde":[{"note":70,"duration":0.336,"velocity":0.8582677,"rh":false}]},{"acorde":[{"note":54,"duration":0.332,"velocity":0.6535433,"rh":false},{"note":32,"duration":8,"velocity":0.8897638,"rh":false}]},{"acorde":[{"note":60,"duration":0.332,"velocity":0.7322835,"rh":false}]},{"acorde":[{"note":57,"duration":0.336,"velocity":0.7086614,"rh":false}]},{"acorde":[{"note":63,"duration":0.332,"velocity":0.8267717,"rh":false}]},{"acorde":[{"note":60,"duration":0.332,"velocity":0.7637795,"rh":false}]},{"acorde":[{"note":66,"duration":0.336,"velocity":0.8582677,"rh":false}]},{"acorde":[{"note":63,"duration":0.332,"velocity":0.7874016,"rh":false}]},{"acorde":[{"note":69,"duration":0.332,"velocity":0.8582677,"rh":false}]},{"acorde":[{"note":66,"duration":0.336,"velocity":0.7874016,"rh":false}]},{"acorde":[{"note":72,"duration":0.332,"velocity":0.8582677,"rh":false}]},{"acorde":[{"note":69,"duration":0.332,"velocity":0.7874016,"rh":false}]},{"acorde":[{"note":75,"duration":0.336,"velocity":0.8582677,"rh":false}]},{"acorde":[{"note":72,"duration":0.332,"velocity":0.7874016,"rh":false}]},{"acorde":[{"note":66,"duration":0.332,"velocity":0.6850393,"rh":false}]},{"acorde":[{"note":69,"duration":0.336,"velocity":0.7480315,"rh":false}]},{"acorde":[{"note":63,"duration":0.332,"velocity":0.6692913,"rh":false}]},{"acorde":[{"note":66,"duration":0.332,"velocity":0.7244095,"rh":false}]},{"acorde":[{"note":60,"duration":0.336,"velocity":0.6614173,"rh":false}]},{"acorde":[{"note":63,"duration":0.332,"velocity":0.7244095,"rh":false}]},{"acorde":[{"note":57,"duration":0.332,"velocity":0.6456693,"rh":false}]},{"acorde":[{"note":60,"duration":0.336,"velocity":0.7086614,"rh":false}]},{"acorde":[{"note":54,"duration":0.332,"velocity":0.6377953,"rh":false}]},{"acorde":[{"note":57,"duration":0.332,"velocity":0.7007874,"rh":false}]},{"acorde":[{"note":51,"duration":0.336,"velocity":0.6220472,"rh":false}]},{"acorde":[{"note":54,"duration":0.332,"velocity":0.6850393,"rh":false},{"note":32,"duration":4,"velocity":0.8110236,"rh":false}]},{"acorde":[{"note":48,"duration":0.332,"velocity":0.6220472,"rh":false}]},{"acorde":[{"note":51,"duration":0.336,"velocity":0.6771653,"rh":false}]},{"acorde":[{"note":45,"duration":0.332,"velocity":0.6062992,"rh":false}]},{"acorde":[{"note":48,"duration":0.332,"velocity":0.6614173,"rh":false}]},{"acorde":[{"note":42,"duration":0.336,"velocity":0.5826772,"rh":false}]},{"acorde":[{"note":45,"duration":0.332,"velocity":0.6456693,"rh":false}]},{"acorde":[{"note":39,"duration":0.332,"velocity":0.6614173,"rh":true},{"note":39,"duration":0.332,"velocity":0.5905512,"rh":false}]},{"acorde":[{"note":42,"duration":0.336,"velocity":0.6456693,"rh":false}]},{"acorde":[{"note":37,"duration":0.332,"velocity":0.6535433,"rh":true},{"note":37,"duration":0.332,"velocity":0.6062992,"rh":false}]},{"acorde":[{"note":42,"duration":0.332,"velocity":0.6850393,"rh":false}]},{"acorde":[{"note":45,"duration":0.336,"velocity":0.7165354,"rh":false}]},{"acorde":[{"note":36,"duration":0.332,"velocity":0.6535433,"rh":true},{"note":36,"duration":0.332,"velocity":0.511811,"rh":false},{"note":32,"duration":4,"velocity":0.5590551,"rh":false}]},{"acorde":[{"note":42,"duration":0.332,"velocity":0.5826772,"rh":false}]},{"acorde":[{"note":44,"duration":0.336,"velocity":0.5984252,"rh":false}]},{"acorde":[{"note":45,"duration":0.332,"velocity":0.5984252,"rh":false}]},{"acorde":[{"note":44,"duration":0.332,"velocity":0.5748032,"rh":false}]},{"acorde":[{"note":42,"duration":0.336,"velocity":0.5433071,"rh":false}]},{"acorde":[{"note":39,"duration":0.332,"velocity":0.6614173,"rh":true},{"note":39,"duration":0.332,"velocity":0.519685,"rh":false}]},{"acorde":[{"note":42,"duration":0.332,"velocity":0.5590551,"rh":false}]},{"acorde":[{"note":45,"duration":0.336,"velocity":0.5984252,"rh":false}]},{"acorde":[{"note":37,"duration":0.332,"velocity":0.6535433,"rh":true},{"note":37,"duration":0.332,"velocity":0.511811,"rh":false}]},{"acorde":[{"note":42,"duration":0.332,"velocity":0.5748032,"rh":false}]},{"acorde":[{"note":45,"duration":0.336,"velocity":0.6062992,"rh":false}]},{"acorde":[{"note":36,"duration":0.332,"velocity":0.6535433,"rh":true},{"note":36,"duration":0.332,"velocity":0.511811,"rh":false},{"note":32,"duration":4,"velocity":0.5590551,"rh":false}]},{"acorde":[{"note":42,"duration":0.332,"velocity":0.5748032,"rh":false}]},{"acorde":[{"note":44,"duration":0.336,"velocity":0.5984252,"rh":false}]},{"acorde":[{"note":45,"duration":0.332,"velocity":0.5984252,"rh":false}]},{"acorde":[{"note":44,"duration":0.332,"velocity":0.5748032,"rh":false}]},{"acorde":[{"note":42,"duration":0.336,"velocity":0.5433071,"rh":false}]},{"acorde":[{"note":38,"duration":0.332,"velocity":0.6614173,"rh":true},{"note":38,"duration":0.332,"velocity":0.511811,"rh":false}]},{"acorde":[{"note":42,"duration":0.332,"velocity":0.5669292,"rh":false}]},{"acorde":[{"note":45,"duration":0.336,"velocity":0.5984252,"rh":false}]},{"acorde":[{"note":37,"duration":0.332,"velocity":0.6614173,"rh":true},{"note":37,"duration":0.332,"velocity":0.511811,"rh":false}]},{"acorde":[{"note":42,"duration":0.332,"velocity":0.5748032,"rh":false}]},{"acorde":[{"note":45,"duration":0.336,"velocity":0.6062992,"rh":false}]},{"acorde":[{"note":36,"duration":0.332,"velocity":0.6614173,"rh":true},{"note":36,"duration":0.332,"velocity":0.511811,"rh":false},{"note":32,"duration":2,"velocity":0.5590551,"rh":false}]},{"acorde":[{"note":42,"duration":0.332,"velocity":0.5748032,"rh":false}]},{"acorde":[{"note":44,"duration":0.336,"velocity":0.5984252,"rh":false}]},{"acorde":[{"note":45,"duration":0.332,"velocity":0.5984252,"rh":false}]},{"acorde":[{"note":44,"duration":0.332,"velocity":0.5748032,"rh":false}]},{"acorde":[{"note":42,"duration":0.336,"velocity":0.5433071,"rh":false}]},{"acorde":[{"note":37,"duration":0.332,"velocity":0.503937,"rh":false},{"note":33,"duration":2,"velocity":0.7716535,"rh":false}]},{"acorde":[{"note":40,"duration":0.332,"velocity":0.5511811,"rh":false}]},{"acorde":[{"note":49,"duration":0.336,"velocity":0.6377953,"rh":false}]},{"acorde":[{"note":37,"duration":0.332,"velocity":0.503937,"rh":false}]},{"acorde":[{"note":40,"duration":0.332,"velocity":0.5511811,"rh":false}]},{"acorde":[{"note":49,"duration":0.336,"velocity":0.6377953,"rh":false}]},{"acorde":[{"note":39,"duration":0.332,"velocity":0.519685,"rh":false},{"note":30,"duration":2,"velocity":0.6614173,"rh":false}]},{"acorde":[{"note":45,"duration":0.332,"velocity":0.5905512,"rh":false}]},{"acorde":[{"note":49,"duration":0.336,"velocity":0.6220472,"rh":false}]},{"acorde":[{"note":39,"duration":0.332,"velocity":0.503937,"rh":false}]},{"acorde":[{"note":45,"duration":0.332,"velocity":0.5826772,"rh":false}]},{"acorde":[{"note":49,"duration":0.336,"velocity":0.6141732,"rh":false}]},{"acorde":[{"note":39,"duration":0.332,"velocity":0.503937,"rh":false},{"note":32,"duration":2,"velocity":0.6614173,"rh":false}]},{"acorde":[{"note":44,"duration":0.332,"velocity":0.5669292,"rh":false}]},{"acorde":[{"note":48,"duration":0.336,"velocity":0.6141732,"rh":false}]},{"acorde":[{"note":39,"duration":0.332,"velocity":0.503937,"rh":false}]},{"acorde":[{"note":44,"duration":0.332,"velocity":0.5748032,"rh":false}]},{"acorde":[{"note":48,"duration":0.336,"velocity":0.6141732,"rh":false}]},{"acorde":[{"note":40,"duration":0.332,"velocity":0.511811,"rh":false},{"note":25,"duration":4,"velocity":0.6614173,"rh":false}]},{"acorde":[{"note":44,"duration":0.332,"velocity":0.5669292,"rh":false}]},{"acorde":[{"note":49,"duration":0.336,"velocity":0.6220472,"rh":false}]},{"acorde":[{"note":44,"duration":0.332,"velocity":0.5433071,"rh":false}]},{"acorde":[{"note":49,"duration":0.332,"velocity":0.6062992,"rh":false}]},{"acorde":[{"note":52,"duration":0.336,"velocity":0.6220472,"rh":false}]},{"acorde":[{"note":44,"duration":0.332,"velocity":0.511811,"rh":false}]},{"acorde":[{"note":49,"duration":0.332,"velocity":0.5826772,"rh":false}]},{"acorde":[{"note":52,"duration":0.336,"velocity":0.6062992,"rh":false}]},{"acorde":[{"note":56,"duration":0.75,"velocity":0.7716535,"rh":true},{"note":44,"duration":0.332,"velocity":0.503937,"rh":false}]},{"acorde":[{"note":49,"duration":0.332,"velocity":0.5748032,"rh":false}]},{"acorde":[{"note":52,"duration":0.336,"velocity":0.6062992,"rh":false},{"note":0,"duration":0.086,"velocity":0.7,"rh":false}]},{"acorde":[{"note":56,"duration":0.25,"velocity":0.7952756,"rh":true}]},{"acorde":[{"note":56,"duration":3,"velocity":0.7795275,"rh":true},{"note":44,"duration":0.332,"velocity":0.503937,"rh":false},{"note":36,"duration":4,"velocity":0.6614173,"rh":false}]},{"acorde":[{"note":51,"duration":0.332,"velocity":0.5984252,"rh":false}]},{"acorde":[{"note":54,"duration":0.336,"velocity":0.6220472,"rh":false}]},{"acorde":[{"note":44,"duration":0.332,"velocity":0.496063,"rh":false}]},{"acorde":[{"note":51,"duration":0.332,"velocity":0.5905512,"rh":false}]},{"acorde":[{"note":54,"duration":0.336,"velocity":0.6141732,"rh":false}]},{"acorde":[{"note":44,"duration":0.332,"velocity":0.496063,"rh":false}]},{"acorde":[{"note":51,"duration":0.332,"velocity":0.5826772,"rh":false}]},{"acorde":[{"note":54,"duration":0.336,"velocity":0.6141732,"rh":false}]},{"acorde":[{"note":56,"duration":0.75,"velocity":0.7716535,"rh":true},{"note":44,"duration":0.332,"velocity":0.496063,"rh":false}]},{"acorde":[{"note":51,"duration":0.332,"velocity":0.5826772,"rh":false}]},{"acorde":[{"note":54,"duration":0.336,"velocity":0.6141732,"rh":false},{"note":0,"duration":0.086,"velocity":0.7,"rh":false}]},{"acorde":[{"note":56,"duration":0.25,"velocity":0.7952756,"rh":true}]},{"acorde":[{"note":56,"duration":2,"velocity":0.7795275,"rh":true},{"note":44,"duration":0.332,"velocity":0.496063,"rh":false},{"note":37,"duration":2,"velocity":0.6614173,"rh":false}]},{"acorde":[{"note":49,"duration":0.332,"velocity":0.5669292,"rh":false}]},{"acorde":[{"note":52,"duration":0.336,"velocity":0.5984252,"rh":false}]},{"acorde":[{"note":44,"duration":0.332,"velocity":0.496063,"rh":false}]},{"acorde":[{"note":49,"duration":0.332,"velocity":0.5748032,"rh":false}]},{"acorde":[{"note":52,"duration":0.336,"velocity":0.6062992,"rh":false}]},{"acorde":[{"note":57,"duration":2,"velocity":0.7716535,"rh":true},{"note":45,"duration":0.332,"velocity":0.511811,"rh":false},{"note":30,"duration":2,"velocity":0.6614173,"rh":false}]},{"acorde":[{"note":49,"duration":0.332,"velocity":0.5748032,"rh":false}]},{"acorde":[{"note":54,"duration":0.336,"velocity":0.6220472,"rh":false}]},{"acorde":[{"note":45,"duration":0.332,"velocity":0.503937,"rh":false}]},{"acorde":[{"note":49,"duration":0.332,"velocity":0.5669292,"rh":false}]},{"acorde":[{"note":54,"duration":0.336,"velocity":0.6220472,"rh":false}]},{"acorde":[{"note":56,"duration":2,"velocity":0.7716535,"rh":true},{"note":44,"duration":0.332,"velocity":0.496063,"rh":false},{"note":35,"duration":2,"velocity":0.6614173,"rh":false}]},{"acorde":[{"note":47,"duration":0.332,"velocity":0.5433071,"rh":false}]},{"acorde":[{"note":52,"duration":0.336,"velocity":0.6062992,"rh":false}]},{"acorde":[{"note":44,"duration":0.332,"velocity":0.503937,"rh":false}]},{"acorde":[{"note":47,"duration":0.332,"velocity":0.5590551,"rh":false}]},{"acorde":[{"note":52,"duration":0.336,"velocity":0.6141732,"rh":false}]},{"acorde":[{"note":54,"duration":1,"velocity":0.7716535,"rh":true},{"note":45,"duration":0.332,"velocity":0.519685,"rh":false},{"note":35,"duration":2,"velocity":0.6614173,"rh":false}]},{"acorde":[{"note":47,"duration":0.332,"velocity":0.5511811,"rh":false}]},{"acorde":[{"note":51,"duration":0.336,"velocity":0.5984252,"rh":false}]},{"acorde":[{"note":59,"duration":1,"velocity":0.7874016,"rh":true},{"note":45,"duration":0.332,"velocity":0.519685,"rh":false}]},{"acorde":[{"note":47,"duration":0.332,"velocity":0.5590551,"rh":false}]},{"acorde":[{"note":51,"duration":0.336,"velocity":0.6062992,"rh":false}]},{"acorde":[{"note":52,"duration":1,"velocity":0.7480315,"rh":true},{"note":44,"duration":0.332,"velocity":0.511811,"rh":false},{"note":28,"duration":4,"velocity":0.6614173,"rh":false}]},{"acorde":[{"note":47,"duration":0.332,"velocity":0.5590551,"rh":false}]},{"acorde":[{"note":52,"duration":0.336,"velocity":0.6141732,"rh":false}]},{"acorde":[{"note":44,"duration":0.332,"velocity":0.503937,"rh":false}]},{"acorde":[{"note":47,"duration":0.332,"velocity":0.5590551,"rh":false}]},{"acorde":[{"note":52,"duration":0.336,"velocity":0.6141732,"rh":false}]},{"acorde":[{"note":47,"duration":0.332,"velocity":0.5433071,"rh":false}]},{"acorde":[{"note":52,"duration":0.332,"velocity":0.6062992,"rh":false}]},{"acorde":[{"note":56,"duration":0.336,"velocity":0.6220472,"rh":false}]},{"acorde":[{"note":59,"duration":0.75,"velocity":0.7716535,"rh":true},{"note":47,"duration":0.332,"velocity":0.503937,"rh":false}]},{"acorde":[{"note":52,"duration":0.332,"velocity":0.5748032,"rh":false}]},{"acorde":[{"note":56,"duration":0.336,"velocity":0.6141732,"rh":false},{"note":0,"duration":0.086,"velocity":0.7,"rh":false}]},{"acorde":[{"note":59,"duration":0.25,"velocity":0.7952756,"rh":true}]},{"acorde":[{"note":59,"duration":3,"velocity":0.7795275,"rh":true},{"note":47,"duration":0.332,"velocity":0.496063,"rh":false},{"note":27,"duration":4,"velocity":0.6614173,"rh":false}]},{"acorde":[{"note":54,"duration":0.332,"velocity":0.5984252,"rh":false}]},{"acorde":[{"note":57,"duration":0.336,"velocity":0.6141732,"rh":false}]},{"acorde":[{"note":47,"duration":0.332,"velocity":0.496063,"rh":false}]},{"acorde":[{"note":54,"duration":0.332,"velocity":0.5905512,"rh":false}]},{"acorde":[{"note":57,"duration":0.336,"velocity":0.6141732,"rh":false}]},{"acorde":[{"note":47,"duration":0.332,"velocity":0.496063,"rh":false}]},{"acorde":[{"note":54,"duration":0.332,"velocity":0.5826772,"rh":false}]},{"acorde":[{"note":57,"duration":0.336,"velocity":0.6141732,"rh":false}]},{"acorde":[{"note":59,"duration":0.75,"velocity":0.7716535,"rh":true},{"note":47,"duration":0.332,"velocity":0.496063,"rh":false}]},{"acorde":[{"note":54,"duration":0.332,"velocity":0.5826772,"rh":false}]},{"acorde":[{"note":57,"duration":0.336,"velocity":0.6141732,"rh":false},{"note":0,"duration":0.086,"velocity":0.7,"rh":false}]},{"acorde":[{"note":59,"duration":0.25,"velocity":0.7952756,"rh":true}]},{"acorde":[{"note":59,"duration":2,"velocity":0.7795275,"rh":true},{"note":47,"duration":0.332,"velocity":0.496063,"rh":false},{"note":28,"duration":2,"velocity":0.6614173,"rh":false}]},{"acorde":[{"note":52,"duration":0.332,"velocity":0.5669292,"rh":false}]},{"acorde":[{"note":56,"duration":0.336,"velocity":0.6062992,"rh":false}]},{"acorde":[{"note":47,"duration":0.332,"velocity":0.496063,"rh":false}]},{"acorde":[{"note":52,"duration":0.332,"velocity":0.5669292,"rh":false}]},{"acorde":[{"note":56,"duration":0.336,"velocity":0.6141732,"rh":false}]},{"acorde":[{"note":60,"duration":1,"velocity":0.7716535,"rh":true},{"note":48,"duration":0.332,"velocity":0.503937,"rh":false},{"note":27,"duration":1,"velocity":0.6614173,"rh":false}]},{"acorde":[{"note":54,"duration":0.332,"velocity":0.6062992,"rh":false}]},{"acorde":[{"note":56,"duration":0.336,"velocity":0.6377953,"rh":false}]},{"acorde":[{"note":61,"duration":1,"velocity":0.8267717,"rh":true},{"note":49,"duration":0.332,"velocity":0.5511811,"rh":false},{"note":25,"duration":1,"velocity":0.7007874,"rh":false}]},{"acorde":[{"note":52,"duration":0.332,"velocity":0.6220472,"rh":false}]},{"acorde":[{"note":56,"duration":0.336,"velocity":0.6929134,"rh":false}]},{"acorde":[{"note":63,"duration":2,"velocity":0.8976378,"rh":true},{"note":51,"duration":0.332,"velocity":0.6299213,"rh":false},{"note":24,"duration":2,"velocity":0.7716535,"rh":false}]},{"acorde":[{"note":54,"duration":0.332,"velocity":0.6771653,"rh":false}]},{"acorde":[{"note":56,"duration":0.336,"velocity":0.7007874,"rh":false}]},{"acorde":[{"note":51,"duration":0.332,"velocity":0.6220472,"rh":false}]},{"acorde":[{"note":54,"duration":0.332,"velocity":0.6692913,"rh":false}]},{"acorde":[{"note":56,"duration":0.336,"velocity":0.6929134,"rh":false}]},{"acorde":[{"note":64,"duration":2,"velocity":0.8897638,"rh":true},{"note":52,"duration":0.332,"velocity":0.6299213,"rh":false},{"note":25,"duration":2,"velocity":0.7716535,"rh":false}]},{"acorde":[{"note":56,"duration":0.332,"velocity":0.6929134,"rh":false}]},{"acorde":[{"note":61,"duration":0.336,"velocity":0.7401575,"rh":false}]},{"acorde":[{"note":52,"duration":0.332,"velocity":0.5984252,"rh":false}]},{"acorde":[{"note":56,"duration":0.332,"velocity":0.6692913,"rh":false}]},{"acorde":[{"note":61,"duration":0.336,"velocity":0.7322835,"rh":false}]},{"acorde":[{"note":62,"duration":2,"velocity":0.8897638,"rh":true},{"note":50,"duration":0.332,"velocity":0.5748032,"rh":false},{"note":30,"duration":2,"velocity":0.7716535,"rh":false}]},{"acorde":[{"note":54,"duration":0.332,"velocity":0.6456693,"rh":false}]},{"acorde":[{"note":57,"duration":0.336,"velocity":0.6929134,"rh":false}]},{"acorde":[{"note":50,"duration":0.332,"velocity":0.5905512,"rh":false}]},{"acorde":[{"note":54,"duration":0.332,"velocity":0.6692913,"rh":false}]},{"acorde":[{"note":57,"duration":0.336,"velocity":0.7086614,"rh":false}]},{"acorde":[{"note":60,"duration":2,"velocity":0.8897638,"rh":true},{"note":48,"duration":0.332,"velocity":0.5826772,"rh":false},{"note":32,"duration":2,"velocity":0.7716535,"rh":false}]},{"acorde":[{"note":54,"duration":0.332,"velocity":0.6850393,"rh":false}]},{"acorde":[{"note":56,"duration":0.336,"velocity":0.7007874,"rh":false}]},{"acorde":[{"note":48,"duration":0.332,"velocity":0.5905512,"rh":false}]},{"acorde":[{"note":54,"duration":0.332,"velocity":0.6850393,"rh":false}]},{"acorde":[{"note":56,"duration":0.336,"velocity":0.7086614,"rh":false}]},{"acorde":[{"note":61,"duration":3,"velocity":0.8897638,"rh":true},{"note":49,"duration":0.332,"velocity":0.5984252,"rh":false},{"note":25,"duration":5,"velocity":0.7716535,"rh":false},{"note":37,"duration":5,"velocity":0.7716535,"rh":false}]},{"acorde":[{"note":52,"duration":0.332,"velocity":0.6614173,"rh":false}]},{"acorde":[{"note":56,"duration":0.336,"velocity":0.7007874,"rh":false}]},{"acorde":[{"note":49,"duration":0.332,"velocity":0.5826772,"rh":false}]},{"acorde":[{"note":52,"duration":0.332,"velocity":0.6220472,"rh":false}]},{"acorde":[{"note":56,"duration":0.336,"velocity":0.6614173,"rh":false}]},{"acorde":[{"note":49,"duration":0.332,"velocity":0.5433071,"rh":false}]},{"acorde":[{"note":53,"duration":0.332,"velocity":0.5984252,"rh":false}]},{"acorde":[{"note":56,"duration":0.336,"velocity":0.6062992,"rh":false}]},{"acorde":[{"note":61,"duration":1,"velocity":0.8897638,"rh":true},{"note":49,"duration":0.332,"velocity":0.511811,"rh":false}]},{"acorde":[{"note":53,"duration":0.332,"velocity":0.5669292,"rh":false}]},{"acorde":[{"note":56,"duration":0.336,"velocity":0.5984252,"rh":false}]},{"acorde":[{"note":62,"duration":3,"velocity":0.8897638,"rh":true},{"note":49,"duration":0.332,"velocity":0.511811,"rh":false}]},{"acorde":[{"note":54,"duration":0.332,"velocity":0.5826772,"rh":false}]},{"acorde":[{"note":57,"duration":0.336,"velocity":0.6062992,"rh":false}]},{"acorde":[{"note":49,"duration":0.332,"velocity":0.5905512,"rh":false},{"note":30,"duration":1,"velocity":0.7716535,"rh":false},{"note":42,"duration":1,"velocity":0.7716535,"rh":false}]},{"acorde":[{"note":54,"duration":0.332,"velocity":0.6771653,"rh":false}]},{"acorde":[{"note":57,"duration":0.336,"velocity":0.7165354,"rh":false}]},{"acorde":[{"note":49,"duration":0.332,"velocity":0.5905512,"rh":false},{"note":33,"duration":1,"velocity":0.7795275,"rh":false},{"note":45,"duration":1,"velocity":0.7795275,"rh":false}]},{"acorde":[{"note":54,"duration":0.332,"velocity":0.6771653,"rh":false}]},{"acorde":[{"note":57,"duration":0.336,"velocity":0.7165354,"rh":false}]},{"acorde":[{"note":60,"duration":1,"velocity":0.8897638,"rh":true},{"note":49,"duration":0.332,"velocity":0.5905512,"rh":false},{"note":30,"duration":1,"velocity":0.7637795,"rh":false},{"note":42,"duration":1,"velocity":0.7637795,"rh":false}]},{"acorde":[{"note":54,"duration":0.332,"velocity":0.6771653,"rh":false}]},{"acorde":[{"note":57,"duration":0.336,"velocity":0.7165354,"rh":false}]},{"acorde":[{"note":61,"duration":3,"velocity":0.8897638,"rh":true},{"note":49,"duration":0.332,"velocity":0.5905512,"rh":false},{"note":25,"duration":5,"velocity":0.7559055,"rh":false},{"note":37,"duration":5,"velocity":0.7559055,"rh":false}]},{"acorde":[{"note":53,"duration":0.332,"velocity":0.6614173,"rh":false}]},{"acorde":[{"note":56,"duration":0.336,"velocity":0.7086614,"rh":false}]},{"acorde":[{"note":49,"duration":0.332,"velocity":0.5984252,"rh":false}]},{"acorde":[{"note":53,"duration":0.332,"velocity":0.6614173,"rh":false}]},{"acorde":[{"note":56,"duration":0.336,"velocity":0.6850393,"rh":false}]},{"acorde":[{"note":49,"duration":0.332,"velocity":0.5669292,"rh":false}]},{"acorde":[{"note":53,"duration":0.332,"velocity":0.6220472,"rh":false}]},{"acorde":[{"note":56,"duration":0.336,"velocity":0.6535433,"rh":false}]},{"acorde":[{"note":61,"duration":1,"velocity":0.8897638,"rh":true},{"note":49,"duration":0.332,"velocity":0.5354331,"rh":false}]},{"acorde":[{"note":53,"duration":0.332,"velocity":0.5905512,"rh":false}]},{"acorde":[{"note":56,"duration":0.336,"velocity":0.5984252,"rh":false}]},{"acorde":[{"note":62,"duration":3,"velocity":0.8897638,"rh":true},{"note":49,"duration":0.332,"velocity":0.511811,"rh":false}]},{"acorde":[{"note":54,"duration":0.332,"velocity":0.6141732,"rh":false}]},{"acorde":[{"note":57,"duration":0.336,"velocity":0.6771653,"rh":false}]},{"acorde":[{"note":49,"duration":0.332,"velocity":0.5905512,"rh":false},{"note":30,"duration":1,"velocity":0.7716535,"rh":false},{"note":42,"duration":1,"velocity":0.7716535,"rh":false}]},{"acorde":[{"note":54,"duration":0.332,"velocity":0.6771653,"rh":false}]},{"acorde":[{"note":57,"duration":0.336,"velocity":0.7165354,"rh":false}]},{"acorde":[{"note":49,"duration":0.332,"velocity":0.5905512,"rh":false},{"note":33,"duration":1,"velocity":0.7795275,"rh":false},{"note":45,"duration":1,"velocity":0.7795275,"rh":false}]},{"acorde":[{"note":54,"duration":0.332,"velocity":0.6771653,"rh":false}]},{"acorde":[{"note":57,"duration":0.336,"velocity":0.7165354,"rh":false}]},{"acorde":[{"note":60,"duration":1,"velocity":0.8897638,"rh":true},{"note":49,"duration":0.332,"velocity":0.5905512,"rh":false},{"note":30,"duration":1,"velocity":0.7637795,"rh":false},{"note":42,"duration":1,"velocity":0.7637795,"rh":false}]},{"acorde":[{"note":54,"duration":0.332,"velocity":0.6771653,"rh":false}]},{"acorde":[{"note":57,"duration":0.336,"velocity":0.7165354,"rh":false}]},{"acorde":[{"note":61,"duration":2,"velocity":0.8897638,"rh":true},{"note":49,"duration":0.332,"velocity":0.5905512,"rh":false},{"note":25,"duration":2,"velocity":0.7559055,"rh":false},{"note":37,"duration":2,"velocity":0.7559055,"rh":false}]},{"acorde":[{"note":53,"duration":0.332,"velocity":0.6614173,"rh":false}]},{"acorde":[{"note":56,"duration":0.336,"velocity":0.7086614,"rh":false}]},{"acorde":[{"note":49,"duration":0.332,"velocity":0.5984252,"rh":false}]},{"acorde":[{"note":53,"duration":0.332,"velocity":0.6692913,"rh":false}]},{"acorde":[{"note":56,"duration":0.336,"velocity":0.7086614,"rh":false}]},{"acorde":[{"note":61,"duration":2,"velocity":0.8897638,"rh":true},{"note":49,"duration":0.332,"velocity":0.5984252,"rh":false},{"note":30,"duration":2,"velocity":0.7716535,"rh":false},{"note":42,"duration":2,"velocity":0.7716535,"rh":false}]},{"acorde":[{"note":54,"duration":0.332,"velocity":0.6850393,"rh":false}]},{"acorde":[{"note":57,"duration":0.336,"velocity":0.7165354,"rh":false}]},{"acorde":[{"note":49,"duration":0.332,"velocity":0.5905512,"rh":false}]},{"acorde":[{"note":54,"duration":0.332,"velocity":0.6771653,"rh":false}]},{"acorde":[{"note":57,"duration":0.336,"velocity":0.7165354,"rh":false}]},{"acorde":[{"note":59,"duration":3,"velocity":0.8897638,"rh":true},{"note":47,"duration":0.332,"velocity":0.5748032,"rh":false},{"note":27,"duration":3,"velocity":0.7716535,"rh":false},{"note":39,"duration":3,"velocity":0.7716535,"rh":false}]},{"acorde":[{"note":54,"duration":0.332,"velocity":0.6850393,"rh":false}]},{"acorde":[{"note":57,"duration":0.336,"velocity":0.7244095,"rh":false}]},{"acorde":[{"note":47,"duration":0.332,"velocity":0.5826772,"rh":false}]},{"acorde":[{"note":54,"duration":0.332,"velocity":0.6929134,"rh":false}]},{"acorde":[{"note":57,"duration":0.336,"velocity":0.7244095,"rh":false}]},{"acorde":[{"note":47,"duration":0.332,"velocity":0.5826772,"rh":false}]},{"acorde":[{"note":54,"duration":0.332,"velocity":0.6929134,"rh":false}]},{"acorde":[{"note":57,"duration":0.336,"velocity":0.7244095,"rh":false}]},{"acorde":[{"note":59,"duration":1,"velocity":0.8897638,"rh":true},{"note":47,"duration":0.332,"velocity":0.5826772,"rh":false},{"note":28,"duration":1,"velocity":0.7716535,"rh":false},{"note":40,"duration":1,"velocity":0.7716535,"rh":false}]},{"acorde":[{"note":52,"duration":0.332,"velocity":0.6614173,"rh":false}]},{"acorde":[{"note":56,"duration":0.336,"velocity":0.7165354,"rh":false}]},{"acorde":[{"note":57,"duration":1,"velocity":0.8818898,"rh":true},{"note":45,"duration":0.332,"velocity":0.5748032,"rh":false},{"note":37,"duration":1,"velocity":0.7637795,"rh":false}]},{"acorde":[{"note":52,"duration":0.332,"velocity":0.6850393,"rh":false}]},{"acorde":[{"note":56,"duration":0.336,"velocity":0.7244095,"rh":false}]},{"acorde":[{"note":57,"duration":1,"velocity":0.8897638,"rh":true},{"note":45,"duration":0.332,"velocity":0.5748032,"rh":false},{"note":39,"duration":1,"velocity":0.7716535,"rh":false}]},{"acorde":[{"note":51,"duration":0.332,"velocity":0.6692913,"rh":false}]},{"acorde":[{"note":54,"duration":0.336,"velocity":0.7086614,"rh":false}]},{"acorde":[{"note":56,"duration":1,"velocity":0.8897638,"rh":true},{"note":44,"duration":0.332,"velocity":0.5748032,"rh":false},{"note":36,"duration":1,"velocity":0.7637795,"rh":false}]},{"acorde":[{"note":51,"duration":0.332,"velocity":0.6850393,"rh":false}]},{"acorde":[{"note":54,"duration":0.336,"velocity":0.7244095,"rh":false}]},{"acorde":[{"note":56,"duration":1,"velocity":0.8897638,"rh":true},{"note":44,"duration":0.332,"velocity":0.5826772,"rh":false},{"note":37,"duration":1,"velocity":0.7716535,"rh":false}]},{"acorde":[{"note":49,"duration":0.332,"velocity":0.6614173,"rh":false}]},{"acorde":[{"note":52,"duration":0.336,"velocity":0.7007874,"rh":false}]},{"acorde":[{"note":54,"duration":2,"velocity":0.8818898,"rh":true},{"note":42,"duration":0.332,"velocity":0.5748032,"rh":false},{"note":33,"duration":2,"velocity":0.7637795,"rh":false}]},{"acorde":[{"note":49,"duration":0.332,"velocity":0.6850393,"rh":false}]},{"acorde":[{"note":51,"duration":0.336,"velocity":0.7086614,"rh":false}]},{"acorde":[{"note":42,"duration":0.332,"velocity":0.5826772,"rh":false}]},{"acorde":[{"note":49,"duration":0.332,"velocity":0.6929134,"rh":false}]},{"acorde":[{"note":51,"duration":0.336,"velocity":0.7086614,"rh":false}]},{"acorde":[{"note":56,"duration":1,"velocity":0.8897638,"rh":true},{"note":44,"duration":0.332,"velocity":0.5984252,"rh":false},{"note":32,"duration":1,"velocity":0.7716535,"rh":false}]},{"acorde":[{"note":49,"duration":0.332,"velocity":0.6850393,"rh":false}]},{"acorde":[{"note":51,"duration":0.336,"velocity":0.7086614,"rh":false}]},{"acorde":[{"note":57,"duration":1,"velocity":0.8897638,"rh":true},{"note":45,"duration":0.332,"velocity":0.6062992,"rh":false},{"note":30,"duration":1,"velocity":0.7637795,"rh":false}]},{"acorde":[{"note":49,"duration":0.332,"velocity":0.6771653,"rh":false}]},{"acorde":[{"note":51,"duration":0.336,"velocity":0.7007874,"rh":false}]},{"acorde":[{"note":56,"duration":2,"velocity":0.8897638,"rh":true},{"note":44,"duration":0.332,"velocity":0.5905512,"rh":false},{"note":32,"duration":2,"velocity":0.7716535,"rh":false}]},{"acorde":[{"note":49,"duration":0.332,"velocity":0.6850393,"rh":false}]},{"acorde":[{"note":52,"duration":0.336,"velocity":0.7165354,"rh":false}]},{"acorde":[{"note":44,"duration":0.332,"velocity":0.5905512,"rh":false}]},{"acorde":[{"note":49,"duration":0.332,"velocity":0.6771653,"rh":false}]},{"acorde":[{"note":52,"duration":0.336,"velocity":0.7165354,"rh":false}]},{"acorde":[{"note":56,"duration":2,"velocity":0.8897638,"rh":true},{"note":42,"duration":0.332,"velocity":0.5826772,"rh":false},{"note":32,"duration":2,"velocity":0.7716535,"rh":false},{"note":100,"duration":0,"velocity":51,"rh":false}]},{"acorde":[{"note":48,"duration":0.332,"velocity":0.6771653,"rh":false},{"note":100,"duration":0,"velocity":47,"rh":false}]},{"acorde":[{"note":51,"duration":0.336,"velocity":0.7086614,"rh":false},{"note":100,"duration":0,"velocity":43,"rh":false}]},{"acorde":[{"note":42,"duration":0.332,"velocity":0.5826772,"rh":false},{"note":100,"duration":0,"velocity":39,"rh":false}]},{"acorde":[{"note":48,"duration":0.332,"velocity":0.6850393,"rh":false},{"note":100,"duration":0,"velocity":35,"rh":false}]},{"acorde":[{"note":51,"duration":0.336,"velocity":0.7165354,"rh":false},{"note":100,"duration":0,"velocity":31,"rh":false}]},{"acorde":[{"note":49,"duration":4,"velocity":0.8897638,"rh":true},{"note":40,"duration":4,"velocity":0.5826772,"rh":false},{"note":25,"duration":4,"velocity":0.7716535,"rh":false},{"note":32,"duration":4,"velocity":0.7716535,"rh":false},{"note":37,"duration":4,"velocity":0.7716535,"rh":false}]}]}