{"Secuencia": [{"title":"Oh! Susanna"},{"acorde":[{"note": 100, "duration":0,"velocity": 80,"rh": false}]},{"acorde":[{ "note": 55, "duration":0.25, "velocity": 0.5590551, "rh": false}]},{"acorde":[{ "note": 57, "duration":0.25, "velocity": 0.5669292, "rh": false}]},{"acorde":[{ "note": 59, "duration":0.5, "velocity": 0.5826772, "rh": false},{ "note": 43, "duration":0.5, "velocity": 0.5590551, "rh": false}]},{"acorde":[{ "note": 62, "duration":0.5, "velocity": 0.6141732, "rh": false},{ "note": 47, "duration":0.5, "velocity": 0.5905512, "rh": false},{ "note": 50, "duration":0.5, "velocity": 0.5905512, "rh": false}]},{"acorde":[{ "note": 62, "duration":0.5, "velocity": 0.5984252, "rh": false},{ "note": 43, "duration":0.5, "velocity": 0.527559, "rh": false}]},{"acorde":[{ "note": 64, "duration":0.5, "velocity": 0.6220472, "rh": false},{ "note": 47, "duration":0.5, "velocity": 0.6062992, "rh": false},{ "note": 50, "duration":0.5, "velocity": 0.6062992, "rh": false}]},{"acorde":[{ "note": 62, "duration":0.5, "velocity": 0.5748032, "rh": false},{ "note": 43, "duration":0.5, "velocity": 0.511811, "rh": false}]},{"acorde":[{ "note": 59, "duration":0.5, "velocity": 0.519685, "rh": false},{ "note": 47, "duration":0.5, "velocity": 0.6141732, "rh": false},{ "note": 50, "duration":0.5, "velocity": 0.6141732, "rh": false}]},{"acorde":[{ "note": 55, "duration":0.75, "velocity": 0.488189, "rh": false},{ "note": 43, "duration":0.5, "velocity": 0.503937, "rh": false}]},{"acorde":[{ "note": 47, "duration":0.5, "velocity": 0.6220472, "rh": false},{ "note": 50, "duration":0.5, "velocity": 0.6220472, "rh": false},{ "note": 0, "duration":0.25, "velocity": 0.7, "rh": false}]},{"acorde":[{ "note": 57, "duration":0.25, "velocity": 0.5748032, "rh": false}]},{"acorde":[{ "note": 59, "duration":0.5, "velocity": 0.5905512, "rh": false},{ "note": 43, "duration":0.5, "velocity": 0.503937, "rh": false}]},{"acorde":[{ "note": 59, "duration":0.5, "velocity": 0.5669292, "rh": false},{ "note": 47, "duration":0.5, "velocity": 0.6220472, "rh": false},{ "note": 50, "duration":0.5, "velocity": 0.6220472, "rh": false}]},{"acorde":[{ "note": 57, "duration":0.5, "velocity": 0.5354331, "rh": false},{ "note": 43, "duration":0.5, "velocity": 0.496063, "rh": false}]},{"acorde":[{ "note": 55, "duration":0.5, "velocity": 0.511811, "rh": false},{ "note": 47, "duration":0.5, "velocity": 0.6220472, "rh": false},{ "note": 50, "duration":0.5, "velocity": 0.6220472, "rh": false}]},{"acorde":[{ "note": 57, "duration":1, "velocity": 0.5590551, "rh": false},{ "note": 38, "duration":0.5, "velocity": 0.472441, "rh": false}]},{"acorde":[{ "note": 42, "duration":0.5, "velocity": 0.5669292, "rh": false},{ "note": 45, "duration":0.5, "velocity": 0.5669292, "rh": false}]},{"acorde":[{ "note": 42, "duration":0.5, "velocity": 0.5669292, "rh": false},{ "note": 45, "duration":0.5, "velocity": 0.5669292, "rh": false}]},{"acorde":[{ "note": 55, "duration":0.25, "velocity": 0.6299213, "rh": false},{ "note": 67, "duration":0.25, "velocity": 0.6299213, "rh": false}]},{"acorde":[{ "note": 57, "duration":0.25, "velocity": 0.6377953, "rh": false},{ "note": 69, "duration":0.25, "velocity": 0.6377953, "rh": false}]},{"acorde":[{ "note": 59, "duration":0.5, "velocity": 0.6377953, "rh": false},{ "note": 71, "duration":0.5, "velocity": 0.6377953, "rh": false},{ "note": 31, "duration":0.5, "velocity": 0.5433071, "rh": false},{ "note": 43, "duration":0.5, "velocity": 0.5433071, "rh": false}]},{"acorde":[{ "note": 62, "duration":0.5, "velocity": 0.6377953, "rh": false},{ "note": 74, "duration":0.5, "velocity": 0.6377953, "rh": false},{ "note": 43, "duration":0.5, "velocity": 0.6299213, "rh": false},{ "note": 47, "duration":0.5, "velocity": 0.6299213, "rh": false},{ "note": 50, "duration":0.5, "velocity": 0.6299213, "rh": false}]},{"acorde":[{ "note": 62, "duration":0.5, "velocity": 0.6220472, "rh": false},{ "note": 74, "duration":0.5, "velocity": 0.6220472, "rh": false},{ "note": 43, "duration":0.5, "velocity": 0.6141732, "rh": false},{ "note": 47, "duration":0.5, "velocity": 0.6141732, "rh": false},{ "note": 50, "duration":0.5, "velocity": 0.6141732, "rh": false}]},{"acorde":[{ "note": 64, "duration":0.5, "velocity": 0.6299213, "rh": false},{ "note": 76, "duration":0.5, "velocity": 0.6299213, "rh": false},{ "note": 43, "duration":0.5, "velocity": 0.5984252, "rh": false},{ "note": 47, "duration":0.5, "velocity": 0.5984252, "rh": false},{ "note": 50, "duration":0.5, "velocity": 0.5984252, "rh": false}]},{"acorde":[{ "note": 62, "duration":0.5, "velocity": 0.5826772, "rh": false},{ "note": 74, "duration":0.5, "velocity": 0.5826772, "rh": false},{ "note": 31, "duration":0.5, "velocity": 0.496063, "rh": false},{ "note": 43, "duration":0.5, "velocity": 0.496063, "rh": false}]},{"acorde":[{ "note": 59, "duration":0.5, "velocity": 0.527559, "rh": false},{ "note": 71, "duration":0.5, "velocity": 0.527559, "rh": false},{ "note": 43, "duration":0.5, "velocity": 0.6062992, "rh": false},{ "note": 47, "duration":0.5, "velocity": 0.6062992, "rh": false},{ "note": 50, "duration":0.5, "velocity": 0.6062992, "rh": false}]},{"acorde":[{ "note": 55, "duration":0.75, "velocity": 0.488189, "rh": false},{ "note": 67, "duration":0.75, "velocity": 0.488189, "rh": false},{ "note": 43, "duration":0.5, "velocity": 0.5905512, "rh": false},{ "note": 47, "duration":0.5, "velocity": 0.5905512, "rh": false},{ "note": 50, "duration":0.5, "velocity": 0.5905512, "rh": false}]},{"acorde":[{ "note": 43, "duration":0.5, "velocity": 0.5826772, "rh": false},{ "note": 47, "duration":0.5, "velocity": 0.5826772, "rh": false},{ "note": 50, "duration":0.5, "velocity": 0.5826772, "rh": false},{ "note": 0, "duration":0.25, "velocity": 0.7, "rh": false}]},{"acorde":[{ "note": 57, "duration":0.25, "velocity": 0.5748032, "rh": false},{ "note": 69, "duration":0.25, "velocity": 0.5748032, "rh": false}]},{"acorde":[{ "note": 59, "duration":0.5, "velocity": 0.5905512, "rh": false},{ "note": 71, "duration":0.5, "velocity": 0.5905512, "rh": false},{ "note": 31, "duration":0.5, "velocity": 0.488189, "rh": false},{ "note": 43, "duration":0.5, "velocity": 0.488189, "rh": false}]},{"acorde":[{ "note": 59, "duration":0.5, "velocity": 0.5669292, "rh": false},{ "note": 71, "duration":0.5, "velocity": 0.5669292, "rh": false},{ "note": 38, "duration":0.5, "velocity": 0.5511811, "rh": false},{ "note": 43, "duration":0.5, "velocity": 0.5511811, "rh": false},{ "note": 47, "duration":0.5, "velocity": 0.5511811, "rh": false}]},{"acorde":[{ "note": 57, "duration":0.5, "velocity": 0.5354331, "rh": false},{ "note": 69, "duration":0.5, "velocity": 0.5354331, "rh": false},{ "note": 26, "duration":0.5, "velocity": 0.472441, "rh": false},{ "note": 38, "duration":0.5, "velocity": 0.472441, "rh": false}]},{"acorde":[{ "note": 57, "duration":0.5, "velocity": 0.5433071, "rh": false},{ "note": 69, "duration":0.5, "velocity": 0.5433071, "rh": false},{ "note": 38, "duration":0.5, "velocity": 0.6141732, "rh": false},{ "note": 42, "duration":0.5, "velocity": 0.6141732, "rh": false},{ "note": 48, "duration":0.5, "velocity": 0.6141732, "rh": false}]},{"acorde":[{ "note": 55, "duration":1, "velocity": 0.511811, "rh": false},{ "note": 67, "duration":1, "velocity": 0.511811, "rh": false},{ "note": 43, "duration":1, "velocity": 0.5826772, "rh": false},{ "note": 47, "duration":1, "velocity": 0.5826772, "rh": false}]},{"acorde":[{ "note": 0, "duration":0.5, "velocity": 0.503937, "rh": false}]},{"acorde":[{ "note": 55, "duration":0.25, "velocity": 0.5984252, "rh": true}]},{"acorde":[{ "note": 57, "duration":0.25, "velocity": 0.6062992, "rh": true}]},{"acorde":[{ "note": 59, "duration":0.5, "velocity": 0.6299213, "rh": true},{ "note": 31, "duration":1, "velocity": 0.5984252, "rh": false},{ "note": 43, "duration":1, "velocity": 0.5984252, "rh": false}]},{"acorde":[{ "note": 62, "duration":0.5, "velocity": 0.6535433, "rh": true},{ "note": 47, "duration":0.5, "velocity": 0.511811, "rh": false},{ "note": 50, "duration":0.5, "velocity": 0.511811, "rh": false},{ "note": 55, "duration":0.5, "velocity": 0.511811, "rh": false}]},{"acorde":[{ "note": 62, "duration":0.5, "velocity": 0.6456693, "rh": true},{ "note": 47, "duration":0.5, "velocity": 0.5354331, "rh": false},{ "note": 50, "duration":0.5, "velocity": 0.5354331, "rh": false},{ "note": 55, "duration":0.5, "velocity": 0.5354331, "rh": false}]},{"acorde":[{ "note": 64, "duration":0.5, "velocity": 0.6614173, "rh": true},{ "note": 47, "duration":0.5, "velocity": 0.5433071, "rh": false},{ "note": 50, "duration":0.5, "velocity": 0.5433071, "rh": false},{ "note": 55, "duration":0.5, "velocity": 0.5433071, "rh": false}]},{"acorde":[{ "note": 62, "duration":0.5, "velocity": 0.6141732, "rh": true},{ "note": 31, "duration":1, "velocity": 0.5669292, "rh": false},{ "note": 43, "duration":1, "velocity": 0.5669292, "rh": false}]},{"acorde":[{ "note": 59, "duration":0.5, "velocity": 0.5590551, "rh": true},{ "note": 47, "duration":0.5, "velocity": 0.5590551, "rh": false},{ "note": 50, "duration":0.5, "velocity": 0.5590551, "rh": false},{ "note": 55, "duration":0.5, "velocity": 0.5590551, "rh": false}]},{"acorde":[{ "note": 55, "duration":0.5, "velocity": 0.519685, "rh": true},{ "note": 47, "duration":0.5, "velocity": 0.5590551, "rh": false},{ "note": 50, "duration":0.5, "velocity": 0.5590551, "rh": false},{ "note": 55, "duration":0.5, "velocity": 0.5590551, "rh": false}]},{"acorde":[{ "note": 47, "duration":0.5, "velocity": 0.5590551, "rh": false},{ "note": 50, "duration":0.5, "velocity": 0.5590551, "rh": false},{ "note": 55, "duration":0.25, "velocity": 0.5590551, "rh": false}]},{"acorde":[{ "note": 57, "duration":0.25, "velocity": 0.6141732, "rh": true}]},{"acorde":[{ "note": 59, "duration":0.5, "velocity": 0.6299213, "rh": true},{ "note": 31, "duration":0.5, "velocity": 0.5590551, "rh": false},{ "note": 43, "duration":0.5, "velocity": 0.5590551, "rh": false}]},{"acorde":[{ "note": 59, "duration":0.5, "velocity": 0.6062992, "rh": true},{ "note": 47, "duration":0.5, "velocity": 0.5590551, "rh": false},{ "note": 50, "duration":0.5, "velocity": 0.5590551, "rh": false},{ "note": 55, "duration":0.5, "velocity": 0.5590551, "rh": false}]},{"acorde":[{ "note": 57, "duration":0.5, "velocity": 0.5748032, "rh": true},{ "note": 28, "duration":0.5, "velocity": 0.5511811, "rh": false},{ "note": 40, "duration":0.5, "velocity": 0.5511811, "rh": false}]},{"acorde":[{ "note": 55, "duration":0.5, "velocity": 0.5433071, "rh": true},{ "note": 45, "duration":0.5, "velocity": 0.5590551, "rh": false},{ "note": 49, "duration":0.5, "velocity": 0.5590551, "rh": false},{ "note": 55, "duration":0.5, "velocity": 0.5590551, "rh": false}]},{"acorde":[{ "note": 57, "duration":1, "velocity": 0.5984252, "rh": true},{ "note": 26, "duration":1, "velocity": 0.5433071, "rh": false},{ "note": 38, "duration":1, "velocity": 0.5433071, "rh": false},{ "note": 0, "duration":0.5, "velocity": 0.7, "rh": false}]},{"acorde":[{ "note": 45, "duration":0.5, "velocity": 0.5511811, "rh": false},{ "note": 50, "duration":0.5, "velocity": 0.5511811, "rh": false},{ "note": 54, "duration":0.5, "velocity": 0.5511811, "rh": false}]},{"acorde":[{ "note": 45, "duration":0.5, "velocity": 0.5511811, "rh": false},{ "note": 50, "duration":0.5, "velocity": 0.5511811, "rh": false},{ "note": 54, "duration":0.5, "velocity": 0.5511811, "rh": false}]},{"acorde":[{ "note": 55, "duration":0.25, "velocity": 0.5826772, "rh": true}]},{"acorde":[{ "note": 57, "duration":0.25, "velocity": 0.6141732, "rh": true}]},{"acorde":[{ "note": 59, "duration":0.5, "velocity": 0.6377953, "rh": true},{ "note": 31, "duration":1, "velocity": 0.5748032, "rh": false},{ "note": 43, "duration":1, "velocity": 0.5748032, "rh": false}]},{"acorde":[{ "note": 62, "duration":0.5, "velocity": 0.6692913, "rh": true},{ "note": 47, "duration":0.5, "velocity": 0.5669292, "rh": false},{ "note": 50, "duration":0.5, "velocity": 0.5669292, "rh": false},{ "note": 55, "duration":0.5, "velocity": 0.5669292, "rh": false}]},{"acorde":[{ "note": 62, "duration":0.5, "velocity": 0.6614173, "rh": true},{ "note": 47, "duration":0.5, "velocity": 0.5669292, "rh": false},{ "note": 50, "duration":0.5, "velocity": 0.5669292, "rh": false},{ "note": 55, "duration":0.5, "velocity": 0.5669292, "rh": false}]},{"acorde":[{ "note": 64, "duration":0.5, "velocity": 0.6692913, "rh": true},{ "note": 47, "duration":0.5, "velocity": 0.5590551, "rh": false},{ "note": 50, "duration":0.5, "velocity": 0.5590551, "rh": false},{ "note": 55, "duration":0.5, "velocity": 0.5590551, "rh": false}]},{"acorde":[{ "note": 62, "duration":0.5, "velocity": 0.6220472, "rh": true},{ "note": 31, "duration":1, "velocity": 0.5590551, "rh": false},{ "note": 43, "duration":1, "velocity": 0.5590551, "rh": false}]},{"acorde":[{ "note": 59, "duration":0.5, "velocity": 0.5590551, "rh": true},{ "note": 47, "duration":0.5, "velocity": 0.5590551, "rh": false},{ "note": 50, "duration":0.5, "velocity": 0.5590551, "rh": false},{ "note": 55, "duration":0.5, "velocity": 0.5590551, "rh": false}]},{"acorde":[{ "note": 55, "duration":0.5, "velocity": 0.519685, "rh": true},{ "note": 47, "duration":0.5, "velocity": 0.5590551, "rh": false},{ "note": 50, "duration":0.5, "velocity": 0.5590551, "rh": false},{ "note": 55, "duration":0.5, "velocity": 0.5590551, "rh": false}]},{"acorde":[{ "note": 47, "duration":0.5, "velocity": 0.5590551, "rh": false},{ "note": 50, "duration":0.5, "velocity": 0.5590551, "rh": false},{ "note": 55, "duration":0.25, "velocity": 0.5590551, "rh": false}]},{"acorde":[{ "note": 57, "duration":0.25, "velocity": 0.6141732, "rh": true}]},{"acorde":[{ "note": 59, "duration":0.5, "velocity": 0.6299213, "rh": true},{ "note": 31, "duration":0.5, "velocity": 0.5590551, "rh": false},{ "note": 43, "duration":0.5, "velocity": 0.5590551, "rh": false}]},{"acorde":[{ "note": 59, "duration":0.5, "velocity": 0.6062992, "rh": true},{ "note": 47, "duration":0.5, "velocity": 0.5590551, "rh": false},{ "note": 50, "duration":0.5, "velocity": 0.5590551, "rh": false},{ "note": 55, "duration":0.5, "velocity": 0.5590551, "rh": false}]},{"acorde":[{ "note": 57, "duration":0.5, "velocity": 0.5748032, "rh": true},{ "note": 28, "duration":0.5, "velocity": 0.5511811, "rh": false},{ "note": 40, "duration":0.5, "velocity": 0.5511811, "rh": false}]},{"acorde":[{ "note": 57, "duration":0.5, "velocity": 0.5826772, "rh": true},{ "note": 45, "duration":0.5, "velocity": 0.5511811, "rh": false},{ "note": 48, "duration":0.5, "velocity": 0.5511811, "rh": false},{ "note": 54, "duration":0.5, "velocity": 0.5511811, "rh": false}]},{"acorde":[{ "note": 55, "duration":1, "velocity": 0.5511811, "rh": true},{ "note": 31, "duration":1, "velocity": 0.5669292, "rh": false},{ "note": 43, "duration":1, "velocity": 0.5669292, "rh": false},{ "note": 0, "duration":0.5, "velocity": 0.7, "rh": false}]},{"acorde":[{ "note": 47, "duration":0.5, "velocity": 0.5669292, "rh": false},{ "note": 50, "duration":0.5, "velocity": 0.5669292, "rh": false},{ "note": 55, "duration":0.5, "velocity": 0.5669292, "rh": false}]},{"acorde":[{ "note": 47, "duration":0.5, "velocity": 0.5590551, "rh": false},{ "note": 50, "duration":0.5, "velocity": 0.5590551, "rh": false},{ "note": 55, "duration":0.5, "velocity": 0.5590551, "rh": false}]},{"acorde":[{ "note": 55, "duration":0.25, "velocity": 0.5826772, "rh": true}]},{"acorde":[{ "note": 57, "duration":0.25, "velocity": 0.6141732, "rh": true}]},{"acorde":[{ "note": 59, "duration":0.5, "velocity": 0.6377953, "rh": true},{ "note": 31, "duration":1, "velocity": 0.5669292, "rh": false},{ "note": 43, "duration":1, "velocity": 0.5669292, "rh": false}]},{"acorde":[{ "note": 62, "duration":0.5, "velocity": 0.6692913, "rh": true},{ "note": 47, "duration":0.5, "velocity": 0.5590551, "rh": false},{ "note": 50, "duration":0.5, "velocity": 0.5590551, "rh": false},{ "note": 55, "duration":0.5, "velocity": 0.5590551, "rh": false}]},{"acorde":[{ "note": 62, "duration":0.75, "velocity": 0.6614173, "rh": true},{ "note": 47, "duration":0.5, "velocity": 0.5590551, "rh": false},{ "note": 50, "duration":0.5, "velocity": 0.5590551, "rh": false},{ "note": 55, "duration":0.5, "velocity": 0.5590551, "rh": false}]},{"acorde":[{ "note": 47, "duration":0.5, "velocity": 0.5590551, "rh": false},{ "note": 50, "duration":0.5, "velocity": 0.5590551, "rh": false},{ "note": 55, "duration":0.5, "velocity": 0.5590551, "rh": false},{ "note": 0, "duration":0.25, "velocity": 0.7, "rh": false}]},{"acorde":[{ "note": 64, "duration":0.25, "velocity": 0.6929134, "rh": true}]},{"acorde":[{ "note": 62, "duration":0.5, "velocity": 0.6456693, "rh": true},{ "note": 31, "duration":1, "velocity": 0.5590551, "rh": false},{ "note": 43, "duration":1, "velocity": 0.5590551, "rh": false}]},{"acorde":[{ "note": 59, "duration":0.5, "velocity": 0.5590551, "rh": true},{ "note": 47, "duration":0.5, "velocity": 0.5590551, "rh": false},{ "note": 50, "duration":0.5, "velocity": 0.5590551, "rh": false},{ "note": 55, "duration":0.5, "velocity": 0.5590551, "rh": false}]},{"acorde":[{ "note": 55, "duration":0.5, "velocity": 0.519685, "rh": true},{ "note": 47, "duration":0.5, "velocity": 0.5590551, "rh": false},{ "note": 50, "duration":0.5, "velocity": 0.5590551, "rh": false},{ "note": 55, "duration":0.5, "velocity": 0.5590551, "rh": false}]},{"acorde":[{ "note": 47, "duration":0.5, "velocity": 0.5590551, "rh": false},{ "note": 50, "duration":0.5, "velocity": 0.5590551, "rh": false},{ "note": 55, "duration":0.25, "velocity": 0.5590551, "rh": false}]},{"acorde":[{ "note": 57, "duration":0.25, "velocity": 0.6141732, "rh": true}]},{"acorde":[{ "note": 59, "duration":0.5, "velocity": 0.6299213, "rh": true},{ "note": 31, "duration":0.5, "velocity": 0.5590551, "rh": false},{ "note": 43, "duration":0.5, "velocity": 0.5590551, "rh": false}]},{"acorde":[{ "note": 59, "duration":0.5, "velocity": 0.6062992, "rh": true},{ "note": 47, "duration":0.5, "velocity": 0.5590551, "rh": false},{ "note": 50, "duration":0.5, "velocity": 0.5590551, "rh": false},{ "note": 55, "duration":0.5, "velocity": 0.5590551, "rh": false}]},{"acorde":[{ "note": 57, "duration":0.5, "velocity": 0.5669292, "rh": true},{ "note": 28, "duration":0.5, "velocity": 0.5511811, "rh": false},{ "note": 40, "duration":0.5, "velocity": 0.5511811, "rh": false}]},{"acorde":[{ "note": 55, "duration":0.5, "velocity": 0.5433071, "rh": true},{ "note": 45, "duration":0.5, "velocity": 0.5590551, "rh": false},{ "note": 49, "duration":0.5, "velocity": 0.5590551, "rh": false},{ "note": 55, "duration":0.5, "velocity": 0.5590551, "rh": false}]},{"acorde":[{ "note": 57, "duration":1, "velocity": 0.5984252, "rh": true},{ "note": 26, "duration":1, "velocity": 0.5433071, "rh": false},{ "note": 38, "duration":1, "velocity": 0.5433071, "rh": false},{ "note": 0, "duration":0.5, "velocity": 0.7, "rh": false}]},{"acorde":[{ "note": 45, "duration":0.5, "velocity": 0.5511811, "rh": false},{ "note": 50, "duration":0.5, "velocity": 0.5511811, "rh": false},{ "note": 54, "duration":0.5, "velocity": 0.5511811, "rh": false}]},{"acorde":[{ "note": 45, "duration":0.5, "velocity": 0.5511811, "rh": false},{ "note": 50, "duration":0.5, "velocity": 0.5511811, "rh": false},{ "note": 54, "duration":0.5, "velocity": 0.5511811, "rh": false}]},{"acorde":[{ "note": 55, "duration":0.25, "velocity": 0.5826772, "rh": true}]},{"acorde":[{ "note": 57, "duration":0.25, "velocity": 0.6141732, "rh": true}]},{"acorde":[{ "note": 59, "duration":0.5, "velocity": 0.6377953, "rh": true},{ "note": 31, "duration":1, "velocity": 0.5748032, "rh": false},{ "note": 43, "duration":1, "velocity": 0.5748032, "rh": false}]},{"acorde":[{ "note": 62, "duration":0.5, "velocity": 0.6692913, "rh": true},{ "note": 47, "duration":0.5, "velocity": 0.5669292, "rh": false},{ "note": 50, "duration":0.5, "velocity": 0.5669292, "rh": false},{ "note": 55, "duration":0.5, "velocity": 0.5669292, "rh": false}]},{"acorde":[{ "note": 62, "duration":0.5, "velocity": 0.6614173, "rh": true},{ "note": 47, "duration":0.5, "velocity": 0.5669292, "rh": false},{ "note": 50, "duration":0.5, "velocity": 0.5669292, "rh": false},{ "note": 55, "duration":0.5, "velocity": 0.5669292, "rh": false}]},{"acorde":[{ "note": 64, "duration":0.5, "velocity": 0.6692913, "rh": true},{ "note": 47, "duration":0.5, "velocity": 0.5590551, "rh": false},{ "note": 50, "duration":0.5, "velocity": 0.5590551, "rh": false},{ "note": 55, "duration":0.5, "velocity": 0.5590551, "rh": false}]},{"acorde":[{ "note": 62, "duration":0.5, "velocity": 0.6220472, "rh": true},{ "note": 31, "duration":0.5, "velocity": 0.5590551, "rh": false},{ "note": 43, "duration":0.5, "velocity": 0.5590551, "rh": false}]},{"acorde":[{ "note": 59, "duration":0.5, "velocity": 0.5590551, "rh": true},{ "note": 47, "duration":0.5, "velocity": 0.5590551, "rh": false},{ "note": 50, "duration":0.5, "velocity": 0.5590551, "rh": false},{ "note": 55, "duration":0.5, "velocity": 0.5590551, "rh": false}]},{"acorde":[{ "note": 55, "duration":0.5, "velocity": 0.519685, "rh": true},{ "note": 46, "duration":0.5, "velocity": 0.5590551, "rh": false},{ "note": 52, "duration":0.5, "velocity": 0.5590551, "rh": false},{ "note": 55, "duration":0.5, "velocity": 0.5590551, "rh": false},{ "note": 25, "duration":0.5, "velocity": 0.5433071, "rh": false},{ "note": 37, "duration":0.5, "velocity": 0.5433071, "rh": false}]},{"acorde":[{ "note": 57, "duration":0.25, "velocity": 0.5669292, "rh": true}]},{"acorde":[{ "note": 59, "duration":0.25, "velocity": 0.6062992, "rh": true},{ "note": 26, "duration":0.5, "velocity": 0.5511811, "rh": false},{ "note": 38, "duration":0.5, "velocity": 0.5511811, "rh": false}]},{"acorde":[{ "note": 59, "duration":0.75, "velocity": 0.6062992, "rh": true},{ "note": 0, "duration":0.25, "velocity": 0.7, "rh": false}]},{"acorde":[{ "note": 47, "duration":0.5, "velocity": 0.5590551, "rh": false},{ "note": 50, "duration":0.5, "velocity": 0.5590551, "rh": false},{ "note": 55, "duration":0.5, "velocity": 0.5590551, "rh": false}]},{"acorde":[{ "note": 57, "duration":0.75, "velocity": 0.5748032, "rh": true},{ "note": 26, "duration":0.5, "velocity": 0.5590551, "rh": false},{ "note": 38, "duration":0.5, "velocity": 0.5590551, "rh": false}]},{"acorde":[{ "note": 45, "duration":0.5, "velocity": 0.5511811, "rh": false},{ "note": 48, "duration":0.5, "velocity": 0.5511811, "rh": false},{ "note": 54, "duration":0.5, "velocity": 0.5511811, "rh": false},{ "note": 0, "duration":0.25, "velocity": 0.7, "rh": false}]},{"acorde":[{ "note": 57, "duration":0.25, "velocity": 0.6377953, "rh": true}]},{"acorde":[{ "note": 55, "duration":1, "velocity": 0.5748032, "rh": true},{ "note": 31, "duration":1, "velocity": 0.5905512, "rh": false},{ "note": 43, "duration":1, "velocity": 0.5905512, "rh": false},{ "note": 0, "duration":0.5, "velocity": 0.7, "rh": false}]},{"acorde":[{ "note": 47, "duration":0.5, "velocity": 0.5669292, "rh": false},{ "note": 50, "duration":0.5, "velocity": 0.5669292, "rh": false},{ "note": 55, "duration":0.5, "velocity": 0.5669292, "rh": false}]},{"acorde":[{ "note": 47, "duration":0.5, "velocity": 0.5590551, "rh": false},{ "note": 50, "duration":0.5, "velocity": 0.5590551, "rh": false},{ "note": 55, "duration":0.5, "velocity": 0.5590551, "rh": false}]},{"acorde":[{ "note": 0, "duration":0.5, "velocity": 0.5433071, "rh": false}]},{"acorde":[{ "note": 60, "duration":1, "velocity": 0.6220472, "rh": true},{ "note": 52, "duration":1, "velocity": 0.5590551, "rh": false},{ "note": 55, "duration":1, "velocity": 0.5590551, "rh": false},{ "note": 36, "duration":1, "velocity": 0.6299213, "rh": false},{ "note": 48, "duration":1, "velocity": 0.6299213, "rh": false}]},{"acorde":[{ "note": 60, "duration":1, "velocity": 0.6062992, "rh": true},{ "note": 52, "duration":1, "velocity": 0.5590551, "rh": false},{ "note": 55, "duration":1, "velocity": 0.5590551, "rh": false},{ "note": 36, "duration":1, "velocity": 0.5984252, "rh": false},{ "note": 48, "duration":1, "velocity": 0.5984252, "rh": false}]},{"acorde":[{ "note": 64, "duration":0.5, "velocity": 0.6456693, "rh": true},{ "note": 52, "duration":0.5, "velocity": 0.5748032, "rh": false},{ "note": 55, "duration":0.5, "velocity": 0.5748032, "rh": false},{ "note": 36, "duration":0.5, "velocity": 0.5984252, "rh": false},{ "note": 48, "duration":0.5, "velocity": 0.5984252, "rh": false}]},{"acorde":[{ "note": 64, "duration":1, "velocity": 0.6299213, "rh": true},{ "note": 55, "duration":1, "velocity": 0.5669292, "rh": false},{ "note": 36, "duration":1, "velocity": 0.5826772, "rh": false},{ "note": 48, "duration":1, "velocity": 0.5826772, "rh": false}]},{"acorde":[{ "note": 64, "duration":0.5, "velocity": 0.6062992, "rh": true},{ "note": 55, "duration":0.5, "velocity": 0.5590551, "rh": false},{ "note": 36, "duration":0.5, "velocity": 0.5826772, "rh": false},{ "note": 48, "duration":0.5, "velocity": 0.5826772, "rh": false}]},{"acorde":[{ "note": 62, "duration":0.5, "velocity": 0.5826772, "rh": true},{ "note": 47, "duration":0.5, "velocity": 0.488189, "rh": false},{ "note": 31, "duration":1, "velocity": 0.519685, "rh": false},{ "note": 43, "duration":1, "velocity": 0.519685, "rh": false}]},{"acorde":[{ "note": 62, "duration":0.5, "velocity": 0.5905512, "rh": true},{ "note": 47, "duration":0.5, "velocity": 0.5905512, "rh": false},{ "note": 50, "duration":0.5, "velocity": 0.5905512, "rh": false},{ "note": 55, "duration":0.5, "velocity": 0.5905512, "rh": false}]},{"acorde":[{ "note": 59, "duration":0.5, "velocity": 0.5511811, "rh": true},{ "note": 47, "duration":0.5, "velocity": 0.5905512, "rh": false},{ "note": 50, "duration":0.5, "velocity": 0.5905512, "rh": false},{ "note": 55, "duration":0.5, "velocity": 0.5905512, "rh": false}]},{"acorde":[{ "note": 55, "duration":0.5, "velocity": 0.519685, "rh": true},{ "note": 47, "duration":0.5, "velocity": 0.511811, "rh": false},{ "note": 50, "duration":0.5, "velocity": 0.511811, "rh": false}]},{"acorde":[{ "note": 57, "duration":1, "velocity": 0.5590551, "rh": true},{ "note": 50, "duration":0.5, "velocity": 0.5826772, "rh": false},{ "note": 54, "duration":0.5, "velocity": 0.5826772, "rh": false},{ "note": 26, "duration":1, "velocity": 0.527559, "rh": false},{ "note": 38, "duration":1, "velocity": 0.527559, "rh": false}]},{"acorde":[{ "note": 45, "duration":0.5, "velocity": 0.5748032, "rh": false},{ "note": 50, "duration":0.5, "velocity": 0.5748032, "rh": false},{ "note": 54, "duration":0.5, "velocity": 0.5748032, "rh": false}]},{"acorde":[{ "note": 45, "duration":0.5, "velocity": 0.5748032, "rh": false},{ "note": 50, "duration":0.5, "velocity": 0.5748032, "rh": false},{ "note": 54, "duration":0.5, "velocity": 0.5748032, "rh": false}]},{"acorde":[{ "note": 55, "duration":0.25, "velocity": 0.5748032, "rh": true},{ "note": 43, "duration":0.5, "velocity": 0.503937, "rh": false},{ "note": 50, "duration":0.5, "velocity": 0.503937, "rh": false}]},{"acorde":[{ "note": 57, "duration":0.25, "velocity": 0.5984252, "rh": true}]},{"acorde":[{ "note": 59, "duration":0.5, "velocity": 0.6299213, "rh": true},{ "note": 50, "duration":0.5, "velocity": 0.5984252, "rh": false},{ "note": 55, "duration":0.5, "velocity": 0.5984252, "rh": false},{ "note": 31, "duration":1, "velocity": 0.5669292, "rh": false},{ "note": 43, "duration":1, "velocity": 0.5669292, "rh": false}]},{"acorde":[{ "note": 62, "duration":0.5, "velocity": 0.6692913, "rh": true},{ "note": 47, "duration":0.5, "velocity": 0.5905512, "rh": false},{ "note": 50, "duration":0.5, "velocity": 0.5905512, "rh": false},{ "note": 55, "duration":0.5, "velocity": 0.5905512, "rh": false}]},{"acorde":[{ "note": 62, "duration":0.5, "velocity": 0.6535433, "rh": true},{ "note": 47, "duration":0.5, "velocity": 0.5826772, "rh": false},{ "note": 50, "duration":0.5, "velocity": 0.5826772, "rh": false},{ "note": 55, "duration":0.5, "velocity": 0.5826772, "rh": false}]},{"acorde":[{ "note": 64, "duration":0.5, "velocity": 0.6692913, "rh": true},{ "note": 47, "duration":0.5, "velocity": 0.5748032, "rh": false},{ "note": 50, "duration":0.5, "velocity": 0.5748032, "rh": false},{ "note": 55, "duration":0.5, "velocity": 0.5748032, "rh": false}]},{"acorde":[{ "note": 62, "duration":0.5, "velocity": 0.6220472, "rh": true},{ "note": 47, "duration":0.5, "velocity": 0.5669292, "rh": false},{ "note": 55, "duration":0.5, "velocity": 0.5669292, "rh": false},{ "note": 31, "duration":1, "velocity": 0.5590551, "rh": false},{ "note": 43, "duration":1, "velocity": 0.5590551, "rh": false}]},{"acorde":[{ "note": 59, "duration":0.5, "velocity": 0.5590551, "rh": true},{ "note": 47, "duration":0.5, "velocity": 0.5669292, "rh": false},{ "note": 50, "duration":0.5, "velocity": 0.5669292, "rh": false},{ "note": 55, "duration":0.5, "velocity": 0.5669292, "rh": false}]},{"acorde":[{ "note": 55, "duration":0.5, "velocity": 0.519685, "rh": true},{ "note": 47, "duration":0.5, "velocity": 0.5669292, "rh": false},{ "note": 50, "duration":0.5, "velocity": 0.5669292, "rh": false},{ "note": 55, "duration":0.5, "velocity": 0.5669292, "rh": false}]},{"acorde":[{ "note": 57, "duration":0.5, "velocity": 0.5590551, "rh": true},{ "note": 47, "duration":0.5, "velocity": 0.5590551, "rh": false},{ "note": 50, "duration":0.5, "velocity": 0.5590551, "rh": false},{ "note": 55, "duration":0.5, "velocity": 0.5590551, "rh": false}]},{"acorde":[{ "note": 59, "duration":0.5, "velocity": 0.6062992, "rh": true},{ "note": 50, "duration":0.5, "velocity": 0.5590551, "rh": false},{ "note": 55, "duration":0.5, "velocity": 0.5590551, "rh": false},{ "note": 26, "duration":0.5, "velocity": 0.5511811, "rh": false},{ "note": 38, "duration":0.5, "velocity": 0.5511811, "rh": false}]},{"acorde":[{ "note": 59, "duration":0.5, "velocity": 0.6062992, "rh": true},{ "note": 47, "duration":0.5, "velocity": 0.5590551, "rh": false},{ "note": 50, "duration":0.5, "velocity": 0.5590551, "rh": false},{ "note": 55, "duration":0.5, "velocity": 0.5590551, "rh": false}]},{"acorde":[{ "note": 57, "duration":0.5, "velocity": 0.5748032, "rh": true},{ "note": 48, "duration":0.5, "velocity": 0.5433071, "rh": false},{ "note": 54, "duration":0.5, "velocity": 0.5433071, "rh": false},{ "note": 26, "duration":0.5, "velocity": 0.5590551, "rh": false},{ "note": 38, "duration":0.5, "velocity": 0.5590551, "rh": false}]},{"acorde":[{ "note": 57, "duration":0.5, "velocity": 0.5826772, "rh": true},{ "note": 45, "duration":0.5, "velocity": 0.5511811, "rh": false},{ "note": 48, "duration":0.5, "velocity": 0.5511811, "rh": false},{ "note": 54, "duration":0.5, "velocity": 0.5511811, "rh": false}]},{"acorde":[{ "note": 55, "duration":1, "velocity": 0.5511811, "rh": true},{ "note": 47, "duration":1, "velocity": 0.5669292, "rh": false},{ "note": 50, "duration":1, "velocity": 0.5669292, "rh": false},{ "note": 55, "duration":1, "velocity": 0.5669292, "rh": false},{ "note": 31, "duration":1, "velocity": 0.5905512, "rh": false},{ "note": 43, "duration":1, "velocity": 0.5905512, "rh": false}]},{"acorde":[{ "note": 0, "duration":1, "velocity": 0.519685, "rh": false}]},{"acorde":[{ "note": 60, "duration":1, "velocity": 0.6220472, "rh": true},{ "note": 52, "duration":1, "velocity": 0.5590551, "rh": false},{ "note": 55, "duration":1, "velocity": 0.5590551, "rh": false},{ "note": 36, "duration":1, "velocity": 0.6220472, "rh": false},{ "note": 48, "duration":1, "velocity": 0.6220472, "rh": false}]},{"acorde":[{ "note": 60, "duration":1, "velocity": 0.6062992, "rh": true},{ "note": 52, "duration":1, "velocity": 0.5590551, "rh": false},{ "note": 55, "duration":1, "velocity": 0.5590551, "rh": false},{ "note": 36, "duration":1, "velocity": 0.5905512, "rh": false},{ "note": 48, "duration":1, "velocity": 0.5905512, "rh": false}]},{"acorde":[{ "note": 64, "duration":0.5, "velocity": 0.6456693, "rh": true},{ "note": 52, "duration":0.5, "velocity": 0.5748032, "rh": false},{ "note": 55, "duration":0.5, "velocity": 0.5748032, "rh": false},{ "note": 36, "duration":0.5, "velocity": 0.5905512, "rh": false},{ "note": 48, "duration":0.5, "velocity": 0.5905512, "rh": false}]},{"acorde":[{ "note": 64, "duration":1, "velocity": 0.6299213, "rh": true},{ "note": 55, "duration":1, "velocity": 0.5669292, "rh": false},{ "note": 36, "duration":1, "velocity": 0.5748032, "rh": false},{ "note": 48, "duration":1, "velocity": 0.5748032, "rh": false}]},{"acorde":[{ "note": 64, "duration":0.5, "velocity": 0.6062992, "rh": true},{ "note": 55, "duration":0.5, "velocity": 0.5590551, "rh": false},{ "note": 36, "duration":0.5, "velocity": 0.5826772, "rh": false},{ "note": 48, "duration":0.5, "velocity": 0.5826772, "rh": false}]},{"acorde":[{ "note": 62, "duration":0.5, "velocity": 0.5826772, "rh": true},{ "note": 47, "duration":0.5, "velocity": 0.488189, "rh": false},{ "note": 31, "duration":1, "velocity": 0.519685, "rh": false},{ "note": 43, "duration":1, "velocity": 0.519685, "rh": false}]},{"acorde":[{ "note": 62, "duration":0.5, "velocity": 0.5905512, "rh": true},{ "note": 47, "duration":0.5, "velocity": 0.5905512, "rh": false},{ "note": 50, "duration":0.5, "velocity": 0.5905512, "rh": false},{ "note": 55, "duration":0.5, "velocity": 0.5905512, "rh": false}]},{"acorde":[{ "note": 59, "duration":0.5, "velocity": 0.5511811, "rh": true},{ "note": 47, "duration":0.5, "velocity": 0.5905512, "rh": false},{ "note": 50, "duration":0.5, "velocity": 0.5905512, "rh": false},{ "note": 55, "duration":0.5, "velocity": 0.5905512, "rh": false}]},{"acorde":[{ "note": 55, "duration":0.5, "velocity": 0.519685, "rh": true},{ "note": 47, "duration":0.5, "velocity": 0.511811, "rh": false},{ "note": 50, "duration":0.5, "velocity": 0.511811, "rh": false}]},{"acorde":[{ "note": 57, "duration":1, "velocity": 0.5590551, "rh": true},{ "note": 50, "duration":0.5, "velocity": 0.5826772, "rh": false},{ "note": 54, "duration":0.5, "velocity": 0.5826772, "rh": false},{ "note": 26, "duration":1, "velocity": 0.527559, "rh": false},{ "note": 38, "duration":1, "velocity": 0.527559, "rh": false}]},{"acorde":[{ "note": 45, "duration":0.5, "velocity": 0.5748032, "rh": false},{ "note": 50, "duration":0.5, "velocity": 0.5748032, "rh": false},{ "note": 54, "duration":0.5, "velocity": 0.5748032, "rh": false}]},{"acorde":[{ "note": 45, "duration":0.5, "velocity": 0.5748032, "rh": false},{ "note": 50, "duration":0.5, "velocity": 0.5748032, "rh": false},{ "note": 54, "duration":0.5, "velocity": 0.5748032, "rh": false}]},{"acorde":[{ "note": 55, "duration":0.25, "velocity": 0.5748032, "rh": true},{ "note": 43, "duration":0.5, "velocity": 0.503937, "rh": false},{ "note": 50, "duration":0.5, "velocity": 0.503937, "rh": false}]},{"acorde":[{ "note": 57, "duration":0.25, "velocity": 0.5984252, "rh": true}]},{"acorde":[{ "note": 59, "duration":0.5, "velocity": 0.6299213, "rh": true},{ "note": 50, "duration":0.5, "velocity": 0.5984252, "rh": false},{ "note": 55, "duration":0.5, "velocity": 0.5984252, "rh": false},{ "note": 31, "duration":1, "velocity": 0.5669292, "rh": false},{ "note": 43, "duration":1, "velocity": 0.5669292, "rh": false}]},{"acorde":[{ "note": 62, "duration":0.5, "velocity": 0.6692913, "rh": true},{ "note": 47, "duration":0.5, "velocity": 0.5905512, "rh": false},{ "note": 50, "duration":0.5, "velocity": 0.5905512, "rh": false},{ "note": 55, "duration":0.5, "velocity": 0.5905512, "rh": false}]},{"acorde":[{ "note": 62, "duration":0.5, "velocity": 0.6535433, "rh": true},{ "note": 47, "duration":0.5, "velocity": 0.5826772, "rh": false},{ "note": 50, "duration":0.5, "velocity": 0.5826772, "rh": false},{ "note": 55, "duration":0.5, "velocity": 0.5826772, "rh": false}]},{"acorde":[{ "note": 64, "duration":0.5, "velocity": 0.6692913, "rh": true},{ "note": 47, "duration":0.5, "velocity": 0.5748032, "rh": false},{ "note": 50, "duration":0.5, "velocity": 0.5748032, "rh": false},{ "note": 55, "duration":0.5, "velocity": 0.5748032, "rh": false}]},{"acorde":[{ "note": 62, "duration":0.5, "velocity": 0.6220472, "rh": true},{ "note": 47, "duration":0.5, "velocity": 0.5669292, "rh": false},{ "note": 55, "duration":0.5, "velocity": 0.5669292, "rh": false},{ "note": 31, "duration":1, "velocity": 0.5590551, "rh": false},{ "note": 43, "duration":1, "velocity": 0.5590551, "rh": false}]},{"acorde":[{ "note": 59, "duration":0.5, "velocity": 0.5590551, "rh": true},{ "note": 47, "duration":0.5, "velocity": 0.5669292, "rh": false},{ "note": 50, "duration":0.5, "velocity": 0.5669292, "rh": false},{ "note": 55, "duration":0.5, "velocity": 0.5669292, "rh": false}]},{"acorde":[{ "note": 55, "duration":0.5, "velocity": 0.519685, "rh": true},{ "note": 47, "duration":0.5, "velocity": 0.5669292, "rh": false},{ "note": 50, "duration":0.5, "velocity": 0.5669292, "rh": false},{ "note": 55, "duration":0.5, "velocity": 0.5669292, "rh": false}]},{"acorde":[{ "note": 57, "duration":0.5, "velocity": 0.5590551, "rh": true},{ "note": 47, "duration":0.5, "velocity": 0.5590551, "rh": false},{ "note": 50, "duration":0.5, "velocity": 0.5590551, "rh": false},{ "note": 55, "duration":0.5, "velocity": 0.5590551, "rh": false}]},{"acorde":[{ "note": 59, "duration":0.5, "velocity": 0.6062992, "rh": true},{ "note": 50, "duration":0.5, "velocity": 0.5590551, "rh": false},{ "note": 55, "duration":0.5, "velocity": 0.5590551, "rh": false},{ "note": 26, "duration":0.5, "velocity": 0.5511811, "rh": false},{ "note": 38, "duration":0.5, "velocity": 0.5511811, "rh": false}]},{"acorde":[{ "note": 59, "duration":0.5, "velocity": 0.6062992, "rh": true},{ "note": 47, "duration":0.5, "velocity": 0.5590551, "rh": false},{ "note": 50, "duration":0.5, "velocity": 0.5590551, "rh": false},{ "note": 55, "duration":0.5, "velocity": 0.5590551, "rh": false}]},{"acorde":[{ "note": 57, "duration":0.5, "velocity": 0.5748032, "rh": true},{ "note": 48, "duration":0.5, "velocity": 0.5433071, "rh": false},{ "note": 54, "duration":0.5, "velocity": 0.5433071, "rh": false},{ "note": 26, "duration":0.5, "velocity": 0.5590551, "rh": false},{ "note": 38, "duration":0.5, "velocity": 0.5590551, "rh": false}]},{"acorde":[{ "note": 57, "duration":0.5, "velocity": 0.5826772, "rh": true},{ "note": 45, "duration":0.5, "velocity": 0.5511811, "rh": false},{ "note": 48, "duration":0.5, "velocity": 0.5511811, "rh": false},{ "note": 54, "duration":0.5, "velocity": 0.5511811, "rh": false}]},{"acorde":[{ "note": 55, "duration":1, "velocity": 0.5511811, "rh": true},{ "note": 47, "duration":1, "velocity": 0.5669292, "rh": false},{ "note": 50, "duration":1, "velocity": 0.5669292, "rh": false},{ "note": 55, "duration":1, "velocity": 0.5669292, "rh": false},{ "note": 31, "duration":1, "velocity": 0.5905512, "rh": false},{ "note": 43, "duration":1, "velocity": 0.5905512, "rh": false}]},{"acorde":[{ "note": 0, "duration":0.5, "velocity": 0.519685, "rh": false}]},{"acorde":[{ "note": 55, "duration":0.25, "velocity": 0.5669292, "rh": false}]},{"acorde":[{ "note": 57, "duration":0.25, "velocity": 0.5826772, "rh": false}]},{"acorde":[{ "note": 59, "duration":0.5, "velocity": 0.6141732, "rh": false},{ "note": 43, "duration":0.5, "velocity": 0.6062992, "rh": false}]},{"acorde":[{ "note": 62, "duration":0.5, "velocity": 0.6299213, "rh": false},{ "note": 47, "duration":0.5, "velocity": 0.6299213, "rh": false},{ "note": 50, "duration":0.5, "velocity": 0.6299213, "rh": false}]},{"acorde":[{ "note": 62, "duration":0.5, "velocity": 0.6141732, "rh": false},{ "note": 43, "duration":0.5, "velocity": 0.5590551, "rh": false}]},{"acorde":[{ "note": 64, "duration":0.5, "velocity": 0.6220472, "rh": false},{ "note": 47, "duration":0.5, "velocity": 0.6220472, "rh": false},{ "note": 50, "duration":0.5, "velocity": 0.6220472, "rh": false}]},{"acorde":[{ "note": 62, "duration":0.5, "velocity": 0.5826772, "rh": false},{ "note": 43, "duration":0.5, "velocity": 0.527559, "rh": false}]},{"acorde":[{ "note": 59, "duration":0.5, "velocity": 0.527559, "rh": false},{ "note": 47, "duration":0.5, "velocity": 0.6220472, "rh": false},{ "note": 50, "duration":0.5, "velocity": 0.6220472, "rh": false}]},{"acorde":[{ "note": 55, "duration":0.75, "velocity": 0.488189, "rh": false},{ "note": 43, "duration":0.5, "velocity": 0.503937, "rh": false}]},{"acorde":[{ "note": 47, "duration":0.5, "velocity": 0.6220472, "rh": false},{ "note": 50, "duration":0.5, "velocity": 0.6220472, "rh": false},{ "note": 0, "duration":0.25, "velocity": 0.7, "rh": false}]},{"acorde":[{ "note": 57, "duration":0.25, "velocity": 0.5748032, "rh": false}]},{"acorde":[{ "note": 59, "duration":0.5, "velocity": 0.5905512, "rh": false},{ "note": 43, "duration":0.5, "velocity": 0.503937, "rh": false}]},{"acorde":[{ "note": 59, "duration":0.5, "velocity": 0.5669292, "rh": false},{ "note": 47, "duration":0.5, "velocity": 0.6220472, "rh": false},{ "note": 50, "duration":0.5, "velocity": 0.6220472, "rh": false}]},{"acorde":[{ "note": 57, "duration":0.5, "velocity": 0.5354331, "rh": false},{ "note": 43, "duration":0.5, "velocity": 0.496063, "rh": false}]},{"acorde":[{ "note": 55, "duration":0.5, "velocity": 0.511811, "rh": false},{ "note": 47, "duration":0.5, "velocity": 0.6220472, "rh": false},{ "note": 50, "duration":0.5, "velocity": 0.6220472, "rh": false}]},{"acorde":[{ "note": 57, "duration":1, "velocity": 0.5590551, "rh": false},{ "note": 38, "duration":0.5, "velocity": 0.472441, "rh": false}]},{"acorde":[{ "note": 42, "duration":0.5, "velocity": 0.5669292, "rh": false},{ "note": 45, "duration":0.5, "velocity": 0.5669292, "rh": false}]},{"acorde":[{ "note": 42, "duration":0.5, "velocity": 0.5669292, "rh": false},{ "note": 45, "duration":0.5, "velocity": 0.5669292, "rh": false}]},{"acorde":[{ "note": 55, "duration":0.25, "velocity": 0.6299213, "rh": false},{ "note": 67, "duration":0.25, "velocity": 0.6299213, "rh": false}]},{"acorde":[{ "note": 57, "duration":0.25, "velocity": 0.6377953, "rh": false},{ "note": 69, "duration":0.25, "velocity": 0.6377953, "rh": false}]},{"acorde":[{ "note": 59, "duration":0.5, "velocity": 0.6377953, "rh": false},{ "note": 71, "duration":0.5, "velocity": 0.6377953, "rh": false},{ "note": 31, "duration":0.5, "velocity": 0.5433071, "rh": false},{ "note": 43, "duration":0.5, "velocity": 0.5433071, "rh": false}]},{"acorde":[{ "note": 62, "duration":0.5, "velocity": 0.6377953, "rh": false},{ "note": 74, "duration":0.5, "velocity": 0.6377953, "rh": false},{ "note": 43, "duration":0.5, "velocity": 0.6299213, "rh": false},{ "note": 47, "duration":0.5, "velocity": 0.6299213, "rh": false},{ "note": 50, "duration":0.5, "velocity": 0.6299213, "rh": false}]},{"acorde":[{ "note": 62, "duration":0.5, "velocity": 0.6220472, "rh": false},{ "note": 74, "duration":0.5, "velocity": 0.6220472, "rh": false},{ "note": 43, "duration":0.5, "velocity": 0.6141732, "rh": false},{ "note": 47, "duration":0.5, "velocity": 0.6141732, "rh": false},{ "note": 50, "duration":0.5, "velocity": 0.6141732, "rh": false}]},{"acorde":[{ "note": 64, "duration":0.5, "velocity": 0.6299213, "rh": false},{ "note": 76, "duration":0.5, "velocity": 0.6299213, "rh": false},{ "note": 43, "duration":0.5, "velocity": 0.5984252, "rh": false},{ "note": 47, "duration":0.5, "velocity": 0.5984252, "rh": false},{ "note": 50, "duration":0.5, "velocity": 0.5984252, "rh": false}]},{"acorde":[{ "note": 62, "duration":0.5, "velocity": 0.5826772, "rh": false},{ "note": 74, "duration":0.5, "velocity": 0.5826772, "rh": false},{ "note": 31, "duration":0.5, "velocity": 0.496063, "rh": false},{ "note": 43, "duration":0.5, "velocity": 0.496063, "rh": false}]},{"acorde":[{ "note": 59, "duration":0.5, "velocity": 0.527559, "rh": false},{ "note": 71, "duration":0.5, "velocity": 0.527559, "rh": false},{ "note": 43, "duration":0.5, "velocity": 0.6062992, "rh": false},{ "note": 47, "duration":0.5, "velocity": 0.6062992, "rh": false},{ "note": 50, "duration":0.5, "velocity": 0.6062992, "rh": false}]},{"acorde":[{ "note": 55, "duration":0.75, "velocity": 0.488189, "rh": false},{ "note": 67, "duration":0.75, "velocity": 0.488189, "rh": false},{ "note": 43, "duration":0.5, "velocity": 0.5905512, "rh": false},{ "note": 47, "duration":0.5, "velocity": 0.5905512, "rh": false},{ "note": 50, "duration":0.5, "velocity": 0.5905512, "rh": false}]},{"acorde":[{ "note": 43, "duration":0.5, "velocity": 0.5826772, "rh": false},{ "note": 47, "duration":0.5, "velocity": 0.5826772, "rh": false},{ "note": 50, "duration":0.5, "velocity": 0.5826772, "rh": false},{ "note": 0, "duration":0.25, "velocity": 0.7, "rh": false}]},{"acorde":[{ "note": 57, "duration":0.25, "velocity": 0.5748032, "rh": false},{ "note": 69, "duration":0.25, "velocity": 0.5748032, "rh": false}]},{"acorde":[{ "note": 59, "duration":0.5, "velocity": 0.5905512, "rh": false},{ "note": 71, "duration":0.5, "velocity": 0.5905512, "rh": false},{ "note": 31, "duration":0.5, "velocity": 0.488189, "rh": false},{ "note": 43, "duration":0.5, "velocity": 0.488189, "rh": false}]},{"acorde":[{ "note": 59, "duration":0.5, "velocity": 0.5669292, "rh": false},{ "note": 71, "duration":0.5, "velocity": 0.5669292, "rh": false},{ "note": 38, "duration":0.5, "velocity": 0.5511811, "rh": false},{ "note": 43, "duration":0.5, "velocity": 0.5511811, "rh": false},{ "note": 47, "duration":0.5, "velocity": 0.5511811, "rh": false}]},{"acorde":[{ "note": 57, "duration":0.5, "velocity": 0.5354331, "rh": false},{ "note": 69, "duration":0.5, "velocity": 0.5354331, "rh": false},{ "note": 26, "duration":0.5, "velocity": 0.472441, "rh": false},{ "note": 38, "duration":0.5, "velocity": 0.472441, "rh": false}]},{"acorde":[{ "note": 57, "duration":0.5, "velocity": 0.5433071, "rh": false},{ "note": 69, "duration":0.5, "velocity": 0.5433071, "rh": false},{ "note": 38, "duration":0.5, "velocity": 0.6141732, "rh": false},{ "note": 42, "duration":0.5, "velocity": 0.6141732, "rh": false},{ "note": 48, "duration":0.5, "velocity": 0.6141732, "rh": false}]},{"acorde":[{ "note": 55, "duration":1, "velocity": 0.511811, "rh": false},{ "note": 67, "duration":1, "velocity": 0.511811, "rh": false},{ "note": 43, "duration":1, "velocity": 0.5826772, "rh": false},{ "note": 47, "duration":1, "velocity": 0.5826772, "rh": false}]}]}