{"Secuencia":[{"title":"Sonata No.8 Pathetique"},{"acorde":[{"note":100,"duration":0,"velocity":28,"rh":false}]},{"acorde":[{"note":48,"duration":1,"velocity":0.5590551,"rh":true},{"note":44,"duration":0.25,"velocity":0.480315,"rh":false},{"note":32,"duration":1,"velocity":0.480315,"rh":false}]},{"acorde":[{"note":39,"duration":0.25,"velocity":0.4645669,"rh":false}]},{"acorde":[{"note":44,"duration":0.25,"velocity":0.496063,"rh":false}]},{"acorde":[{"note":39,"duration":0.25,"velocity":0.4645669,"rh":false}]},{"acorde":[{"note":46,"duration":1,"velocity":0.5590551,"rh":true},{"note":43,"duration":0.25,"velocity":0.496063,"rh":false},{"note":37,"duration":1,"velocity":0.480315,"rh":false}]},{"acorde":[{"note":39,"duration":0.25,"velocity":0.4645669,"rh":false}]},{"acorde":[{"note":43,"duration":0.25,"velocity":0.496063,"rh":false}]},{"acorde":[{"note":39,"duration":0.25,"velocity":0.4645669,"rh":false}]},{"acorde":[{"note":51,"duration":1.5,"velocity":0.5590551,"rh":true},{"note":44,"duration":0.25,"velocity":0.503937,"rh":false},{"note":36,"duration":1,"velocity":0.480315,"rh":false}]},{"acorde":[{"note":39,"duration":0.25,"velocity":0.4645669,"rh":false}]},{"acorde":[{"note":44,"duration":0.25,"velocity":0.4409449,"rh":false}]},{"acorde":[{"note":39,"duration":0.25,"velocity":0.3543307,"rh":false}]},{"acorde":[{"note":46,"duration":0.25,"velocity":0.4330709,"rh":false},{"note":31,"duration":1,"velocity":0.4015748,"rh":false}]},{"acorde":[{"note":39,"duration":0.25,"velocity":0.4173228,"rh":false}]},{"acorde":[{"note":49,"duration":0.5,"velocity":0.5590551,"rh":true},{"note":46,"duration":0.25,"velocity":0.511811,"rh":false}]},{"acorde":[{"note":39,"duration":0.25,"velocity":0.4566929,"rh":false}]},{"acorde":[{"note":48,"duration":0.5,"velocity":0.6062992,"rh":true},{"note":44,"duration":0.25,"velocity":0.496063,"rh":false},{"note":32,"duration":0.5,"velocity":0.480315,"rh":false}]},{"acorde":[{"note":39,"duration":0.25,"velocity":0.4566929,"rh":false}]},{"acorde":[{"note":51,"duration":0.5,"velocity":0.6692913,"rh":true},{"note":46,"duration":0.25,"velocity":0.511811,"rh":false},{"note":31,"duration":0.5,"velocity":0.480315,"rh":false}]},{"acorde":[{"note":39,"duration":0.25,"velocity":0.496063,"rh":false}]},{"acorde":[{"note":56,"duration":0.5,"velocity":0.6771653,"rh":true},{"note":48,"duration":0.25,"velocity":0.6141732,"rh":false},{"note":29,"duration":0.5,"velocity":0.5590551,"rh":false}]},{"acorde":[{"note":44,"duration":0.25,"velocity":0.5590551,"rh":false}]},{"acorde":[{"note":58,"duration":0.5,"velocity":0.6220472,"rh":true},{"note":50,"duration":0.25,"velocity":0.6062992,"rh":false},{"note":41,"duration":0.5,"velocity":0.5905512,"rh":false}]},{"acorde":[{"note":44,"duration":0.25,"velocity":0.496063,"rh":false}]},{"acorde":[{"note":51,"duration":1.5,"velocity":0.5433071,"rh":true},{"note":43,"duration":0.25,"velocity":0.4566929,"rh":false},{"note":39,"duration":1,"velocity":0.480315,"rh":false}]},{"acorde":[{"note":46,"duration":0.25,"velocity":0.488189,"rh":false}]},{"acorde":[{"note":43,"duration":0.25,"velocity":0.4645669,"rh":false}]},{"acorde":[{"note":46,"duration":0.25,"velocity":0.4094488,"rh":false}]},{"acorde":[{"note":43,"duration":0.25,"velocity":0.4645669,"rh":false},{"note":27,"duration":1,"velocity":0.480315,"rh":false}]},{"acorde":[{"note":46,"duration":0.25,"velocity":0.496063,"rh":false}]},{"acorde":[{"note":52,"duration":0.5,"velocity":0.5590551,"rh":true},{"note":43,"duration":0.25,"velocity":0.4645669,"rh":false}]},{"acorde":[{"note":46,"duration":0.25,"velocity":0.496063,"rh":false}]},{"acorde":[{"note":53,"duration":1,"velocity":0.6614173,"rh":true},{"note":43,"duration":0.25,"velocity":0.4645669,"rh":false},{"note":25,"duration":1,"velocity":0.480315,"rh":false}]},{"acorde":[{"note":46,"duration":0.25,"velocity":0.496063,"rh":false}]},{"acorde":[{"note":43,"duration":0.25,"velocity":0.4645669,"rh":false}]},{"acorde":[{"note":46,"duration":0.25,"velocity":0.496063,"rh":false}]},{"acorde":[{"note":46,"duration":0.75,"velocity":0.6535433,"rh":true},{"note":43,"duration":0.25,"velocity":0.4645669,"rh":false},{"note":37,"duration":1,"velocity":0.488189,"rh":false}]},{"acorde":[{"note":39,"duration":0.25,"velocity":0.4488189,"rh":false}]},{"acorde":[{"note":43,"duration":0.25,"velocity":0.488189,"rh":false}]},{"acorde":[{"note":48,"duration":0.125,"velocity":0.6614173,"rh":true},{"note":39,"duration":0.25,"velocity":0.4645669,"rh":false}]},{"acorde":[{"note":49,"duration":0.125,"velocity":0.6692913,"rh":true}]},{"acorde":[{"note":51,"duration":1,"velocity":0.6850393,"rh":true},{"note":44,"duration":0.25,"velocity":0.503937,"rh":false},{"note":36,"duration":1,"velocity":0.480315,"rh":false}]},{"acorde":[{"note":39,"duration":0.25,"velocity":0.4645669,"rh":false}]},{"acorde":[{"note":44,"duration":0.25,"velocity":0.503937,"rh":false}]},{"acorde":[{"note":39,"duration":0.25,"velocity":0.4645669,"rh":false}]},{"acorde":[{"note":45,"duration":1,"velocity":0.5511811,"rh":true},{"note":39,"duration":0.25,"velocity":0.472441,"rh":false},{"note":29,"duration":1,"velocity":0.480315,"rh":false}]},{"acorde":[{"note":36,"duration":0.25,"velocity":0.4645669,"rh":false}]},{"acorde":[{"note":39,"duration":0.25,"velocity":0.4330709,"rh":false}]},{"acorde":[{"note":36,"duration":0.25,"velocity":0.3622047,"rh":false}]},{"acorde":[{"note":49,"duration":1,"velocity":0.5590551,"rh":true},{"note":41,"duration":0.25,"velocity":0.503937,"rh":false},{"note":34,"duration":1,"velocity":0.480315,"rh":false}]},{"acorde":[{"note":37,"duration":0.25,"velocity":0.472441,"rh":false}]},{"acorde":[{"note":41,"duration":0.25,"velocity":0.496063,"rh":false}]},{"acorde":[{"note":37,"duration":0.25,"velocity":0.4645669,"rh":false}]},{"acorde":[{"note":48,"duration":0.25,"velocity":0.6614173,"rh":true},{"note":37,"duration":0.25,"velocity":0.472441,"rh":false},{"note":27,"duration":1,"velocity":0.480315,"rh":false}]},{"acorde":[{"note":46,"duration":0.25,"velocity":0.6299213,"rh":true},{"note":37,"duration":0.25,"velocity":0.480315,"rh":false}]},{"acorde":[{"note":44,"duration":0.25,"velocity":0.5984252,"rh":true},{"note":37,"duration":0.25,"velocity":0.480315,"rh":false}]},{"acorde":[{"note":43,"duration":0.25,"velocity":0.5748032,"rh":true},{"note":37,"duration":0.25,"velocity":0.480315,"rh":false}]},{"acorde":[{"note":46,"duration":1,"velocity":0.5748032,"rh":true},{"note":37,"duration":0.25,"velocity":0.480315,"rh":false},{"note":32,"duration":1,"velocity":0.480315,"rh":false}]},{"acorde":[{"note":39,"duration":0.25,"velocity":0.488189,"rh":false}]},{"acorde":[{"note":37,"duration":0.25,"velocity":0.472441,"rh":false}]},{"acorde":[{"note":39,"duration":0.25,"velocity":0.488189,"rh":false}]},{"acorde":[{"note":44,"duration":0.5,"velocity":0.5590551,"rh":true},{"note":36,"duration":0.164,"velocity":0.472441,"rh":false},{"note":32,"duration":0.5,"velocity":0.480315,"rh":false}]},{"acorde":[{"note":39,"duration":0.168,"velocity":0.503937,"rh":false}]},{"acorde":[{"note":44,"duration":0.168,"velocity":0.5669292,"rh":false}]},{"acorde":[{"note":48,"duration":0.164,"velocity":0.5984252,"rh":false}]},{"acorde":[{"note":51,"duration":0.168,"velocity":0.6141732,"rh":false}]},{"acorde":[{"note":56,"duration":0.168,"velocity":0.6377953,"rh":false}]},{"acorde":[{"note":60,"duration":1,"velocity":0.6692913,"rh":true},{"note":48,"duration":0.25,"velocity":0.5433071,"rh":false},{"note":44,"duration":0.25,"velocity":0.5669292,"rh":false},{"note":32,"duration":1,"velocity":0.480315,"rh":false}]},{"acorde":[{"note":51,"duration":0.25,"velocity":0.5748032,"rh":false},{"note":39,"duration":0.25,"velocity":0.5433071,"rh":false}]},{"acorde":[{"note":48,"duration":0.25,"velocity":0.511811,"rh":false},{"note":44,"duration":0.25,"velocity":0.5511811,"rh":false}]},{"acorde":[{"note":51,"duration":0.25,"velocity":0.519685,"rh":false},{"note":39,"duration":0.25,"velocity":0.496063,"rh":false}]},{"acorde":[{"note":58,"duration":1,"velocity":0.6614173,"rh":true},{"note":46,"duration":0.25,"velocity":0.4488189,"rh":false},{"note":43,"duration":0.25,"velocity":0.496063,"rh":false},{"note":37,"duration":1,"velocity":0.480315,"rh":false}]},{"acorde":[{"note":51,"duration":0.25,"velocity":0.496063,"rh":false},{"note":39,"duration":0.25,"velocity":0.4645669,"rh":false}]},{"acorde":[{"note":46,"duration":0.25,"velocity":0.4566929,"rh":false},{"note":43,"duration":0.25,"velocity":0.496063,"rh":false}]},{"acorde":[{"note":51,"duration":0.25,"velocity":0.4173228,"rh":false},{"note":39,"duration":0.25,"velocity":0.3858268,"rh":false}]},{"acorde":[{"note":63,"duration":1.5,"velocity":0.6614173,"rh":true},{"note":51,"duration":0.25,"velocity":0.488189,"rh":false},{"note":44,"duration":0.25,"velocity":0.503937,"rh":false},{"note":36,"duration":1,"velocity":0.480315,"rh":false}]},{"acorde":[{"note":56,"duration":0.25,"velocity":0.519685,"rh":false},{"note":39,"duration":0.25,"velocity":0.4645669,"rh":false}]},{"acorde":[{"note":51,"duration":0.25,"velocity":0.4645669,"rh":false},{"note":44,"duration":0.25,"velocity":0.503937,"rh":false}]},{"acorde":[{"note":56,"duration":0.25,"velocity":0.503937,"rh":false},{"note":39,"duration":0.25,"velocity":0.4645669,"rh":false}]},{"acorde":[{"note":51,"duration":0.25,"velocity":0.4566929,"rh":false},{"note":43,"duration":0.25,"velocity":0.496063,"rh":false},{"note":31,"duration":1,"velocity":0.480315,"rh":false}]},{"acorde":[{"note":58,"duration":0.25,"velocity":0.511811,"rh":false},{"note":39,"duration":0.25,"velocity":0.4645669,"rh":false}]},{"acorde":[{"note":61,"duration":0.5,"velocity":0.6614173,"rh":true},{"note":51,"duration":0.25,"velocity":0.4566929,"rh":false},{"note":43,"duration":0.25,"velocity":0.496063,"rh":false}]},{"acorde":[{"note":58,"duration":0.25,"velocity":0.511811,"rh":false},{"note":39,"duration":0.25,"velocity":0.4645669,"rh":false}]},{"acorde":[{"note":60,"duration":0.5,"velocity":0.7007874,"rh":true},{"note":51,"duration":0.25,"velocity":0.4488189,"rh":false},{"note":44,"duration":0.25,"velocity":0.503937,"rh":false},{"note":32,"duration":0.5,"velocity":0.480315,"rh":false}]},{"acorde":[{"note":56,"duration":0.25,"velocity":0.511811,"rh":false},{"note":39,"duration":0.25,"velocity":0.480315,"rh":false}]},{"acorde":[{"note":63,"duration":0.5,"velocity":0.7795275,"rh":true},{"note":51,"duration":0.25,"velocity":0.496063,"rh":false},{"note":43,"duration":0.25,"velocity":0.5354331,"rh":false},{"note":31,"duration":0.5,"velocity":0.480315,"rh":false}]},{"acorde":[{"note":58,"duration":0.25,"velocity":0.5748032,"rh":false},{"note":39,"duration":0.25,"velocity":0.519685,"rh":false}]},{"acorde":[{"note":68,"duration":0.5,"velocity":0.7952756,"rh":true},{"note":56,"duration":0.25,"velocity":0.5669292,"rh":false},{"note":41,"duration":0.25,"velocity":0.5669292,"rh":false},{"note":29,"duration":0.5,"velocity":0.480315,"rh":false}]},{"acorde":[{"note":60,"duration":0.25,"velocity":0.5905512,"rh":false},{"note":32,"duration":0.25,"velocity":0.527559,"rh":false}]},{"acorde":[{"note":70,"duration":0.5,"velocity":0.7795275,"rh":true},{"note":56,"duration":0.25,"velocity":0.5433071,"rh":false},{"note":41,"duration":0.25,"velocity":0.5905512,"rh":false},{"note":29,"duration":0.5,"velocity":0.480315,"rh":false}]},{"acorde":[{"note":62,"duration":0.25,"velocity":0.5984252,"rh":false},{"note":32,"duration":0.25,"velocity":0.5354331,"rh":false}]},{"acorde":[{"note":63,"duration":1.5,"velocity":0.7480315,"rh":true},{"note":55,"duration":0.25,"velocity":0.4488189,"rh":false},{"note":27,"duration":0.25,"velocity":0.4566929,"rh":false}]},{"acorde":[{"note":58,"duration":0.25,"velocity":0.480315,"rh":false},{"note":31,"duration":0.25,"velocity":0.480315,"rh":false}]},{"acorde":[{"note":55,"duration":0.25,"velocity":0.4409449,"rh":false},{"note":34,"duration":0.25,"velocity":0.472441,"rh":false}]},{"acorde":[{"note":58,"duration":0.25,"velocity":0.4409449,"rh":false},{"note":39,"duration":0.25,"velocity":0.4645669,"rh":false}]},{"acorde":[{"note":55,"duration":0.25,"velocity":0.4015748,"rh":false},{"note":43,"duration":0.25,"velocity":0.4488189,"rh":false}]},{"acorde":[{"note":58,"duration":0.25,"velocity":0.3937008,"rh":false},{"note":46,"duration":0.25,"velocity":0.4173228,"rh":false}]},{"acorde":[{"note":64,"duration":0.5,"velocity":0.6614173,"rh":true},{"note":55,"duration":0.25,"velocity":0.3543307,"rh":false},{"note":43,"duration":0.25,"velocity":0.3622047,"rh":false}]},{"acorde":[{"note":58,"duration":0.25,"velocity":0.3464567,"rh":false},{"note":46,"duration":0.25,"velocity":0.3464567,"rh":false}]},{"acorde":[{"note":65,"duration":1,"velocity":0.6614173,"rh":true},{"note":55,"duration":0.25,"velocity":0.4645669,"rh":false},{"note":25,"duration":0.25,"velocity":0.4409449,"rh":false}]},{"acorde":[{"note":58,"duration":0.25,"velocity":0.496063,"rh":false},{"note":31,"duration":0.25,"velocity":0.4645669,"rh":false}]},{"acorde":[{"note":55,"duration":0.25,"velocity":0.4645669,"rh":false},{"note":34,"duration":0.25,"velocity":0.488189,"rh":false}]},{"acorde":[{"note":58,"duration":0.25,"velocity":0.496063,"rh":false},{"note":37,"duration":0.25,"velocity":0.503937,"rh":false}]},{"acorde":[{"note":58,"duration":0.75,"velocity":0.6535433,"rh":true},{"note":55,"duration":0.25,"velocity":0.4645669,"rh":false},{"note":43,"duration":0.25,"velocity":0.527559,"rh":false}]},{"acorde":[{"note":51,"duration":0.25,"velocity":0.4488189,"rh":false},{"note":46,"duration":0.25,"velocity":0.527559,"rh":false}]},{"acorde":[{"note":55,"duration":0.25,"velocity":0.488189,"rh":false},{"note":43,"duration":0.25,"velocity":0.480315,"rh":false}]},{"acorde":[{"note":60,"duration":0.125,"velocity":0.6614173,"rh":true},{"note":51,"duration":0.25,"velocity":0.4566929,"rh":false},{"note":37,"duration":0.25,"velocity":0.4488189,"rh":false}]},{"acorde":[{"note":61,"duration":0.125,"velocity":0.6692913,"rh":true}]},{"acorde":[{"note":63,"duration":1,"velocity":0.6850393,"rh":true},{"note":56,"duration":0.25,"velocity":0.503937,"rh":false},{"note":36,"duration":0.25,"velocity":0.4566929,"rh":false}]},{"acorde":[{"note":51,"duration":0.25,"velocity":0.4251969,"rh":false},{"note":39,"duration":0.25,"velocity":0.4409449,"rh":false}]},{"acorde":[{"note":56,"duration":0.25,"velocity":0.4173228,"rh":false},{"note":36,"duration":0.25,"velocity":0.3937008,"rh":false}]},{"acorde":[{"note":51,"duration":0.25,"velocity":0.3385827,"rh":false},{"note":39,"duration":0.25,"velocity":0.3622047,"rh":false}]},{"acorde":[{"note":57,"duration":1,"velocity":0.5511811,"rh":true},{"note":51,"duration":0.25,"velocity":0.4645669,"rh":false},{"note":36,"duration":0.25,"velocity":0.472441,"rh":false},{"note":29,"duration":1,"velocity":0.480315,"rh":false}]},{"acorde":[{"note":48,"duration":0.25,"velocity":0.4566929,"rh":false},{"note":41,"duration":0.25,"velocity":0.503937,"rh":false}]},{"acorde":[{"note":51,"duration":0.25,"velocity":0.4330709,"rh":false},{"note":36,"duration":0.25,"velocity":0.4094488,"rh":false}]},{"acorde":[{"note":48,"duration":0.25,"velocity":0.3622047,"rh":false},{"note":41,"duration":0.25,"velocity":0.3858268,"rh":false}]},{"acorde":[{"note":61,"duration":1,"velocity":0.6614173,"rh":true},{"note":53,"duration":0.25,"velocity":0.503937,"rh":false},{"note":37,"duration":0.25,"velocity":0.472441,"rh":false},{"note":34,"duration":1,"velocity":0.480315,"rh":false}]},{"acorde":[{"note":49,"duration":0.25,"velocity":0.4645669,"rh":false},{"note":41,"duration":0.25,"velocity":0.496063,"rh":false}]},{"acorde":[{"note":53,"duration":0.25,"velocity":0.496063,"rh":false},{"note":37,"duration":0.25,"velocity":0.4645669,"rh":false}]},{"acorde":[{"note":49,"duration":0.25,"velocity":0.4251969,"rh":false},{"note":41,"duration":0.25,"velocity":0.4566929,"rh":false}]},{"acorde":[{"note":60,"duration":0.25,"velocity":0.6614173,"rh":true},{"note":49,"duration":0.25,"velocity":0.3937008,"rh":false},{"note":34,"duration":0.25,"velocity":0.3858268,"rh":false},{"note":27,"duration":1,"velocity":0.480315,"rh":false}]},{"acorde":[{"note":58,"duration":0.25,"velocity":0.6535433,"rh":true},{"note":49,"duration":0.25,"velocity":0.3543307,"rh":false},{"note":39,"duration":0.25,"velocity":0.3622047,"rh":false}]},{"acorde":[{"note":56,"duration":0.25,"velocity":0.5826772,"rh":true},{"note":49,"duration":0.25,"velocity":0.3070866,"rh":false},{"note":34,"duration":0.25,"velocity":0.2992126,"rh":false}]},{"acorde":[{"note":55,"duration":0.25,"velocity":0.519685,"rh":true},{"note":49,"duration":0.25,"velocity":0.3070866,"rh":false},{"note":39,"duration":0.25,"velocity":0.3228346,"rh":false}]},{"acorde":[{"note":100,"duration":0,"velocity":25,"rh":false},{"note":58,"duration":1,"velocity":0.488189,"rh":true},{"note":49,"duration":0.25,"velocity":0.480315,"rh":false},{"note":32,"duration":1.5,"velocity":0.480315,"rh":false}]},{"acorde":[{"note":51,"duration":0.25,"velocity":0.496063,"rh":false},{"note":39,"duration":0.25,"velocity":0.488189,"rh":false}]},{"acorde":[{"note":100,"duration":0,"velocity":21,"rh":false},{"note":49,"duration":0.25,"velocity":0.4173228,"rh":false},{"note":43,"duration":0.25,"velocity":0.4409449,"rh":false}]},{"acorde":[{"note":51,"duration":0.25,"velocity":0.3779528,"rh":false},{"note":39,"duration":0.25,"velocity":0.3622047,"rh":false}]},{"acorde":[{"note":56,"duration":0.75,"velocity":0.480315,"rh":true},{"note":48,"duration":0.5,"velocity":0.2992126,"rh":false},{"note":44,"duration":0.5,"velocity":0.3228346,"rh":false}]},{"acorde":[{"note":0,"duration":0.25,"velocity":0.480315,"rh":false}]}]}