{"Secuencia": [{"title":"Prelude in C Major"},{"acorde":[{"note": 100, "duration":0,"velocity": 55,"rh": false}]},{"acorde":[{ "note": 48, "duration":2, "velocity": 0.5984252, "rh": false},{ "note": 0, "duration":0.25, "velocity": 0.7, "rh": false}]},{"acorde":[{ "note": 52, "duration":1.75, "velocity": 0.7716535, "rh": false},{ "note": 0, "duration":0.25, "velocity": 0.7, "rh": false}]},{"acorde":[{ "note": 55, "duration":0.25, "velocity": 0.7716535, "rh": true}]},{"acorde":[{ "note": 60, "duration":0.25, "velocity": 0.7952756, "rh": true}]},{"acorde":[{ "note": 64, "duration":0.25, "velocity": 0.8346457, "rh": true}]},{"acorde":[{ "note": 55, "duration":0.25, "velocity": 0.6929134, "rh": true}]},{"acorde":[{ "note": 60, "duration":0.25, "velocity": 0.7952756, "rh": true}]},{"acorde":[{ "note": 64, "duration":0.25, "velocity": 0.8582677, "rh": true}]},{"acorde":[{ "note": 48, "duration":2, "velocity": 0.5984252, "rh": false},{ "note": 0, "duration":0.25, "velocity": 0.7, "rh": false}]},{"acorde":[{ "note": 52, "duration":1.75, "velocity": 0.7716535, "rh": false},{ "note": 0, "duration":0.25, "velocity": 0.7, "rh": false}]},{"acorde":[{ "note": 55, "duration":0.25, "velocity": 0.7086614, "rh": true}]},{"acorde":[{ "note": 60, "duration":0.25, "velocity": 0.7952756, "rh": true}]},{"acorde":[{ "note": 64, "duration":0.25, "velocity": 0.8503937, "rh": true}]},{"acorde":[{ "note": 55, "duration":0.25, "velocity": 0.6850393, "rh": true}]},{"acorde":[{ "note": 60, "duration":0.25, "velocity": 0.7952756, "rh": true}]},{"acorde":[{ "note": 64, "duration":0.25, "velocity": 0.8582677, "rh": true}]},{"acorde":[{ "note": 48, "duration":2, "velocity": 0.5984252, "rh": false},{ "note": 0, "duration":0.25, "velocity": 0.7, "rh": false}]},{"acorde":[{ "note": 50, "duration":1.75, "velocity": 0.7716535, "rh": false},{ "note": 0, "duration":0.25, "velocity": 0.7, "rh": false}]},{"acorde":[{ "note": 57, "duration":0.25, "velocity": 0.7244095, "rh": true}]},{"acorde":[{ "note": 62, "duration":0.25, "velocity": 0.8110236, "rh": true}]},{"acorde":[{ "note": 65, "duration":0.25, "velocity": 0.8425197, "rh": true}]},{"acorde":[{ "note": 57, "duration":0.25, "velocity": 0.6929134, "rh": true}]},{"acorde":[{ "note": 62, "duration":0.25, "velocity": 0.8031496, "rh": true}]},{"acorde":[{ "note": 65, "duration":0.25, "velocity": 0.8503937, "rh": true}]},{"acorde":[{ "note": 48, "duration":2, "velocity": 0.5984252, "rh": false},{ "note": 0, "duration":0.25, "velocity": 0.7, "rh": false}]},{"acorde":[{ "note": 50, "duration":1.75, "velocity": 0.7716535, "rh": false},{ "note": 0, "duration":0.25, "velocity": 0.7, "rh": false}]},{"acorde":[{ "note": 57, "duration":0.25, "velocity": 0.7086614, "rh": true}]},{"acorde":[{ "note": 62, "duration":0.25, "velocity": 0.7952756, "rh": true}]},{"acorde":[{ "note": 65, "duration":0.25, "velocity": 0.8346457, "rh": true}]},{"acorde":[{ "note": 57, "duration":0.25, "velocity": 0.6850393, "rh": true}]},{"acorde":[{ "note": 62, "duration":0.25, "velocity": 0.7952756, "rh": true}]},{"acorde":[{ "note": 65, "duration":0.25, "velocity": 0.8503937, "rh": true}]},{"acorde":[{ "note": 47, "duration":2, "velocity": 0.5984252, "rh": false},{ "note": 0, "duration":0.25, "velocity": 0.7, "rh": false}]},{"acorde":[{ "note": 50, "duration":1.75, "velocity": 0.7716535, "rh": false},{ "note": 0, "duration":0.25, "velocity": 0.7, "rh": false}]},{"acorde":[{ "note": 55, "duration":0.25, "velocity": 0.6929134, "rh": true}]},{"acorde":[{ "note": 62, "duration":0.25, "velocity": 0.8110236, "rh": true}]},{"acorde":[{ "note": 65, "duration":0.25, "velocity": 0.8425197, "rh": true}]},{"acorde":[{ "note": 55, "duration":0.25, "velocity": 0.6771653, "rh": true}]},{"acorde":[{ "note": 62, "duration":0.25, "velocity": 0.8110236, "rh": true}]},{"acorde":[{ "note": 65, "duration":0.25, "velocity": 0.8582677, "rh": true}]},{"acorde":[{ "note": 47, "duration":2, "velocity": 0.5984252, "rh": false},{ "note": 0, "duration":0.25, "velocity": 0.7, "rh": false}]},{"acorde":[{ "note": 50, "duration":1.75, "velocity": 0.7716535, "rh": false},{ "note": 0, "duration":0.25, "velocity": 0.7, "rh": false}]},{"acorde":[{ "note": 55, "duration":0.25, "velocity": 0.6929134, "rh": true}]},{"acorde":[{ "note": 62, "duration":0.25, "velocity": 0.8110236, "rh": true}]},{"acorde":[{ "note": 65, "duration":0.25, "velocity": 0.8503937, "rh": true}]},{"acorde":[{ "note": 55, "duration":0.25, "velocity": 0.6771653, "rh": true}]},{"acorde":[{ "note": 62, "duration":0.25, "velocity": 0.8110236, "rh": true}]},{"acorde":[{ "note": 65, "duration":0.25, "velocity": 0.8582677, "rh": true}]},{"acorde":[{ "note": 48, "duration":2, "velocity": 0.5984252, "rh": false},{ "note": 0, "duration":0.25, "velocity": 0.7, "rh": false}]},{"acorde":[{ "note": 52, "duration":1.75, "velocity": 0.7716535, "rh": false},{ "note": 0, "duration":0.25, "velocity": 0.7, "rh": false}]},{"acorde":[{ "note": 55, "duration":0.25, "velocity": 0.6929134, "rh": true}]},{"acorde":[{ "note": 60, "duration":0.25, "velocity": 0.7795275, "rh": true}]},{"acorde":[{ "note": 64, "duration":0.25, "velocity": 0.8425197, "rh": true}]},{"acorde":[{ "note": 55, "duration":0.25, "velocity": 0.6850393, "rh": true}]},{"acorde":[{ "note": 60, "duration":0.25, "velocity": 0.7874016, "rh": true}]},{"acorde":[{ "note": 64, "duration":0.25, "velocity": 0.8582677, "rh": true}]},{"acorde":[{ "note": 48, "duration":2, "velocity": 0.5984252, "rh": false},{ "note": 0, "duration":0.25, "velocity": 0.7, "rh": false}]},{"acorde":[{ "note": 52, "duration":1.75, "velocity": 0.7716535, "rh": false},{ "note": 0, "duration":0.25, "velocity": 0.7, "rh": false}]},{"acorde":[{ "note": 55, "duration":0.25, "velocity": 0.7086614, "rh": true}]},{"acorde":[{ "note": 60, "duration":0.25, "velocity": 0.7952756, "rh": true}]},{"acorde":[{ "note": 64, "duration":0.25, "velocity": 0.8503937, "rh": true}]},{"acorde":[{ "note": 55, "duration":0.25, "velocity": 0.6850393, "rh": true}]},{"acorde":[{ "note": 60, "duration":0.25, "velocity": 0.7952756, "rh": true}]},{"acorde":[{ "note": 64, "duration":0.25, "velocity": 0.8582677, "rh": true}]},{"acorde":[{ "note": 48, "duration":2, "velocity": 0.5984252, "rh": false},{ "note": 0, "duration":0.25, "velocity": 0.7, "rh": false}]},{"acorde":[{ "note": 52, "duration":1.75, "velocity": 0.7716535, "rh": false},{ "note": 0, "duration":0.25, "velocity": 0.7, "rh": false}]},{"acorde":[{ "note": 57, "duration":0.25, "velocity": 0.7244095, "rh": true}]},{"acorde":[{ "note": 64, "duration":0.25, "velocity": 0.8346457, "rh": true}]},{"acorde":[{ "note": 69, "duration":0.25, "velocity": 0.8740157, "rh": true}]},{"acorde":[{ "note": 57, "duration":0.25, "velocity": 0.6771653, "rh": true}]},{"acorde":[{ "note": 64, "duration":0.25, "velocity": 0.8110236, "rh": true}]},{"acorde":[{ "note": 69, "duration":0.25, "velocity": 0.8740157, "rh": true}]},{"acorde":[{ "note": 48, "duration":2, "velocity": 0.5984252, "rh": false},{ "note": 0, "duration":0.25, "velocity": 0.7, "rh": false}]},{"acorde":[{ "note": 52, "duration":1.75, "velocity": 0.7716535, "rh": false},{ "note": 0, "duration":0.25, "velocity": 0.7, "rh": false}]},{"acorde":[{ "note": 57, "duration":0.25, "velocity": 0.6850393, "rh": true}]},{"acorde":[{ "note": 64, "duration":0.25, "velocity": 0.8031496, "rh": true}]},{"acorde":[{ "note": 69, "duration":0.25, "velocity": 0.8582677, "rh": true}]},{"acorde":[{ "note": 57, "duration":0.25, "velocity": 0.6692913, "rh": true}]},{"acorde":[{ "note": 64, "duration":0.25, "velocity": 0.8031496, "rh": true}]},{"acorde":[{ "note": 69, "duration":0.25, "velocity": 0.8740157, "rh": true}]},{"acorde":[{ "note": 48, "duration":0.25, "velocity": 0.5984252, "rh": false}]},{"acorde":[{ "note": 50, "duration":0.25, "velocity": 0.7716535, "rh": false}]},{"acorde":[{ "note": 54, "duration":0.25, "velocity": 0.7165354, "rh": true}]},{"acorde":[{ "note": 57, "duration":0.25, "velocity": 0.7874016, "rh": true}]},{"acorde":[{ "note": 62, "duration":0.25, "velocity": 0.8740157, "rh": true}]},{"acorde":[{ "note": 54, "duration":0.25, "velocity": 0.7007874, "rh": true}]},{"acorde":[{ "note": 57, "duration":0.25, "velocity": 0.7874016, "rh": true}]},{"acorde":[{ "note": 62, "duration":0.25, "velocity": 0.8661417, "rh": true}]},{"acorde":[{ "note": 48, "duration":0.25, "velocity": 0.5984252, "rh": false}]},{"acorde":[{ "note": 50, "duration":0.25, "velocity": 0.7716535, "rh": false}]},{"acorde":[{ "note": 54, "duration":0.25, "velocity": 0.7716535, "rh": true}]},{"acorde":[{ "note": 57, "duration":0.25, "velocity": 0.8425197, "rh": true}]},{"acorde":[{ "note": 62, "duration":0.25, "velocity": 0.8818898, "rh": true}]},{"acorde":[{ "note": 54, "duration":0.25, "velocity": 0.7165354, "rh": true}]},{"acorde":[{ "note": 57, "duration":0.25, "velocity": 0.7952756, "rh": true}]},{"acorde":[{ "note": 62, "duration":0.25, "velocity": 0.8740157, "rh": true}]},{"acorde":[{ "note": 47, "duration":2, "velocity": 0.5984252, "rh": false},{ "note": 0, "duration":0.25, "velocity": 0.7, "rh": false}]},{"acorde":[{ "note": 50, "duration":1.75, "velocity": 0.7716535, "rh": false},{ "note": 0, "duration":0.25, "velocity": 0.7, "rh": false}]},{"acorde":[{ "note": 55, "duration":0.25, "velocity": 0.7322835, "rh": true}]},{"acorde":[{ "note": 62, "duration":0.25, "velocity": 0.8346457, "rh": true}]},{"acorde":[{ "note": 67, "duration":0.25, "velocity": 0.8740157, "rh": true}]},{"acorde":[{ "note": 55, "duration":0.25, "velocity": 0.6771653, "rh": true}]},{"acorde":[{ "note": 62, "duration":0.25, "velocity": 0.8110236, "rh": true}]},{"acorde":[{ "note": 67, "duration":0.25, "velocity": 0.8740157, "rh": true}]},{"acorde":[{ "note": 47, "duration":2, "velocity": 0.5984252, "rh": false},{ "note": 0, "duration":0.25, "velocity": 0.7, "rh": false}]},{"acorde":[{ "note": 50, "duration":1.75, "velocity": 0.7716535, "rh": false},{ "note": 0, "duration":0.25, "velocity": 0.7, "rh": false}]},{"acorde":[{ "note": 55, "duration":0.25, "velocity": 0.6850393, "rh": true}]},{"acorde":[{ "note": 62, "duration":0.25, "velocity": 0.8031496, "rh": true}]},{"acorde":[{ "note": 67, "duration":0.25, "velocity": 0.8582677, "rh": true}]},{"acorde":[{ "note": 55, "duration":0.25, "velocity": 0.6692913, "rh": true}]},{"acorde":[{ "note": 62, "duration":0.25, "velocity": 0.8031496, "rh": true}]},{"acorde":[{ "note": 67, "duration":0.25, "velocity": 0.8740157, "rh": true}]},{"acorde":[{ "note": 47, "duration":2, "velocity": 0.5984252, "rh": false},{ "note": 0, "duration":0.25, "velocity": 0.7, "rh": false}]},{"acorde":[{ "note": 48, "duration":1.75, "velocity": 0.7716535, "rh": false},{ "note": 0, "duration":0.25, "velocity": 0.7, "rh": false}]},{"acorde":[{ "note": 52, "duration":0.25, "velocity": 0.6771653, "rh": true}]},{"acorde":[{ "note": 55, "duration":0.25, "velocity": 0.7244095, "rh": true}]},{"acorde":[{ "note": 60, "duration":0.25, "velocity": 0.8188977, "rh": true}]},{"acorde":[{ "note": 52, "duration":0.25, "velocity": 0.6850393, "rh": true}]},{"acorde":[{ "note": 55, "duration":0.25, "velocity": 0.7559055, "rh": true}]},{"acorde":[{ "note": 60, "duration":0.25, "velocity": 0.8582677, "rh": true}]},{"acorde":[{ "note": 47, "duration":2, "velocity": 0.5984252, "rh": false},{ "note": 0, "duration":0.25, "velocity": 0.7, "rh": false}]},{"acorde":[{ "note": 48, "duration":1.75, "velocity": 0.7716535, "rh": false},{ "note": 0, "duration":0.25, "velocity": 0.7, "rh": false}]},{"acorde":[{ "note": 52, "duration":0.25, "velocity": 0.7165354, "rh": true}]},{"acorde":[{ "note": 55, "duration":0.25, "velocity": 0.7716535, "rh": true}]},{"acorde":[{ "note": 60, "duration":0.25, "velocity": 0.8503937, "rh": true}]},{"acorde":[{ "note": 52, "duration":0.25, "velocity": 0.6929134, "rh": true}]},{"acorde":[{ "note": 55, "duration":0.25, "velocity": 0.7716535, "rh": true}]},{"acorde":[{ "note": 60, "duration":0.25, "velocity": 0.8582677, "rh": true}]},{"acorde":[{ "note": 45, "duration":2, "velocity": 0.5984252, "rh": false},{ "note": 0, "duration":0.25, "velocity": 0.7, "rh": false}]},{"acorde":[{ "note": 48, "duration":1.75, "velocity": 0.7716535, "rh": false},{ "note": 0, "duration":0.25, "velocity": 0.7, "rh": false}]},{"acorde":[{ "note": 52, "duration":0.25, "velocity": 0.7165354, "rh": true}]},{"acorde":[{ "note": 55, "duration":0.25, "velocity": 0.7716535, "rh": true}]},{"acorde":[{ "note": 60, "duration":0.25, "velocity": 0.8503937, "rh": true}]},{"acorde":[{ "note": 52, "duration":0.25, "velocity": 0.6929134, "rh": true}]},{"acorde":[{ "note": 55, "duration":0.25, "velocity": 0.7716535, "rh": true}]},{"acorde":[{ "note": 60, "duration":0.25, "velocity": 0.8582677, "rh": true}]},{"acorde":[{ "note": 45, "duration":2, "velocity": 0.5984252, "rh": false},{ "note": 0, "duration":0.25, "velocity": 0.7, "rh": false}]},{"acorde":[{ "note": 48, "duration":1.75, "velocity": 0.7716535, "rh": false},{ "note": 0, "duration":0.25, "velocity": 0.7, "rh": false}]},{"acorde":[{ "note": 52, "duration":0.25, "velocity": 0.7165354, "rh": true}]},{"acorde":[{ "note": 55, "duration":0.25, "velocity": 0.7716535, "rh": true}]},{"acorde":[{ "note": 60, "duration":0.25, "velocity": 0.8503937, "rh": true}]},{"acorde":[{ "note": 52, "duration":0.25, "velocity": 0.6929134, "rh": true}]},{"acorde":[{ "note": 55, "duration":0.25, "velocity": 0.7716535, "rh": true}]},{"acorde":[{ "note": 60, "duration":0.25, "velocity": 0.8582677, "rh": true}]},{"acorde":[{ "note": 38, "duration":2, "velocity": 0.5984252, "rh": false},{ "note": 0, "duration":0.25, "velocity": 0.7, "rh": false}]},{"acorde":[{ "note": 45, "duration":1.75, "velocity": 0.7716535, "rh": false},{ "note": 0, "duration":0.25, "velocity": 0.7, "rh": false}]},{"acorde":[{ "note": 50, "duration":0.25, "velocity": 0.6929134, "rh": true}]},{"acorde":[{ "note": 54, "duration":0.25, "velocity": 0.7716535, "rh": true}]},{"acorde":[{ "note": 60, "duration":0.25, "velocity": 0.8582677, "rh": true}]},{"acorde":[{ "note": 50, "duration":0.25, "velocity": 0.6850393, "rh": true}]},{"acorde":[{ "note": 54, "duration":0.25, "velocity": 0.7716535, "rh": true}]},{"acorde":[{ "note": 60, "duration":0.25, "velocity": 0.8661417, "rh": true}]},{"acorde":[{ "note": 38, "duration":2, "velocity": 0.5984252, "rh": false},{ "note": 0, "duration":0.25, "velocity": 0.7, "rh": false}]},{"acorde":[{ "note": 45, "duration":1.75, "velocity": 0.7716535, "rh": false},{ "note": 0, "duration":0.25, "velocity": 0.7, "rh": false}]},{"acorde":[{ "note": 50, "duration":0.25, "velocity": 0.7007874, "rh": true}]},{"acorde":[{ "note": 54, "duration":0.25, "velocity": 0.7795275, "rh": true}]},{"acorde":[{ "note": 60, "duration":0.25, "velocity": 0.8582677, "rh": true}]},{"acorde":[{ "note": 50, "duration":0.25, "velocity": 0.6850393, "rh": true}]},{"acorde":[{ "note": 54, "duration":0.25, "velocity": 0.7716535, "rh": true}]},{"acorde":[{ "note": 60, "duration":0.25, "velocity": 0.8661417, "rh": true}]},{"acorde":[{ "note": 43, "duration":2, "velocity": 0.5984252, "rh": false},{ "note": 0, "duration":0.25, "velocity": 0.7, "rh": false}]},{"acorde":[{ "note": 47, "duration":1.75, "velocity": 0.7716535, "rh": false},{ "note": 0, "duration":0.25, "velocity": 0.7, "rh": false}]},{"acorde":[{ "note": 50, "duration":0.25, "velocity": 0.7007874, "rh": true}]},{"acorde":[{ "note": 55, "duration":0.25, "velocity": 0.7874016, "rh": true}]},{"acorde":[{ "note": 59, "duration":0.25, "velocity": 0.8503937, "rh": true}]},{"acorde":[{ "note": 50, "duration":0.25, "velocity": 0.6850393, "rh": true}]},{"acorde":[{ "note": 55, "duration":0.25, "velocity": 0.7874016, "rh": true}]},{"acorde":[{ "note": 59, "duration":0.25, "velocity": 0.8582677, "rh": true}]},{"acorde":[{ "note": 43, "duration":2, "velocity": 0.5984252, "rh": false},{ "note": 0, "duration":0.25, "velocity": 0.7, "rh": false}]},{"acorde":[{ "note": 47, "duration":1.75, "velocity": 0.7716535, "rh": false},{ "note": 0, "duration":0.25, "velocity": 0.7, "rh": false}]},{"acorde":[{ "note": 50, "duration":0.25, "velocity": 0.7086614, "rh": true}]},{"acorde":[{ "note": 55, "duration":0.25, "velocity": 0.7952756, "rh": true}]},{"acorde":[{ "note": 59, "duration":0.25, "velocity": 0.8503937, "rh": true}]},{"acorde":[{ "note": 50, "duration":0.25, "velocity": 0.6850393, "rh": true}]},{"acorde":[{ "note": 55, "duration":0.25, "velocity": 0.7952756, "rh": true}]},{"acorde":[{ "note": 59, "duration":0.25, "velocity": 0.8582677, "rh": true}]},{"acorde":[{ "note": 43, "duration":2, "velocity": 0.5984252, "rh": false},{ "note": 0, "duration":0.25, "velocity": 0.7, "rh": false}]},{"acorde":[{ "note": 46, "duration":1.75, "velocity": 0.7716535, "rh": false},{ "note": 0, "duration":0.25, "velocity": 0.7, "rh": false}]},{"acorde":[{ "note": 52, "duration":0.25, "velocity": 0.7244095, "rh": true}]},{"acorde":[{ "note": 55, "duration":0.25, "velocity": 0.7795275, "rh": true}]},{"acorde":[{ "note": 61, "duration":0.25, "velocity": 0.8582677, "rh": true}]},{"acorde":[{ "note": 52, "duration":0.25, "velocity": 0.6929134, "rh": true}]},{"acorde":[{ "note": 55, "duration":0.25, "velocity": 0.7637795, "rh": true}]},{"acorde":[{ "note": 61, "duration":0.25, "velocity": 0.8661417, "rh": true}]},{"acorde":[{ "note": 43, "duration":2, "velocity": 0.5984252, "rh": false},{ "note": 0, "duration":0.25, "velocity": 0.7, "rh": false}]},{"acorde":[{ "note": 46, "duration":1.75, "velocity": 0.7716535, "rh": false},{ "note": 0, "duration":0.25, "velocity": 0.7, "rh": false}]},{"acorde":[{ "note": 52, "duration":0.25, "velocity": 0.7165354, "rh": true}]},{"acorde":[{ "note": 55, "duration":0.25, "velocity": 0.7716535, "rh": true}]},{"acorde":[{ "note": 61, "duration":0.25, "velocity": 0.8582677, "rh": true}]},{"acorde":[{ "note": 52, "duration":0.25, "velocity": 0.6929134, "rh": true}]},{"acorde":[{ "note": 55, "duration":0.25, "velocity": 0.7637795, "rh": true}]},{"acorde":[{ "note": 61, "duration":0.25, "velocity": 0.8661417, "rh": true}]},{"acorde":[{ "note": 41, "duration":2, "velocity": 0.5984252, "rh": false},{ "note": 0, "duration":0.25, "velocity": 0.7, "rh": false}]},{"acorde":[{ "note": 45, "duration":1.75, "velocity": 0.7716535, "rh": false},{ "note": 0, "duration":0.25, "velocity": 0.7, "rh": false}]},{"acorde":[{ "note": 50, "duration":0.25, "velocity": 0.6929134, "rh": true}]},{"acorde":[{ "note": 57, "duration":0.25, "velocity": 0.8110236, "rh": true}]},{"acorde":[{ "note": 62, "duration":0.25, "velocity": 0.8661417, "rh": true}]},{"acorde":[{ "note": 50, "duration":0.25, "velocity": 0.6692913, "rh": true}]},{"acorde":[{ "note": 57, "duration":0.25, "velocity": 0.8031496, "rh": true}]},{"acorde":[{ "note": 62, "duration":0.25, "velocity": 0.8740157, "rh": true}]},{"acorde":[{ "note": 41, "duration":2, "velocity": 0.5984252, "rh": false},{ "note": 0, "duration":0.25, "velocity": 0.7, "rh": false}]},{"acorde":[{ "note": 45, "duration":1.75, "velocity": 0.7637795, "rh": false},{ "note": 0, "duration":0.25, "velocity": 0.7, "rh": false}]},{"acorde":[{ "note": 50, "duration":0.25, "velocity": 0.6692913, "rh": true}]},{"acorde":[{ "note": 57, "duration":0.25, "velocity": 0.7716535, "rh": true}]},{"acorde":[{ "note": 62, "duration":0.25, "velocity": 0.8110236, "rh": true}]},{"acorde":[{ "note": 50, "duration":0.25, "velocity": 0.6141732, "rh": true}]},{"acorde":[{ "note": 57, "duration":0.25, "velocity": 0.7322835, "rh": true}]},{"acorde":[{ "note": 62, "duration":0.25, "velocity": 0.7716535, "rh": true}]},{"acorde":[{ "note": 41, "duration":2, "velocity": 0.5590551, "rh": false},{ "note": 0, "duration":0.25, "velocity": 0.7, "rh": false}]},{"acorde":[{ "note": 44, "duration":1.75, "velocity": 0.6614173, "rh": false},{ "note": 0, "duration":0.25, "velocity": 0.7, "rh": false}]},{"acorde":[{ "note": 50, "duration":0.25, "velocity": 0.5905512, "rh": true}]},{"acorde":[{ "note": 53, "duration":0.25, "velocity": 0.6377953, "rh": true}]},{"acorde":[{ "note": 59, "duration":0.25, "velocity": 0.7244095, "rh": true}]},{"acorde":[{ "note": 50, "duration":0.25, "velocity": 0.5905512, "rh": true}]},{"acorde":[{ "note": 53, "duration":0.25, "velocity": 0.6456693, "rh": true}]},{"acorde":[{ "note": 59, "duration":0.25, "velocity": 0.7401575, "rh": true}]},{"acorde":[{ "note": 41, "duration":2, "velocity": 0.5590551, "rh": false},{ "note": 0, "duration":0.25, "velocity": 0.7, "rh": false}]},{"acorde":[{ "note": 44, "duration":1.75, "velocity": 0.6614173, "rh": false},{ "note": 0, "duration":0.25, "velocity": 0.7, "rh": false}]},{"acorde":[{ "note": 50, "duration":0.25, "velocity": 0.6141732, "rh": true}]},{"acorde":[{ "note": 53, "duration":0.25, "velocity": 0.6614173, "rh": true}]},{"acorde":[{ "note": 59, "duration":0.25, "velocity": 0.7322835, "rh": true}]},{"acorde":[{ "note": 50, "duration":0.25, "velocity": 0.5905512, "rh": true}]},{"acorde":[{ "note": 53, "duration":0.25, "velocity": 0.6535433, "rh": true}]},{"acorde":[{ "note": 59, "duration":0.25, "velocity": 0.7401575, "rh": true}]},{"acorde":[{ "note": 40, "duration":2, "velocity": 0.5590551, "rh": false},{ "note": 0, "duration":0.25, "velocity": 0.7, "rh": false}]},{"acorde":[{ "note": 43, "duration":1.75, "velocity": 0.7716535, "rh": false},{ "note": 0, "duration":0.25, "velocity": 0.7, "rh": false}]},{"acorde":[{ "note": 48, "duration":0.25, "velocity": 0.6929134, "rh": true}]},{"acorde":[{ "note": 55, "duration":0.25, "velocity": 0.8110236, "rh": true}]},{"acorde":[{ "note": 60, "duration":0.25, "velocity": 0.8661417, "rh": true}]},{"acorde":[{ "note": 48, "duration":0.25, "velocity": 0.6692913, "rh": true}]},{"acorde":[{ "note": 55, "duration":0.25, "velocity": 0.8031496, "rh": true}]},{"acorde":[{ "note": 60, "duration":0.25, "velocity": 0.8740157, "rh": true}]},{"acorde":[{ "note": 40, "duration":2, "velocity": 0.5590551, "rh": false},{ "note": 0, "duration":0.25, "velocity": 0.7, "rh": false}]},{"acorde":[{ "note": 43, "duration":1.75, "velocity": 0.7637795, "rh": false},{ "note": 0, "duration":0.25, "velocity": 0.7, "rh": false}]},{"acorde":[{ "note": 48, "duration":0.25, "velocity": 0.6692913, "rh": true}]},{"acorde":[{ "note": 55, "duration":0.25, "velocity": 0.7716535, "rh": true}]},{"acorde":[{ "note": 60, "duration":0.25, "velocity": 0.8110236, "rh": true}]},{"acorde":[{ "note": 48, "duration":0.25, "velocity": 0.6141732, "rh": true}]},{"acorde":[{ "note": 55, "duration":0.25, "velocity": 0.7322835, "rh": true}]},{"acorde":[{ "note": 60, "duration":0.25, "velocity": 0.7716535, "rh": true}]},{"acorde":[{ "note": 40, "duration":2, "velocity": 0.480315, "rh": false},{ "note": 0, "duration":0.25, "velocity": 0.7, "rh": false}]},{"acorde":[{ "note": 41, "duration":1.75, "velocity": 0.6614173, "rh": false},{ "note": 0, "duration":0.25, "velocity": 0.7, "rh": false}]},{"acorde":[{ "note": 45, "duration":0.25, "velocity": 0.5826772, "rh": true}]},{"acorde":[{ "note": 48, "duration":0.25, "velocity": 0.6220472, "rh": true}]},{"acorde":[{ "note": 53, "duration":0.25, "velocity": 0.7007874, "rh": true}]},{"acorde":[{ "note": 45, "duration":0.25, "velocity": 0.5905512, "rh": true}]},{"acorde":[{ "note": 48, "duration":0.25, "velocity": 0.6456693, "rh": true}]},{"acorde":[{ "note": 53, "duration":0.25, "velocity": 0.7322835, "rh": true}]},{"acorde":[{ "note": 40, "duration":2, "velocity": 0.480315, "rh": false},{ "note": 0, "duration":0.25, "velocity": 0.7, "rh": false}]},{"acorde":[{ "note": 41, "duration":1.75, "velocity": 0.6614173, "rh": false},{ "note": 0, "duration":0.25, "velocity": 0.7, "rh": false}]},{"acorde":[{ "note": 45, "duration":0.25, "velocity": 0.6141732, "rh": true}]},{"acorde":[{ "note": 48, "duration":0.25, "velocity": 0.6614173, "rh": true}]},{"acorde":[{ "note": 53, "duration":0.25, "velocity": 0.7244095, "rh": true}]},{"acorde":[{ "note": 45, "duration":0.25, "velocity": 0.5984252, "rh": true}]},{"acorde":[{ "note": 48, "duration":0.25, "velocity": 0.6614173, "rh": true}]},{"acorde":[{ "note": 53, "duration":0.25, "velocity": 0.7322835, "rh": true}]},{"acorde":[{ "note": 38, "duration":2, "velocity": 0.480315, "rh": false},{ "note": 0, "duration":0.25, "velocity": 0.7, "rh": false}]},{"acorde":[{ "note": 41, "duration":1.75, "velocity": 0.5590551, "rh": false},{ "note": 0, "duration":0.25, "velocity": 0.7, "rh": false}]},{"acorde":[{ "note": 45, "duration":0.25, "velocity": 0.519685, "rh": true}]},{"acorde":[{ "note": 48, "duration":0.25, "velocity": 0.5590551, "rh": true}]},{"acorde":[{ "note": 53, "duration":0.25, "velocity": 0.6141732, "rh": true}]},{"acorde":[{ "note": 45, "duration":0.25, "velocity": 0.503937, "rh": true}]},{"acorde":[{ "note": 48, "duration":0.25, "velocity": 0.5590551, "rh": true}]},{"acorde":[{ "note": 53, "duration":0.25, "velocity": 0.6220472, "rh": true}]},{"acorde":[{ "note": 38, "duration":2, "velocity": 0.480315, "rh": false},{ "note": 0, "duration":0.25, "velocity": 0.7, "rh": false}]},{"acorde":[{ "note": 41, "duration":1.75, "velocity": 0.5590551, "rh": false},{ "note": 0, "duration":0.25, "velocity": 0.7, "rh": false}]},{"acorde":[{ "note": 45, "duration":0.25, "velocity": 0.519685, "rh": true}]},{"acorde":[{ "note": 48, "duration":0.25, "velocity": 0.5590551, "rh": true}]},{"acorde":[{ "note": 53, "duration":0.25, "velocity": 0.6141732, "rh": true}]},{"acorde":[{ "note": 45, "duration":0.25, "velocity": 0.503937, "rh": true}]},{"acorde":[{ "note": 48, "duration":0.25, "velocity": 0.5590551, "rh": true}]},{"acorde":[{ "note": 53, "duration":0.25, "velocity": 0.6220472, "rh": true}]},{"acorde":[{ "note": 31, "duration":2, "velocity": 0.480315, "rh": false},{ "note": 0, "duration":0.25, "velocity": 0.7, "rh": false}]},{"acorde":[{ "note": 38, "duration":1.75, "velocity": 0.6614173, "rh": false},{ "note": 0, "duration":0.25, "velocity": 0.7, "rh": false}]},{"acorde":[{ "note": 43, "duration":0.25, "velocity": 0.5984252, "rh": true}]},{"acorde":[{ "note": 47, "duration":0.25, "velocity": 0.6614173, "rh": true}]},{"acorde":[{ "note": 53, "duration":0.25, "velocity": 0.7322835, "rh": true}]},{"acorde":[{ "note": 43, "duration":0.25, "velocity": 0.5826772, "rh": true}]},{"acorde":[{ "note": 47, "duration":0.25, "velocity": 0.6614173, "rh": true}]},{"acorde":[{ "note": 53, "duration":0.25, "velocity": 0.7480315, "rh": true}]},{"acorde":[{ "note": 31, "duration":2, "velocity": 0.480315, "rh": false},{ "note": 0, "duration":0.25, "velocity": 0.7, "rh": false}]},{"acorde":[{ "note": 38, "duration":1.75, "velocity": 0.6614173, "rh": false},{ "note": 0, "duration":0.25, "velocity": 0.7, "rh": false}]},{"acorde":[{ "note": 43, "duration":0.25, "velocity": 0.6062992, "rh": true}]},{"acorde":[{ "note": 47, "duration":0.25, "velocity": 0.6692913, "rh": true}]},{"acorde":[{ "note": 53, "duration":0.25, "velocity": 0.7322835, "rh": true}]},{"acorde":[{ "note": 43, "duration":0.25, "velocity": 0.5826772, "rh": true}]},{"acorde":[{ "note": 47, "duration":0.25, "velocity": 0.6614173, "rh": true}]},{"acorde":[{ "note": 53, "duration":0.25, "velocity": 0.7480315, "rh": true}]},{"acorde":[{ "note": 36, "duration":2, "velocity": 0.480315, "rh": false},{ "note": 0, "duration":0.25, "velocity": 0.7, "rh": false}]},{"acorde":[{ "note": 40, "duration":1.75, "velocity": 0.6614173, "rh": false},{ "note": 0, "duration":0.25, "velocity": 0.7, "rh": false}]},{"acorde":[{ "note": 43, "duration":0.25, "velocity": 0.6062992, "rh": true}]},{"acorde":[{ "note": 48, "duration":0.25, "velocity": 0.6771653, "rh": true}]},{"acorde":[{ "note": 52, "duration":0.25, "velocity": 0.7244095, "rh": true}]},{"acorde":[{ "note": 43, "duration":0.25, "velocity": 0.5826772, "rh": true}]},{"acorde":[{ "note": 48, "duration":0.25, "velocity": 0.6771653, "rh": true}]},{"acorde":[{ "note": 52, "duration":0.25, "velocity": 0.7322835, "rh": true}]},{"acorde":[{ "note": 36, "duration":2, "velocity": 0.480315, "rh": false},{ "note": 0, "duration":0.25, "velocity": 0.7, "rh": false}]},{"acorde":[{ "note": 40, "duration":1.75, "velocity": 0.6614173, "rh": false},{ "note": 0, "duration":0.25, "velocity": 0.7, "rh": false}]},{"acorde":[{ "note": 43, "duration":0.25, "velocity": 0.6062992, "rh": true}]},{"acorde":[{ "note": 48, "duration":0.25, "velocity": 0.6771653, "rh": true}]},{"acorde":[{ "note": 52, "duration":0.25, "velocity": 0.7244095, "rh": true}]},{"acorde":[{ "note": 43, "duration":0.25, "velocity": 0.5826772, "rh": true}]},{"acorde":[{ "note": 48, "duration":0.25, "velocity": 0.6771653, "rh": true}]},{"acorde":[{ "note": 52, "duration":0.25, "velocity": 0.7322835, "rh": true}]},{"acorde":[{ "note": 36, "duration":2, "velocity": 0.480315, "rh": false},{ "note": 0, "duration":0.25, "velocity": 0.7, "rh": false}]},{"acorde":[{ "note": 43, "duration":1.75, "velocity": 0.6614173, "rh": false},{ "note": 0, "duration":0.25, "velocity": 0.7, "rh": false}]},{"acorde":[{ "note": 46, "duration":0.25, "velocity": 0.6377953, "rh": true}]},{"acorde":[{ "note": 48, "duration":0.25, "velocity": 0.6614173, "rh": true}]},{"acorde":[{ "note": 52, "duration":0.25, "velocity": 0.7165354, "rh": true}]},{"acorde":[{ "note": 46, "duration":0.25, "velocity": 0.6141732, "rh": true}]},{"acorde":[{ "note": 48, "duration":0.25, "velocity": 0.6535433, "rh": true}]},{"acorde":[{ "note": 52, "duration":0.25, "velocity": 0.7244095, "rh": true}]},{"acorde":[{ "note": 36, "duration":2, "velocity": 0.480315, "rh": false},{ "note": 0, "duration":0.25, "velocity": 0.7, "rh": false}]},{"acorde":[{ "note": 43, "duration":1.75, "velocity": 0.6614173, "rh": false},{ "note": 0, "duration":0.25, "velocity": 0.7, "rh": false}]},{"acorde":[{ "note": 46, "duration":0.25, "velocity": 0.6299213, "rh": true}]},{"acorde":[{ "note": 48, "duration":0.25, "velocity": 0.6614173, "rh": true}]},{"acorde":[{ "note": 52, "duration":0.25, "velocity": 0.7165354, "rh": true}]},{"acorde":[{ "note": 46, "duration":0.25, "velocity": 0.6141732, "rh": true}]},{"acorde":[{ "note": 48, "duration":0.25, "velocity": 0.6535433, "rh": true}]},{"acorde":[{ "note": 52, "duration":0.25, "velocity": 0.7244095, "rh": true}]},{"acorde":[{ "note": 29, "duration":2, "velocity": 0.480315, "rh": false},{ "note": 0, "duration":0.25, "velocity": 0.7, "rh": false}]},{"acorde":[{ "note": 41, "duration":1.75, "velocity": 0.6614173, "rh": false},{ "note": 0, "duration":0.25, "velocity": 0.7, "rh": false}]},{"acorde":[{ "note": 45, "duration":0.25, "velocity": 0.6141732, "rh": true}]},{"acorde":[{ "note": 48, "duration":0.25, "velocity": 0.6614173, "rh": true}]},{"acorde":[{ "note": 52, "duration":0.25, "velocity": 0.7165354, "rh": true}]},{"acorde":[{ "note": 45, "duration":0.25, "velocity": 0.5984252, "rh": true}]},{"acorde":[{ "note": 48, "duration":0.25, "velocity": 0.6614173, "rh": true}]},{"acorde":[{ "note": 52, "duration":0.25, "velocity": 0.7244095, "rh": true}]},{"acorde":[{ "note": 29, "duration":2, "velocity": 0.480315, "rh": false},{ "note": 0, "duration":0.25, "velocity": 0.7, "rh": false}]},{"acorde":[{ "note": 41, "duration":1.75, "velocity": 0.6614173, "rh": false},{ "note": 0, "duration":0.25, "velocity": 0.7, "rh": false}]},{"acorde":[{ "note": 45, "duration":0.25, "velocity": 0.6220472, "rh": true}]},{"acorde":[{ "note": 48, "duration":0.25, "velocity": 0.6692913, "rh": true}]},{"acorde":[{ "note": 52, "duration":0.25, "velocity": 0.7165354, "rh": true}]},{"acorde":[{ "note": 45, "duration":0.25, "velocity": 0.5984252, "rh": true}]},{"acorde":[{ "note": 48, "duration":0.25, "velocity": 0.6614173, "rh": true}]},{"acorde":[{ "note": 52, "duration":0.25, "velocity": 0.7244095, "rh": true}]},{"acorde":[{ "note": 30, "duration":2, "velocity": 0.480315, "rh": false},{ "note": 0, "duration":0.25, "velocity": 0.7, "rh": false}]},{"acorde":[{ "note": 36, "duration":1.75, "velocity": 0.6614173, "rh": false},{ "note": 0, "duration":0.25, "velocity": 0.7, "rh": false}]},{"acorde":[{ "note": 45, "duration":0.25, "velocity": 0.6220472, "rh": true}]},{"acorde":[{ "note": 48, "duration":0.25, "velocity": 0.6692913, "rh": true}]},{"acorde":[{ "note": 51, "duration":0.25, "velocity": 0.7086614, "rh": true}]},{"acorde":[{ "note": 45, "duration":0.25, "velocity": 0.6062992, "rh": true}]},{"acorde":[{ "note": 48, "duration":0.25, "velocity": 0.6692913, "rh": true}]},{"acorde":[{ "note": 51, "duration":0.25, "velocity": 0.7165354, "rh": true}]},{"acorde":[{ "note": 30, "duration":2, "velocity": 0.480315, "rh": false},{ "note": 0, "duration":0.25, "velocity": 0.7, "rh": false}]},{"acorde":[{ "note": 36, "duration":1.75, "velocity": 0.6614173, "rh": false},{ "note": 0, "duration":0.25, "velocity": 0.7, "rh": false}]},{"acorde":[{ "note": 45, "duration":0.25, "velocity": 0.6220472, "rh": true}]},{"acorde":[{ "note": 48, "duration":0.25, "velocity": 0.6692913, "rh": true}]},{"acorde":[{ "note": 51, "duration":0.25, "velocity": 0.7086614, "rh": true}]},{"acorde":[{ "note": 45, "duration":0.25, "velocity": 0.6062992, "rh": true}]},{"acorde":[{ "note": 48, "duration":0.25, "velocity": 0.6692913, "rh": true}]},{"acorde":[{ "note": 51, "duration":0.25, "velocity": 0.7165354, "rh": true}]},{"acorde":[{ "note": 32, "duration":2, "velocity": 0.480315, "rh": false},{ "note": 0, "duration":0.25, "velocity": 0.7, "rh": false}]},{"acorde":[{ "note": 41, "duration":1.75, "velocity": 0.6614173, "rh": false},{ "note": 0, "duration":0.25, "velocity": 0.7, "rh": false}]},{"acorde":[{ "note": 47, "duration":0.25, "velocity": 0.6456693, "rh": true}]},{"acorde":[{ "note": 48, "duration":0.25, "velocity": 0.6614173, "rh": true}]},{"acorde":[{ "note": 50, "duration":0.25, "velocity": 0.6850393, "rh": true}]},{"acorde":[{ "note": 47, "duration":0.25, "velocity": 0.6377953, "rh": true}]},{"acorde":[{ "note": 48, "duration":0.25, "velocity": 0.6535433, "rh": true}]},{"acorde":[{ "note": 50, "duration":0.25, "velocity": 0.6929134, "rh": true}]},{"acorde":[{ "note": 32, "duration":2, "velocity": 0.480315, "rh": false},{ "note": 0, "duration":0.25, "velocity": 0.7, "rh": false}]},{"acorde":[{ "note": 41, "duration":1.75, "velocity": 0.6614173, "rh": false},{ "note": 0, "duration":0.25, "velocity": 0.7, "rh": false}]},{"acorde":[{ "note": 47, "duration":0.25, "velocity": 0.6456693, "rh": true}]},{"acorde":[{ "note": 48, "duration":0.25, "velocity": 0.6614173, "rh": true}]},{"acorde":[{ "note": 50, "duration":0.25, "velocity": 0.6850393, "rh": true}]},{"acorde":[{ "note": 47, "duration":0.25, "velocity": 0.6377953, "rh": true}]},{"acorde":[{ "note": 48, "duration":0.25, "velocity": 0.6614173, "rh": true}]},{"acorde":[{ "note": 50, "duration":0.25, "velocity": 0.6929134, "rh": true}]},{"acorde":[{ "note": 31, "duration":2, "velocity": 0.480315, "rh": false},{ "note": 0, "duration":0.25, "velocity": 0.7, "rh": false}]},{"acorde":[{ "note": 41, "duration":1.75, "velocity": 0.6614173, "rh": false},{ "note": 0, "duration":0.25, "velocity": 0.7, "rh": false}]},{"acorde":[{ "note": 43, "duration":0.25, "velocity": 0.6062992, "rh": true}]},{"acorde":[{ "note": 47, "duration":0.25, "velocity": 0.6692913, "rh": true}]},{"acorde":[{ "note": 50, "duration":0.25, "velocity": 0.7086614, "rh": true}]},{"acorde":[{ "note": 43, "duration":0.25, "velocity": 0.5905512, "rh": true}]},{"acorde":[{ "note": 47, "duration":0.25, "velocity": 0.6771653, "rh": true}]},{"acorde":[{ "note": 50, "duration":0.25, "velocity": 0.7244095, "rh": true}]},{"acorde":[{ "note": 31, "duration":2, "velocity": 0.480315, "rh": false},{ "note": 0, "duration":0.25, "velocity": 0.7, "rh": false}]},{"acorde":[{ "note": 41, "duration":1.75, "velocity": 0.6692913, "rh": false},{ "note": 0, "duration":0.25, "velocity": 0.7, "rh": false}]},{"acorde":[{ "note": 43, "duration":0.25, "velocity": 0.6377953, "rh": true}]},{"acorde":[{ "note": 47, "duration":0.25, "velocity": 0.7086614, "rh": true}]},{"acorde":[{ "note": 50, "duration":0.25, "velocity": 0.7637795, "rh": true}]},{"acorde":[{ "note": 43, "duration":0.25, "velocity": 0.6535433, "rh": true}]},{"acorde":[{ "note": 47, "duration":0.25, "velocity": 0.7480315, "rh": true}]},{"acorde":[{ "note": 50, "duration":0.25, "velocity": 0.8188977, "rh": true}]},{"acorde":[{ "note": 31, "duration":2, "velocity": 0.5590551, "rh": false},{ "note": 0, "duration":0.25, "velocity": 0.7, "rh": false}]},{"acorde":[{ "note": 40, "duration":1.75, "velocity": 0.7716535, "rh": false},{ "note": 0, "duration":0.25, "velocity": 0.7, "rh": false}]},{"acorde":[{ "note": 43, "duration":0.25, "velocity": 0.7165354, "rh": true}]},{"acorde":[{ "note": 48, "duration":0.25, "velocity": 0.8031496, "rh": true}]},{"acorde":[{ "note": 52, "duration":0.25, "velocity": 0.8503937, "rh": true}]},{"acorde":[{ "note": 43, "duration":0.25, "velocity": 0.6850393, "rh": true}]},{"acorde":[{ "note": 48, "duration":0.25, "velocity": 0.7952756, "rh": true}]},{"acorde":[{ "note": 52, "duration":0.25, "velocity": 0.8582677, "rh": true}]},{"acorde":[{ "note": 31, "duration":2, "velocity": 0.5590551, "rh": false},{ "note": 0, "duration":0.25, "velocity": 0.7, "rh": false}]},{"acorde":[{ "note": 40, "duration":1.75, "velocity": 0.7716535, "rh": false},{ "note": 0, "duration":0.25, "velocity": 0.7, "rh": false}]},{"acorde":[{ "note": 43, "duration":0.25, "velocity": 0.7086614, "rh": true}]},{"acorde":[{ "note": 48, "duration":0.25, "velocity": 0.7952756, "rh": true}]},{"acorde":[{ "note": 52, "duration":0.25, "velocity": 0.8503937, "rh": true}]},{"acorde":[{ "note": 43, "duration":0.25, "velocity": 0.6850393, "rh": true}]},{"acorde":[{ "note": 48, "duration":0.25, "velocity": 0.7952756, "rh": true}]},{"acorde":[{ "note": 52, "duration":0.25, "velocity": 0.8582677, "rh": true}]},{"acorde":[{ "note": 31, "duration":2, "velocity": 0.5590551, "rh": false},{ "note": 0, "duration":0.25, "velocity": 0.7, "rh": false}]},{"acorde":[{ "note": 38, "duration":1.75, "velocity": 0.7716535, "rh": false},{ "note": 0, "duration":0.25, "velocity": 0.7, "rh": false}]},{"acorde":[{ "note": 43, "duration":0.25, "velocity": 0.7086614, "rh": true}]},{"acorde":[{ "note": 48, "duration":0.25, "velocity": 0.7952756, "rh": true}]},{"acorde":[{ "note": 53, "duration":0.25, "velocity": 0.8582677, "rh": true}]},{"acorde":[{ "note": 43, "duration":0.25, "velocity": 0.6850393, "rh": true}]},{"acorde":[{ "note": 48, "duration":0.25, "velocity": 0.7874016, "rh": true}]},{"acorde":[{ "note": 53, "duration":0.25, "velocity": 0.8661417, "rh": true}]},{"acorde":[{ "note": 31, "duration":2, "velocity": 0.5590551, "rh": false},{ "note": 0, "duration":0.25, "velocity": 0.7, "rh": false}]},{"acorde":[{ "note": 38, "duration":1.75, "velocity": 0.7716535, "rh": false},{ "note": 0, "duration":0.25, "velocity": 0.7, "rh": false}]},{"acorde":[{ "note": 43, "duration":0.25, "velocity": 0.7007874, "rh": true}]},{"acorde":[{ "note": 48, "duration":0.25, "velocity": 0.7874016, "rh": true}]},{"acorde":[{ "note": 53, "duration":0.25, "velocity": 0.8582677, "rh": true}]},{"acorde":[{ "note": 43, "duration":0.25, "velocity": 0.6771653, "rh": true}]},{"acorde":[{ "note": 48, "duration":0.25, "velocity": 0.7874016, "rh": true}]},{"acorde":[{ "note": 53, "duration":0.25, "velocity": 0.8661417, "rh": true}]},{"acorde":[{ "note": 31, "duration":2, "velocity": 0.5590551, "rh": false},{ "note": 0, "duration":0.25, "velocity": 0.7, "rh": false}]},{"acorde":[{ "note": 38, "duration":1.75, "velocity": 0.7716535, "rh": false},{ "note": 0, "duration":0.25, "velocity": 0.7, "rh": false}]},{"acorde":[{ "note": 43, "duration":0.25, "velocity": 0.7007874, "rh": true}]},{"acorde":[{ "note": 47, "duration":0.25, "velocity": 0.7716535, "rh": true}]},{"acorde":[{ "note": 53, "duration":0.25, "velocity": 0.8582677, "rh": true}]},{"acorde":[{ "note": 43, "duration":0.25, "velocity": 0.6850393, "rh": true}]},{"acorde":[{ "note": 47, "duration":0.25, "velocity": 0.7716535, "rh": true}]},{"acorde":[{ "note": 53, "duration":0.25, "velocity": 0.8661417, "rh": true}]},{"acorde":[{ "note": 31, "duration":2, "velocity": 0.5590551, "rh": false},{ "note": 0, "duration":0.25, "velocity": 0.7, "rh": false}]},{"acorde":[{ "note": 38, "duration":1.75, "velocity": 0.7716535, "rh": false},{ "note": 0, "duration":0.25, "velocity": 0.7, "rh": false}]},{"acorde":[{ "note": 43, "duration":0.25, "velocity": 0.7007874, "rh": true}]},{"acorde":[{ "note": 47, "duration":0.25, "velocity": 0.7795275, "rh": true}]},{"acorde":[{ "note": 53, "duration":0.25, "velocity": 0.8582677, "rh": true}]},{"acorde":[{ "note": 43, "duration":0.25, "velocity": 0.6850393, "rh": true}]},{"acorde":[{ "note": 47, "duration":0.25, "velocity": 0.7716535, "rh": true}]},{"acorde":[{ "note": 53, "duration":0.25, "velocity": 0.8661417, "rh": true}]},{"acorde":[{ "note": 31, "duration":2, "velocity": 0.5590551, "rh": false},{ "note": 0, "duration":0.25, "velocity": 0.7, "rh": false}]},{"acorde":[{ "note": 39, "duration":1.75, "velocity": 0.7716535, "rh": false},{ "note": 0, "duration":0.25, "velocity": 0.7, "rh": false}]},{"acorde":[{ "note": 45, "duration":0.25, "velocity": 0.7244095, "rh": true}]},{"acorde":[{ "note": 48, "duration":0.25, "velocity": 0.7795275, "rh": true}]},{"acorde":[{ "note": 54, "duration":0.25, "velocity": 0.8582677, "rh": true}]},{"acorde":[{ "note": 45, "duration":0.25, "velocity": 0.6929134, "rh": true}]},{"acorde":[{ "note": 48, "duration":0.25, "velocity": 0.7637795, "rh": true}]},{"acorde":[{ "note": 54, "duration":0.25, "velocity": 0.8661417, "rh": true}]},{"acorde":[{ "note": 31, "duration":2, "velocity": 0.5590551, "rh": false},{ "note": 0, "duration":0.25, "velocity": 0.7, "rh": false}]},{"acorde":[{ "note": 39, "duration":1.75, "velocity": 0.7795275, "rh": false},{ "note": 0, "duration":0.25, "velocity": 0.7, "rh": false}]},{"acorde":[{ "note": 45, "duration":0.25, "velocity": 0.7322835, "rh": true}]},{"acorde":[{ "note": 48, "duration":0.25, "velocity": 0.8110236, "rh": true}]},{"acorde":[{ "note": 54, "duration":0.25, "velocity": 0.9133858, "rh": true}]},{"acorde":[{ "note": 45, "duration":0.25, "velocity": 0.7559055, "rh": true}]},{"acorde":[{ "note": 48, "duration":0.25, "velocity": 0.8503937, "rh": true}]},{"acorde":[{ "note": 54, "duration":0.25, "velocity": 0.976378, "rh": true}]},{"acorde":[{ "note": 31, "duration":2, "velocity": 0.6614173, "rh": false},{ "note": 0, "duration":0.25, "velocity": 0.7, "rh": false}]},{"acorde":[{ "note": 40, "duration":1.75, "velocity": 0.8897638, "rh": false},{ "note": 0, "duration":0.25, "velocity": 0.7, "rh": false}]},{"acorde":[{ "note": 43, "duration":0.25, "velocity": 0.8031496, "rh": true}]},{"acorde":[{ "note": 48, "duration":0.25, "velocity": 0.9055118, "rh": true}]},{"acorde":[{ "note": 55, "duration":0.25, "velocity": 1, "rh": true}]},{"acorde":[{ "note": 43, "duration":0.25, "velocity": 0.7795275, "rh": true}]},{"acorde":[{ "note": 48, "duration":0.25, "velocity": 0.8976378, "rh": true}]},{"acorde":[{ "note": 55, "duration":0.25, "velocity": 1, "rh": true}]},{"acorde":[{ "note": 31, "duration":2, "velocity": 0.6614173, "rh": false},{ "note": 0, "duration":0.25, "velocity": 0.7, "rh": false}]},{"acorde":[{ "note": 40, "duration":1.75, "velocity": 0.8897638, "rh": false},{ "note": 0, "duration":0.25, "velocity": 0.7, "rh": false}]},{"acorde":[{ "note": 43, "duration":0.25, "velocity": 0.8031496, "rh": true}]},{"acorde":[{ "note": 48, "duration":0.25, "velocity": 0.9055118, "rh": true}]},{"acorde":[{ "note": 55, "duration":0.25, "velocity": 1, "rh": true}]},{"acorde":[{ "note": 43, "duration":0.25, "velocity": 0.7795275, "rh": true}]},{"acorde":[{ "note": 48, "duration":0.25, "velocity": 0.8976378, "rh": true}]},{"acorde":[{ "note": 55, "duration":0.25, "velocity": 1, "rh": true}]},{"acorde":[{ "note": 31, "duration":2, "velocity": 0.6614173, "rh": false},{ "note": 0, "duration":0.25, "velocity": 0.7, "rh": false}]},{"acorde":[{ "note": 38, "duration":1.75, "velocity": 0.7716535, "rh": false},{ "note": 0, "duration":0.25, "velocity": 0.7, "rh": false}]},{"acorde":[{ "note": 43, "duration":0.25, "velocity": 0.6929134, "rh": true}]},{"acorde":[{ "note": 48, "duration":0.25, "velocity": 0.7795275, "rh": true}]},{"acorde":[{ "note": 53, "duration":0.25, "velocity": 0.8503937, "rh": true}]},{"acorde":[{ "note": 43, "duration":0.25, "velocity": 0.6771653, "rh": true}]},{"acorde":[{ "note": 48, "duration":0.25, "velocity": 0.7795275, "rh": true}]},{"acorde":[{ "note": 53, "duration":0.25, "velocity": 0.8425197, "rh": true}]},{"acorde":[{ "note": 31, "duration":2, "velocity": 0.6456693, "rh": false},{ "note": 0, "duration":0.25, "velocity": 0.7, "rh": false}]},{"acorde":[{ "note": 38, "duration":1.75, "velocity": 0.7480315, "rh": false},{ "note": 0, "duration":0.25, "velocity": 0.7, "rh": false}]},{"acorde":[{ "note": 43, "duration":0.25, "velocity": 0.6692913, "rh": true}]},{"acorde":[{ "note": 48, "duration":0.25, "velocity": 0.7559055, "rh": true}]},{"acorde":[{ "note": 53, "duration":0.25, "velocity": 0.8110236, "rh": true}]},{"acorde":[{ "note": 43, "duration":0.25, "velocity": 0.6377953, "rh": true}]},{"acorde":[{ "note": 48, "duration":0.25, "velocity": 0.7401575, "rh": true}]},{"acorde":[{ "note": 53, "duration":0.25, "velocity": 0.8031496, "rh": true}]},{"acorde":[{ "note": 31, "duration":2, "velocity": 0.6062992, "rh": false},{ "note": 0, "duration":0.25, "velocity": 0.7, "rh": false}]},{"acorde":[{ "note": 38, "duration":1.75, "velocity": 0.7086614, "rh": false},{ "note": 0, "duration":0.25, "velocity": 0.7, "rh": false}]},{"acorde":[{ "note": 43, "duration":0.25, "velocity": 0.6377953, "rh": true}]},{"acorde":[{ "note": 47, "duration":0.25, "velocity": 0.6929134, "rh": true}]},{"acorde":[{ "note": 53, "duration":0.25, "velocity": 0.7637795, "rh": true}]},{"acorde":[{ "note": 43, "duration":0.25, "velocity": 0.6062992, "rh": true}]},{"acorde":[{ "note": 47, "duration":0.25, "velocity": 0.6771653, "rh": true}]},{"acorde":[{ "note": 53, "duration":0.25, "velocity": 0.7480315, "rh": true}]},{"acorde":[{ "note": 31, "duration":2, "velocity": 0.5590551, "rh": false},{ "note": 0, "duration":0.25, "velocity": 0.7, "rh": false}]},{"acorde":[{ "note": 38, "duration":1.75, "velocity": 0.6614173, "rh": false},{ "note": 0, "duration":0.25, "velocity": 0.7, "rh": false}]},{"acorde":[{ "note": 43, "duration":0.25, "velocity": 0.6062992, "rh": true}]},{"acorde":[{ "note": 47, "duration":0.25, "velocity": 0.6692913, "rh": true}]},{"acorde":[{ "note": 53, "duration":0.25, "velocity": 0.7322835, "rh": true}]},{"acorde":[{ "note": 43, "duration":0.25, "velocity": 0.5826772, "rh": true}]},{"acorde":[{ "note": 47, "duration":0.25, "velocity": 0.6614173, "rh": true}]},{"acorde":[{ "note": 53, "duration":0.25, "velocity": 0.7480315, "rh": true}]},{"acorde":[{ "note": 24, "duration":2, "velocity": 0.5590551, "rh": false},{ "note": 0, "duration":0.25, "velocity": 0.7, "rh": false}]},{"acorde":[{ "note": 36, "duration":1.75, "velocity": 0.7716535, "rh": false},{ "note": 0, "duration":0.25, "velocity": 0.7, "rh": false}]},{"acorde":[{ "note": 43, "duration":0.25, "velocity": 0.7007874, "rh": true}]},{"acorde":[{ "note": 46, "duration":0.25, "velocity": 0.7637795, "rh": true}]},{"acorde":[{ "note": 52, "duration":0.25, "velocity": 0.8503937, "rh": true}]},{"acorde":[{ "note": 43, "duration":0.25, "velocity": 0.6850393, "rh": true}]},{"acorde":[{ "note": 46, "duration":0.25, "velocity": 0.7637795, "rh": true}]},{"acorde":[{ "note": 52, "duration":0.25, "velocity": 0.8661417, "rh": true}]},{"acorde":[{ "note": 24, "duration":2, "velocity": 0.5590551, "rh": false},{ "note": 0, "duration":0.25, "velocity": 0.7, "rh": false}]},{"acorde":[{ "note": 36, "duration":1.75, "velocity": 0.7716535, "rh": false},{ "note": 0, "duration":0.25, "velocity": 0.7, "rh": false}]},{"acorde":[{ "note": 43, "duration":0.25, "velocity": 0.7165354, "rh": true}]},{"acorde":[{ "note": 46, "duration":0.25, "velocity": 0.7716535, "rh": true}]},{"acorde":[{ "note": 52, "duration":0.25, "velocity": 0.8582677, "rh": true}]},{"acorde":[{ "note": 43, "duration":0.25, "velocity": 0.6929134, "rh": true}]},{"acorde":[{ "note": 46, "duration":0.25, "velocity": 0.7637795, "rh": true}]},{"acorde":[{ "note": 52, "duration":0.25, "velocity": 0.8661417, "rh": true}]},{"acorde":[{ "note": 24, "duration":4, "velocity": 0.5590551, "rh": false},{ "note": 0, "duration":0.25, "velocity": 0.7, "rh": false}]},{"acorde":[{ "note": 36, "duration":3.75, "velocity": 0.7716535, "rh": false},{ "note": 0, "duration":0.25, "velocity": 0.7, "rh": false}]},{"acorde":[{ "note": 41, "duration":0.25, "velocity": 0.6929134, "rh": true}]},{"acorde":[{ "note": 45, "duration":0.25, "velocity": 0.7637795, "rh": true}]},{"acorde":[{ "note": 48, "duration":0.25, "velocity": 0.8188977, "rh": true}]},{"acorde":[{ "note": 53, "duration":0.25, "velocity": 0.8740157, "rh": true}]},{"acorde":[{ "note": 48, "duration":0.25, "velocity": 0.7716535, "rh": true}]},{"acorde":[{ "note": 45, "duration":0.25, "velocity": 0.7086614, "rh": true}]},{"acorde":[{ "note": 48, "duration":0.25, "velocity": 0.7874016, "rh": true}]},{"acorde":[{ "note": 45, "duration":0.25, "velocity": 0.7165354, "rh": true}]},{"acorde":[{ "note": 41, "duration":0.25, "velocity": 0.6692913, "rh": true}]},{"acorde":[{ "note": 45, "duration":0.25, "velocity": 0.7637795, "rh": true}]},{"acorde":[{ "note": 41, "duration":0.25, "velocity": 0.6929134, "rh": true}]},{"acorde":[{ "note": 38, "duration":0.25, "velocity": 0.6771653, "rh": true}]},{"acorde":[{ "note": 41, "duration":0.25, "velocity": 0.7480315, "rh": true}]},{"acorde":[{ "note": 38, "duration":0.25, "velocity": 0.7086614, "rh": true}]},{"acorde":[{ "note": 24, "duration":4, "velocity": 0.5590551, "rh": false},{ "note": 0, "duration":0.25, "velocity": 0.7, "rh": false}]},{"acorde":[{ "note": 35, "duration":3.75, "velocity": 0.7716535, "rh": false},{ "note": 0, "duration":0.25, "velocity": 0.7, "rh": false}]},{"acorde":[{ "note": 55, "duration":0.25, "velocity": 0.8740157, "rh": true}]},{"acorde":[{ "note": 59, "duration":0.25, "velocity": 0.8661417, "rh": true}, {"note": 100, "duration":0,"velocity": 53,"rh": false}]},{"acorde":[{ "note": 62, "duration":0.25, "velocity": 0.8661417, "rh": true}, {"note": 100, "duration":0,"velocity": 51,"rh": false}]},{"acorde":[{ "note": 65, "duration":0.25, "velocity": 0.8661417, "rh": true}, {"note": 100, "duration":0,"velocity": 48,"rh": false}]},{"acorde":[{ "note": 62, "duration":0.25, "velocity": 0.8031496, "rh": true},{"note": 100, "duration":0,"velocity": 46,"rh": false}]},{"acorde":[{ "note": 59, "duration":0.25, "velocity": 0.7322835, "rh": true},{"note": 100, "duration":0,"velocity": 44,"rh": false}]},{"acorde":[{ "note": 62, "duration":0.25, "velocity": 0.7952756, "rh": true},{"note": 100, "duration":0,"velocity": 42,"rh": false}]},{"acorde":[{ "note": 59, "duration":0.25, "velocity": 0.7244095, "rh": true},{"note": 100, "duration":0,"velocity": 39,"rh": false}]},{"acorde":[{ "note": 55, "duration":0.25, "velocity": 0.6692913, "rh": true},{"note": 100, "duration":0,"velocity": 38,"rh": false}]},{"acorde":[{ "note": 59, "duration":0.25, "velocity": 0.7637795, "rh": true},{"note": 100, "duration":0,"velocity": 36,"rh": false}]},{"acorde":[{ "note": 50, "duration":0.25, "velocity": 0.6535433, "rh": true},{"note": 100, "duration":0,"velocity": 34,"rh": false}]},{"acorde":[{ "note": 53, "duration":0.25, "velocity": 0.6929134, "rh": true},{"note": 100, "duration":0,"velocity": 32,"rh": false}]},{"acorde":[{ "note": 52, "duration":0.25, "velocity": 0.6929134, "rh": true},{"note": 100, "duration":0,"velocity": 30,"rh": false}]},{"acorde":[{ "note": 50, "duration":0.25, "velocity": 0.6850393, "rh": true},{"note": 100, "duration":0,"velocity": 28,"rh": false}]},{"acorde":[{ "note": 52, "duration":4, "velocity": 0.6456693, "rh": true},{ "note": 55, "duration":4, "velocity": 0.6614173, "rh": false},{ "note": 60, "duration":4, "velocity": 0.6614173, "rh": false},{ "note": 24, "duration":4, "velocity": 0.6614173, "rh": false},{ "note": 36, "duration":4, "velocity": 0.6614173, "rh": false}]}]}