{"Secuencia":[{"title":"Reverie"},{"acorde":[{"note":100,"duration":0,"velocity":143,"rh":false}]},{"acorde":[{"note":46,"duration":1,"velocity":0.2,"rh":false}]},{"acorde":[{"note":48,"duration":1,"velocity":0.2,"rh":false}]},{"acorde":[{"note":50,"duration":1,"velocity":0.2,"rh":false}]},{"acorde":[{"note":55,"duration":2,"velocity":0.3,"rh":false}]},{"acorde":[{"note":50,"duration":1,"velocity":0.2,"rh":false}]},{"acorde":[{"note":48,"duration":1,"velocity":0.2,"rh":false}]},{"acorde":[{"note":46,"duration":2,"velocity":0.2,"rh":false}]},{"acorde":[{"note":48,"duration":1,"velocity":0.2,"rh":false}]},{"acorde":[{"note":50,"duration":1,"velocity":0.2,"rh":false}]},{"acorde":[{"note":55,"duration":2,"velocity":0.2,"rh":false}]},{"acorde":[{"note":50,"duration":1,"velocity":0.3,"rh":false}]},{"acorde":[{"note":48,"duration":1,"velocity":0.2,"rh":false}]},{"acorde":[{"note":0,"duration":1,"velocity":0.2,"rh":false},{"note":46,"duration":1,"velocity":0.2,"rh":false}]},{"acorde":[{"note":67,"duration":4,"velocity":0.7,"rh":true},{"note":46,"duration":1,"velocity":0.2,"rh":false}]},{"acorde":[{"note":48,"duration":1,"velocity":0.3,"rh":false}]},{"acorde":[{"note":50,"duration":1,"velocity":0.3,"rh":false}]},{"acorde":[{"note":55,"duration":2,"velocity":0.3,"rh":false},{"note":0,"duration":1,"velocity":0.3,"rh":false}]},{"acorde":[{"note":62,"duration":4,"velocity":0.7,"rh":true},{"note":0,"duration":1,"velocity":0.3,"rh":false}]},{"acorde":[{"note":50,"duration":1,"velocity":0.3,"rh":false}]},{"acorde":[{"note":48,"duration":1,"velocity":0.3,"rh":false}]},{"acorde":[{"note":46,"duration":2,"velocity":0.3,"rh":false}]},{"acorde":[{"note":48,"duration":1,"velocity":0.3,"rh":false}]},{"acorde":[{"note":64,"duration":1,"velocity":0.7,"rh":true},{"note":50,"duration":1,"velocity":0.3,"rh":false}]},{"acorde":[{"note":65,"duration":1,"velocity":0.7,"rh":true},{"note":55,"duration":2,"velocity":0.3,"rh":false}]},{"acorde":[{"note":67,"duration":2,"velocity":0.7,"rh":true},{"note":0,"duration":1,"velocity":0.3,"rh":false}]},{"acorde":[{"note":50,"duration":1,"velocity":0.3,"rh":false}]},{"acorde":[{"note":64,"duration":1,"velocity":0.7,"rh":true},{"note":48,"duration":1,"velocity":0.3,"rh":false}]},{"acorde":[{"note":62,"duration":1,"velocity":0.7,"rh":true},{"note":46,"duration":2,"velocity":0.3,"rh":false}]},{"acorde":[{"note":64,"duration":1.33,"velocity":0.7,"rh":true},{"note":0,"duration":1,"velocity":0.3,"rh":false}]},{"acorde":[{"note":0,"duration":0.33,"velocity":0.3,"rh":false},{"note":48,"duration":1,"velocity":0.3,"rh":false}]},{"acorde":[{"note":60,"duration":0.66,"velocity":0.7,"rh":true}]},{"acorde":[{"note":0,"duration":0.66,"velocity":0.3,"rh":false},{"note":50,"duration":1,"velocity":0.3,"rh":false}]},{"acorde":[{"note":64,"duration":0.33,"velocity":0.7,"rh":true}]},{"acorde":[{"note":0,"duration":1,"velocity":0.3,"rh":false},{"note":55,"duration":2,"velocity":0.3,"rh":false}]},{"acorde":[{"note":62,"duration":4,"velocity":0.7,"rh":true},{"note":0,"duration":1,"velocity":0.3,"rh":false}]},{"acorde":[{"note":50,"duration":1,"velocity":0.3,"rh":false}]},{"acorde":[{"note":48,"duration":1,"velocity":0.3,"rh":false}]},{"acorde":[{"note":46,"duration":2,"velocity":0.3,"rh":false}]},{"acorde":[{"note":48,"duration":1,"velocity":0.3,"rh":false}]},{"acorde":[{"note":50,"duration":1,"velocity":0.3,"rh":false}]},{"acorde":[{"note":55,"duration":2,"velocity":0.3,"rh":false},{"note":0,"duration":1,"velocity":0.3,"rh":false}]},{"acorde":[{"note":58,"duration":2,"velocity":0.7,"rh":true},{"note":0,"duration":1,"velocity":0.3,"rh":false}]},{"acorde":[{"note":50,"duration":1,"velocity":0.3,"rh":false}]},{"acorde":[{"note":62,"duration":2,"velocity":0.7,"rh":true},{"note":48,"duration":1,"velocity":0.3,"rh":false}]},{"acorde":[{"note":46,"duration":1,"velocity":0.3,"rh":false}]},{"acorde":[{"note":64,"duration":2,"velocity":0.7,"rh":true},{"note":45,"duration":1,"velocity":0.3,"rh":false}]},{"acorde":[{"note":46,"duration":1,"velocity":0.3,"rh":false}]},{"acorde":[{"note":65,"duration":2,"velocity":0.7,"rh":true},{"note":48,"duration":1,"velocity":0.3,"rh":false}]},{"acorde":[{"note":53,"duration":2,"velocity":0.3,"rh":false},{"note":0,"duration":1,"velocity":0.3,"rh":false}]},{"acorde":[{"note":60,"duration":4,"velocity":0.7,"rh":true},{"note":0,"duration":1,"velocity":0.3,"rh":false}]},{"acorde":[{"note":48,"duration":1,"velocity":0.3,"rh":false}]},{"acorde":[{"note":46,"duration":1,"velocity":0.3,"rh":false}]},{"acorde":[{"note":45,"duration":1,"velocity":0.3,"rh":false}]},{"acorde":[{"note":43,"duration":1,"velocity":0.3,"rh":false}]},{"acorde":[{"note":45,"duration":1,"velocity":0.3,"rh":false}]},{"acorde":[{"note":46,"duration":1,"velocity":0.3,"rh":false}]},{"acorde":[{"note":52,"duration":2,"velocity":0.3,"rh":false},{"note":0,"duration":1,"velocity":0.3,"rh":false}]},{"acorde":[{"note":55,"duration":4,"velocity":0.7,"rh":true},{"note":0,"duration":1,"velocity":0.3,"rh":false}]},{"acorde":[{"note":46,"duration":1,"velocity":0.3,"rh":false}]},{"acorde":[{"note":45,"duration":1,"velocity":0.3,"rh":false}]},{"acorde":[{"note":43,"duration":1,"velocity":0.3,"rh":false}]},{"acorde":[{"note":57,"duration":8,"velocity":0.7,"rh":true},{"note":29,"duration":8,"velocity":0.3,"rh":false},{"note":0,"duration":1,"velocity":0.3,"rh":false}]},{"acorde":[{"note":36,"duration":7,"velocity":0.3,"rh":false},{"note":0,"duration":1,"velocity":0.3,"rh":false}]},{"acorde":[{"note":45,"duration":1,"velocity":0.3,"rh":false}]},{"acorde":[{"note":53,"duration":1,"velocity":0.3,"rh":false}]},{"acorde":[{"note":50,"duration":1,"velocity":0.3,"rh":false}]},{"acorde":[{"note":45,"duration":1,"velocity":0.3,"rh":false}]},{"acorde":[{"note":48,"duration":1,"velocity":0.3,"rh":false}]},{"acorde":[{"note":53,"duration":1,"velocity":0.15,"rh":false}]},{"acorde":[{"note":29,"duration":8,"velocity":0.3,"rh":false},{"note":0,"duration":1,"velocity":0.3,"rh":false}]},{"acorde":[{"note":36,"duration":7,"velocity":0.3,"rh":false},{"note":0,"duration":1,"velocity":0.3,"rh":false}]},{"acorde":[{"note":45,"duration":1,"velocity":0.3,"rh":false}]},{"acorde":[{"note":53,"duration":1,"velocity":0.3,"rh":false}]},{"acorde":[{"note":50,"duration":1,"velocity":0.3,"rh":false}]},{"acorde":[{"note":45,"duration":1,"velocity":0.3,"rh":false}]},{"acorde":[{"note":48,"duration":1,"velocity":0.2,"rh":false}]},{"acorde":[{"note":53,"duration":1,"velocity":0.07,"rh":false}]},{"acorde":[{"note":69,"duration":4,"velocity":0.7,"rh":true},{"note":26,"duration":1,"velocity":0.3,"rh":false}]},{"acorde":[{"note":33,"duration":1,"velocity":0.3,"rh":false}]},{"acorde":[{"note":38,"duration":1,"velocity":0.3,"rh":false}]},{"acorde":[{"note":41,"duration":1,"velocity":0.3,"rh":false}]},{"acorde":[{"note":64,"duration":5,"velocity":0.7,"rh":true},{"note":45,"duration":1,"velocity":0.3,"rh":false}]},{"acorde":[{"note":48,"duration":1,"velocity":0.3,"rh":false}]},{"acorde":[{"note":52,"duration":1,"velocity":0.3,"rh":false}]},{"acorde":[{"note":48,"duration":1,"velocity":0.3,"rh":false}]},{"acorde":[{"note":45,"duration":1,"velocity":0.3,"rh":false}]},{"acorde":[{"note":41,"duration":1,"velocity":0.3,"rh":false}]},{"acorde":[{"note":60,"duration":1,"velocity":0.7,"rh":true},{"note":45,"duration":1,"velocity":0.3,"rh":false}]},{"acorde":[{"note":64,"duration":1,"velocity":0.7,"rh":true},{"note":48,"duration":1,"velocity":0.3,"rh":false}]},{"acorde":[{"note":62,"duration":2,"velocity":0.7,"rh":true},{"note":31,"duration":1,"velocity":0.3,"rh":false}]},{"acorde":[{"note":38,"duration":1,"velocity":0.3,"rh":false}]},{"acorde":[{"note":58,"duration":1,"velocity":0.7,"rh":true},{"note":43,"duration":1,"velocity":0.3,"rh":false}]},{"acorde":[{"note":55,"duration":1,"velocity":0.7,"rh":true},{"note":46,"duration":1,"velocity":0.3,"rh":false}]},{"acorde":[{"note":69,"duration":4,"velocity":0.7,"rh":true},{"note":26,"duration":1,"velocity":0.3,"rh":false}]},{"acorde":[{"note":33,"duration":1,"velocity":0.3,"rh":false}]},{"acorde":[{"note":38,"duration":1,"velocity":0.3,"rh":false}]},{"acorde":[{"note":41,"duration":1,"velocity":0.3,"rh":false}]},{"acorde":[{"note":64,"duration":5,"velocity":0.7,"rh":true},{"note":45,"duration":1,"velocity":0.3,"rh":false}]},{"acorde":[{"note":48,"duration":1,"velocity":0.3,"rh":false}]},{"acorde":[{"note":52,"duration":1,"velocity":0.3,"rh":false}]},{"acorde":[{"note":48,"duration":1,"velocity":0.3,"rh":false}]},{"acorde":[{"note":45,"duration":1,"velocity":0.3,"rh":false}]},{"acorde":[{"note":41,"duration":1,"velocity":0.3,"rh":false}]},{"acorde":[{"note":60,"duration":1,"velocity":0.7,"rh":true},{"note":45,"duration":1,"velocity":0.3,"rh":false}]},{"acorde":[{"note":64,"duration":1,"velocity":0.7,"rh":true},{"note":48,"duration":1,"velocity":0.3,"rh":false}]},{"acorde":[{"note":62,"duration":2,"velocity":0.7,"rh":true},{"note":31,"duration":1,"velocity":0.3,"rh":false}]},{"acorde":[{"note":38,"duration":1,"velocity":0.3,"rh":false}]},{"acorde":[{"note":58,"duration":1,"velocity":0.7,"rh":true},{"note":43,"duration":1,"velocity":0.3,"rh":false}]},{"acorde":[{"note":55,"duration":1,"velocity":0.7,"rh":true},{"note":46,"duration":1,"velocity":0.3,"rh":false}]},{"acorde":[{"note":67,"duration":4,"velocity":0.7,"rh":true},{"note":24,"duration":1,"velocity":0.3,"rh":false}]},{"acorde":[{"note":31,"duration":1,"velocity":0.3,"rh":false}]},{"acorde":[{"note":40,"duration":1,"velocity":0.3,"rh":false}]},{"acorde":[{"note":43,"duration":1,"velocity":0.3,"rh":false}]},{"acorde":[{"note":62,"duration":5,"velocity":0.7,"rh":true},{"note":46,"duration":1,"velocity":0.3,"rh":false}]},{"acorde":[{"note":50,"duration":1,"velocity":0.3,"rh":false}]},{"acorde":[{"note":52,"duration":1,"velocity":0.3,"rh":false}]},{"acorde":[{"note":50,"duration":1,"velocity":0.3,"rh":false}]},{"acorde":[{"note":46,"duration":1,"velocity":0.3,"rh":false}]},{"acorde":[{"note":50,"duration":1,"velocity":0.3,"rh":false}]},{"acorde":[{"note":58,"duration":1,"velocity":0.7,"rh":true},{"note":46,"duration":1,"velocity":0.3,"rh":false}]},{"acorde":[{"note":62,"duration":1,"velocity":0.7,"rh":true},{"note":43,"duration":1,"velocity":0.3,"rh":false}]},{"acorde":[{"note":60,"duration":2,"velocity":0.7,"rh":true},{"note":29,"duration":1,"velocity":0.3,"rh":false}]},{"acorde":[{"note":36,"duration":1,"velocity":0.3,"rh":false}]},{"acorde":[{"note":57,"duration":1,"velocity":0.7,"rh":true},{"note":41,"duration":1,"velocity":0.3,"rh":false}]},{"acorde":[{"note":55,"duration":1,"velocity":0.7,"rh":true},{"note":45,"duration":1,"velocity":0.3,"rh":false}]},{"acorde":[{"note":57,"duration":2,"velocity":0.7,"rh":true},{"note":33,"duration":1,"velocity":0.3,"rh":false}]},{"acorde":[{"note":40,"duration":1,"velocity":0.3,"rh":false}]},{"acorde":[{"note":52,"duration":1,"velocity":0.7,"rh":true},{"note":45,"duration":1,"velocity":0.3,"rh":false},{"note":48,"duration":2,"velocity":0.3,"rh":false}]},{"acorde":[{"note":57,"duration":1,"velocity":0.7,"rh":true},{"note":40,"duration":1,"velocity":0.3,"rh":false}]},{"acorde":[{"note":53,"duration":2,"velocity":0.7,"rh":true},{"note":38,"duration":1,"velocity":0.3,"rh":false}]},{"acorde":[{"note":45,"duration":1,"velocity":0.3,"rh":false}]},{"acorde":[{"note":50,"duration":1,"velocity":0.7,"rh":true},{"note":41,"duration":1,"velocity":0.3,"rh":false},{"note":45,"duration":2,"velocity":0.3,"rh":false}]},{"acorde":[{"note":53,"duration":1,"velocity":0.7,"rh":true},{"note":38,"duration":1,"velocity":0.3,"rh":false}]},{"acorde":[{"note":50,"duration":4,"velocity":0.7,"rh":true},{"note":31,"duration":1,"velocity":0.3,"rh":false}]},{"acorde":[{"note":41,"duration":1,"velocity":0.3,"rh":false}]},{"acorde":[{"note":43,"duration":1,"velocity":0.3,"rh":false}]},{"acorde":[{"note":46,"duration":1,"velocity":0.3,"rh":false},{"note":43,"duration":1,"velocity":0.3,"rh":false}]},{"acorde":[{"note":48,"duration":4,"velocity":0.3,"rh":true},{"note":24,"duration":1,"velocity":0.2,"rh":false}]},{"acorde":[{"note":31,"duration":1,"velocity":0.2,"rh":false}]},{"acorde":[{"note":40,"duration":1,"velocity":0.2,"rh":false}]},{"acorde":[{"note":43,"duration":1,"velocity":0.1,"rh":false},{"note":46,"duration":1,"velocity":0.1,"rh":false}]},{"acorde":[{"note":60,"duration":4,"velocity":0.6,"rh":true},{"note":29,"duration":1,"velocity":0.2,"rh":false},{"note":72,"duration":4,"velocity":0.6,"rh":false},{"note":63,"duration":12,"velocity":0.2,"rh":false}]},{"acorde":[{"note":29,"duration":1,"velocity":0.15,"rh":false}]},{"acorde":[{"note":36,"duration":1,"velocity":0.2,"rh":false}]},{"acorde":[{"note":39,"duration":1,"velocity":0.2,"rh":false}]},{"acorde":[{"note":55,"duration":4,"velocity":0.5,"rh":true},{"note":67,"duration":4,"velocity":0.5,"rh":false},{"note":43,"duration":1,"velocity":0.2,"rh":false}]},{"acorde":[{"note":45,"duration":1,"velocity":0.2,"rh":false}]},{"acorde":[{"note":48,"duration":1,"velocity":0.2,"rh":false}]},{"acorde":[{"note":51,"duration":1,"velocity":0.2,"rh":false}]},{"acorde":[{"note":55,"duration":1,"velocity":0.2,"rh":false}]},{"acorde":[{"note":51,"duration":1,"velocity":0.2,"rh":false}]},{"acorde":[{"note":57,"duration":1,"velocity":0.6,"rh":true},{"note":69,"duration":1,"velocity":0.6,"rh":false},{"note":48,"duration":1,"velocity":0.2,"rh":false}]},{"acorde":[{"note":58,"duration":1,"velocity":0.6,"rh":true},{"note":70,"duration":1,"velocity":0.6,"rh":false},{"note":45,"duration":1,"velocity":0.2,"rh":false}]},{"acorde":[{"note":60,"duration":2,"velocity":0.7,"rh":true},{"note":72,"duration":2,"velocity":0.6,"rh":false},{"note":63,"duration":4,"velocity":0.6,"rh":false},{"note":43,"duration":1,"velocity":0.2,"rh":false}]},{"acorde":[{"note":39,"duration":1,"velocity":0.2,"rh":false}]},{"acorde":[{"note":57,"duration":1,"velocity":0.6,"rh":true},{"note":69,"duration":1,"velocity":0.6,"rh":false},{"note":36,"duration":1,"velocity":0.2,"rh":false}]},{"acorde":[{"note":55,"duration":1,"velocity":0.6,"rh":true},{"note":67,"duration":1,"velocity":0.6,"rh":false},{"note":29,"duration":1,"velocity":0.2,"rh":false}]},{"acorde":[{"note":57,"duration":2,"velocity":0.6,"rh":true},{"note":69,"duration":2,"velocity":0.6,"rh":false},{"note":63,"duration":4,"velocity":0.6,"rh":false},{"note":29,"duration":1,"velocity":0.2,"rh":false}]},{"acorde":[{"note":29,"duration":1,"velocity":0.2,"rh":false}]},{"acorde":[{"note":53,"duration":1,"velocity":0.6,"rh":true},{"note":65,"duration":1,"velocity":0.6,"rh":false},{"note":36,"duration":1,"velocity":0.2,"rh":false}]},{"acorde":[{"note":57,"duration":1,"velocity":0.6,"rh":true},{"note":69,"duration":1,"velocity":0.6,"rh":false},{"note":39,"duration":1,"velocity":0.2,"rh":false}]},{"acorde":[{"note":55,"duration":8,"velocity":0.6,"rh":true},{"note":67,"duration":8,"velocity":0.6,"rh":false},{"note":63,"duration":8,"velocity":0.6,"rh":false},{"note":43,"duration":1,"velocity":0.2,"rh":false}]},{"acorde":[{"note":45,"duration":1,"velocity":0.2,"rh":false}]},{"acorde":[{"note":48,"duration":1,"velocity":0.2,"rh":false}]},{"acorde":[{"note":51,"duration":1,"velocity":0.2,"rh":false}]},{"acorde":[{"note":55,"duration":1,"velocity":0.2,"rh":false}]},{"acorde":[{"note":51,"duration":1,"velocity":0.2,"rh":false}]},{"acorde":[{"note":48,"duration":1,"velocity":0.2,"rh":false}]},{"acorde":[{"note":45,"duration":1,"velocity":0.2,"rh":false}]},{"acorde":[{"note":51,"duration":2,"velocity":0.4,"rh":true},{"note":63,"duration":2,"velocity":0.4,"rh":false},{"note":43,"duration":1,"velocity":0.2,"rh":false}]},{"acorde":[{"note":39,"duration":1,"velocity":0.2,"rh":false}]},{"acorde":[{"note":55,"duration":2,"velocity":0.5,"rh":true},{"note":67,"duration":2,"velocity":0.5,"rh":false},{"note":36,"duration":1,"velocity":0.2,"rh":false}]},{"acorde":[{"note":29,"duration":1,"velocity":0.2,"rh":false}]},{"acorde":[{"note":57,"duration":2,"velocity":0.5,"rh":true},{"note":69,"duration":2,"velocity":0.5,"rh":false},{"note":62,"duration":4,"velocity":0.5,"rh":false},{"note":34,"duration":1,"velocity":0.2,"rh":false}]},{"acorde":[{"note":29,"duration":1,"velocity":0.2,"rh":false}]},{"acorde":[{"note":58,"duration":2,"velocity":0.5,"rh":true},{"note":70,"duration":2,"velocity":0.5,"rh":false},{"note":34,"duration":1,"velocity":0.2,"rh":false}]},{"acorde":[{"note":38,"duration":1,"velocity":0.2,"rh":false}]},{"acorde":[{"note":53,"duration":8,"velocity":0.5,"rh":true},{"note":65,"duration":2,"velocity":0.5,"rh":false},{"note":62,"duration":8,"velocity":0.5,"rh":false},{"note":41,"duration":1,"velocity":0.2,"rh":false}]},{"acorde":[{"note":46,"duration":1,"velocity":0.2,"rh":false}]},{"acorde":[{"note":50,"duration":1,"velocity":0.2,"rh":false}]},{"acorde":[{"note":53,"duration":1,"velocity":0.2,"rh":false}]},{"acorde":[{"note":50,"duration":1,"velocity":0.2,"rh":false}]},{"acorde":[{"note":46,"duration":1,"velocity":0.2,"rh":false}]},{"acorde":[{"note":41,"duration":1,"velocity":0.2,"rh":false}]},{"acorde":[{"note":38,"duration":1,"velocity":0.2,"rh":false}]},{"acorde":[{"note":57,"duration":2,"velocity":0.5,"rh":true},{"note":69,"duration":2,"velocity":0.5,"rh":false},{"note":62,"duration":4,"velocity":0.5,"rh":false},{"note":34,"duration":1,"velocity":0.2,"rh":false}]},{"acorde":[{"note":29,"duration":1,"velocity":0.2,"rh":false}]},{"acorde":[{"note":58,"duration":2,"velocity":0.5,"rh":true},{"note":70,"duration":2,"velocity":0.5,"rh":false},{"note":34,"duration":1,"velocity":0.2,"rh":false}]},{"acorde":[{"note":29,"duration":1,"velocity":0.2,"rh":false}]},{"acorde":[{"note":60,"duration":2,"velocity":0.5,"rh":true},{"note":72,"duration":2,"velocity":0.5,"rh":false},{"note":65,"duration":8,"velocity":0.5,"rh":false},{"note":34,"duration":1,"velocity":0.3,"rh":false}]},{"acorde":[{"note":29,"duration":1,"velocity":0.3,"rh":false}]},{"acorde":[{"note":62,"duration":2,"velocity":0.5,"rh":true},{"note":74,"duration":2,"velocity":0.5,"rh":false},{"note":34,"duration":1,"velocity":0.3,"rh":false}]},{"acorde":[{"note":38,"duration":1,"velocity":0.3,"rh":false}]},{"acorde":[{"note":57,"duration":8,"velocity":0.5,"rh":true},{"note":69,"duration":8,"velocity":0.5,"rh":false},{"note":62,"duration":8,"velocity":0.5,"rh":false},{"note":41,"duration":1,"velocity":0.3,"rh":false}]},{"acorde":[{"note":46,"duration":1,"velocity":0.3,"rh":false}]},{"acorde":[{"note":50,"duration":1,"velocity":0.3,"rh":false}]},{"acorde":[{"note":53,"duration":1,"velocity":0.3,"rh":false}]},{"acorde":[{"note":50,"duration":1,"velocity":0.3,"rh":false}]},{"acorde":[{"note":46,"duration":1,"velocity":0.3,"rh":false}]},{"acorde":[{"note":41,"duration":1,"velocity":0.3,"rh":false}]},{"acorde":[{"note":38,"duration":1,"velocity":0.3,"rh":false}]},{"acorde":[{"note":58,"duration":2,"velocity":0.5,"rh":true},{"note":70,"duration":2,"velocity":0.5,"rh":false},{"note":62,"duration":4,"velocity":0.5,"rh":false},{"note":34,"duration":1,"velocity":0.3,"rh":false}]},{"acorde":[{"note":29,"duration":1,"velocity":0.3,"rh":false}]},{"acorde":[{"note":62,"duration":2,"velocity":0.5,"rh":true},{"note":74,"duration":2,"velocity":0.5,"rh":false},{"note":34,"duration":1,"velocity":0.3,"rh":false}]},{"acorde":[{"note":29,"duration":1,"velocity":0.3,"rh":false}]},{"acorde":[{"note":65,"duration":4,"velocity":0.7,"rh":true},{"note":77,"duration":4,"velocity":0.9,"rh":false},{"note":73,"duration":4,"velocity":0.6,"rh":false},{"note":31,"duration":1,"velocity":0.4,"rh":false}]},{"acorde":[{"note":31,"duration":1,"velocity":0.25,"rh":false}]},{"acorde":[{"note":37,"duration":1,"velocity":0.4,"rh":false}]},{"acorde":[{"note":41,"duration":1,"velocity":0.4,"rh":false}]},{"acorde":[{"note":61,"duration":4,"velocity":0.7,"rh":true},{"note":73,"duration":4,"velocity":0.9,"rh":false},{"note":45,"duration":1,"velocity":0.4,"rh":false}]},{"acorde":[{"note":49,"duration":1,"velocity":0.4,"rh":false}]},{"acorde":[{"note":53,"duration":1,"velocity":0.4,"rh":false}]},{"acorde":[{"note":57,"duration":1,"velocity":0.4,"rh":false}]},{"acorde":[{"note":31,"duration":1,"velocity":0.2,"rh":false}]},{"acorde":[{"note":38,"duration":1,"velocity":0.2,"rh":false}]},{"acorde":[{"note":62,"duration":1,"velocity":0.3,"rh":true},{"note":57,"duration":6,"velocity":0.2,"rh":false},{"note":41,"duration":1,"velocity":0.2,"rh":false}]},{"acorde":[{"note":64,"duration":1,"velocity":0.3,"rh":true},{"note":45,"duration":1,"velocity":0.2,"rh":false}]},{"acorde":[{"note":65,"duration":2,"velocity":0.3,"rh":true},{"note":50,"duration":1,"velocity":0.2,"rh":false}]},{"acorde":[{"note":45,"duration":1,"velocity":0.2,"rh":false}]},{"acorde":[{"note":65,"duration":1,"velocity":0.3,"rh":true},{"note":41,"duration":1,"velocity":0.2,"rh":false}]},{"acorde":[{"note":69,"duration":1,"velocity":0.3,"rh":true},{"note":38,"duration":1,"velocity":0.2,"rh":false}]},{"acorde":[{"note":65,"duration":4,"velocity":0.7,"rh":true},{"note":77,"duration":4,"velocity":0.9,"rh":false},{"note":73,"duration":4,"velocity":0.6,"rh":false},{"note":31,"duration":1,"velocity":0.4,"rh":false}]},{"acorde":[{"note":31,"duration":1,"velocity":0.25,"rh":false}]},{"acorde":[{"note":37,"duration":1,"velocity":0.4,"rh":false}]},{"acorde":[{"note":41,"duration":1,"velocity":0.4,"rh":false}]},{"acorde":[{"note":61,"duration":4,"velocity":0.7,"rh":true},{"note":73,"duration":4,"velocity":0.9,"rh":false},{"note":45,"duration":1,"velocity":0.4,"rh":false}]},{"acorde":[{"note":49,"duration":1,"velocity":0.4,"rh":false}]},{"acorde":[{"note":53,"duration":1,"velocity":0.4,"rh":false}]},{"acorde":[{"note":57,"duration":1,"velocity":0.4,"rh":false}]},{"acorde":[{"note":31,"duration":1,"velocity":0.2,"rh":false}]},{"acorde":[{"note":38,"duration":1,"velocity":0.2,"rh":false}]},{"acorde":[{"note":62,"duration":1,"velocity":0.3,"rh":true},{"note":57,"duration":6,"velocity":0.2,"rh":false},{"note":41,"duration":1,"velocity":0.2,"rh":false}]},{"acorde":[{"note":64,"duration":1,"velocity":0.3,"rh":true},{"note":45,"duration":1,"velocity":0.2,"rh":false}]},{"acorde":[{"note":65,"duration":2,"velocity":0.3,"rh":true},{"note":50,"duration":1,"velocity":0.2,"rh":false}]},{"acorde":[{"note":45,"duration":1,"velocity":0.2,"rh":false}]},{"acorde":[{"note":65,"duration":1,"velocity":0.3,"rh":true},{"note":41,"duration":1,"velocity":0.2,"rh":false}]},{"acorde":[{"note":69,"duration":1,"velocity":0.3,"rh":true},{"note":38,"duration":1,"velocity":0.2,"rh":false}]},{"acorde":[{"note":65,"duration":2,"velocity":0.3,"rh":true},{"note":31,"duration":1,"velocity":0.2,"rh":false},{"note":100,"duration":0,"velocity":142,"rh":false}]},{"acorde":[{"note":38,"duration":1,"velocity":0.2,"rh":false}]},{"acorde":[{"note":50,"duration":1,"velocity":0.3,"rh":true},{"note":41,"duration":1,"velocity":0.2,"rh":false}]},{"acorde":[{"note":52,"duration":1,"velocity":0.3,"rh":true},{"note":45,"duration":1,"velocity":0.2,"rh":false}]},{"acorde":[{"note":53,"duration":2,"velocity":0.3,"rh":true},{"note":50,"duration":1,"velocity":0.2,"rh":false},{"note":100,"duration":0,"velocity":141,"rh":false}]},{"acorde":[{"note":45,"duration":1,"velocity":0.2,"rh":false}]},{"acorde":[{"note":53,"duration":1,"velocity":0.3,"rh":true},{"note":41,"duration":1,"velocity":0.2,"rh":false}]},{"acorde":[{"note":57,"duration":1,"velocity":0.3,"rh":true},{"note":38,"duration":1,"velocity":0.2,"rh":false}]},{"acorde":[{"note":53,"duration":4,"velocity":0.3,"rh":true},{"note":31,"duration":1,"velocity":0.2,"rh":false},{"note":100,"duration":0,"velocity":140,"rh":false}]},{"acorde":[{"note":38,"duration":1,"velocity":0.2,"rh":false}]},{"acorde":[{"note":41,"duration":1,"velocity":0.2,"rh":false}]},{"acorde":[{"note":45,"duration":1,"velocity":0.2,"rh":false}]},{"acorde":[{"note":50,"duration":5,"velocity":0.3,"rh":true},{"note":47,"duration":1,"velocity":0.2,"rh":false},{"note":100,"duration":0,"velocity":139,"rh":false}]},{"acorde":[{"note":45,"duration":1,"velocity":0.2,"rh":false}]},{"acorde":[{"note":43,"duration":1,"velocity":0.2,"rh":false}]},{"acorde":[{"note":41,"duration":1,"velocity":0.2,"rh":false}]},{"acorde":[{"note":47,"duration":2,"velocity":0.3,"rh":true},{"note":24,"duration":1,"velocity":0.2,"rh":false},{"note":100,"duration":0,"velocity":138,"rh":false}]},{"acorde":[{"note":31,"duration":1,"velocity":0.2,"rh":false}]},{"acorde":[{"note":48,"duration":2,"velocity":0.3,"rh":true},{"note":36,"duration":1,"velocity":0.2,"rh":false}]},{"acorde":[{"note":40,"duration":1,"velocity":0.2,"rh":false}]},{"acorde":[{"note":43,"duration":1,"velocity":0.2,"rh":false},{"note":100,"duration":0,"velocity":137,"rh":false}]},{"acorde":[{"note":48,"duration":1,"velocity":0.2,"rh":false}]},{"acorde":[{"note":52,"duration":1,"velocity":0.2,"rh":false},{"note":100,"duration":0,"velocity":136,"rh":false}]},{"acorde":[{"note":55,"duration":1,"velocity":0.17,"rh":false},{"note":100,"duration":0,"velocity":135,"rh":false}]},{"acorde":[{"note":60,"duration":4,"velocity":0.15,"rh":false}]}]}