{"Secuencia": [{"title":"Scarborough Fair"},{"acorde":[{"note": 100, "duration":0,"velocity": 115,"rh": false}]},{"acorde":[{ "note": 40, "duration":0.5, "velocity": 0.5590551, "rh": false}]},{"acorde":[{ "note": 59, "duration":0.5, "velocity": 0.6141732, "rh": false}]},{"acorde":[{ "note": 50, "duration":0.5, "velocity": 0.5590551, "rh": false}]},{"acorde":[{ "note": 49, "duration":0.5, "velocity": 0.5433071, "rh": false}]},{"acorde":[{ "note": 57, "duration":0.5, "velocity": 0.6299213, "rh": false}]},{"acorde":[{ "note": 50, "duration":0.5, "velocity": 0.527559, "rh": false}]},{"acorde":[{ "note": 45, "duration":0.5, "velocity": 0.480315, "rh": false}]},{"acorde":[{ "note": 59, "duration":0.5, "velocity": 0.6456693, "rh": false}]},{"acorde":[{ "note": 50, "duration":0.5, "velocity": 0.519685, "rh": false}]},{"acorde":[{ "note": 49, "duration":0.5, "velocity": 0.511811, "rh": false}]},{"acorde":[{ "note": 57, "duration":0.5, "velocity": 0.6377953, "rh": false}]},{"acorde":[{ "note": 50, "duration":0.5, "velocity": 0.519685, "rh": false}]},{"acorde":[{ "note": 43, "duration":0.5, "velocity": 0.472441, "rh": false}]},{"acorde":[{ "note": 54, "duration":0.5, "velocity": 0.6220472, "rh": false}]},{"acorde":[{ "note": 50, "duration":1, "velocity": 0.5511811, "rh": false}]},{"acorde":[{ "note": 42, "duration":1, "velocity": 0.480315, "rh": false}]},{"acorde":[{ "note": 40, "duration":0.5, "velocity": 0.4251969, "rh": false}]},{"acorde":[{ "note": 59, "duration":0.5, "velocity": 0.5511811, "rh": false}]},{"acorde":[{ "note": 50, "duration":0.5, "velocity": 0.496063, "rh": false}]},{"acorde":[{ "note": 49, "duration":0.5, "velocity": 0.480315, "rh": false}]},{"acorde":[{ "note": 57, "duration":0.5, "velocity": 0.5511811, "rh": false}]},{"acorde":[{ "note": 50, "duration":0.5, "velocity": 0.4645669, "rh": false}]},{"acorde":[{ "note": 40, "duration":0.5, "velocity": 0.472441, "rh": false}]},{"acorde":[{ "note": 59, "duration":0.5, "velocity": 0.6456693, "rh": false}]},{"acorde":[{ "note": 52, "duration":0.5, "velocity": 0.5748032, "rh": false}]},{"acorde":[{ "note": 47, "duration":0.5, "velocity": 0.496063, "rh": false}]},{"acorde":[{ "note": 54, "duration":0.5, "velocity": 0.6141732, "rh": false}]},{"acorde":[{ "note": 52, "duration":0.5, "velocity": 0.5748032, "rh": false}]},{"acorde":[{ "note": 40, "duration":0.5, "velocity": 0.472441, "rh": false}]},{"acorde":[{ "note": 59, "duration":0.5, "velocity": 0.6456693, "rh": false}]},{"acorde":[{ "note": 50, "duration":0.5, "velocity": 0.5354331, "rh": false}]},{"acorde":[{ "note": 49, "duration":0.5, "velocity": 0.511811, "rh": false}]},{"acorde":[{ "note": 57, "duration":0.5, "velocity": 0.6141732, "rh": false}]},{"acorde":[{ "note": 50, "duration":0.5, "velocity": 0.496063, "rh": false}]},{"acorde":[{ "note": 40, "duration":0.5, "velocity": 0.4409449, "rh": false}]},{"acorde":[{ "note": 59, "duration":0.5, "velocity": 0.5905512, "rh": false}]},{"acorde":[{ "note": 52, "duration":0.5, "velocity": 0.519685, "rh": false}]},{"acorde":[{ "note": 47, "duration":0.5, "velocity": 0.4409449, "rh": false}]},{"acorde":[{ "note": 54, "duration":0.5, "velocity": 0.5433071, "rh": false}]},{"acorde":[{ "note": 52, "duration":0.5, "velocity": 0.488189, "rh": false}]},{"acorde":[{ "note": 52, "duration":2, "velocity": 0.7716535, "rh": true},{ "note": 40, "duration":0.5, "velocity": 0.4094488, "rh": false}]},{"acorde":[{ "note": 59, "duration":0.5, "velocity": 0.5511811, "rh": false}]},{"acorde":[{ "note": 50, "duration":0.5, "velocity": 0.4645669, "rh": false}]},{"acorde":[{ "note": 49, "duration":0.5, "velocity": 0.4488189, "rh": false}]},{"acorde":[{ "note": 52, "duration":1, "velocity": 0.7716535, "rh": true},{ "note": 57, "duration":0.5, "velocity": 0.5511811, "rh": false}]},{"acorde":[{ "note": 50, "duration":0.5, "velocity": 0.4488189, "rh": false}]},{"acorde":[{ "note": 59, "duration":0.5, "velocity": 0.8503937, "rh": true},{ "note": 40, "duration":0.5, "velocity": 0.4094488, "rh": false}]},{"acorde":[{ "note": 59, "duration":0.5, "velocity": 0.8188977, "rh": true},{ "note": 59, "duration":0.5, "velocity": 0.5511811, "rh": false}]},{"acorde":[{ "note": 52, "duration":0.5, "velocity": 0.496063, "rh": false}]},{"acorde":[{ "note": 47, "duration":0.5, "velocity": 0.4251969, "rh": false}]},{"acorde":[{ "note": 54, "duration":0.5, "velocity": 0.527559, "rh": false}]},{"acorde":[{ "note": 59, "duration":0.5, "velocity": 0.8110236, "rh": true},{ "note": 50, "duration":0.5, "velocity": 0.4645669, "rh": false}]},{"acorde":[{ "note": 54, "duration":1.5, "velocity": 0.7401575, "rh": true},{ "note": 38, "duration":0.5, "velocity": 0.4094488, "rh": false}]},{"acorde":[{ "note": 50, "duration":0.5, "velocity": 0.511811, "rh": false}]},{"acorde":[{ "note": 45, "duration":0.5, "velocity": 0.4330709, "rh": false}]},{"acorde":[{ "note": 55, "duration":0.5, "velocity": 0.7874016, "rh": true},{ "note": 47, "duration":0.5, "velocity": 0.472441, "rh": false}]},{"acorde":[{ "note": 54, "duration":1, "velocity": 0.7637795, "rh": true},{ "note": 45, "duration":0.5, "velocity": 0.4488189, "rh": false}]},{"acorde":[{ "note": 50, "duration":0.5, "velocity": 0.527559, "rh": false}]},{"acorde":[{ "note": 52, "duration":4.5, "velocity": 0.7401575, "rh": true},{ "note": 40, "duration":0.5, "velocity": 0.480315, "rh": false}]},{"acorde":[{ "note": 59, "duration":0.5, "velocity": 0.6456693, "rh": false}]},{"acorde":[{ "note": 79, "duration":1.5, "velocity": 0.5590551, "rh": false},{ "note": 50, "duration":0.5, "velocity": 0.5826772, "rh": false}]},{"acorde":[{ "note": 49, "duration":0.5, "velocity": 0.5590551, "rh": false}]},{"acorde":[{ "note": 57, "duration":0.5, "velocity": 0.6456693, "rh": false}]},{"acorde":[{ "note": 76, "duration":1.5, "velocity": 0.5511811, "rh": false},{ "note": 50, "duration":0.5, "velocity": 0.527559, "rh": false}]},{"acorde":[{ "note": 40, "duration":0.5, "velocity": 0.4645669, "rh": false}]},{"acorde":[{ "note": 59, "duration":0.5, "velocity": 0.6141732, "rh": false}]},{"acorde":[{ "note": 78, "duration":1.5, "velocity": 0.5669292, "rh": false},{ "note": 52, "duration":0.5, "velocity": 0.5354331, "rh": false}]},{"acorde":[{ "note": 47, "duration":0.5, "velocity": 0.4488189, "rh": false}]},{"acorde":[{ "note": 54, "duration":0.5, "velocity": 0.5590551, "rh": false}]},{"acorde":[{ "note": 74, "duration":3.5, "velocity": 0.5433071, "rh": false},{ "note": 50, "duration":0.5, "velocity": 0.480315, "rh": false}]},{"acorde":[{ "note": 43, "duration":0.5, "velocity": 0.4094488, "rh": false}]},{"acorde":[{ "note": 47, "duration":0.5, "velocity": 0.4488189, "rh": false}]},{"acorde":[{ "note": 59, "duration":1, "velocity": 0.7716535, "rh": true},{ "note": 50, "duration":0.5, "velocity": 0.503937, "rh": false}]},{"acorde":[{ "note": 47, "duration":0.5, "velocity": 0.4566929, "rh": false}]},{"acorde":[{ "note": 62, "duration":1, "velocity": 0.7874016, "rh": true},{ "note": 55, "duration":0.5, "velocity": 0.5511811, "rh": false}]},{"acorde":[{ "note": 50, "duration":0.5, "velocity": 0.480315, "rh": false}]},{"acorde":[{ "note": 64, "duration":2, "velocity": 0.7952756, "rh": true},{ "note": 40, "duration":0.5, "velocity": 0.4094488, "rh": false}]},{"acorde":[{ "note": 59, "duration":0.5, "velocity": 0.5511811, "rh": false}]},{"acorde":[{ "note": 52, "duration":0.5, "velocity": 0.503937, "rh": false}]},{"acorde":[{ "note": 47, "duration":0.5, "velocity": 0.4251969, "rh": false}]},{"acorde":[{ "note": 62, "duration":1, "velocity": 0.7637795, "rh": true},{ "note": 55, "duration":0.5, "velocity": 0.5433071, "rh": false}]},{"acorde":[{ "note": 47, "duration":0.5, "velocity": 0.4251969, "rh": false}]},{"acorde":[{ "note": 59, "duration":1, "velocity": 0.7480315, "rh": true},{ "note": 43, "duration":0.5, "velocity": 0.4094488, "rh": false}]},{"acorde":[{ "note": 50, "duration":0.25, "velocity": 0.503937, "rh": false}]},{"acorde":[{ "note": 52, "duration":0.25, "velocity": 0.527559, "rh": false}]},{"acorde":[{ "note": 61, "duration":1, "velocity": 0.7716535, "rh": true},{ "note": 45, "duration":0.5, "velocity": 0.4173228, "rh": false}]},{"acorde":[{ "note": 52, "duration":0.5, "velocity": 0.5354331, "rh": false}]},{"acorde":[{ "note": 57, "duration":1, "velocity": 0.7322835, "rh": true},{ "note": 45, "duration":0.5, "velocity": 0.480315, "rh": false},{ "note": 49, "duration":0.5, "velocity": 0.480315, "rh": false}]},{"acorde":[{ "note": 52, "duration":0.5, "velocity": 0.527559, "rh": false}]},{"acorde":[{ "note": 59, "duration":4, "velocity": 0.7716535, "rh": true},{ "note": 40, "duration":0.5, "velocity": 0.472441, "rh": false}]},{"acorde":[{ "note": 47, "duration":0.5, "velocity": 0.5511811, "rh": false}]},{"acorde":[{ "note": 79, "duration":1.5, "velocity": 0.5590551, "rh": false},{ "note": 50, "duration":0.5, "velocity": 0.6062992, "rh": false}]},{"acorde":[{ "note": 49, "duration":0.5, "velocity": 0.5826772, "rh": false}]},{"acorde":[{ "note": 57, "duration":0.5, "velocity": 0.6456693, "rh": false}]},{"acorde":[{ "note": 76, "duration":1.5, "velocity": 0.5511811, "rh": false},{ "note": 50, "duration":0.5, "velocity": 0.5590551, "rh": false}]},{"acorde":[{ "note": 40, "duration":0.5, "velocity": 0.472441, "rh": false}]},{"acorde":[{ "note": 59, "duration":0.5, "velocity": 0.6456693, "rh": false}]},{"acorde":[{ "note": 78, "duration":1.5, "velocity": 0.5669292, "rh": false},{ "note": 52, "duration":0.5, "velocity": 0.5826772, "rh": false}]},{"acorde":[{ "note": 47, "duration":0.5, "velocity": 0.496063, "rh": false}]},{"acorde":[{ "note": 54, "duration":0.5, "velocity": 0.6220472, "rh": false}]},{"acorde":[{ "note": 74, "duration":3.5, "velocity": 0.5433071, "rh": false},{ "note": 52, "duration":0.5, "velocity": 0.5748032, "rh": false}]},{"acorde":[{ "note": 40, "duration":0.5, "velocity": 0.472441, "rh": false}]},{"acorde":[{ "note": 59, "duration":0.5, "velocity": 0.6456693, "rh": false}]},{"acorde":[{ "note": 50, "duration":0.5, "velocity": 0.5433071, "rh": false}]},{"acorde":[{ "note": 49, "duration":0.5, "velocity": 0.527559, "rh": false}]},{"acorde":[{ "note": 57, "duration":0.5, "velocity": 0.6377953, "rh": false}]},{"acorde":[{ "note": 50, "duration":0.5, "velocity": 0.519685, "rh": false}]},{"acorde":[{ "note": 40, "duration":0.5, "velocity": 0.4645669, "rh": false}]},{"acorde":[{ "note": 59, "duration":0.5, "velocity": 0.6062992, "rh": false}]},{"acorde":[{ "note": 52, "duration":0.5, "velocity": 0.5354331, "rh": false}]},{"acorde":[{ "note": 47, "duration":0.5, "velocity": 0.4409449, "rh": false}]},{"acorde":[{ "note": 64, "duration":1, "velocity": 0.7716535, "rh": true},{ "note": 54, "duration":0.5, "velocity": 0.5511811, "rh": false}]},{"acorde":[{ "note": 52, "duration":0.5, "velocity": 0.488189, "rh": false}]},{"acorde":[{ "note": 64, "duration":2, "velocity": 0.8897638, "rh": true},{ "note": 40, "duration":0.5, "velocity": 0.4094488, "rh": false}]},{"acorde":[{ "note": 59, "duration":0.5, "velocity": 0.5669292, "rh": false}]},{"acorde":[{ "note": 52, "duration":0.5, "velocity": 0.527559, "rh": false}]},{"acorde":[{ "note": 47, "duration":0.5, "velocity": 0.4645669, "rh": false}]},{"acorde":[{ "note": 64, "duration":1, "velocity": 0.8897638, "rh": true},{ "note": 40, "duration":0.5, "velocity": 0.4645669, "rh": false}]},{"acorde":[{ "note": 42, "duration":0.5, "velocity": 0.488189, "rh": false}]},{"acorde":[{ "note": 62, "duration":2, "velocity": 0.8740157, "rh": true},{ "note": 43, "duration":0.5, "velocity": 0.511811, "rh": false}]},{"acorde":[{ "note": 59, "duration":0.5, "velocity": 0.6456693, "rh": false}]},{"acorde":[{ "note": 50, "duration":0.5, "velocity": 0.5905512, "rh": false}]},{"acorde":[{ "note": 47, "duration":0.5, "velocity": 0.527559, "rh": false}]},{"acorde":[{ "note": 59, "duration":1, "velocity": 0.8661417, "rh": true},{ "note": 55, "duration":0.5, "velocity": 0.6456693, "rh": false}]},{"acorde":[{ "note": 50, "duration":0.5, "velocity": 0.5590551, "rh": false}]},{"acorde":[{ "note": 59, "duration":1, "velocity": 0.9133858, "rh": true},{ "note": 43, "duration":0.5, "velocity": 0.472441, "rh": false}]},{"acorde":[{ "note": 47, "duration":0.5, "velocity": 0.5354331, "rh": false}]},{"acorde":[{ "note": 57, "duration":1, "velocity": 0.9291338, "rh": true},{ "note": 42, "duration":0.5, "velocity": 0.480315, "rh": false}]},{"acorde":[{ "note": 45, "duration":0.5, "velocity": 0.527559, "rh": false}]},{"acorde":[{ "note": 55, "duration":1, "velocity": 0.9606299, "rh": true},{ "note": 40, "duration":0.5, "velocity": 0.488189, "rh": false}]},{"acorde":[{ "note": 43, "duration":0.5, "velocity": 0.5354331, "rh": false}]},{"acorde":[{ "note": 54, "duration":1, "velocity": 0.8582677, "rh": true},{ "note": 38, "duration":0.5, "velocity": 0.488189, "rh": false}]},{"acorde":[{ "note": 50, "duration":0.5, "velocity": 0.6456693, "rh": false}]},{"acorde":[{ "note": 45, "duration":0.5, "velocity": 0.5826772, "rh": false}]},{"acorde":[{ "note": 50, "duration":0.5, "velocity": 0.6377953, "rh": false}]},{"acorde":[{ "note": 55, "duration":0.5, "velocity": 0.6614173, "rh": true},{ "note": 47, "duration":0.5, "velocity": 0.5905512, "rh": false}]},{"acorde":[{ "note": 54, "duration":0.5, "velocity": 0.6535433, "rh": true},{ "note": 45, "duration":0.5, "velocity": 0.5433071, "rh": false}]},{"acorde":[{ "note": 55, "duration":1, "velocity": 0.6692913, "rh": true},{ "note": 47, "duration":0.5, "velocity": 0.5826772, "rh": false}]},{"acorde":[{ "note": 38, "duration":0.5, "velocity": 0.472441, "rh": false}]},{"acorde":[{ "note": 54, "duration":2, "velocity": 0.6535433, "rh": true},{ "note": 45, "duration":1, "velocity": 0.5669292, "rh": false}]},{"acorde":[{ "note": 38, "duration":1, "velocity": 0.496063, "rh": false}]},{"acorde":[{ "note": 52, "duration":1.5, "velocity": 0.7559055, "rh": true},{ "note": 40, "duration":0.5, "velocity": 0.5433071, "rh": false}]},{"acorde":[{ "note": 59, "duration":0.5, "velocity": 0.6456693, "rh": false}]},{"acorde":[{ "note": 52, "duration":0.5, "velocity": 0.6220472, "rh": false}]},{"acorde":[{ "note": 47, "duration":0.5, "velocity": 0.5354331, "rh": false}]},{"acorde":[{ "note": 59, "duration":1, "velocity": 0.7952756, "rh": true},{ "note": 0, "duration":0.5, "velocity": 0.7, "rh": false}]},{"acorde":[{ "note": 50, "duration":0.5, "velocity": 0.5748032, "rh": false}]},{"acorde":[{ "note": 57, "duration":2, "velocity": 0.7716535, "rh": true},{ "note": 54, "duration":2, "velocity": 0.5590551, "rh": false},{ "note": 38, "duration":0.5, "velocity": 0.480315, "rh": false}]},{"acorde":[{ "note": 50, "duration":0.5, "velocity": 0.6141732, "rh": false}]},{"acorde":[{ "note": 45, "duration":0.5, "velocity": 0.527559, "rh": false}]},{"acorde":[{ "note": 50, "duration":0.5, "velocity": 0.6141732, "rh": false}]},{"acorde":[{ "note": 55, "duration":1, "velocity": 0.7559055, "rh": true},{ "note": 47, "duration":1, "velocity": 0.5590551, "rh": false}]},{"acorde":[{ "note": 54, "duration":1, "velocity": 0.7559055, "rh": true},{ "note": 38, "duration":0.5, "velocity": 0.5354331, "rh": false},{ "note": 45, "duration":0.5, "velocity": 0.5354331, "rh": false}]},{"acorde":[{ "note": 50, "duration":0.5, "velocity": 0.6062992, "rh": false}]},{"acorde":[{ "note": 52, "duration":1, "velocity": 0.7480315, "rh": true},{ "note": 45, "duration":0.25, "velocity": 0.527559, "rh": false}]},{"acorde":[{ "note": 47, "duration":0.25, "velocity": 0.5590551, "rh": false}]},{"acorde":[{ "note": 45, "duration":0.5, "velocity": 0.527559, "rh": false}]},{"acorde":[{ "note": 50, "duration":1, "velocity": 0.7401575, "rh": true},{ "note": 38, "duration":1, "velocity": 0.488189, "rh": false},{ "note": 42, "duration":1, "velocity": 0.488189, "rh": false}]},{"acorde":[{ "note": 52, "duration":4.5, "velocity": 0.7716535, "rh": true},{ "note": 79, "duration":1.5, "velocity": 0.5590551, "rh": false},{ "note": 40, "duration":0.5, "velocity": 0.496063, "rh": false}]},{"acorde":[{ "note": 59, "duration":0.5, "velocity": 0.6456693, "rh": false}]},{"acorde":[{ "note": 50, "duration":0.5, "velocity": 0.5984252, "rh": false}]},{"acorde":[{ "note": 76, "duration":1.5, "velocity": 0.5511811, "rh": false},{ "note": 49, "duration":0.5, "velocity": 0.5669292, "rh": false}]},{"acorde":[{ "note": 57, "duration":0.5, "velocity": 0.6456693, "rh": false}]},{"acorde":[{ "note": 50, "duration":0.5, "velocity": 0.5433071, "rh": false}]},{"acorde":[{ "note": 78, "duration":1.5, "velocity": 0.5669292, "rh": false},{ "note": 40, "duration":0.5, "velocity": 0.472441, "rh": false}]},{"acorde":[{ "note": 59, "duration":0.5, "velocity": 0.6456693, "rh": false}]},{"acorde":[{ "note": 52, "duration":0.5, "velocity": 0.5748032, "rh": false}]},{"acorde":[{ "note": 74, "duration":4.5, "velocity": 0.5433071, "rh": false},{ "note": 47, "duration":0.5, "velocity": 0.496063, "rh": false}]},{"acorde":[{ "note": 54, "duration":0.5, "velocity": 0.6141732, "rh": false}]},{"acorde":[{ "note": 52, "duration":0.5, "velocity": 0.5748032, "rh": false}]},{"acorde":[{ "note": 40, "duration":0.5, "velocity": 0.472441, "rh": false}]},{"acorde":[{ "note": 59, "duration":0.5, "velocity": 0.6456693, "rh": false}]},{"acorde":[{ "note": 50, "duration":0.5, "velocity": 0.5433071, "rh": false}]},{"acorde":[{ "note": 49, "duration":0.5, "velocity": 0.527559, "rh": false}]},{"acorde":[{ "note": 57, "duration":0.5, "velocity": 0.6377953, "rh": false}]},{"acorde":[{ "note": 50, "duration":0.5, "velocity": 0.527559, "rh": false}]},{"acorde":[{ "note": 40, "duration":0.5, "velocity": 0.472441, "rh": false}]},{"acorde":[{ "note": 59, "duration":0.5, "velocity": 0.6456693, "rh": false}]},{"acorde":[{ "note": 52, "duration":0.5, "velocity": 0.5748032, "rh": false}]},{"acorde":[{ "note": 47, "duration":0.5, "velocity": 0.496063, "rh": false}]},{"acorde":[{ "note": 54, "duration":0.5, "velocity": 0.6141732, "rh": false}]},{"acorde":[{ "note": 52, "duration":0.5, "velocity": 0.5748032, "rh": false}]},{"acorde":[{ "note": 52, "duration":2, "velocity": 0.7716535, "rh": true},{ "note": 40, "duration":0.5, "velocity": 0.4094488, "rh": false}]},{"acorde":[{ "note": 59, "duration":0.5, "velocity": 0.5511811, "rh": false}]},{"acorde":[{ "note": 50, "duration":0.5, "velocity": 0.4645669, "rh": false}]},{"acorde":[{ "note": 49, "duration":0.5, "velocity": 0.4488189, "rh": false}]},{"acorde":[{ "note": 52, "duration":1, "velocity": 0.7716535, "rh": true},{ "note": 57, "duration":0.5, "velocity": 0.5511811, "rh": false}]},{"acorde":[{ "note": 50, "duration":0.5, "velocity": 0.4488189, "rh": false}]},{"acorde":[{ "note": 59, "duration":0.5, "velocity": 0.8503937, "rh": true},{ "note": 40, "duration":0.5, "velocity": 0.4094488, "rh": false}]},{"acorde":[{ "note": 59, "duration":0.5, "velocity": 0.8188977, "rh": true},{ "note": 59, "duration":0.5, "velocity": 0.5511811, "rh": false}]},{"acorde":[{ "note": 52, "duration":0.5, "velocity": 0.496063, "rh": false}]},{"acorde":[{ "note": 47, "duration":0.5, "velocity": 0.4251969, "rh": false}]},{"acorde":[{ "note": 54, "duration":0.5, "velocity": 0.527559, "rh": false}]},{"acorde":[{ "note": 59, "duration":0.5, "velocity": 0.8110236, "rh": true},{ "note": 50, "duration":0.5, "velocity": 0.4645669, "rh": false}]},{"acorde":[{ "note": 54, "duration":1.5, "velocity": 0.7401575, "rh": true},{ "note": 38, "duration":0.5, "velocity": 0.4094488, "rh": false}]},{"acorde":[{ "note": 50, "duration":0.5, "velocity": 0.511811, "rh": false}]},{"acorde":[{ "note": 45, "duration":0.5, "velocity": 0.4330709, "rh": false}]},{"acorde":[{ "note": 55, "duration":0.5, "velocity": 0.7874016, "rh": true},{ "note": 47, "duration":0.5, "velocity": 0.472441, "rh": false}]},{"acorde":[{ "note": 54, "duration":1, "velocity": 0.7637795, "rh": true},{ "note": 45, "duration":0.5, "velocity": 0.4488189, "rh": false}]},{"acorde":[{ "note": 50, "duration":0.5, "velocity": 0.527559, "rh": false}]},{"acorde":[{ "note": 52, "duration":4.5, "velocity": 0.7401575, "rh": true},{ "note": 40, "duration":0.5, "velocity": 0.480315, "rh": false}]},{"acorde":[{ "note": 59, "duration":0.5, "velocity": 0.6456693, "rh": false}]},{"acorde":[{ "note": 79, "duration":1.5, "velocity": 0.5590551, "rh": false},{ "note": 50, "duration":0.5, "velocity": 0.5826772, "rh": false}]},{"acorde":[{ "note": 49, "duration":0.5, "velocity": 0.5590551, "rh": false}]},{"acorde":[{ "note": 57, "duration":0.5, "velocity": 0.6456693, "rh": false}]},{"acorde":[{ "note": 76, "duration":1.5, "velocity": 0.5511811, "rh": false},{ "note": 50, "duration":0.5, "velocity": 0.527559, "rh": false}]},{"acorde":[{ "note": 40, "duration":0.5, "velocity": 0.4645669, "rh": false}]},{"acorde":[{ "note": 59, "duration":0.5, "velocity": 0.6141732, "rh": false}]},{"acorde":[{ "note": 78, "duration":1.5, "velocity": 0.5669292, "rh": false},{ "note": 52, "duration":0.5, "velocity": 0.5354331, "rh": false}]},{"acorde":[{ "note": 47, "duration":0.5, "velocity": 0.4488189, "rh": false}]},{"acorde":[{ "note": 54, "duration":0.5, "velocity": 0.5590551, "rh": false}]},{"acorde":[{ "note": 74, "duration":3.5, "velocity": 0.5433071, "rh": false},{ "note": 50, "duration":0.5, "velocity": 0.480315, "rh": false}]},{"acorde":[{ "note": 43, "duration":0.5, "velocity": 0.4094488, "rh": false}]},{"acorde":[{ "note": 47, "duration":0.5, "velocity": 0.4488189, "rh": false}]},{"acorde":[{ "note": 59, "duration":1, "velocity": 0.7716535, "rh": true},{ "note": 50, "duration":0.5, "velocity": 0.503937, "rh": false}]},{"acorde":[{ "note": 47, "duration":0.5, "velocity": 0.4566929, "rh": false}]},{"acorde":[{ "note": 62, "duration":1, "velocity": 0.7874016, "rh": true},{ "note": 55, "duration":0.5, "velocity": 0.5511811, "rh": false}]},{"acorde":[{ "note": 50, "duration":0.5, "velocity": 0.480315, "rh": false}]},{"acorde":[{ "note": 64, "duration":2, "velocity": 0.7952756, "rh": true},{ "note": 40, "duration":0.5, "velocity": 0.4094488, "rh": false}]},{"acorde":[{ "note": 59, "duration":0.5, "velocity": 0.5511811, "rh": false}]},{"acorde":[{ "note": 52, "duration":0.5, "velocity": 0.503937, "rh": false}]},{"acorde":[{ "note": 47, "duration":0.5, "velocity": 0.4251969, "rh": false}]},{"acorde":[{ "note": 62, "duration":1, "velocity": 0.7637795, "rh": true},{ "note": 55, "duration":0.5, "velocity": 0.5433071, "rh": false}]},{"acorde":[{ "note": 47, "duration":0.5, "velocity": 0.4251969, "rh": false}]},{"acorde":[{ "note": 59, "duration":1, "velocity": 0.7480315, "rh": true},{ "note": 43, "duration":0.5, "velocity": 0.4094488, "rh": false}]},{"acorde":[{ "note": 50, "duration":0.25, "velocity": 0.503937, "rh": false}]},{"acorde":[{ "note": 52, "duration":0.25, "velocity": 0.527559, "rh": false}]},{"acorde":[{ "note": 61, "duration":1, "velocity": 0.7716535, "rh": true},{ "note": 45, "duration":0.5, "velocity": 0.4173228, "rh": false}]},{"acorde":[{ "note": 52, "duration":0.5, "velocity": 0.5354331, "rh": false}]},{"acorde":[{ "note": 57, "duration":1, "velocity": 0.7322835, "rh": true},{ "note": 45, "duration":0.5, "velocity": 0.480315, "rh": false},{ "note": 49, "duration":0.5, "velocity": 0.480315, "rh": false}]},{"acorde":[{ "note": 52, "duration":0.5, "velocity": 0.527559, "rh": false}]},{"acorde":[{ "note": 59, "duration":4, "velocity": 0.7716535, "rh": true},{ "note": 40, "duration":0.5, "velocity": 0.472441, "rh": false}]},{"acorde":[{ "note": 47, "duration":0.5, "velocity": 0.5511811, "rh": false}]},{"acorde":[{ "note": 79, "duration":1.5, "velocity": 0.5590551, "rh": false},{ "note": 50, "duration":0.5, "velocity": 0.6062992, "rh": false}]},{"acorde":[{ "note": 49, "duration":0.5, "velocity": 0.5826772, "rh": false}]},{"acorde":[{ "note": 57, "duration":0.5, "velocity": 0.6456693, "rh": false}]},{"acorde":[{ "note": 76, "duration":1.5, "velocity": 0.5511811, "rh": false},{ "note": 50, "duration":0.5, "velocity": 0.5590551, "rh": false}]},{"acorde":[{ "note": 40, "duration":0.5, "velocity": 0.472441, "rh": false}]},{"acorde":[{ "note": 59, "duration":0.5, "velocity": 0.6456693, "rh": false}]},{"acorde":[{ "note": 78, "duration":1.5, "velocity": 0.5669292, "rh": false},{ "note": 52, "duration":0.5, "velocity": 0.5826772, "rh": false}]},{"acorde":[{ "note": 47, "duration":0.5, "velocity": 0.496063, "rh": false}]},{"acorde":[{ "note": 54, "duration":0.5, "velocity": 0.6220472, "rh": false}]},{"acorde":[{ "note": 74, "duration":3.5, "velocity": 0.5433071, "rh": false},{ "note": 52, "duration":0.5, "velocity": 0.5748032, "rh": false}]},{"acorde":[{ "note": 40, "duration":0.5, "velocity": 0.472441, "rh": false}]},{"acorde":[{ "note": 59, "duration":0.5, "velocity": 0.6456693, "rh": false}]},{"acorde":[{ "note": 50, "duration":0.5, "velocity": 0.5433071, "rh": false}]},{"acorde":[{ "note": 49, "duration":0.5, "velocity": 0.527559, "rh": false}]},{"acorde":[{ "note": 57, "duration":0.5, "velocity": 0.6377953, "rh": false}]},{"acorde":[{ "note": 50, "duration":0.5, "velocity": 0.519685, "rh": false}]},{"acorde":[{ "note": 40, "duration":0.5, "velocity": 0.4645669, "rh": false}]},{"acorde":[{ "note": 59, "duration":0.5, "velocity": 0.6062992, "rh": false}]},{"acorde":[{ "note": 52, "duration":0.5, "velocity": 0.5354331, "rh": false}]},{"acorde":[{ "note": 47, "duration":0.5, "velocity": 0.4409449, "rh": false}]},{"acorde":[{ "note": 64, "duration":1, "velocity": 0.7716535, "rh": true},{ "note": 54, "duration":0.5, "velocity": 0.5511811, "rh": false}]},{"acorde":[{ "note": 52, "duration":0.5, "velocity": 0.488189, "rh": false}]},{"acorde":[{ "note": 64, "duration":2, "velocity": 0.8897638, "rh": true},{ "note": 40, "duration":0.5, "velocity": 0.4094488, "rh": false}]},{"acorde":[{ "note": 59, "duration":0.5, "velocity": 0.5669292, "rh": false}]},{"acorde":[{ "note": 52, "duration":0.5, "velocity": 0.527559, "rh": false}]},{"acorde":[{ "note": 47, "duration":0.5, "velocity": 0.4645669, "rh": false}]},{"acorde":[{ "note": 64, "duration":1, "velocity": 0.8897638, "rh": true},{ "note": 40, "duration":0.5, "velocity": 0.4645669, "rh": false}]},{"acorde":[{ "note": 42, "duration":0.5, "velocity": 0.488189, "rh": false}]},{"acorde":[{ "note": 62, "duration":2, "velocity": 0.8740157, "rh": true},{ "note": 43, "duration":0.5, "velocity": 0.511811, "rh": false}]},{"acorde":[{ "note": 59, "duration":0.5, "velocity": 0.6456693, "rh": false}]},{"acorde":[{ "note": 50, "duration":0.5, "velocity": 0.5905512, "rh": false}]},{"acorde":[{ "note": 47, "duration":0.5, "velocity": 0.527559, "rh": false}]},{"acorde":[{ "note": 59, "duration":1, "velocity": 0.8661417, "rh": true},{ "note": 55, "duration":0.5, "velocity": 0.6456693, "rh": false}]},{"acorde":[{ "note": 50, "duration":0.5, "velocity": 0.5590551, "rh": false}]},{"acorde":[{ "note": 59, "duration":1, "velocity": 0.9133858, "rh": true},{ "note": 43, "duration":0.5, "velocity": 0.472441, "rh": false}]},{"acorde":[{ "note": 47, "duration":0.5, "velocity": 0.5354331, "rh": false}]},{"acorde":[{ "note": 57, "duration":1, "velocity": 0.9291338, "rh": true},{ "note": 42, "duration":0.5, "velocity": 0.480315, "rh": false}]},{"acorde":[{ "note": 45, "duration":0.5, "velocity": 0.527559, "rh": false}]},{"acorde":[{ "note": 55, "duration":1, "velocity": 0.9606299, "rh": true},{ "note": 40, "duration":0.5, "velocity": 0.488189, "rh": false}]},{"acorde":[{ "note": 43, "duration":0.5, "velocity": 0.5354331, "rh": false}]},{"acorde":[{ "note": 54, "duration":1, "velocity": 0.8582677, "rh": true},{ "note": 38, "duration":0.5, "velocity": 0.488189, "rh": false}]},{"acorde":[{ "note": 50, "duration":0.5, "velocity": 0.6456693, "rh": false}]},{"acorde":[{ "note": 45, "duration":0.5, "velocity": 0.5826772, "rh": false}]},{"acorde":[{ "note": 50, "duration":0.5, "velocity": 0.6377953, "rh": false}]},{"acorde":[{ "note": 55, "duration":0.5, "velocity": 0.6614173, "rh": true},{ "note": 47, "duration":0.5, "velocity": 0.5905512, "rh": false}]},{"acorde":[{ "note": 54, "duration":0.5, "velocity": 0.6535433, "rh": true},{ "note": 45, "duration":0.5, "velocity": 0.5433071, "rh": false}]},{"acorde":[{ "note": 55, "duration":1, "velocity": 0.6692913, "rh": true},{ "note": 47, "duration":0.5, "velocity": 0.5826772, "rh": false}]},{"acorde":[{ "note": 38, "duration":0.5, "velocity": 0.472441, "rh": false}]},{"acorde":[{ "note": 54, "duration":2, "velocity": 0.6535433, "rh": true},{ "note": 45, "duration":1, "velocity": 0.5669292, "rh": false}]},{"acorde":[{ "note": 38, "duration":1, "velocity": 0.496063, "rh": false}]},{"acorde":[{ "note": 52, "duration":1.5, "velocity": 0.7559055, "rh": true},{ "note": 40, "duration":0.5, "velocity": 0.5433071, "rh": false}]},{"acorde":[{ "note": 59, "duration":0.5, "velocity": 0.6456693, "rh": false}]},{"acorde":[{ "note": 52, "duration":0.5, "velocity": 0.6220472, "rh": false}]},{"acorde":[{ "note": 47, "duration":0.5, "velocity": 0.5354331, "rh": false}]},{"acorde":[{ "note": 59, "duration":1, "velocity": 0.7952756, "rh": true},{ "note": 0, "duration":0.5, "velocity": 0.7, "rh": false}]},{"acorde":[{ "note": 50, "duration":0.5, "velocity": 0.5748032, "rh": false}]},{"acorde":[{ "note": 57, "duration":2, "velocity": 0.7716535, "rh": true},{ "note": 54, "duration":2, "velocity": 0.5590551, "rh": false},{ "note": 38, "duration":0.5, "velocity": 0.480315, "rh": false}]},{"acorde":[{ "note": 50, "duration":0.5, "velocity": 0.6141732, "rh": false}]},{"acorde":[{ "note": 45, "duration":0.5, "velocity": 0.527559, "rh": false}]},{"acorde":[{ "note": 50, "duration":0.5, "velocity": 0.6141732, "rh": false}]},{"acorde":[{ "note": 55, "duration":1, "velocity": 0.7559055, "rh": true},{ "note": 47, "duration":1, "velocity": 0.5590551, "rh": false}]},{"acorde":[{ "note": 54, "duration":1, "velocity": 0.7559055, "rh": true},{ "note": 38, "duration":0.5, "velocity": 0.5354331, "rh": false},{ "note": 45, "duration":0.5, "velocity": 0.5354331, "rh": false}]},{"acorde":[{ "note": 50, "duration":0.5, "velocity": 0.6062992, "rh": false}]},{"acorde":[{ "note": 52, "duration":1, "velocity": 0.7480315, "rh": true},{ "note": 45, "duration":0.25, "velocity": 0.527559, "rh": false}]},{"acorde":[{ "note": 47, "duration":0.25, "velocity": 0.5590551, "rh": false}]},{"acorde":[{ "note": 45, "duration":0.5, "velocity": 0.527559, "rh": false}]},{"acorde":[{ "note": 50, "duration":1, "velocity": 0.7401575, "rh": true},{ "note": 38, "duration":1, "velocity": 0.488189, "rh": false},{ "note": 42, "duration":1, "velocity": 0.488189, "rh": false}]},{"acorde":[{ "note": 52, "duration":4.5, "velocity": 0.7716535, "rh": true},{ "note": 79, "duration":1.5, "velocity": 0.5590551, "rh": false},{ "note": 40, "duration":0.5, "velocity": 0.496063, "rh": false}]},{"acorde":[{ "note": 59, "duration":0.5, "velocity": 0.6456693, "rh": false}]},{"acorde":[{ "note": 50, "duration":0.5, "velocity": 0.5984252, "rh": false}]},{"acorde":[{ "note": 76, "duration":1.5, "velocity": 0.5511811, "rh": false},{ "note": 49, "duration":0.5, "velocity": 0.5669292, "rh": false}]},{"acorde":[{ "note": 57, "duration":0.5, "velocity": 0.6456693, "rh": false}]},{"acorde":[{ "note": 50, "duration":0.5, "velocity": 0.5433071, "rh": false}]},{"acorde":[{ "note": 78, "duration":1.5, "velocity": 0.5669292, "rh": false},{ "note": 40, "duration":0.5, "velocity": 0.472441, "rh": false}]},{"acorde":[{ "note": 59, "duration":0.5, "velocity": 0.6456693, "rh": false}]},{"acorde":[{ "note": 52, "duration":0.5, "velocity": 0.5748032, "rh": false}]},{"acorde":[{ "note": 74, "duration":4.5, "velocity": 0.5433071, "rh": false},{ "note": 47, "duration":0.5, "velocity": 0.496063, "rh": false}]},{"acorde":[{ "note": 54, "duration":0.5, "velocity": 0.6141732, "rh": false}]},{"acorde":[{ "note": 52, "duration":0.5, "velocity": 0.5748032, "rh": false}]},{"acorde":[{ "note": 40, "duration":0.5, "velocity": 0.472441, "rh": false}]},{"acorde":[{ "note": 59, "duration":0.5, "velocity": 0.6456693, "rh": false}]},{"acorde":[{ "note": 50, "duration":0.5, "velocity": 0.5433071, "rh": false}]},{"acorde":[{ "note": 49, "duration":0.5, "velocity": 0.527559, "rh": false}]},{"acorde":[{ "note": 57, "duration":0.5, "velocity": 0.6377953, "rh": false}]},{"acorde":[{ "note": 50, "duration":0.5, "velocity": 0.527559, "rh": false}]},{"acorde":[{ "note": 40, "duration":0.5, "velocity": 0.472441, "rh": false}]},{"acorde":[{ "note": 59, "duration":0.5, "velocity": 0.6456693, "rh": false}]},{"acorde":[{ "note": 52, "duration":0.5, "velocity": 0.5748032, "rh": false}]},{"acorde":[{ "note": 47, "duration":0.5, "velocity": 0.496063, "rh": false}]},{"acorde":[{ "note": 54, "duration":0.5, "velocity": 0.6141732, "rh": false}]},{"acorde":[{ "note": 52, "duration":0.5, "velocity": 0.5748032, "rh": false}]},{"acorde":[{ "note": 40, "duration":0.5, "velocity": 0.472441, "rh": false}]},{"acorde":[{ "note": 59, "duration":0.5, "velocity": 0.6456693, "rh": false}]},{"acorde":[{ "note": 50, "duration":0.5, "velocity": 0.5433071, "rh": false}]},{"acorde":[{ "note": 49, "duration":0.5, "velocity": 0.527559, "rh": false}]},{"acorde":[{ "note": 57, "duration":0.5, "velocity": 0.6377953, "rh": false}]},{"acorde":[{ "note": 50, "duration":0.5, "velocity": 0.527559, "rh": false}]},{"acorde":[{ "note": 45, "duration":0.5, "velocity": 0.472441, "rh": false}]},{"acorde":[{ "note": 59, "duration":0.5, "velocity": 0.6456693, "rh": false}]},{"acorde":[{ "note": 50, "duration":0.5, "velocity": 0.519685, "rh": false}]},{"acorde":[{ "note": 49, "duration":0.5, "velocity": 0.511811, "rh": false}]},{"acorde":[{ "note": 57, "duration":0.5, "velocity": 0.6377953, "rh": false}]},{"acorde":[{ "note": 50, "duration":0.5, "velocity": 0.519685, "rh": false}]},{"acorde":[{ "note": 43, "duration":0.5, "velocity": 0.472441, "rh": false}]},{"acorde":[{ "note": 54, "duration":0.5, "velocity": 0.6220472, "rh": false},{"note": 100, "duration":0, "velocity": 95, "rh": false}]},{"acorde":[{ "note": 50, "duration":1, "velocity": 0.5511811, "rh": false},{"note": 100, "duration":0, "velocity": 80, "rh": false}]},{"acorde":[{ "note": 42, "duration":1, "velocity": 0.480315, "rh": false},{"note": 100, "duration":0, "velocity": 65, "rh": false}]},{"acorde":[{ "note": 40, "duration":3, "velocity": 0.4251969, "rh": false}]}]}