{"Secuencia": [{"title":"Twinkle twinkle"},{"acorde":[{"note": 100, "duration":0,"velocity": 70,"rh": false}]},{"acorde":[{ "note": 48, "duration":0.5, "velocity": 0.7716535, "rh": true},{ "note": 36, "duration":0.5, "velocity": 0.6614173, "rh": false}]},{"acorde":[{ "note": 43, "duration":0.5, "velocity": 0.6929134, "rh": false}]},{"acorde":[{ "note": 48, "duration":1, "velocity": 0.7716535, "rh": true},{ "note": 40, "duration":0.5, "velocity": 0.6614173, "rh": false}]},{"acorde":[{ "note": 43, "duration":0.5, "velocity": 0.6929134, "rh": false}]},{"acorde":[{ "note": 55, "duration":0.5, "velocity": 0.8346457, "rh": true},{ "note": 36, "duration":0.5, "velocity": 0.6141732, "rh": false}]},{"acorde":[{ "note": 43, "duration":0.5, "velocity": 0.7165354, "rh": false}]},{"acorde":[{ "note": 55, "duration":1, "velocity": 0.8031496, "rh": true},{ "note": 40, "duration":0.5, "velocity": 0.6535433, "rh": false}]},{"acorde":[{ "note": 43, "duration":0.5, "velocity": 0.7007874, "rh": false}]},{"acorde":[{ "note": 57, "duration":0.5, "velocity": 0.8110236, "rh": true},{ "note": 36, "duration":0.5, "velocity": 0.5984252, "rh": false}]},{"acorde":[{ "note": 45, "duration":0.5, "velocity": 0.7401575, "rh": false}]},{"acorde":[{ "note": 57, "duration":1, "velocity": 0.7874016, "rh": true},{ "note": 41, "duration":0.5, "velocity": 0.6535433, "rh": false}]},{"acorde":[{ "note": 45, "duration":0.5, "velocity": 0.7244095, "rh": false}]},{"acorde":[{ "note": 55, "duration":2, "velocity": 0.7559055, "rh": true},{ "note": 36, "duration":0.5, "velocity": 0.5905512, "rh": false}]},{"acorde":[{ "note": 43, "duration":0.5, "velocity": 0.7007874, "rh": false}]},{"acorde":[{ "note": 40, "duration":0.5, "velocity": 0.6377953, "rh": false}]},{"acorde":[{ "note": 43, "duration":0.5, "velocity": 0.6929134, "rh": false}]},{"acorde":[{ "note": 53, "duration":0.5, "velocity": 0.7716535, "rh": true},{ "note": 38, "duration":0.5, "velocity": 0.6141732, "rh": false}]},{"acorde":[{ "note": 41, "duration":0.5, "velocity": 0.6692913, "rh": false}]},{"acorde":[{ "note": 53, "duration":1, "velocity": 0.7716535, "rh": true},{ "note": 35, "duration":0.5, "velocity": 0.5984252, "rh": false}]},{"acorde":[{ "note": 41, "duration":0.5, "velocity": 0.6929134, "rh": false}]},{"acorde":[{ "note": 52, "duration":0.5, "velocity": 0.7795275, "rh": true},{ "note": 36, "duration":0.5, "velocity": 0.6220472, "rh": false}]},{"acorde":[{ "note": 40, "duration":0.5, "velocity": 0.6850393, "rh": false}]},{"acorde":[{ "note": 52, "duration":1, "velocity": 0.7716535, "rh": true},{ "note": 31, "duration":0.5, "velocity": 0.5984252, "rh": false}]},{"acorde":[{ "note": 40, "duration":0.5, "velocity": 0.7086614, "rh": false}]},{"acorde":[{ "note": 50, "duration":0.5, "velocity": 0.7637795, "rh": true},{ "note": 33, "duration":0.5, "velocity": 0.6141732, "rh": false}]},{"acorde":[{ "note": 41, "duration":0.5, "velocity": 0.7322835, "rh": false}]},{"acorde":[{ "note": 50, "duration":1, "velocity": 0.8267717, "rh": true},{ "note": 35, "duration":0.5, "velocity": 0.6377953, "rh": false}]},{"acorde":[{ "note": 41, "duration":0.5, "velocity": 0.7244095, "rh": false}]},{"acorde":[{ "note": 48, "duration":2, "velocity": 0.8661417, "rh": true},{ "note": 36, "duration":2, "velocity": 0.6929134, "rh": false},{ "note": 40, "duration":2, "velocity": 0.6929134, "rh": false}]},{"acorde":[{ "note": 55, "duration":0.5, "velocity": 0.6929134, "rh": true},{ "note": 48, "duration":1.5, "velocity": 0.5590551, "rh": false},{ "note": 40, "duration":0.5, "velocity": 0.5669292, "rh": false}]},{"acorde":[{ "note": 43, "duration":0.5, "velocity": 0.5826772, "rh": false}]},{"acorde":[{ "note": 55, "duration":1, "velocity": 0.6771653, "rh": true},{ "note": 40, "duration":0.5, "velocity": 0.5511811, "rh": false}]},{"acorde":[{ "note": 48, "duration":0.5, "velocity": 0.5748032, "rh": false},{ "note": 43, "duration":0.5, "velocity": 0.5826772, "rh": false}]},{"acorde":[{ "note": 53, "duration":0.5, "velocity": 0.6771653, "rh": true},{ "note": 47, "duration":1, "velocity": 0.5669292, "rh": false},{ "note": 38, "duration":0.5, "velocity": 0.5354331, "rh": false}]},{"acorde":[{ "note": 43, "duration":0.5, "velocity": 0.6141732, "rh": false}]},{"acorde":[{ "note": 53, "duration":1, "velocity": 0.7007874, "rh": true},{ "note": 43, "duration":0.5, "velocity": 0.5590551, "rh": false},{ "note": 38, "duration":0.5, "velocity": 0.5511811, "rh": false}]},{"acorde":[{ "note": 43, "duration":0.5, "velocity": 0.6456693, "rh": false}]},{"acorde":[{ "note": 52, "duration":0.5, "velocity": 0.7165354, "rh": true},{ "note": 45, "duration":0.5, "velocity": 0.6141732, "rh": false},{ "note": 36, "duration":0.5, "velocity": 0.5590551, "rh": false}]},{"acorde":[{ "note": 43, "duration":0.5, "velocity": 0.6141732, "rh": false},{ "note": 43, "duration":0.5, "velocity": 0.6850393, "rh": false}]},{"acorde":[{ "note": 52, "duration":1, "velocity": 0.7401575, "rh": true},{ "note": 45, "duration":0.5, "velocity": 0.6456693, "rh": false},{ "note": 36, "duration":0.5, "velocity": 0.5905512, "rh": false}]},{"acorde":[{ "note": 48, "duration":0.5, "velocity": 0.7086614, "rh": false},{ "note": 43, "duration":0.5, "velocity": 0.7244095, "rh": false}]},{"acorde":[{ "note": 50, "duration":2, "velocity": 0.7559055, "rh": true},{ "note": 47, "duration":2, "velocity": 0.6850393, "rh": false},{ "note": 43, "duration":2, "velocity": 0.7086614, "rh": false}]},{"acorde":[{ "note": 55, "duration":0.5, "velocity": 0.6850393, "rh": true},{ "note": 48, "duration":1, "velocity": 0.5826772, "rh": false},{ "note": 52, "duration":1, "velocity": 0.5826772, "rh": false},{ "note": 40, "duration":0.5, "velocity": 0.5511811, "rh": false}]},{"acorde":[{ "note": 43, "duration":0.5, "velocity": 0.5748032, "rh": false}]},{"acorde":[{ "note": 55, "duration":1, "velocity": 0.6692913, "rh": true},{ "note": 48, "duration":0.5, "velocity": 0.5590551, "rh": false},{ "note": 40, "duration":0.5, "velocity": 0.5433071, "rh": false}]},{"acorde":[{ "note": 48, "duration":0.5, "velocity": 0.6220472, "rh": false}]},{"acorde":[{ "note": 53, "duration":0.5, "velocity": 0.6850393, "rh": true},{ "note": 50, "duration":1, "velocity": 0.5669292, "rh": false},{ "note": 38, "duration":0.5, "velocity": 0.511811, "rh": false}]},{"acorde":[{ "note": 41, "duration":0.5, "velocity": 0.5590551, "rh": false}]},{"acorde":[{ "note": 53, "duration":1, "velocity": 0.7086614, "rh": true},{ "note": 47, "duration":0.5, "velocity": 0.5669292, "rh": false},{ "note": 38, "duration":0.5, "velocity": 0.5433071, "rh": false}]},{"acorde":[{ "note": 47, "duration":0.5, "velocity": 0.6692913, "rh": false}]},{"acorde":[{ "note": 52, "duration":0.5, "velocity": 0.7322835, "rh": true},{ "note": 48, "duration":0.5, "velocity": 0.6062992, "rh": false},{ "note": 36, "duration":0.5, "velocity": 0.5433071, "rh": false}]},{"acorde":[{ "note": 47, "duration":0.5, "velocity": 0.6062992, "rh": false},{ "note": 40, "duration":0.5, "velocity": 0.6062992, "rh": false}]},{"acorde":[{ "note": 52, "duration":1, "velocity": 0.7716535, "rh": true},{ "note": 48, "duration":0.5, "velocity": 0.6377953, "rh": false},{ "note": 36, "duration":0.5, "velocity": 0.5826772, "rh": false}]},{"acorde":[{ "note": 45, "duration":0.5, "velocity": 0.6062992, "rh": false},{ "note": 48, "duration":0.5, "velocity": 0.7322835, "rh": false}]},{"acorde":[{ "note": 50, "duration":2, "velocity": 0.7559055, "rh": true},{ "note": 47, "duration":2, "velocity": 0.6614173, "rh": false},{ "note": 43, "duration":2, "velocity": 0.6850393, "rh": false}]},{"acorde":[{ "note": 48, "duration":0.5, "velocity": 0.7559055, "rh": true},{ "note": 36, "duration":0.5, "velocity": 0.5354331, "rh": false}]},{"acorde":[{ "note": 43, "duration":0.5, "velocity": 0.5905512, "rh": false}]},{"acorde":[{ "note": 48, "duration":0.5, "velocity": 0.7637795, "rh": true},{ "note": 40, "duration":0.5, "velocity": 0.5590551, "rh": false}]},{"acorde":[{ "note": 43, "duration":0.5, "velocity": 0.5984252, "rh": false}]},{"acorde":[{ "note": 55, "duration":0.5, "velocity": 0.8188977, "rh": true},{ "note": 36, "duration":0.5, "velocity": 0.527559, "rh": false}]},{"acorde":[{ "note": 43, "duration":0.5, "velocity": 0.6299213, "rh": false}]},{"acorde":[{ "note": 55, "duration":0.5, "velocity": 0.7952756, "rh": true},{ "note": 40, "duration":0.5, "velocity": 0.5826772, "rh": false}]},{"acorde":[{ "note": 43, "duration":0.5, "velocity": 0.6299213, "rh": false}]},{"acorde":[{ "note": 57, "duration":0.5, "velocity": 0.7952756, "rh": true},{ "note": 53, "duration":2, "velocity": 0.5984252, "rh": false},{ "note": 36, "duration":0.5, "velocity": 0.5433071, "rh": false}]},{"acorde":[{ "note": 45, "duration":0.5, "velocity": 0.6771653, "rh": false}]},{"acorde":[{ "note": 57, "duration":0.5, "velocity": 0.7795275, "rh": true},{ "note": 41, "duration":0.5, "velocity": 0.6141732, "rh": false}]},{"acorde":[{ "note": 45, "duration":0.5, "velocity": 0.6850393, "rh": false}]},{"acorde":[{ "note": 55, "duration":2, "velocity": 0.7559055, "rh": true},{ "note": 52, "duration":2, "velocity": 0.6220472, "rh": false},{ "note": 36, "duration":0.5, "velocity": 0.5590551, "rh": false}]},{"acorde":[{ "note": 43, "duration":0.5, "velocity": 0.6692913, "rh": false}]},{"acorde":[{ "note": 40, "duration":0.5, "velocity": 0.6220472, "rh": false}]},{"acorde":[{ "note": 43, "duration":0.5, "velocity": 0.6850393, "rh": false}]},{"acorde":[{ "note": 53, "duration":0.5, "velocity": 0.7559055, "rh": true},{ "note": 50, "duration":1, "velocity": 0.6535433, "rh": false},{ "note": 38, "duration":0.5, "velocity": 0.6141732, "rh": false}]},{"acorde":[{ "note": 41, "duration":0.5, "velocity": 0.6692913, "rh": false}]},{"acorde":[{ "note": 53, "duration":0.5, "velocity": 0.7637795, "rh": true},{ "note": 50, "duration":1, "velocity": 0.6614173, "rh": false},{ "note": 35, "duration":0.5, "velocity": 0.5984252, "rh": false}]},{"acorde":[{ "note": 41, "duration":0.5, "velocity": 0.6929134, "rh": false}]},{"acorde":[{ "note": 52, "duration":0.5, "velocity": 0.7637795, "rh": true},{ "note": 50, "duration":1, "velocity": 0.6614173, "rh": false},{ "note": 36, "duration":0.5, "velocity": 0.6220472, "rh": false}]},{"acorde":[{ "note": 40, "duration":0.5, "velocity": 0.6850393, "rh": false}]},{"acorde":[{ "note": 52, "duration":0.5, "velocity": 0.7637795, "rh": true},{ "note": 48, "duration":1, "velocity": 0.6456693, "rh": false},{ "note": 31, "duration":0.5, "velocity": 0.5984252, "rh": false}]},{"acorde":[{ "note": 40, "duration":0.5, "velocity": 0.7086614, "rh": false}]},{"acorde":[{ "note": 50, "duration":0.5, "velocity": 0.7559055, "rh": true},{ "note": 47, "duration":1, "velocity": 0.6456693, "rh": false},{ "note": 35, "duration":0.5, "velocity": 0.6377953, "rh": false}]},{"acorde":[{ "note": 38, "duration":0.5, "velocity": 0.7007874, "rh": false}]},{"acorde":[{ "note": 50, "duration":0.5, "velocity": 0.8188977, "rh": true},{ "note": 43, "duration":1, "velocity": 0.6692913, "rh": false},{ "note": 31, "duration":0.5, "velocity": 0.6535433, "rh": false}]},{"acorde":[{ "note": 41, "duration":0.5, "velocity": 0.8188977, "rh": false}]},{"acorde":[{ "note": 48, "duration":2, "velocity": 0.8661417, "rh": true},{ "note": 43, "duration":2, "velocity": 0.7559055, "rh": false},{ "note": 36, "duration":2, "velocity": 0.8267717, "rh": false},{ "note": 40, "duration":2, "velocity": 0.8267717, "rh": false}]}]}